<svg width="102" height="120" viewBox="0 0 102 120" fill="none" xmlns="http://www.w3.org/2000/svg">
<g filter="url(#filter0_d)">
<path fill-rule="evenodd" clip-rule="evenodd" d="M10.1088 81.2529C10.9207 81.7934 11.8386 82.05 12.7467 82.05C14.2798 82.05 15.7844 81.3155 16.7002 79.9571C24.3777 68.5685 37.2126 61.7688 51.0311 61.7688C64.81 61.7688 77.6224 68.5364 85.3063 79.8735C86.7713 82.0352 89.7234 82.6075 91.8998 81.1532C94.0775 79.7002 94.6553 76.7684 93.1903 74.6079C87.0519 65.5505 78.2508 58.8675 68.1939 55.292C74.2246 50.4013 78.0826 42.9639 78.0826 34.6486C78.0826 19.9549 66.0396 8 51.2376 8C36.4356 8 24.3926 19.9549 24.3926 34.6486C24.3926 42.9051 28.1936 50.2956 34.1515 55.1864C23.9361 58.7486 15.0036 65.5125 8.80346 74.7098C7.34353 76.8753 7.92858 79.8046 10.1088 81.2529ZM51.2376 17.4331C60.7998 17.4331 68.58 25.1566 68.58 34.6486C68.58 44.1405 60.7998 51.864 51.2376 51.864C41.6754 51.864 33.8953 44.1405 33.8953 34.6486C33.8953 25.1566 41.6754 17.4331 51.2376 17.4331ZM63.1023 96.5863L70.1859 91.5138C72.542 89.8259 71.3307 85.8231 68.4178 85.8231H59.6627C58.3595 85.8231 57.2053 85.3257 56.803 84.1047L54.097 75.8435C53.6478 74.4789 52.4429 73.7959 51.2376 73.7959C50.0323 73.7959 48.8287 74.4789 48.3783 75.8435L45.6722 84.1047C45.2699 85.3257 44.1157 85.8231 42.8125 85.8231H34.0574C31.1445 85.8231 29.9333 89.8259 32.2906 91.5138L39.3729 96.5863C40.4271 97.3407 40.8689 98.6783 40.4654 99.8992L37.6159 108.106C37.4958 108.472 37.4477 108.83 37.4613 109.17C37.5503 111.375 40.3466 112.882 42.3871 111.42L49.4707 106.346C49.9978 105.969 50.6177 105.781 51.2376 105.781C51.8588 105.781 52.4787 105.969 53.0057 106.346L60.0881 111.42C62.1299 112.882 64.9126 111.375 65.0139 109.17C65.0288 108.83 64.9832 108.472 64.8619 108.106L62.0098 99.8992C61.6076 98.6783 62.0482 97.3407 63.1023 96.5863Z" fill="#DA2814"/>
</g>
<defs>
<filter id="filter0_d" x="0" y="0" width="102" height="120" filterUnits="userSpaceOnUse" color-interpolation-filters="sRGB">
<feFlood flood-opacity="0" result="BackgroundImageFix"/>
<feColorMatrix in="SourceAlpha" type="matrix" values="0 0 0 0 0 0 0 0 0 0 0 0 0 0 0 0 0 0 127 0"/>
<feOffset/>
<feGaussianBlur stdDeviation="4"/>
<feColorMatrix type="matrix" values="0 0 0 0 0.854902 0 0 0 0 0.156863 0 0 0 0 0.0784314 0 0 0 1 0"/>
<feBlend mode="normal" in2="BackgroundImageFix" result="effect1_dropShadow"/>
<feBlend mode="normal" in="SourceGraphic" in2="effect1_dropShadow" result="shape"/>
</filter>
</defs>
</svg>
