<svg width="136" height="136" viewBox="0 0 136 136" fill="none" xmlns="http://www.w3.org/2000/svg">
<g filter="url(#filter0_d)">
<path fill-rule="evenodd" clip-rule="evenodd" d="M27.4237 80.9441C28.2247 81.4824 29.1303 81.7379 30.0262 81.7379C31.5387 81.7379 33.0231 81.0064 33.9266 79.6538C41.5009 68.3132 54.1634 61.5421 67.7963 61.5421C81.39 61.5421 94.0303 68.2812 101.611 79.5705C103.056 81.7231 105.969 82.293 108.116 80.8449C110.264 79.398 110.834 76.4785 109.389 74.3271C103.333 65.3079 94.6503 58.6531 84.7285 55.0927C90.6782 50.2225 94.4844 42.8165 94.4844 34.5362C94.4844 19.9045 82.6031 8 68 8C53.3969 8 41.5156 19.9045 41.5156 34.5362C41.5156 42.7579 45.2656 50.1173 51.1434 54.9875C41.0653 58.5347 32.2528 65.2701 26.1359 74.4286C24.6956 76.585 25.2728 79.5019 27.4237 80.9441ZM68 17.3933C77.4338 17.3933 85.1094 25.0843 85.1094 34.5362C85.1094 43.9881 77.4338 51.6791 68 51.6791C58.5663 51.6791 50.8906 43.9881 50.8906 34.5362C50.8906 25.0843 58.5663 17.3933 68 17.3933ZM79.7053 96.2129L86.6938 91.1618C89.0181 89.481 87.8231 85.4951 84.9494 85.4951H76.3119C75.0262 85.4951 73.8875 84.9997 73.4906 83.7839L70.8209 75.5575C70.3778 74.1986 69.1891 73.5186 68 73.5186C66.8109 73.5186 65.6234 74.1986 65.1791 75.5575L62.5094 83.7839C62.1125 84.9997 60.9737 85.4951 59.6881 85.4951H51.0506C48.1769 85.4951 46.9819 89.481 49.3075 91.1618L56.2947 96.2129C57.3347 96.9641 57.7706 98.296 57.3725 99.5119L54.5612 107.684C54.4428 108.049 54.3953 108.405 54.4087 108.744C54.4965 110.939 57.2553 112.44 59.2684 110.984L66.2569 105.932C66.7769 105.556 67.3884 105.369 68 105.369C68.6128 105.369 69.2244 105.556 69.7444 105.932L76.7316 110.984C78.7459 112.44 81.4913 110.939 81.5912 108.744C81.6059 108.405 81.5609 108.049 81.4413 107.684L78.6275 99.5119C78.2306 98.296 78.6653 96.9641 79.7053 96.2129ZM126.772 107.6L119.783 112.651C118.743 113.403 118.309 114.735 118.706 115.95L121.519 124.123C121.639 124.487 121.684 124.843 121.669 125.182C121.569 127.378 118.824 128.878 116.81 127.423L109.823 122.37C109.303 121.995 108.691 121.808 108.078 121.808C107.467 121.808 106.855 121.995 106.335 122.37L99.3466 127.423C97.3335 128.878 94.5747 127.378 94.4869 125.182C94.4734 124.843 94.521 124.487 94.6394 124.123L97.4506 115.95C97.8488 114.735 97.4128 113.403 96.3728 112.651L89.3856 107.6C87.06 105.919 88.255 101.934 91.1288 101.934H99.7663C101.052 101.934 102.191 101.438 102.588 100.222L105.257 91.996C105.702 90.6371 106.889 89.957 108.078 89.957C109.267 89.957 110.456 90.6371 110.899 91.996L113.569 100.222C113.966 101.438 115.104 101.934 116.39 101.934H125.028C127.901 101.934 129.096 105.919 126.772 107.6ZM39.6272 112.651L46.6156 107.6C48.94 105.919 47.745 101.934 44.8712 101.934H36.2337C34.9481 101.934 33.8094 101.438 33.4125 100.222L30.7428 91.996C30.2984 90.6371 29.1109 89.957 27.9219 89.957C26.7328 89.957 25.5453 90.6371 25.1009 91.996L22.4312 100.222C22.0343 101.438 20.8956 101.934 19.61 101.934H10.9725C8.09871 101.934 6.90371 105.919 9.22809 107.6L16.2165 112.651C17.2565 113.403 17.6912 114.735 17.2943 115.95L14.4831 124.123C14.3634 124.487 14.3172 124.843 14.3306 125.182C14.4172 127.378 17.1759 128.878 19.1903 127.423L26.1787 122.37C26.6975 121.995 27.3103 121.808 27.9219 121.808C28.5334 121.808 29.1462 121.995 29.665 122.37L36.6534 127.423C38.6678 128.878 41.4131 127.378 41.5131 125.182C41.5278 124.843 41.4828 124.487 41.3631 124.123L38.5494 115.95C38.1525 114.735 38.5872 113.403 39.6272 112.651Z" fill="url(#paint0_radial)"/>
</g>
<defs>
<filter id="filter0_d" x="0" y="0" width="136" height="136" filterUnits="userSpaceOnUse" color-interpolation-filters="sRGB">
<feFlood flood-opacity="0" result="BackgroundImageFix"/>
<feColorMatrix in="SourceAlpha" type="matrix" values="0 0 0 0 0 0 0 0 0 0 0 0 0 0 0 0 0 0 127 0"/>
<feOffset/>
<feGaussianBlur stdDeviation="4"/>
<feColorMatrix type="matrix" values="0 0 0 0 0.996078 0 0 0 0 0.811765 0 0 0 0 0.0588235 0 0 0 1 0"/>
<feBlend mode="normal" in2="BackgroundImageFix" result="effect1_dropShadow"/>
<feBlend mode="normal" in="SourceGraphic" in2="effect1_dropShadow" result="shape"/>
</filter>
<radialGradient id="paint0_radial" cx="0" cy="0" r="1" gradientUnits="userSpaceOnUse" gradientTransform="translate(68 8) rotate(90) scale(185.491 1113.14)">
<stop stop-color="#FE9A0F"/>
<stop offset="0.543802" stop-color="#FECF0F"/>
<stop offset="1" stop-color="#FFEA00"/>
</radialGradient>
</defs>
</svg>
