<?xml version="1.0" encoding="UTF-8"?>
<svg width="52px" height="32px" viewBox="0 0 52 32" version="1.1" xmlns="http://www.w3.org/2000/svg" xmlns:xlink="http://www.w3.org/1999/xlink">
    <!-- Generator: sketchtool 54.1 (76490) - https://sketchapp.com -->
    <title>B58414F5-E482-434E-B138-1852CE3FF8BA</title>
    <desc>Created with sketchtool.</desc>
    <g id="Page-1" stroke="none" stroke-width="1" fill="none" fill-rule="evenodd" opacity="0.6">
        <g id="Main-Page-DESKTOP-" transform="translate(-192.000000, -8642.000000)" fill="#FFFFFF" fill-rule="nonzero">
            <g id="Footer-v2" transform="translate(0.000000, 8301.000000)">
                <path d="M244,341 L244,373 L192,373 L192,341 L244,341 Z M193.93942,342.50201 L193.93942,361.089035 L242.052268,361.089035 L242.052268,342.50201 L193.93942,342.50201 Z M208.843861,369.950339 C209.107905,370.01344 209.38351,370.010114 209.645949,369.940658 C209.737379,369.260189 209.590537,368.592168 209.735994,367.951809 C210.001971,367.918615 210.229161,367.882655 210.472973,367.989152 L211.356795,369.960021 C211.659475,370.017829 211.970927,370.011705 212.271093,369.942041 L211.360951,367.803821 C211.382445,367.754271 211.410392,367.707767 211.444069,367.665514 C212.264166,366.953235 212.456723,365.564637 211.859658,364.667027 C211.694764,364.383984 211.418257,364.183212 211.097744,364.1138 C210.352452,363.99624 209.603005,364.043264 208.845246,364.080607 L208.843861,369.950339 Z M234.64507,364.050179 L234.64507,369.997364 C235.174255,369.997364 235.653568,369.997364 236.134268,369.997364 C237.198178,369.997364 237.777233,369.610105 238.051522,368.579721 C238.366298,367.489666 238.329464,366.328349 237.94624,365.260362 C237.72366,364.55827 237.079433,364.07449 236.342062,364.055712 C235.794869,364.021135 235.24352,364.051562 234.64507,364.051562 L234.64507,364.050179 Z M203.614354,364.076458 L203.614354,369.939275 L206.904441,369.939275 C206.871194,369.615637 206.954312,369.34179 206.835176,369.045814 C206.04417,368.937935 205.237925,369.094221 204.442763,368.954532 L204.442763,367.54657 C205.028745,367.427627 205.611956,367.604659 206.189626,367.424861 C206.166076,367.131651 206.246424,366.859187 206.130058,366.575658 C205.575938,366.426287 204.985801,366.628215 204.403975,366.437351 C204.434451,365.969875 204.354104,365.517612 204.469084,365.018326 L206.721581,365.018326 C206.776156,364.707198 206.776156,364.388968 206.721581,364.077841 L203.614354,364.076458 Z M232.626688,368.986342 L230.205184,368.986342 C230.164877,368.512804 230.164877,368.036705 230.205184,367.563167 C230.813331,367.404115 231.400698,367.626788 231.975597,367.404115 C231.934038,367.116437 232.017156,366.841207 231.882782,366.517569 L230.205184,366.517569 C230.188561,365.986472 230.104057,365.520379 230.271679,365.004495 L232.497855,365.004495 C232.538029,364.660112 232.56712,364.373817 232.481232,364.094437 L229.364307,364.094437 L229.364307,369.954488 L232.621147,369.954488 C232.686112,369.635761 232.688934,369.307519 232.629459,368.987725 L232.626688,368.986342 Z M201.712337,365.636556 C201.518395,364.635216 201.019687,364.052945 200.257772,363.925703 C199.444601,363.787397 198.677145,364.184337 198.251858,365.075031 C197.654903,366.293748 197.639131,367.716003 198.208914,368.947616 C198.592642,369.830013 199.389189,370.258763 200.263314,370.123223 C201.07787,369.997364 201.56411,369.446903 201.742814,368.417902 C201.521166,368.337684 201.379865,368.095648 201.104191,368.076285 C200.897781,368.193845 200.885313,368.423434 200.784186,368.594935 C200.378293,369.278169 199.641314,369.330726 199.139835,368.713878 C198.925114,368.451096 198.862775,368.13714 198.801822,367.821801 C198.647814,367.098264 198.704047,366.345858 198.963902,365.653153 C199.124597,365.238233 199.432134,364.938108 199.880971,364.917362 C200.329808,364.896616 200.601327,365.185677 200.785572,365.559104 C200.854837,365.697411 200.850681,365.879976 201.037696,365.953278 C201.280117,365.889872 201.508797,365.782514 201.712337,365.636556 Z M221.904468,364.084756 L221.904468,369.961404 C222.181528,369.991831 222.410102,370.036089 222.705171,369.900549 L222.705171,367.632321 L224.443722,367.632321 C224.489437,367.285171 224.519914,367.000259 224.402163,366.65311 L222.698244,366.65311 C222.739803,366.076371 222.601273,365.561871 222.777206,365.062584 C223.490636,364.957471 224.184671,365.127588 224.863468,364.960237 L224.863468,364.083373 L221.904468,364.084756 Z M217.127954,364.084756 L213.848949,364.084756 C213.814317,364.415309 213.76306,364.70437 213.896049,364.998963 L215.080481,365.062584 L215.080481,369.96417 C215.411567,369.972468 215.663692,370.063751 215.944908,369.843843 L215.944908,365.088862 C216.360498,364.963003 216.735914,365.102693 217.123798,364.964386 C217.165893,364.674631 217.167291,364.380429 217.127954,364.090288 L217.127954,364.084756 Z M227.355622,369.947573 L227.355622,364.068159 C227.060554,364.068159 226.801503,363.971345 226.602019,364.135929 L226.602019,369.92821 C226.845455,370.009475 227.107339,370.018126 227.355622,369.953105 L227.355622,369.947573 Z M219.736473,369.947573 L219.736473,364.04603 C219.44556,364.083373 219.18928,363.964429 218.978714,364.137313 L218.978714,369.957255 C219.229445,370.008161 219.4881,370.005805 219.737859,369.950339 L219.736473,369.947573 Z M213.326691,345.121537 L215.533474,345.121537 L219.523137,353.585901 L219.642273,353.567922 L219.642273,345.131218 L221.678664,345.131218 L221.678664,358.747504 L219.550843,358.747504 L215.471135,349.775554 L215.370008,349.775554 L215.370008,358.751653 L213.326691,358.751653 L213.326691,345.121537 Z M238.192823,348.51973 L236.376695,349.371699 C236.218771,348.926352 236.099635,348.515581 235.837813,348.15875 C234.891654,346.851753 232.360711,346.862817 231.389616,348.626226 C230.663718,349.945671 230.511335,351.372996 230.649865,352.83628 C230.708034,353.638688 230.90684,354.424673 231.237233,355.158448 C231.983909,356.718546 233.81112,357.018671 235.145163,356.38661 C235.920931,356.018715 236.142579,355.280157 236.264486,354.513939 C236.284277,354.243679 236.284277,353.972338 236.264486,353.702079 C235.447159,353.552708 234.615979,353.718676 233.732158,353.596966 C233.593628,352.923413 233.693369,352.244327 233.661507,351.514068 L238.149879,351.514068 L238.149879,358.611964 C237.595759,358.722609 237.041639,358.653456 236.501372,358.654839 C236.335136,358.397588 236.447345,358.154169 236.37808,357.930112 C236.174441,357.87064 236.10102,358.057354 236.015132,358.159701 C235.545515,358.692181 234.924901,358.92592 234.257186,359.037948 C231.931268,359.427973 229.975224,358.302157 229.174521,356.07957 C228.254682,353.527813 228.190958,350.93733 229.084477,348.374508 C229.635826,346.822708 230.599995,345.564118 232.259584,345.048234 C235.201961,344.140943 237.619309,345.768812 238.192823,348.51973 Z M201.835629,353.956563 L199.979327,353.956563 L199.979327,358.757185 L197.949863,358.757185 L197.949863,345.182392 C198.10086,345.044085 198.294802,345.103557 198.470736,345.102174 C199.785385,345.102174 201.102805,345.081428 202.414684,345.102174 C203.96622,345.128452 205.118789,345.815836 205.696459,347.286035 C206.250579,348.706444 206.236726,350.164196 205.757413,351.603968 C205.509444,352.341142 204.967792,352.894368 204.005008,353.496002 L206.303221,358.740589 C205.494206,358.830488 204.790473,358.784847 204.045182,358.779315 L201.835629,353.956563 Z M200.001492,351.597052 C200.757866,351.597052 201.444974,351.610883 202.130698,351.597052 C203.011748,351.57354 203.619895,351.208411 203.817993,350.541773 C204.101979,349.581925 204.125529,348.634525 203.413485,347.821282 C203.24463,347.626227 203.005891,347.505063 202.748541,347.483814 C201.84117,347.454769 200.932413,347.472749 200.002877,347.472749 L200.001492,351.597052 Z M209.699976,366.949086 L209.699976,365.091628 C210.215308,365.043221 210.754189,364.826079 211.161467,365.325366 C211.44961,365.676665 211.427445,366.126162 211.2432,366.502356 C210.923196,367.155163 210.298426,366.882699 209.699976,366.949086 Z M235.466553,368.96283 L235.466553,365.10131 C236.559555,364.849592 237.048565,365.126205 237.303461,366.157972 C237.438659,366.716519 237.442926,367.298681 237.315928,367.859143 C237.102592,368.82314 236.670379,369.076242 235.466553,368.96283 Z" id="rng_badge"></path>
            </g>
        </g>
    </g>
</svg>