<?xml version="1.0" encoding="UTF-8"?>
<svg width="67px" height="32px" viewBox="0 0 67 32" version="1.1" xmlns="http://www.w3.org/2000/svg" xmlns:xlink="http://www.w3.org/1999/xlink">
    <!-- Generator: sketchtool 54.1 (76490) - https://sketchapp.com -->
    <title>A8845972-E932-476E-9C07-B7EF7A151F85</title>
    <desc>Created with sketchtool.</desc>
    <g id="Page-1" stroke="none" stroke-width="1" fill="none" fill-rule="evenodd" opacity="0.6">
        <g id="Main-Page-DESKTOP-" transform="translate(-276.000000, -8642.000000)" fill="#FFFFFF" fill-rule="nonzero">
            <g id="Footer-v2" transform="translate(0.000000, 8301.000000)">
                <path d="M276,373 L276,356.786914 L299.013285,356.786914 L299.013285,373 L276,373 Z M284.14088,363.624204 L282.527539,365.236248 L286.310545,369.016213 L292.94935,362.382745 L291.336009,360.770701 L286.310545,365.792125 L284.14088,363.624204 Z M282.787157,349.597568 L282.805702,349.597568 L282.805702,354.470759 L278.911431,354.470759 L278.911431,349.597568 C278.911431,344.854082 282.768613,341 287.515915,341 C292.244672,341 296.101854,344.854082 296.120399,349.597568 L296.120399,354.470759 L292.226128,354.470759 L292.226128,349.597568 C292.226128,347.003474 290.112095,344.891141 287.515915,344.891141 C284.90119,344.891141 282.787157,347.003474 282.787157,349.597568 Z M317.872682,355.378691 C317.872682,358.10249 315.573208,360.492762 311.493496,360.492762 C309.268198,360.492762 306.987268,359.696005 305.225574,358.121019 L307.376695,355.563984 C308.619153,356.583092 310.158317,357.287203 311.753114,357.287203 C313.329366,357.287203 314.071132,356.675738 314.071132,355.841922 C314.071132,354.67458 313.088292,354.359583 311.51204,353.71106 L309.379463,352.803127 C307.525048,352.117545 305.856075,350.709323 305.856075,348.300521 C305.856075,345.558193 308.340991,343.390272 311.901467,343.390272 C313.904235,343.390272 315.888458,344.149971 317.390534,345.558193 L315.499031,347.911407 C314.349294,347.077591 313.310822,346.595831 311.697481,346.595831 C310.455024,346.595831 309.620537,347.133179 309.620537,348.096699 C309.620537,349.078749 310.733186,349.467863 312.327982,350.04227 L314.33075,350.894615 C316.500415,351.709902 317.872682,353.044007 317.872682,355.378691 Z M326.977858,350.894615 C329.166067,351.709902 330.51979,353.044007 330.538334,355.378691 C330.538334,358.121019 328.23886,360.492762 324.140603,360.492762 C321.915306,360.492762 319.634376,359.696005 317.872682,358.121019 L320.023803,355.563984 C321.266261,356.583092 322.805425,357.287203 324.400221,357.287203 C325.976474,357.287203 326.71824,356.675738 326.71824,355.841922 C326.71824,354.67458 325.7354,354.359583 324.159148,353.71106 L322.026571,352.803127 C320.172156,352.117545 318.503183,350.709323 318.503183,348.300521 C318.503183,345.558193 320.988099,343.390272 324.548575,343.390272 C326.551342,343.390272 328.535566,344.149971 330.037642,345.558193 L328.146139,347.911407 C326.996402,347.077591 325.95793,346.595831 324.344589,346.595831 C323.102131,346.595831 322.267645,347.133179 322.267645,348.096699 C322.267645,349.078749 323.380293,349.467863 324.97509,350.04227 L326.977858,350.894615 Z M335.656518,357.046323 L343,357.046323 L343,360.177765 L331.947689,360.177765 L331.947689,343.68674 L335.656518,343.68674 L335.656518,357.046323 Z M308.730418,366.033005 C309.601993,366.385061 310.30667,366.866821 310.30667,367.922988 C310.30667,369.053272 309.360919,369.961204 307.784666,369.961204 C306.72765,369.961204 305.837531,369.553561 305.188486,368.905038 L305.726266,368.275043 C306.264046,368.812391 307.005812,369.164447 307.821755,369.164447 C308.804595,369.164447 309.379463,368.701216 309.379463,368.034163 C309.379463,367.274464 308.823139,367.052113 308.099917,366.737116 L307.079989,366.292415 C306.375311,366.014476 305.540825,365.495657 305.540825,364.45802 C305.540825,363.364794 306.523665,362.568037 307.877387,362.568037 C308.78605,362.568037 309.564905,362.938622 310.084141,363.457441 L309.601993,364.050376 C309.119845,363.642733 308.582065,363.383324 307.840299,363.383324 C307.005812,363.383324 306.449488,363.772438 306.449488,364.420961 C306.449488,365.106543 307.117077,365.347423 307.729034,365.606833 L308.730418,366.033005 Z M313.143925,366.477707 L313.143925,369.053272 L316.760033,369.053272 L316.760033,369.8315 L312.235262,369.8315 L312.235262,362.697742 L316.648768,362.697742 L316.648768,363.457441 L313.143925,363.457441 L313.143925,365.699479 L316.110988,365.699479 L316.110988,366.477707 L313.143925,366.477707 Z M321.414614,369.164447 C322.082203,369.164447 322.582895,368.886508 323.00941,368.36769 L323.528647,368.923567 C322.972322,369.57209 322.267645,369.961204 321.321893,369.961204 C319.560199,369.961204 318.206477,368.590041 318.206477,366.255356 C318.206477,363.95773 319.560199,362.549508 321.414614,362.549508 C322.267645,362.549508 322.953778,362.957151 323.361749,363.420382 L322.842513,363.994789 C322.490174,363.605675 322.008027,363.346265 321.414614,363.346265 C320.042347,363.346265 319.152228,364.45802 319.152228,366.236827 C319.152228,368.034163 320.042347,369.164447 321.414614,369.164447 Z M328.832272,367.163289 L328.813728,367.163289 L328.813728,362.697742 L329.703847,362.697742 L329.703847,367.14476 C329.703847,369.201506 328.702463,369.979734 327.311652,369.979734 C325.920841,369.979734 324.900913,369.182976 324.900913,367.14476 L324.900913,362.697742 L325.809577,362.697742 L325.809577,367.163289 C325.809577,368.645628 326.458622,369.182976 327.311652,369.182976 C328.183227,369.182976 328.832272,368.645628 328.832272,367.163289 Z M336.37974,364.6989 C336.37974,365.810654 335.730695,366.477707 334.803487,366.718587 L336.620814,369.8315 L335.582342,369.8315 L333.857736,366.811233 L332.57819,366.811233 L332.57819,369.8315 L331.669527,369.8315 L331.669527,362.697742 L333.894824,362.697742 C335.341268,362.697742 336.37974,363.216561 336.37974,364.6989 Z M333.746471,366.070064 C334.85912,366.070064 335.471077,365.625362 335.471077,364.6989 C335.471077,363.753909 334.85912,363.420382 333.746471,363.420382 L332.559646,363.420382 L332.559646,366.070064 L333.746471,366.070064 Z M339.254082,366.477707 L339.254082,369.053272 L342.870191,369.053272 L342.870191,369.8315 L338.326875,369.8315 L338.326875,362.697742 L342.758926,362.697742 L342.758926,363.457441 L339.254082,363.457441 L339.254082,365.699479 L342.221146,365.699479 L342.221146,366.477707 L339.254082,366.477707 Z" id="ssl_badge"></path>
            </g>
        </g>
    </g>
</svg>