<?xml version="1.0" encoding="UTF-8"?>
<svg width="49px" height="56px" viewBox="0 0 49 56" version="1.1" xmlns="http://www.w3.org/2000/svg" xmlns:xlink="http://www.w3.org/1999/xlink">
    <!-- Generator: sketchtool 55 (78076) - https://sketchapp.com -->
    <title>336AD87C-4B27-4887-BB2E-8C94E5DC1845</title>
    <desc>Created with sketchtool.</desc>
    <defs>
        <path d="M787.474575,284.31471 C787.741554,284.494123 788.04343,284.579289 788.342076,284.579289 C788.846243,284.579289 789.341035,284.335479 789.642181,283.884598 C792.166974,280.104397 796.38781,277.847382 800.932083,277.847382 C805.463336,277.847382 809.676776,280.093752 812.203653,283.856836 C812.685424,284.574384 813.656258,284.764338 814.371987,284.281624 C815.088134,283.799327 815.278134,282.826175 814.796362,282.109045 C812.777715,279.102648 809.883443,276.884354 806.576149,275.697555 C808.55938,274.074174 809.82813,271.605495 809.82813,268.845413 C809.82813,263.968172 805.867711,260 801,260 C796.132289,260 792.17187,263.968172 792.17187,268.845413 C792.17187,271.585978 793.42187,274.039106 795.381142,275.662487 C792.021765,276.844902 789.084264,279.090019 787.045304,282.142861 C786.5652,282.861661 786.757596,283.833978 787.474575,284.31471 Z M801,263.13112 C804.144585,263.13112 806.703128,265.694776 806.703128,268.845413 C806.703128,271.99605 804.144585,274.559706 801,274.559706 C797.855415,274.559706 795.296872,271.99605 795.296872,268.845413 C795.296872,265.694776 797.855415,263.13112 801,263.13112 Z M807.231254,287.720637 L804.901773,289.404345 C804.555106,289.65473 804.41021,290.098723 804.542502,290.503994 L805.480419,293.228172 C805.520315,293.34966 805.535315,293.468329 805.530419,293.581258 C805.497086,294.313105 804.581981,294.813354 803.910523,294.328135 L801.581459,292.64401 C801.408125,292.518765 801.204271,292.456456 801,292.456456 C800.796146,292.456456 800.592291,292.518765 800.418958,292.64401 L798.089477,294.328135 C797.418435,294.813354 796.498851,294.313105 796.469581,293.581258 C796.465101,293.468329 796.480935,293.34966 796.520414,293.228172 L797.457498,290.503994 C797.590206,290.098723 797.444894,289.65473 797.098227,289.404345 L794.769163,287.720637 C793.993954,287.160376 794.392288,285.831737 795.350205,285.831737 L798.229373,285.831737 C798.657915,285.831737 799.037499,285.666623 799.169791,285.261351 L800.059687,282.519221 C800.207812,282.066253 800.603646,281.83956 801,281.83956 C801.396354,281.83956 801.792605,282.066253 801.940313,282.519221 L802.830209,285.261351 C802.962501,285.666623 803.342085,285.831737 803.770627,285.831737 L806.649795,285.831737 C807.607712,285.831737 808.006046,287.160376 807.231254,287.720637 Z" id="path-1"></path>
        <filter x="-58.3%" y="-47.8%" width="216.7%" height="195.6%" filterUnits="objectBoundingBox" id="filter-2">
            <feOffset dx="0" dy="0" in="SourceAlpha" result="shadowOffsetOuter1"></feOffset>
            <feGaussianBlur stdDeviation="5.5" in="shadowOffsetOuter1" result="shadowBlurOuter1"></feGaussianBlur>
            <feColorMatrix values="0 0 0 0 1   0 0 0 0 1   0 0 0 0 1  0 0 0 1 0" type="matrix" in="shadowBlurOuter1"></feColorMatrix>
        </filter>
    </defs>
    <g id="New-affiliate-program-(premium)" stroke="none" stroke-width="1" fill="none" fill-rule="evenodd">
        <g id="My-affiliate-v2-AFFILIATE" transform="translate(-777.000000, -249.000000)" fill-rule="nonzero">
            <g id="affiliate_partner-icon">
                <use fill="black" fill-opacity="1" filter="url(#filter-2)" xlink:href="#path-1"></use>
                <use fill="#FFFFFF" xlink:href="#path-1"></use>
            </g>
        </g>
    </g>
</svg>