<?xml version="1.0" encoding="UTF-8"?>
<svg width="110px" height="127px" viewBox="0 0 110 127" version="1.1" xmlns="http://www.w3.org/2000/svg" xmlns:xlink="http://www.w3.org/1999/xlink">
    <!-- Generator: sketchtool 55 (78076) - https://sketchapp.com -->
    <title>EF8BC988-3426-491F-AB41-9954B2982A0B</title>
    <desc>Created with sketchtool.</desc>
    <defs>
        <path d="M680.108808,3011.2529 C680.920652,3011.79342 681.83861,3012.05 682.746748,3012.05 C684.279845,3012.05 685.784434,3011.31548 686.700174,3009.95711 C694.377695,2998.5685 707.212631,2991.76879 721.031092,2991.76879 C734.80996,2991.76879 747.622405,2998.53643 755.306262,3009.87347 C756.771256,3012.03522 759.723418,3012.6075 761.899846,3011.15323 C764.07754,3009.70021 764.655302,3006.7684 763.190308,3004.6079 C757.051902,2995.55053 748.250848,2988.86748 738.193859,2985.29201 C744.224568,2980.40125 748.082651,2972.96386 748.082651,2964.64857 C748.082651,2949.95491 736.039605,2938 721.237617,2938 C706.43563,2938 694.392583,2949.95491 694.392583,2964.64857 C694.392583,2972.90506 698.19365,2980.2956 704.151505,2985.18636 C693.936138,2988.74862 685.003631,2995.51248 678.803458,3004.70978 C677.343531,3006.87531 677.928579,3009.8046 680.108808,3011.2529 Z M721.237617,2947.43312 C730.799834,2947.43312 738.579984,2955.15665 738.579984,2964.64857 C738.579984,2974.14049 730.799834,2981.86401 721.237617,2981.86401 C711.6754,2981.86401 703.89525,2974.14049 703.89525,2964.64857 C703.89525,2955.15665 711.6754,2947.43312 721.237617,2947.43312 Z M740.185935,3021.51394 L733.10233,3026.58644 C732.048168,3027.34078 731.607561,3028.67839 732.00984,3029.89935 L734.861907,3038.10648 C734.983225,3038.47249 735.028838,3038.83 735.01395,3039.17022 C734.912588,3041.37506 732.129891,3042.88216 730.088084,3041.42034 L723.005747,3036.34658 C722.478665,3035.96925 721.858775,3035.78153 721.237617,3035.78153 C720.617726,3035.78153 719.997836,3035.96925 719.470755,3036.34658 L712.38715,3041.42034 C710.346611,3042.88216 707.550292,3041.37506 707.461284,3039.17022 C707.447664,3038.83 707.49581,3038.47249 707.615861,3038.10648 L710.465394,3029.89935 C710.86894,3028.67839 710.427066,3027.34078 709.372904,3026.58644 L702.290566,3021.51394 C699.933271,3019.82604 701.144545,3015.82325 704.057429,3015.82325 L712.812553,3015.82325 C714.115685,3015.82325 715.269942,3015.32581 715.672222,3014.10485 L718.378265,3005.84364 C718.828691,3004.47898 720.032362,3003.79602 721.237617,3003.79602 C722.442872,3003.79602 723.64781,3004.47898 724.09697,3005.84364 L726.803012,3014.10485 C727.205292,3015.32581 728.359549,3015.82325 729.662682,3015.82325 L738.417805,3015.82325 C741.33069,3015.82325 742.541963,3019.82604 740.185935,3021.51394 Z" id="path-1"></path>
        <filter x="-24.4%" y="-14.4%" width="148.8%" height="140.4%" filterUnits="objectBoundingBox" id="filter-2">
            <feOffset dx="0" dy="6" in="SourceAlpha" result="shadowOffsetOuter1"></feOffset>
            <feGaussianBlur stdDeviation="6" in="shadowOffsetOuter1" result="shadowBlurOuter1"></feGaussianBlur>
            <feColorMatrix values="0 0 0 0 0.854901969   0 0 0 0 0.156862751   0 0 0 0 0.0784313753  0 0 0 0.5 0" type="matrix" in="shadowBlurOuter1"></feColorMatrix>
        </filter>
    </defs>
    <g id="*New-affiliate-" stroke="none" stroke-width="1" fill="none" fill-rule="evenodd">
        <g id="Invite-friends-(NEW)---affiliate" transform="translate(-666.000000, -2932.000000)" fill-rule="nonzero">
            <g id="007-review">
                <use fill="black" fill-opacity="1" filter="url(#filter-2)" xlink:href="#path-1"></use>
                <use fill="#DA2814" xlink:href="#path-1"></use>
            </g>
        </g>
    </g>
</svg>