<?xml version="1.0" encoding="UTF-8"?>
<svg width="136px" height="136px" viewBox="0 0 136 136" version="1.1" xmlns="http://www.w3.org/2000/svg" xmlns:xlink="http://www.w3.org/1999/xlink">
    <!-- Generator: sketchtool 55 (78076) - https://sketchapp.com -->
    <title>BC1D556F-C472-4362-B418-61E549729EBC</title>
    <desc>Created with sketchtool.</desc>
    <defs>
        <radialGradient cx="50%" cy="0%" fx="50%" fy="0%" r="154.576119%" gradientTransform="translate(0.500000,0.000000),rotate(90.000000),scale(1.000000,6.001015),translate(-0.500000,-0.000000)" id="radialGradient-1">
            <stop stop-color="#FE9A0F" offset="0%"></stop>
            <stop stop-color="#FECF0F" offset="54.3802134%"></stop>
            <stop stop-color="#FFEA00" offset="100%"></stop>
        </radialGradient>
        <path d="M679.423726,730.944129 C680.224663,731.482368 681.130289,731.737868 682.026227,731.737868 C683.538728,731.737868 685.023104,731.006438 685.926542,729.653794 C693.500922,718.313192 706.163429,711.542146 719.79625,711.542146 C733.390008,711.542146 746.030328,718.281255 753.610958,729.570507 C755.056271,731.723151 757.968773,732.293015 760.115962,730.844872 C762.264401,729.397982 762.834401,726.478526 761.389087,724.327134 C755.333146,715.307944 746.650329,708.653062 736.728448,705.092666 C742.678139,700.222522 746.484391,692.816485 746.484391,684.536239 C746.484391,669.904517 734.603134,658 720,658 C705.396866,658 693.515609,669.904517 693.515609,684.536239 C693.515609,692.757933 697.265611,700.117317 703.143427,704.98746 C693.065296,708.534706 684.252791,715.270057 678.135912,724.428582 C676.695599,726.584984 677.272787,729.501935 679.423726,730.944129 Z M720,667.393359 C729.433756,667.393359 737.109385,675.084328 737.109385,684.536239 C737.109385,693.98815 729.433756,701.679119 720,701.679119 C710.566244,701.679119 702.890615,693.98815 702.890615,684.536239 C702.890615,675.084328 710.566244,667.393359 720,667.393359 Z M738.693761,741.161912 L731.70532,746.213034 C730.665319,746.964189 730.230631,748.296168 730.627506,749.511981 L733.441258,757.684517 C733.560946,758.048979 733.605946,758.404987 733.591258,758.743775 C733.491258,760.939316 730.745944,762.440061 728.731568,760.984404 L721.744376,755.932029 C721.224376,755.556295 720.612813,755.369367 720,755.369367 C719.388437,755.369367 718.776874,755.556295 718.256874,755.932029 L711.268432,760.984404 C709.255306,762.440061 706.496554,760.939316 706.408742,758.743775 C706.395304,758.404987 706.442804,758.048979 706.561242,757.684517 L709.372494,749.511981 C709.770619,748.296168 709.334681,746.964189 708.29468,746.213034 L701.307489,741.161912 C698.981862,739.481127 700.176863,735.495211 703.050615,735.495211 L711.68812,735.495211 C712.973746,735.495211 714.112496,734.999868 714.509372,733.784054 L717.179061,725.557664 C717.623436,724.198758 718.810937,723.518679 720,723.518679 C721.189063,723.518679 722.377814,724.198758 722.820939,725.557664 L725.490628,733.784054 C725.887504,734.999868 727.026254,735.495211 728.31188,735.495211 L736.949385,735.495211 C739.823137,735.495211 741.018138,739.481127 738.693761,741.161912 Z M778.77191,757.60029 L771.783469,762.651412 C770.743468,763.402568 770.30878,764.734546 770.705656,765.95036 L773.519407,774.122895 C773.639095,774.487357 773.684095,774.843366 773.669407,775.182153 C773.569407,777.377694 770.824093,778.87844 768.809717,777.422782 L761.822525,772.370407 C761.302525,771.994673 760.690962,771.807745 760.078149,771.807745 C759.466586,771.807745 758.855023,771.994673 758.335023,772.370407 L751.346581,777.422782 C749.333455,778.87844 746.574704,777.377694 746.486891,775.182153 C746.473453,774.843366 746.520954,774.487357 746.639391,774.122895 L749.450643,765.95036 C749.848768,764.734546 749.41283,763.402568 748.37283,762.651412 L741.385638,757.60029 C739.060012,755.919505 740.255012,751.933589 743.128764,751.933589 L751.766269,751.933589 C753.051895,751.933589 754.190646,751.438246 754.587521,750.222433 L757.25721,741.996042 C757.701585,740.637136 758.889086,739.957057 760.078149,739.957057 C761.267212,739.957057 762.455963,740.637136 762.899088,741.996042 L765.568778,750.222433 C765.965653,751.438246 767.104403,751.933589 768.390029,751.933589 L777.027534,751.933589 C779.901286,751.933589 781.096287,755.919505 778.77191,757.60029 Z M698.615612,757.60029 L691.62717,762.651412 C690.58717,763.402568 690.152482,764.734546 690.549357,765.95036 L693.363109,774.122895 C693.482796,774.487357 693.527797,774.843366 693.513109,775.182153 C693.413109,777.377694 690.667795,778.87844 688.653419,777.422782 L681.664977,772.370407 C681.146227,771.994673 680.533414,771.807745 679.921851,771.807745 C679.310288,771.807745 678.697475,771.994673 678.178725,772.370407 L671.190283,777.422782 C669.175907,778.87844 666.417155,777.377694 666.330593,775.182153 C666.317155,774.843366 666.363405,774.487357 666.483093,774.122895 L669.294344,765.95036 C669.69122,764.734546 669.256532,763.402568 668.216531,762.651412 L661.22809,757.60029 C658.903713,755.919505 660.098714,751.933589 662.972466,751.933589 L671.609971,751.933589 C672.895597,751.933589 674.034347,751.438246 674.431222,750.222433 L677.100912,741.996042 C677.545287,740.637136 678.732788,739.957057 679.921851,739.957057 C681.110914,739.957057 682.298415,740.637136 682.74279,741.996042 L685.412479,750.222433 C685.809354,751.438246 686.948105,751.933589 688.233731,751.933589 L696.871236,751.933589 C699.744988,751.933589 700.939988,755.919505 698.615612,757.60029 Z" id="path-2"></path>
        <filter x="-10.0%" y="-10.0%" width="120.0%" height="120.0%" filterUnits="objectBoundingBox" id="filter-3">
            <feOffset dx="0" dy="0" in="SourceAlpha" result="shadowOffsetOuter1"></feOffset>
            <feGaussianBlur stdDeviation="4" in="shadowOffsetOuter1" result="shadowBlurOuter1"></feGaussianBlur>
            <feColorMatrix values="0 0 0 0 0.996078431   0 0 0 0 0.811764706   0 0 0 0 0.0588235294  0 0 0 1 0" type="matrix" in="shadowBlurOuter1"></feColorMatrix>
        </filter>
    </defs>
    <g id="*New-affiliate-" stroke="none" stroke-width="1" fill="none" fill-rule="evenodd">
        <g id="Invite-friends-(NEW)---affiliate" transform="translate(-652.000000, -650.000000)" fill-rule="nonzero">
            <g id="premium-partner-icon">
                <use fill="black" fill-opacity="1" filter="url(#filter-3)" xlink:href="#path-2"></use>
                <use fill="url(#radialGradient-1)" xlink:href="#path-2"></use>
            </g>
        </g>
    </g>
</svg>