<?xml version="1.0" encoding="UTF-8"?>
<svg width="13px" height="18px" viewBox="0 0 13 18" version="1.1" xmlns="http://www.w3.org/2000/svg" xmlns:xlink="http://www.w3.org/1999/xlink">
    <!-- Generator: sketchtool 52.6 (67491) - http://www.bohemiancoding.com/sketch -->
    <title>1B895240-8C9E-4674-A39C-1A244761DBB8</title>
    <desc>Created with sketchtool.</desc>
    <g id="Page-1" stroke="none" stroke-width="1" fill="none" fill-rule="evenodd">
        <g id="Intro-Landing-page-v1" transform="translate(-874.000000, -834.000000)" fill="#B2ACAB">
            <g id="Group-24" transform="translate(541.000000, 824.000000)">
                <g id="Group-47-Copy-4" transform="translate(319.999977, 0.000000)">
                    <path d="M24.7935404,15.9999898 C24.9241209,17.3359288 24.3616203,18.1395012 23.4776907,18.5915106 C24.9442103,18.9430735 25.8683184,19.8169584 25.6875147,21.775666 C25.4564876,24.216517 23.6484499,24.8694195 21.0569291,25.0100447 L21.0569291,27.5714315 L19.5100523,27.5714315 L19.5100523,25.0502233 C19.1183108,25.0502233 18.70648,25.0502233 18.2846045,25.0401786 L18.2846045,27.5714315 L16.7377277,27.5714315 L16.7377277,25.0100447 C16.3761202,25.0100447 16.0145126,25 15.6428604,25 L13.6339296,25 L13.9453139,23.1618283 C15.0803598,23.1819176 15.0602705,23.1618283 15.0602705,23.1618283 C15.4921906,23.1618283 15.6127265,22.850444 15.6428604,22.6495509 L15.6428604,18.6115999 L15.8035749,18.6115999 C15.743307,18.6015553 15.6830391,18.6015553 15.6428604,18.6015553 L15.6428604,15.7187395 C15.5825925,15.3973106 15.3816994,15.035703 14.7488862,15.035703 C14.7488862,15.035703 14.7689755,15.0156137 13.6339296,15.035703 L13.6339296,13.3883797 L15.7633963,13.3984244 C16.0747806,13.3984244 16.4062542,13.3984244 16.7377277,13.3883797 L16.7377277,10.8571268 L18.2846045,10.8571268 L18.2846045,13.3381564 C18.6964353,13.3281118 19.1082661,13.3180671 19.5100523,13.3180671 L19.5100523,10.8571268 L21.0569291,10.8571268 L21.0569291,13.3883797 C23.0457706,13.5591388 24.6227813,14.1718627 24.7935404,15.9999898 Z M22.6339398,21.4743264 C22.6339398,19.4854848 19.3593825,19.7767798 18.3147385,19.7767798 L18.3147385,23.1718729 C19.3593825,23.1718729 22.6339398,23.3928553 22.6339398,21.4743264 Z M21.9207693,16.6930709 C21.9207693,14.8749885 19.1886234,15.1461942 18.3147385,15.1461942 L18.3147385,18.229903 C19.1886234,18.229903 21.9207693,18.4307961 21.9207693,16.6930709 Z" id="btc---FontAwesome"></path>
                </g>
            </g>
        </g>
    </g>
</svg>