<?xml version="1.0" encoding="UTF-8"?>
<svg width="19px" height="19px" viewBox="0 0 19 19" version="1.1" xmlns="http://www.w3.org/2000/svg" xmlns:xlink="http://www.w3.org/1999/xlink">
    <!-- Generator: sketchtool 52.6 (67491) - http://www.bohemiancoding.com/sketch -->
    <title>435EA93A-BA71-4864-A8D0-D013C593E4FB</title>
    <desc>Created with sketchtool.</desc>
    <g id="Page-1" stroke="none" stroke-width="1" fill="none" fill-rule="evenodd">
        <g id="Intro-Landing-page-v1" transform="translate(-791.000000, -834.000000)" fill="#B2ACAB">
            <g id="Group-24" transform="translate(541.000000, 824.000000)">
                <g id="Group-47-Copy-2" transform="translate(239.999983, 0.000000)">
                    <path d="M19.500011,10.0285522 C24.6107311,10.0285522 28.7571644,14.1749855 28.7571644,19.2857055 C28.7571644,23.3718709 26.1053757,26.8433034 22.4290322,28.0727691 C21.9589424,28.1571442 21.7901922,27.8678581 21.7901922,27.6267864 C21.7901922,27.3254468 21.8022458,26.3249992 21.8022458,25.08348 C21.8022458,24.2156218 21.5129597,23.6611569 21.1754594,23.3718709 C23.2366224,23.1428528 25.4062677,22.3593697 25.4062677,18.8035621 C25.4062677,17.791061 25.0446602,16.9714172 24.4540345,16.3205236 C24.5504632,16.0794519 24.8638564,15.1392723 24.3576058,13.8615923 C23.5861764,13.6205206 21.8142994,14.8138255 21.8142994,14.8138255 C21.0790307,14.6089145 20.2834941,14.5004323 19.500011,14.5004323 C18.716528,14.5004323 17.9209914,14.6089145 17.1857227,14.8138255 C17.1857227,14.8138255 15.4138457,13.6205206 14.6424162,13.8615923 C14.1361657,15.1392723 14.4495589,16.0794519 14.5459876,16.3205236 C13.9553619,16.9714172 13.5937543,17.791061 13.5937543,18.8035621 C13.5937543,22.3473162 15.7513461,23.1428528 17.8125091,23.3718709 C17.5473303,23.6129426 17.3062586,24.0227645 17.2218835,24.6133902 C16.6915257,24.8544619 15.3415242,25.2642837 14.533934,23.8419607 C14.0276834,22.962049 13.1116109,22.8897275 13.1116109,22.8897275 C12.2075921,22.8776739 13.051343,23.456246 13.051343,23.456246 C13.6540223,23.7334784 14.0758977,24.8062475 14.0758977,24.8062475 C14.6183091,26.4575887 17.1977763,25.9031238 17.1977763,25.9031238 C17.1977763,26.6745532 17.2098299,27.3977683 17.2098299,27.6267864 C17.2098299,27.8678581 17.0410797,28.1571442 16.5709899,28.0727691 C12.8946464,26.8433034 10.2428577,23.3718709 10.2428577,19.2857055 C10.2428577,14.1749855 14.389291,10.0285522 19.500011,10.0285522 Z M13.750451,23.3236566 C13.7263438,23.3718709 13.6540223,23.3839245 13.5937543,23.3477637 C13.5214328,23.311603 13.4852721,23.251335 13.5093793,23.2031207 C13.5334864,23.1669599 13.5937543,23.1549064 13.6660759,23.1790135 C13.7383974,23.2151743 13.7745581,23.2754422 13.750451,23.3236566 Z M14.1241121,23.7334784 C14.0758977,23.7816928 13.9915227,23.7575856 13.9312547,23.6973177 C13.8709868,23.6249962 13.8589332,23.5406211 13.9071476,23.5044603 C13.9553619,23.456246 14.039737,23.4803532 14.1000049,23.5406211 C14.1602728,23.6129426 14.1723264,23.6973177 14.1241121,23.7334784 Z M14.4857196,24.2758898 C14.4375053,24.3120505 14.3410766,24.2758898 14.2808087,24.1915147 C14.2205408,24.1071396 14.2205408,24.0107109 14.2808087,23.9745501 C14.3410766,23.9263358 14.4375053,23.9624966 14.4857196,24.0468717 C14.5459876,24.1312468 14.5459876,24.2276754 14.4857196,24.2758898 Z M14.9919702,24.7821403 C14.9437559,24.8424083 14.8352736,24.8303547 14.7508985,24.7459796 C14.6665234,24.6736581 14.6424162,24.5651758 14.7026842,24.5169615 C14.7508985,24.4566935 14.8593808,24.4687471 14.9437559,24.5531222 C15.0160774,24.6254437 15.0401846,24.733926 14.9919702,24.7821403 Z M15.6790246,25.08348 C15.6549174,25.1558015 15.5464351,25.1919622 15.4500064,25.1558015 C15.3415242,25.1316943 15.2692027,25.0473192 15.2933098,24.9749977 C15.317417,24.9026762 15.4258993,24.8665154 15.522328,24.8906226 C15.6308102,24.9267834 15.7031317,25.0111585 15.6790246,25.08348 Z M16.4384004,25.1437479 C16.4384004,25.2160694 16.3540253,25.2763373 16.2455431,25.2763373 C16.1250072,25.2883909 16.0406321,25.228123 16.0406321,25.1437479 C16.0406321,25.0714264 16.1250072,25.0111585 16.2334895,25.0111585 C16.3419717,24.9991049 16.4384004,25.0593728 16.4384004,25.1437479 Z M17.1375084,25.023212 C17.1495619,25.0955336 17.0772404,25.1678551 16.9687582,25.1919622 C16.8602759,25.2160694 16.7638472,25.1678551 16.7517936,25.0955336 C16.7397401,25.0111585 16.8120616,24.938837 16.9205438,24.9147298 C17.0290261,24.9026762 17.1254548,24.9508905 17.1375084,25.023212 Z" id="github---FontAwesome"></path>
                </g>
            </g>
        </g>
    </g>
</svg>