<?xml version="1.0" encoding="UTF-8"?>
<svg width="16px" height="17px" viewBox="0 0 16 17" version="1.1" xmlns="http://www.w3.org/2000/svg" xmlns:xlink="http://www.w3.org/1999/xlink">
    <!-- Generator: sketchtool 52.6 (67491) - http://www.bohemiancoding.com/sketch -->
    <title>47621E1B-E63B-4C8F-A9A1-DB8E98A00546</title>
    <desc>Created with sketchtool.</desc>
    <g id="Page-1" stroke="none" stroke-width="1" fill="none" fill-rule="evenodd">
        <g id="Intro-Landing-page-v1" transform="translate(-633.000000, -835.000000)" fill="#B2ACAB">
            <g id="Group-24" transform="translate(541.000000, 824.000000)">
                <g id="Group-49" transform="translate(79.999994, 0.000000)">
                    <path d="M22.4228683,19.4857073 C22.4228683,18.0505272 21.2523314,16.8799902 19.8171512,16.8799902 C18.3819711,16.8799902 17.2114342,18.0505272 17.2114342,19.4857073 C17.2114342,20.9208874 18.3819711,22.0914244 19.8171512,22.0914244 C21.2523314,22.0914244 22.4228683,20.9208874 22.4228683,19.4857073 Z M23.8275127,19.4857073 C23.8275127,21.7046382 22.0360822,23.4960687 19.8171512,23.4960687 C17.5982203,23.4960687 15.8067898,21.7046382 15.8067898,19.4857073 C15.8067898,17.2667763 17.5982203,15.4753459 19.8171512,15.4753459 C22.0360822,15.4753459 23.8275127,17.2667763 23.8275127,19.4857073 Z M24.9267996,15.3124885 C24.9267996,15.8315962 24.5094777,16.2489181 23.99037,16.2489181 C23.4712623,16.2489181 23.0539404,15.8315962 23.0539404,15.3124885 C23.0539404,14.7933808 23.4712623,14.376059 23.99037,14.376059 C24.5094777,14.376059 24.9267996,14.7933808 24.9267996,15.3124885 Z M19.8171512,13.0732004 C18.67715,13.0732004 16.2342903,12.9815932 15.2062534,13.3887365 C14.8500031,13.5312366 14.5853599,13.7042725 14.3105382,13.9790942 C14.0357165,14.253916 13.8626806,14.5185591 13.7201804,14.8748095 C13.3130371,15.9028463 13.4046444,18.3457061 13.4046444,19.4857073 C13.4046444,20.6257085 13.3130371,23.0685683 13.7201804,24.0966051 C13.8626806,24.4528555 14.0357165,24.7174986 14.3105382,24.9923203 C14.5853599,25.2671421 14.8500031,25.440178 15.2062534,25.5826781 C16.2342903,25.9898214 18.67715,25.8982142 19.8171512,25.8982142 C20.9571525,25.8982142 23.4000122,25.9898214 24.428049,25.5826781 C24.7842994,25.440178 25.0489426,25.2671421 25.3237643,24.9923203 C25.598586,24.7174986 25.7716219,24.4528555 25.9141221,24.0966051 C26.3212654,23.0685683 26.2296581,20.6257085 26.2296581,19.4857073 C26.2296581,18.3457061 26.3212654,15.9028463 25.9141221,14.8748095 C25.7716219,14.5185591 25.598586,14.253916 25.3237643,13.9790942 C25.0489426,13.7042725 24.7842994,13.5312366 24.428049,13.3887365 C23.4000122,12.9815932 20.9571525,13.0732004 19.8171512,13.0732004 Z M27.6343025,19.4857073 C27.6343025,20.564637 27.6444811,21.6333882 27.5834096,22.7123179 C27.5223381,23.9642835 27.2373378,25.073749 26.3212654,25.9898214 C25.405193,26.9058938 24.2957275,27.1908941 23.0437618,27.2519656 C21.9648321,27.3130371 20.896081,27.3028585 19.8171512,27.3028585 C18.7382215,27.3028585 17.6694704,27.3130371 16.5905406,27.2519656 C15.338575,27.1908941 14.2291095,26.9058938 13.3130371,25.9898214 C12.3969647,25.073749 12.1119644,23.9642835 12.0508929,22.7123179 C11.9898214,21.6333882 12,20.564637 12,19.4857073 C12,18.4067776 11.9898214,17.3380264 12.0508929,16.2590967 C12.1119644,15.0071311 12.3969647,13.8976656 13.3130371,12.9815932 C14.2291095,12.0655208 15.338575,11.7805205 16.5905406,11.719449 C17.6694704,11.6583775 18.7382215,11.6685561 19.8171512,11.6685561 C20.896081,11.6685561 21.9648321,11.6583775 23.0437618,11.719449 C24.2957275,11.7805205 25.405193,12.0655208 26.3212654,12.9815932 C27.2373378,13.8976656 27.5223381,15.0071311 27.5834096,16.2590967 C27.6444811,17.3380264 27.6343025,18.4067776 27.6343025,19.4857073 Z" id="instagram---FontAwesome"></path>
                </g>
            </g>
        </g>
    </g>
</svg>