<?xml version="1.0" encoding="UTF-8"?>
<svg width="15px" height="14px" viewBox="0 0 15 14" version="1.1" xmlns="http://www.w3.org/2000/svg" xmlns:xlink="http://www.w3.org/1999/xlink">
    <!-- Generator: sketchtool 52.6 (67491) - http://www.bohemiancoding.com/sketch -->
    <title>CD1C6B83-FF1B-4017-87E0-FF5B4CD8846E</title>
    <desc>Created with sketchtool.</desc>
    <g id="Page-1" stroke="none" stroke-width="1" fill="none" fill-rule="evenodd">
        <g id="Intro-Landing-page-v1" transform="translate(-673.000000, -836.000000)" fill="#B2ACAB">
            <g id="Group-24" transform="translate(541.000000, 824.000000)">
                <g id="Group-47" transform="translate(119.999991, 0.000000)">
                    <path d="M15.2718787,16.4593653 L15.2718787,25.7500008 L12.1781252,25.7500008 L12.1781252,16.4593653 L15.2718787,16.4593653 Z M15.4687539,13.5906121 C15.4781289,14.4812381 14.8031282,15.1937389 13.725002,15.1937389 L13.7062519,15.1937389 C12.6656258,15.1937389 12,14.4812381 12,13.5906121 C12,12.681236 12.6937508,11.9874853 13.743752,11.9874853 C14.8031282,11.9874853 15.4593789,12.681236 15.4687539,13.5906121 Z M20.0625091,17.779884 C20.4694971,17.1436622 21.2036861,16.2437401 22.8468873,16.2437401 C24.8812646,16.2437401 26.4000163,17.5749916 26.4000163,20.4249948 L26.4000163,25.7500008 L23.3156378,25.7500008 L23.3156378,20.7812452 C23.3156378,19.5343688 22.8656373,18.6812428 21.750011,18.6812428 C20.8968851,18.6812428 20.3906345,19.2531185 20.1656342,19.8062441 C20.0906342,20.0124944 20.0625091,20.2843697 20.0625091,20.56562 L20.0625091,25.7500008 L16.9781306,25.7500008 C17.0156307,17.3312413 16.9781306,16.4593653 16.9781306,16.4593653 L20.0625091,16.4593653 L20.0625091,17.779884 Z" id="linkedin---FontAwesome"></path>
                </g>
            </g>
        </g>
    </g>
</svg>