<?xml version="1.0" encoding="UTF-8"?>
<svg width="16px" height="13px" viewBox="0 0 16 13" version="1.1" xmlns="http://www.w3.org/2000/svg" xmlns:xlink="http://www.w3.org/1999/xlink">
    <!-- Generator: sketchtool 52.6 (67491) - http://www.bohemiancoding.com/sketch -->
    <title>1DA0A590-ED12-48CE-8B31-DAE9406092AE</title>
    <desc>Created with sketchtool.</desc>
    <g id="Page-1" stroke="none" stroke-width="1" fill="none" fill-rule="evenodd">
        <g id="Intro-Landing-page-v1" transform="translate(-593.000000, -837.000000)" fill="#B2ACAB">
            <g id="Group-24" transform="translate(541.000000, 824.000000)">
                <g id="Group-48" transform="translate(39.999997, 0.000000)">
                    <path d="M27.6214453,15.1228455 C27.1971592,15.739989 26.6668015,16.2896324 26.0593008,16.7332043 C26.0689437,16.8682045 26.0689437,17.0032046 26.0689437,17.1382048 C26.0689437,21.2557092 22.9350117,26 17.2071484,26 C15.4425037,26 13.8032162,25.488928 12.4242862,24.6017842 C12.6750007,24.6307128 12.9160724,24.6403557 13.1764298,24.6403557 C14.6325028,24.6403557 15.9728614,24.1485694 17.0432197,23.30964 C15.6739325,23.2807114 14.5264313,22.3839247 14.1310737,21.1496377 C14.3239311,21.1785663 14.5167884,21.197852 14.7192886,21.197852 C14.9989318,21.197852 15.2785749,21.1592805 15.5389324,21.0917804 C14.111788,20.8024944 13.0414297,19.5489217 13.0414297,18.0349915 C13.0414297,18.0253486 13.0414297,18.0060629 13.0414297,17.99642 C13.456073,18.2278488 13.9382164,18.3724918 14.4492883,18.3917776 C13.6103589,17.8324912 13.0607154,16.8778474 13.0607154,15.7978462 C13.0607154,15.2192741 13.2150013,14.6889164 13.4850016,14.2260588 C15.0182175,16.1160608 17.3228629,17.3503479 19.9071513,17.485348 C19.858937,17.2539192 19.8300084,17.0128475 19.8300084,16.7717758 C19.8300084,15.0553454 21.2185813,13.6571296 22.9446546,13.6571296 C23.8414413,13.6571296 24.6514421,14.0332014 25.2203713,14.6407021 C25.9243007,14.505702 26.5993014,14.2453445 27.1971592,13.8885584 C26.9657303,14.6117735 26.4739441,15.2192741 25.827872,15.6049888 C26.4546584,15.5374888 27.062159,15.3639172 27.6214453,15.1228455 Z" id="twitter---FontAwesome"></path>
                </g>
            </g>
        </g>
    </g>
</svg>