<?xml version="1.0" encoding="UTF-8"?>
<svg width="17px" height="12px" viewBox="0 0 17 12" version="1.1" xmlns="http://www.w3.org/2000/svg" xmlns:xlink="http://www.w3.org/1999/xlink">
    <!-- Generator: sketchtool 52.6 (67491) - http://www.bohemiancoding.com/sketch -->
    <title>BAC719F8-15C0-447E-8DE0-CB486A70B57C</title>
    <desc>Created with sketchtool.</desc>
    <g id="Page-1" stroke="none" stroke-width="1" fill="none" fill-rule="evenodd">
        <g id="Intro-Landing-page-v1" transform="translate(-832.000000, -837.000000)" fill="#B2ACAB">
            <g id="Group-24" transform="translate(541.000000, 824.000000)">
                <g id="Group-47-Copy-3" transform="translate(279.999980, 0.000000)">
                    <path d="M17.765633,21.1749957 L22.3031382,18.831243 L17.765633,16.4593653 L17.765633,21.1749957 Z M19.50001,13.0937365 C23.034389,13.0937365 25.3781417,13.2624867 25.3781417,13.2624867 C25.706267,13.2999867 26.4281429,13.2999867 27.0656436,13.9749875 C27.0656436,13.9749875 27.5812692,14.4812381 27.7312693,15.6437394 C27.9093945,17.0031159 27.9000195,18.3624925 27.9000195,18.3624925 L27.9000195,19.6374939 C27.9000195,19.6374939 27.9093945,20.9968705 27.7312693,22.356247 C27.5812692,23.5093733 27.0656436,24.0249989 27.0656436,24.0249989 C26.4281429,24.6906246 25.706267,24.6906246 25.3781417,24.7281247 C25.3781417,24.7281247 23.034389,24.9062499 19.50001,24.9062499 C15.1312551,24.8687499 13.7906285,24.7374997 13.7906285,24.7374997 C13.4156281,24.6718746 12.5718772,24.6906246 11.9343764,24.0249989 C11.9343764,24.0249989 11.4187509,23.5093733 11.2687507,22.356247 C11.0906255,20.9968705 11.1000005,19.6374939 11.1000005,19.6374939 L11.1000005,18.3624925 C11.1000005,18.3624925 11.0906255,17.0031159 11.2687507,15.6437394 C11.4187509,14.4812381 11.9343764,13.9749875 11.9343764,13.9749875 C12.5718772,13.2999867 13.293753,13.2999867 13.6218784,13.2624867 C13.6218784,13.2624867 15.965631,13.0937365 19.50001,13.0937365 Z" id="youtube-play---FontAwesome"></path>
                </g>
            </g>
        </g>
    </g>
</svg>