<?xml version="1.0" encoding="UTF-8"?>
<svg width="364px" height="205px" viewBox="0 0 364 205" version="1.1" xmlns="http://www.w3.org/2000/svg" xmlns:xlink="http://www.w3.org/1999/xlink">
    <!-- Generator: sketchtool 53.2 (72643) - https://sketchapp.com -->
    <title>4D536640-DE6E-4A25-A849-C4D5E94DD5F0</title>
    <desc>Created with sketchtool.</desc>
    <g id="Main-page-final" stroke="none" stroke-width="1" fill="none" fill-rule="evenodd">
        <g id="Main-Page-" transform="translate(-983.000000, -1981.000000)" fill="#F5F3F2" fill-rule="nonzero">
            <g id="Group-4-Copy-4" transform="translate(1165.000000, 2083.500000) scale(1, -1) translate(-1165.000000, -2083.500000) translate(983.000000, 1981.000000)">
                <path d="M181.223854,88.6361761 L198.878278,79.8871462 C200.005326,79.3286132 201.329453,79.3327598 202.452981,79.8983406 L219.798558,88.6300553 C221.148358,89.3095406 222,90.6917176 222,92.2028958 L222,115.797104 C222,117.308282 221.148358,118.690459 219.798558,119.369945 L202.452981,128.101659 C201.329453,128.66724 200.005326,128.671387 198.878278,128.112854 L181.223854,119.363824 C179.861739,118.688798 179,117.299992 179,115.779789 L179,92.220211 C179,90.7000076 179.861739,89.3112019 181.223854,88.6361761 Z" id="Rectangle-Copy-9" opacity="0.562360491" style="mix-blend-mode: multiply;" transform="translate(200.500000, 104.000000) scale(-1, -1) translate(-200.500000, -104.000000) "></path>
                <path d="M86.248423,59.0860551 L117.508795,43.8598771 C118.622251,43.3175392 119.924129,43.3215736 121.034203,43.870802 L151.773831,59.079772 C153.137217,59.7543309 154,61.1438187 154,62.664953 L154,103.335047 C154,104.856181 153.137217,106.245669 151.773831,106.920228 L121.034203,122.129198 C119.924129,122.678426 118.622251,122.682461 117.508795,122.140123 L86.248423,106.913945 C84.8728457,106.243934 84,104.847913 84,103.317839 L84,62.682161 C84,61.1520868 84.8728457,59.7560658 86.248423,59.0860551 Z" id="Rectangle-Copy-13" style="mix-blend-mode: multiply;"></path>
                <path d="M128.225695,175.629976 L139.83313,169.885083 C140.959164,169.327773 142.281618,169.331911 143.404141,169.896257 L154.796706,175.623843 C156.147524,176.302964 157,177.68569 157,179.197615 L157,194.802385 C157,196.31431 156.147524,197.697036 154.796706,198.376157 L143.404141,204.103743 C142.281618,204.668089 140.959164,204.672227 139.83313,204.114917 L128.225695,198.370024 C126.862569,197.69537 126,196.306021 126,194.785078 L126,179.214922 C126,177.693979 126.862569,176.30463 128.225695,175.629976 Z" id="Rectangle-Copy-16" opacity="0.562360491" style="mix-blend-mode: multiply;"></path>
                <ellipse id="Oval" opacity="0.74702381" style="mix-blend-mode: multiply;" cx="342.5" cy="140" rx="21.5" ry="22"></ellipse>
                <ellipse id="Oval-Copy-4" style="mix-blend-mode: multiply;" cx="21.5" cy="101" rx="21.5" ry="22"></ellipse>
                <circle id="Oval-Copy-3" style="mix-blend-mode: multiply;" cx="194" cy="12" r="12"></circle>
            </g>
        </g>
    </g>
</svg>