<?xml version="1.0" encoding="UTF-8"?>
<svg width="227px" height="262px" viewBox="0 0 227 262" version="1.1" xmlns="http://www.w3.org/2000/svg" xmlns:xlink="http://www.w3.org/1999/xlink">
    <!-- Generator: sketchtool 53.2 (72643) - https://sketchapp.com -->
    <title>EE2DAC61-754B-41A9-840E-FD2CBCD7A3CD</title>
    <desc>Created with sketchtool.</desc>
    <g id="Main-page-final" stroke="none" stroke-width="1" fill="none" fill-rule="evenodd">
        <g id="Main-Page-" transform="translate(-145.000000, -2084.000000)" fill="#F5F3F2" fill-rule="nonzero">
            <g id="Group-4-Copy-6" transform="translate(277.681379, 2235.733938) rotate(120.000000) translate(-277.681379, -2235.733938) translate(122.681379, 2102.733938)">
                <path d="M181.223854,149.636176 L198.878278,140.887146 C200.005326,140.328613 201.329453,140.33276 202.452981,140.898341 L219.798558,149.630055 C221.148358,150.309541 222,151.691718 222,153.202896 L222,176.797104 C222,178.308282 221.148358,179.690459 219.798558,180.369945 L202.452981,189.101659 C201.329453,189.66724 200.005326,189.671387 198.878278,189.112854 L181.223854,180.363824 C179.861739,179.688798 179,178.299992 179,176.779789 L179,153.220211 C179,151.700008 179.861739,150.311202 181.223854,149.636176 Z" id="Rectangle-Copy-9" opacity="0.562360491" style="mix-blend-mode: multiply;" transform="translate(200.500000, 165.000000) scale(-1, -1) translate(-200.500000, -165.000000) "></path>
                <path d="M86.248423,120.086055 L117.508795,104.859877 C118.622251,104.317539 119.924129,104.321574 121.034203,104.870802 L151.773831,120.079772 C153.137217,120.754331 154,122.143819 154,123.664953 L154,164.335047 C154,165.856181 153.137217,167.245669 151.773831,167.920228 L121.034203,183.129198 C119.924129,183.678426 118.622251,183.682461 117.508795,183.140123 L86.248423,167.913945 C84.8728457,167.243934 84,165.847913 84,164.317839 L84,123.682161 C84,122.152087 84.8728457,120.756066 86.248423,120.086055 Z" id="Rectangle-Copy-13" style="mix-blend-mode: multiply;"></path>
                <path d="M128.225695,236.629976 L139.83313,230.885083 C140.959164,230.327773 142.281618,230.331911 143.404141,230.896257 L154.796706,236.623843 C156.147524,237.302964 157,238.68569 157,240.197615 L157,255.802385 C157,257.31431 156.147524,258.697036 154.796706,259.376157 L143.404141,265.103743 C142.281618,265.668089 140.959164,265.672227 139.83313,265.114917 L128.225695,259.370024 C126.862569,258.69537 126,257.306021 126,255.785078 L126,240.214922 C126,238.693979 126.862569,237.30463 128.225695,236.629976 Z" id="Rectangle-Copy-16" opacity="0.562360491" style="mix-blend-mode: multiply;"></path>
                <path d="M190.248423,4.05920946 L196.816868,0.859877077 C197.930325,0.317539247 199.232203,0.321573646 200.342277,0.870801985 L206.773831,4.05292636 C208.137217,4.72748525 209,6.11697302 209,7.63810738 L209,16.3618926 C209,17.883027 208.137217,19.2725148 206.773831,19.9470736 L200.342277,23.129198 C199.232203,23.6784264 197.930325,23.6824608 196.816868,23.1401229 L190.248423,19.9407905 C188.872846,19.2707798 188,17.8747589 188,16.3446846 L188,7.6553154 C188,6.12524113 188.872846,4.7292202 190.248423,4.05920946 Z" id="Rectangle-Copy-21" opacity="0.562360491" style="mix-blend-mode: multiply;"></path>
                <ellipse id="Oval" opacity="0.74702381" style="mix-blend-mode: multiply;" cx="292.5" cy="186" rx="17.5" ry="18"></ellipse>
                <ellipse id="Oval-Copy-4" style="mix-blend-mode: multiply;" cx="21.5" cy="162" rx="21.5" ry="22"></ellipse>
                <circle id="Oval-Copy-3" style="mix-blend-mode: multiply;" cx="194" cy="73" r="12"></circle>
            </g>
        </g>
    </g>
</svg>