<?xml version="1.0" encoding="UTF-8"?>
<svg width="72px" height="72px" viewBox="0 0 72 72" version="1.1" xmlns="http://www.w3.org/2000/svg" xmlns:xlink="http://www.w3.org/1999/xlink">
    <!-- Generator: sketchtool 53.2 (72643) - https://sketchapp.com -->
    <title>ECA2AF9F-B7F0-4DF4-9728-DD2F09D3B207</title>
    <desc>Created with sketchtool.</desc>
    <defs>
        <linearGradient x1="100%" y1="50%" x2="0%" y2="50%" id="linearGradient-1">
            <stop stop-color="#EF512D" offset="0%"></stop>
            <stop stop-color="#DA2814" offset="100%"></stop>
        </linearGradient>
    </defs>
    <g id="Page-1" stroke="none" stroke-width="1" fill="none" fill-rule="evenodd">
        <g id="Weekly-Game-Play" transform="translate(-739.000000, -361.000000)" fill="url(#linearGradient-1)">
            <g id="Group-9" transform="translate(739.000000, 361.000000)">
                <path d="M67.3548387,41.8064516 L67.3548387,46.4516129 L67.3548387,51.0967742 L67.3548387,55.7419355 L67.3548387,60.3870968 L67.3548387,65.0322581 L67.3548387,72 L46.4516129,72 L46.4516129,65.0322581 L46.4516129,60.3870968 L46.4516129,55.7419355 L46.4516129,51.0967742 L46.4516129,46.4516129 L46.4516129,41.8064516 L46.4516129,37.1612903 L67.3548387,37.1612903 L67.3548387,41.8064516 Z M65.0322581,41.8064516 L65.0322581,39.483871 L48.7741935,39.483871 L48.7741935,41.8064516 L65.0322581,41.8064516 Z M65.0322581,44.1290323 L48.7741935,44.1290323 L48.7741935,46.4516129 L60.3870968,46.4516129 L60.3870968,48.7741935 L48.7741935,48.7741935 L48.7741935,51.0967742 L65.0322581,51.0967742 L65.0322581,48.7741935 L62.7096774,48.7741935 L62.7096774,46.4516129 L65.0322581,46.4516129 L65.0322581,44.1290323 Z M65.0322581,53.4193548 L48.7741935,53.4193548 L48.7741935,55.7419355 L65.0322581,55.7419355 L65.0322581,53.4193548 Z M48.7741935,58.0645161 L48.7741935,60.3870968 L65.0322581,60.3870968 L65.0322581,58.0645161 L48.7741935,58.0645161 Z M65.0322581,62.7096774 L48.7741935,62.7096774 L48.7741935,65.0322581 L65.0322581,65.0322581 L65.0322581,62.7096774 Z M65.0322581,67.3548387 L48.7741935,67.3548387 L48.7741935,69.6774194 L65.0322581,69.6774194 L65.0322581,67.3548387 Z M44.1290323,51.0967742 L44.1290323,55.7419355 L44.1290323,60.3870968 L44.1290323,65.0322581 L44.1290323,72 L23.2258065,72 L23.2258065,65.0322581 L23.2258065,60.3870968 L23.2258065,55.7419355 L23.2258065,51.0967742 L23.2258065,46.4516129 L44.1290323,46.4516129 L44.1290323,51.0967742 Z M41.8064516,51.0967742 L41.8064516,48.7741935 L25.5483871,48.7741935 L25.5483871,51.0967742 L41.8064516,51.0967742 Z M41.8064516,53.4193548 L25.5483871,53.4193548 L25.5483871,55.7419355 L41.8064516,55.7419355 L41.8064516,53.4193548 Z M25.5483871,58.0645161 L25.5483871,60.3870968 L41.8064516,60.3870968 L41.8064516,58.0645161 L25.5483871,58.0645161 Z M41.8064516,62.7096774 L25.5483871,62.7096774 L25.5483871,65.0322581 L27.8709677,65.0322581 L27.8709677,67.3548387 L25.5483871,67.3548387 L25.5483871,69.6774194 L41.8064516,69.6774194 L41.8064516,67.3548387 L30.1935484,67.3548387 L30.1935484,65.0322581 L41.8064516,65.0322581 L41.8064516,62.7096774 Z M20.9032258,60.3870968 L20.9032258,65.0322581 L20.9032258,72 L0,72 L0,65.0322581 L0,60.3870968 L0,55.7419355 L20.9032258,55.7419355 L20.9032258,60.3870968 Z M18.5806452,60.3870968 L18.5806452,58.0645161 L2.32258065,58.0645161 L2.32258065,60.3870968 L18.5806452,60.3870968 Z M18.5806452,62.7096774 L2.32258065,62.7096774 L2.32258065,65.0322581 L18.5806452,65.0322581 L18.5806452,62.7096774 Z M18.5806452,67.3548387 L2.32258065,67.3548387 L2.32258065,69.6774194 L18.5806452,69.6774194 L18.5806452,67.3548387 Z M5.37096774,50.8424516 L3.91935484,49.0285161 L33.560129,25.316129 L43.9269677,31.0749677 L67.3548387,7.64825806 L67.3548387,17.4193548 C67.3548387,18.0592258 67.8750968,18.5806452 68.516129,18.5806452 C69.1571613,18.5806452 69.6774194,18.0592258 69.6774194,17.4193548 L69.6774194,2.32258065 L54.5806452,2.32258065 C53.9396129,2.32258065 53.4193548,2.844 53.4193548,3.48387097 C53.4193548,4.12374194 53.9396129,4.64516129 54.5806452,4.64516129 L65.5130323,4.64516129 L43.1349677,27.0232258 L33.7529032,21.159871 L1.87896774,46.196129 L0.443612903,44.3694194 L33.6019355,18.3251613 L42.8005161,24.0747097 L59.9063226,6.96774194 L54.5806452,6.96774194 C52.659871,6.96774194 51.0967742,5.40464516 51.0967742,3.48387097 C51.0967742,1.56309677 52.659871,-1.98951966e-13 54.5806452,-1.98951966e-13 L72,-1.98951966e-13 L72,17.4193548 C72,19.340129 70.4369032,20.9032258 68.516129,20.9032258 C66.5953548,20.9032258 65.0322581,19.340129 65.0322581,17.4193548 L65.0322581,13.2549677 L44.3310968,33.9572903 L33.7947097,28.1032258 L5.37096774,50.8424516 Z" id="doublechance-graphic"></path>
            </g>
        </g>
    </g>
</svg>