<?xml version="1.0" encoding="UTF-8"?>
<svg width="48px" height="44px" viewBox="0 0 48 44" version="1.1" xmlns="http://www.w3.org/2000/svg" xmlns:xlink="http://www.w3.org/1999/xlink">
    <!-- Generator: sketchtool 53.2 (72643) - https://sketchapp.com -->
    <title>E37F7450-4605-4D21-B88A-9AA6D191F75E</title>
    <desc>Created with sketchtool.</desc>
    <defs>
        <linearGradient x1="100%" y1="50%" x2="0%" y2="50%" id="linearGradient-1">
            <stop stop-color="#EF512D" offset="0%"></stop>
            <stop stop-color="#DA2814" offset="100%"></stop>
        </linearGradient>
    </defs>
    <g id="Main-page-DESKTOP" stroke="none" stroke-width="1" fill="none" fill-rule="evenodd">
        <g id="Affiliate-program-v2" transform="translate(-280.000000, -1651.000000)" fill="url(#linearGradient-1)">
            <g id="Group-10" transform="translate(240.000000, 1465.000000)">
                <g id="Group-13" transform="translate(0.000000, 138.000000)">
                    <g id="Group-14" transform="translate(40.000000, 48.000000)">
                        <path d="M23.9987812,7.41036441 C23.4810937,7.41036441 23.0612812,6.99301695 23.0612812,6.47816102 L23.0612812,0.93220339 C23.0612812,0.417347458 23.4810937,-3.55271368e-15 23.9987812,-3.55271368e-15 C24.5164687,-3.55271368e-15 24.9362812,0.417347458 24.9362812,0.93220339 L24.9362812,6.47816102 C24.9362812,6.99301695 24.5164687,7.41036441 23.9987812,7.41036441 Z M17.361375,9.27812712 L15.1182187,7.04969492 C14.7520312,6.68576271 14.75175,6.09558475 15.1176562,5.73137288 C15.4836562,5.36716102 16.0770937,5.36688136 16.4435625,5.73081356 L18.686625,7.95924576 C19.0528125,8.32317797 19.0530937,8.91335593 18.6871875,9.2775678 C18.5040937,9.45972034 18.2640937,9.55088983 18.024,9.55088983 C17.7842812,9.55088983 17.5444687,9.46 17.361375,9.27812712 Z M29.8343438,9.69780508 C29.594625,9.69780508 29.3547188,9.60691525 29.171625,9.42494915 C28.8054375,9.06101695 28.8051563,8.47083898 29.1710625,8.10662712 L31.5557813,5.73351695 C31.9217813,5.36939831 32.5154063,5.36902542 32.8816875,5.73305085 C33.247875,6.09698305 33.2481563,6.68716102 32.88225,7.05137288 L30.4975313,9.42448305 C30.3144375,9.60663559 30.0744375,9.69780508 29.8343438,9.69780508 Z M46.125,42.1355932 L46.125,30.7162881 C46.125,28.3774831 44.2114688,26.4747627 41.859375,26.4747627 L35.34375,26.4747627 C35.1020625,26.4747627 34.8823125,26.3829407 34.7160938,26.2335085 C34.7048438,26.2242797 34.6932188,26.2139322 34.6808438,26.2016271 L24.943125,16.5189237 C25.0069688,18.4549237 25.6125938,20.3196102 26.7044063,21.9320424 L32.8401563,30.9927797 C32.9443125,31.1465932 33,31.3279068 33,31.5134153 L33,42.1355932 L41.625,42.1355932 L41.625,35.2372881 C41.625,34.7224322 42.0448125,34.3050847 42.5625,34.3050847 C43.0801875,34.3050847 43.5,34.7224322 43.5,35.2372881 L43.5,42.1355932 L46.125,42.1355932 Z M34.4115938,20.4099407 L34.4115938,21.7256525 C34.4115938,23.316178 35.7128438,24.6101695 37.3125,24.6101695 C38.9121563,24.6101695 40.2134062,23.316178 40.2134062,21.7255593 L40.2134062,20.4099407 C40.2134062,18.8194153 38.9120625,17.5254237 37.3125,17.5254237 C35.7129375,17.5254237 34.4115938,18.8194153 34.4115938,20.4099407 Z M7.78659375,21.7256525 C7.78659375,23.316178 9.08784375,24.6101695 10.6875,24.6101695 C12.2871563,24.6101695 13.5884063,23.316178 13.5884063,21.7255593 L13.5884063,20.4099407 C13.5884063,18.8194153 12.2870625,17.5254237 10.6875,17.5254237 C9.0879375,17.5254237 7.78659375,18.8194153 7.78659375,20.4100339 L7.78659375,21.7256525 Z M41.859375,24.6101695 C45.2453437,24.6101695 48,27.3492627 48,30.7161017 L48,43.0677966 C48,43.5826525 47.5801875,44 47.0625,44 L43.1015625,44 C43.0078125,44 42.9174375,43.9859237 42.8320312,43.9604746 C42.746625,43.9859237 42.65625,44 42.5625,44 L32.0625,44 C31.5448125,44 31.125,43.5826525 31.125,43.0677966 L31.125,31.7979237 L25.1491875,22.9731271 C24.6925312,22.2988644 24.30975,21.5864746 24.0000937,20.8469576 C23.6904375,21.5864746 23.3075625,22.2988644 22.851,22.9731271 L16.8750937,31.7979237 L16.8750937,32.5338983 C16.8750937,33.0487542 16.4552812,33.4661017 15.9375937,33.4661017 C15.4199062,33.4661017 15.0000937,33.0487542 15.0000937,32.5338983 L15.0000937,31.5134153 C15.0000937,31.328 15.0557812,31.1466864 15.1599375,30.9927797 L21.2956875,21.9319492 C22.3875,20.3195169 22.993125,18.4548305 23.0569687,16.5188305 L13.31925,26.2016271 C13.3185937,26.2021864 13.3180312,26.2025593 13.317375,26.2032119 C13.147875,26.370822 12.91425,26.4745763 12.65625,26.4745763 L6.140625,26.4745763 C3.78853125,26.4745763 1.875,28.3772966 1.875,30.7161017 L1.875,42.1355932 L4.5,42.1355932 L4.5,31.5134153 C4.5,30.9985593 4.9198125,30.5812119 5.4375,30.5812119 C5.9551875,30.5812119 6.375,30.9985593 6.375,31.5134153 L6.375,42.1355932 L15,42.1355932 L15,39.8983051 C15,39.3834492 15.4198125,38.9661017 15.9375,38.9661017 C16.4551875,38.9661017 16.875,39.3834492 16.875,39.8983051 L16.875,43.0677966 C16.875,43.5826525 16.4551875,44 15.9375,44 L5.4375,44 C5.34375,44 5.253375,43.9859237 5.16796875,43.9604746 C5.0825625,43.9859237 4.9921875,44 4.8984375,44 L0.9375,44 C0.4198125,44 0,43.5826525 0,43.0677966 L0,30.7161017 C0,27.3492627 2.75465625,24.6101695 6.140625,24.6100763 L6.8971875,24.6100763 C6.27975,23.8097797 5.91159375,22.8098983 5.91159375,21.7255593 L5.91159375,20.4099407 C5.91159375,17.7913814 8.0540625,15.6610169 10.6875,15.6610169 C13.3209375,15.6610169 15.4634062,17.7913814 15.4635937,20.4099407 L15.4635937,21.432661 L22.5164062,14.4196017 C22.9079062,14.0304068 23.4837187,13.9054915 24.0000937,14.091 C24.5166562,13.9054915 25.0922812,14.0304068 25.4836875,14.4195085 L32.5365937,21.432661 L32.5365937,20.4099407 C32.5365937,17.7913814 34.6790625,15.6610169 37.3125,15.6610169 C39.9459375,15.6610169 42.0884062,17.7913814 42.0884062,20.4100339 L42.0884062,21.7256525 C42.0884062,22.8098983 41.72025,23.8098729 41.1028125,24.6101695 L41.859375,24.6101695 Z M42.5625,30.5809322 C42.8090625,30.5809322 43.0509375,30.680678 43.2252188,30.8540678 C43.3996875,31.0283898 43.5,31.2679661 43.5,31.5131356 C43.5,31.7583051 43.3995938,31.9988136 43.2252188,32.1722034 C43.0509375,32.3455932 42.8090625,32.445339 42.5625,32.445339 C42.3159375,32.445339 42.0740625,32.3455932 41.8996875,32.1722034 C41.7252188,31.9988136 41.625,31.7583051 41.625,31.5131356 C41.625,31.2679661 41.7253125,31.0274576 41.8996875,30.8540678 C42.0740625,30.680678 42.3159375,30.5809322 42.5625,30.5809322 Z M15.9375,35.5169492 C16.1840625,35.5169492 16.4259375,35.6166949 16.6002188,35.7900847 C16.7746875,35.9634746 16.875,36.2039831 16.875,36.4491525 C16.875,36.694322 16.7745938,36.9348305 16.6002188,37.1082203 C16.4259375,37.2816102 16.1840625,37.3813559 15.9375,37.3813559 C15.6909375,37.3813559 15.4491562,37.2816102 15.2746875,37.1082203 C15.1002188,36.9348305 15,36.694322 15,36.4491525 C15,36.2039831 15.1003125,35.9634746 15.2746875,35.7900847 C15.4490625,35.6166949 15.6909375,35.5169492 15.9375,35.5169492 Z" id="friends-icon"></path>
                    </g>
                </g>
            </g>
        </g>
    </g>
</svg>