<?xml version="1.0" encoding="UTF-8"?>
<svg width="16px" height="16px" viewBox="0 0 16 16" version="1.1" xmlns="http://www.w3.org/2000/svg" xmlns:xlink="http://www.w3.org/1999/xlink">
    <!-- Generator: sketchtool 54 (76480) - https://sketchapp.com -->
    <title>179EC5C9-991B-48A1-A7E8-200AF4EBF257</title>
    <desc>Created with sketchtool.</desc>
    <g id="Affiliate-statistiky-" stroke="none" stroke-width="1" fill="none" fill-rule="evenodd">
        <g id="My-affiliate" transform="translate(-745.000000, -587.000000)" fill="#807777" fill-rule="nonzero">
            <g id="Group-20" transform="translate(240.000000, 447.000000)">
                <g id="Group-4" transform="translate(0.000000, 128.000000)">
                    <path d="M512.211538,17.5961538 L512.211538,15.9807692 L513.788462,15.9807692 L513.788462,17.5961538 L512.211538,17.5961538 Z M513,26.4230769 C514.153852,26.4230769 515.230764,26.1282081 516.230769,25.5384615 C517.205133,24.9743562 517.974356,24.2051331 518.538462,23.2307692 C519.128208,22.2307642 519.423077,21.1538519 519.423077,20 C519.423077,18.8461481 519.128208,17.7692358 518.538462,16.7692308 C517.974356,15.7948669 517.205133,15.0256438 516.230769,14.4615385 C515.230764,13.8717919 514.153852,13.5769231 513,13.5769231 C511.846148,13.5769231 510.769236,13.8717919 509.769231,14.4615385 C508.794867,15.0256438 508.025644,15.7948669 507.461538,16.7692308 C506.871792,17.7692358 506.576923,18.8461481 506.576923,20 C506.576923,21.1538519 506.871792,22.2307642 507.461538,23.2307692 C508.025644,24.2051331 508.794867,24.9743562 509.769231,25.5384615 C510.769236,26.1282081 511.846148,26.4230769 513,26.4230769 Z M513,12 C514.461546,12 515.814096,12.365381 517.057692,13.0961538 C518.262827,13.788465 519.211535,14.7371735 519.903846,15.9423077 C520.634619,17.1859037 521,18.5384542 521,20 C521,21.4615458 520.634619,22.8140963 519.903846,24.0576923 C519.211535,25.2628265 518.262827,26.211535 517.057692,26.9038462 C515.814096,27.634619 514.461546,28 513,28 C511.538454,28 510.185904,27.634619 508.942308,26.9038462 C507.737173,26.1987144 506.788465,25.2435958 506.096154,24.0384615 C505.365381,22.7948656 505,21.4487252 505,20 C505,18.5512748 505.365381,17.2051344 506.096154,15.9615385 C506.801286,14.7564042 507.756404,13.8012856 508.961538,13.0961538 C510.205134,12.365381 511.551275,12 513,12 Z M512.211538,24.0192308 L512.211538,19.2115385 L513.788462,19.2115385 L513.788462,24.0192308 L512.211538,24.0192308 Z" id="info-icon"></path>
                </g>
            </g>
        </g>
    </g>
</svg>