<?xml version="1.0" encoding="UTF-8"?>
<svg width="131px" height="42px" viewBox="0 0 131 42" version="1.1" xmlns="http://www.w3.org/2000/svg" xmlns:xlink="http://www.w3.org/1999/xlink">
    <!-- Generator: sketchtool 53.2 (72643) - https://sketchapp.com -->
    <title>2E88B00B-F6C2-4922-AE10-171FDC27D7D9</title>
    <desc>Created with sketchtool.</desc>
    <g id="Page-1" stroke="none" stroke-width="1" fill="none" fill-rule="evenodd">
        <g id="MVP-Dashboard-1920px" transform="translate(-120.000000, -19.000000)">
            <g id="Main-menu-">
                <g id="loteo-logo" transform="translate(120.000000, 19.000000)">
                    <path d="M75.1868673,18.0618336 C75.8562198,16.7003722 75.2647503,15.171482 73.967191,14.6332127 C71.9833801,13.8100206 69.5087597,15.3462543 69.3831183,17.4875818 C69.3743014,17.6300432 69.4470411,17.7769107 69.505086,18.0163047 C71.4058707,18.1352673 73.2875521,18.0647709 75.1868673,18.0618336 Z M83.6518619,21.968508 C83.1375405,22.0243176 82.6562827,22.1190471 82.1757596,22.1205158 C78.1280507,22.1329995 74.0803417,22.1263905 70.0326327,22.1307965 C69.6321968,22.1307965 69.2324957,22.1653104 68.7629937,22.1873405 C68.344924,23.2741597 68.1296438,24.3551042 68.3654968,25.4727656 C68.4977509,26.0991553 68.9275766,26.5676625 69.4867174,26.9047233 C71.1898557,27.9327955 73.5674898,27.3166865 74.5094326,25.5719011 C74.8025958,25.0292258 75.0134676,24.4424903 75.2478511,23.9086271 C76.0450492,23.6288446 82.4351245,23.6082832 83.3476775,23.9012838 C83.317553,24.1729886 83.3153488,24.4740668 83.248487,24.7604584 C82.753269,26.8694751 81.5820858,28.5533105 79.9502177,29.9419424 C78.0171042,31.5883266 75.7415996,32.4555789 73.2552233,32.7669379 C70.8944883,33.0636102 68.5278754,33.0503921 66.2104904,32.4276741 C63.494139,31.6977428 61.2311251,30.3142514 59.8931548,27.7293841 C59.195882,26.3826095 58.8013241,24.9440427 58.9203527,23.4151525 C59.0658322,21.5602165 59.092283,19.6979371 59.7190203,17.897342 C61.0606643,14.0450086 63.6175761,11.3940509 67.3757956,9.85414561 C68.8945131,9.23216192 70.4749491,8.93769267 72.101674,8.89142942 C74.0906281,8.83561978 76.077378,8.76879509 78.0428203,9.26006674 C81.5740036,10.1420058 83.9582504,12.9677358 84.163979,16.5924246 C84.2631695,18.3460221 84.014091,20.063637 83.6518619,21.968508 Z M22.1890654,24.2395195 C22.2022908,24.2417225 22.2140467,24.2446599 22.2272721,24.2468629 C22.2272721,24.4025424 22.2265374,24.5582219 22.2272721,24.7139014 C22.2324154,26.1252977 22.9113195,26.9800663 24.286027,27.3061121 C25.9884306,27.7092632 27.763574,26.7472814 28.2279327,25.0127767 C28.5960399,23.6395659 28.7819303,22.2142173 28.99868,20.8042896 C29.1779577,19.638162 29.3256414,18.4639567 29.4123413,17.2875483 C29.525492,15.747643 28.5886924,14.6167636 27.1111207,14.4082118 C25.3572849,14.1607401 23.5645076,15.3885521 23.2191776,17.1450869 C22.9796508,18.3633525 22.8349061,19.5999765 22.6585673,20.8292571 C22.4947192,21.9652769 22.3448313,23.1027654 22.1890654,24.2395195 Z M12.9283423,22.9448829 C12.9584668,18.6989446 14.4169352,15.0434136 17.5138844,12.107533 C19.1068111,10.5984699 21.0516805,9.71359346 23.1941963,9.26344469 C25.9421417,8.68625558 28.6930262,8.69873931 31.4365632,9.27813144 C35.2682572,10.0881055 38.1462524,13.152495 38.5687307,16.7177026 C38.9654929,20.0640776 38.5687307,23.2511015 36.8729397,26.1730296 C34.6400504,30.0216914 31.2580202,32.2269063 26.8245702,32.7842683 C24.6122537,33.0625821 22.4212448,32.9421508 20.2405223,32.4729093 C15.9466738,31.549113 12.8644195,28.0977277 12.9283423,23.5051822 C12.9305465,23.3179262 12.9283423,23.1314045 12.9283423,22.9448829 Z M95.4769912,23.8235909 C95.4769912,24.3266119 95.4703785,24.6063944 95.477726,24.8861769 C95.5078505,26.0390865 96.0633176,26.817484 97.1419229,27.2235726 C98.4894448,27.731734 100.084576,27.239728 100.974352,26.0559763 C101.537901,25.3062179 101.734812,24.4308878 101.868536,23.534262 C102.094103,22.0303392 102.321139,20.5256821 102.520255,19.0180876 C102.609894,18.341763 102.686307,17.6558919 102.67749,16.9758956 C102.654713,15.2524059 101.124974,14.0128446 99.4394698,14.3587175 C97.9031185,14.6752168 96.8972529,15.633527 96.4725704,17.1359811 C96.2888842,17.7880726 96.2477385,18.481287 96.1492827,19.1568774 C95.9126949,20.7834345 95.6797808,22.4114603 95.4769912,23.8235909 Z M100.501176,8.78069135 C102.477639,8.86293713 104.426917,9.00980459 106.273331,9.77278104 C109.625971,11.1577412 111.560554,13.6801898 111.911762,17.2600841 C112.268848,20.886976 111.564963,24.3214716 109.382036,27.3440039 C107.064651,30.5515892 103.905249,32.3132644 99.9971411,32.7949896 C97.7179628,33.0762408 95.4608268,32.9477318 93.2330807,32.4153372 C89.2154963,31.4540897 86.4168534,28.2773466 86.1802656,24.0828119 C85.9671896,20.2965688 86.9436654,16.8826347 89.1883107,13.8402753 C91.1324454,11.2069418 93.8025079,9.72431478 96.983218,9.15153169 C98.140441,8.94224556 99.3270539,8.899654 100.501176,8.78069135 Z M55.7893114,27.1245839 C56.0258992,28.1034555 55.6408929,31.0576944 55.1111419,32.0791576 C54.2088753,32.2950528 53.2000708,32.6277076 52.1648154,32.7628256 C50.2206807,33.0169064 48.2596469,33.1285256 46.30743,32.7804497 C45.2582145,32.5931937 44.2552879,32.2495239 43.3728594,31.6451643 C42.1980025,30.8410649 41.6939676,29.6411578 41.6917634,28.2745561 C41.6917634,27.2244538 41.842386,26.1692111 41.9790486,25.1235148 C42.3471557,22.3205493 42.7468569,19.5212555 43.1245157,16.7190244 C43.1597834,16.4576003 43.1296589,16.1873642 43.1296589,15.8598498 C42.3361345,15.7930251 41.6403312,15.7350124 40.9393847,15.6755311 C40.6969189,14.8714318 41.0165329,14.1870294 41.0635566,13.4908776 C41.1098455,12.810147 41.2038928,12.130885 41.3111656,11.4567633 C41.4206425,10.7642833 41.5712652,10.0791466 41.7123362,9.35068396 C42.5381893,9.30442071 43.2413401,9.26623517 43.9305307,9.22804964 C44.4441173,8.53850691 44.3919504,7.75937504 44.5080401,7.0419275 C44.7460974,5.57031556 44.905537,4.08621989 45.1149393,2.61093626 C45.147268,2.38108868 45.2751136,2.16445918 45.369161,1.91625318 L54.5600833,1.91625318 C54.5328978,2.31573266 54.543919,2.64471577 54.4822004,2.9582778 C54.1346661,4.72656201 53.766559,6.49044019 53.412412,8.25725573 C53.3646536,8.492978 53.3543672,8.73677798 53.3139562,9.08632254 C53.6813286,9.15828759 53.9980036,9.26623517 54.3154133,9.27357855 C55.3117273,9.29781168 56.3080412,9.28385927 57.3043551,9.28459361 L58.4314536,9.28459361 C58.4593739,9.65690262 58.5328483,9.95651223 58.4939069,10.2399664 C58.2536453,11.9627217 57.9876677,13.681071 57.7400587,15.3347986 C57.4777548,15.7900877 57.0912791,15.7665889 56.7165593,15.7673233 C55.657792,15.7680576 54.5997596,15.7680576 53.5409923,15.7680576 L52.4616523,15.7680576 C52.3499711,16.0801509 52.214778,16.3261539 52.1780408,16.585375 C51.7937693,19.3237188 51.414641,22.0620626 51.0538813,24.8033437 C50.772474,26.9395309 51.8621005,27.5453592 53.4476798,27.4095068 C54.2132838,27.3434164 54.9744794,27.2251881 55.7893114,27.1245839 Z M4.45548594,0 L13.2202564,0 C13.2202564,0.397276477 13.2621368,0.73066561 13.2136437,1.05010233 C12.8969687,3.13782327 12.5472302,5.22040384 12.2364331,7.30885911 C12.0071927,8.84362406 11.827915,10.3857324 11.617778,11.9234347 C11.335636,13.9847195 11.0417381,16.0445356 10.7603309,18.1058204 C10.2768688,21.6431231 9.79928469,25.1818946 9.31802687,28.7191973 C9.19165076,29.6422593 9.06894839,30.5653213 8.92567316,31.4854459 C8.8837927,31.7549477 8.77578522,32.0141688 8.7081887,32.243282 C7.91686858,32.4701922 0.978673667,32.4885507 0.0110147983,32.2565001 C0.0110147983,32.0185748 -0.0169055032,31.7483387 0.0161580117,31.4861803 C0.279931386,29.391116 0.554725932,27.2982547 0.828785733,25.204659 C1.07125151,23.3578007 1.31371728,21.5109424 1.56059153,19.6648185 C1.68402865,18.7410221 1.8111395,17.8186945 1.94559779,16.8971012 C2.34382946,14.1616948 2.76042975,11.4292257 3.14323177,8.69235058 C3.50399146,6.10895197 3.82580967,3.520413 4.17922191,0.935545716 C4.22404134,0.613171643 4.36364285,0.304015641 4.45548594,0 Z" id="Combined-Shape" fill="#DA2814"></path>
                    <g id="Group-16" transform="translate(41.000000, 36.000000)" fill="#FFFFFF">
                        <path d="M2.08499435,5.06711333 C3.34312994,5.06711333 3.97109605,4.39758 3.97109605,3.05778 C3.97109605,2.52978 3.83228249,2.12791333 3.5539209,1.85144667 C3.2740904,1.57498 2.86279096,1.43711333 2.31855367,1.43711333 L1.4239774,1.43711333 L1.13680226,5.06711333 L2.08499435,5.06711333 Z M0.265728814,5.71611333 C0.190079096,5.63544667 0.157028249,5.52178 0.167310734,5.37511333 L0.505898305,1.11444667 C0.515446328,0.972913333 0.563186441,0.862913333 0.649118644,0.784446667 C0.733581921,0.706713333 0.848158192,0.667113333 0.989909605,0.667113333 L2.42945763,0.667113333 C2.94872316,0.667113333 3.39454237,0.762446667 3.76618079,0.953113333 C4.13781921,1.14378 4.42352542,1.41951333 4.62109605,1.78251333 C4.82087006,2.14404667 4.91928814,2.57158 4.91928814,3.06584667 C4.91928814,3.64664667 4.8120565,4.14458 4.59685876,4.55744667 C4.38019209,4.97031333 4.06584181,5.28711333 3.65233898,5.50711333 C3.23810169,5.72711333 2.74087006,5.83711333 2.15844068,5.83711333 L0.593299435,5.83711333 C0.450813559,5.83711333 0.342112994,5.79678 0.265728814,5.71611333 Z M6.35119774,5.75241333 C6.27114124,5.66734667 6.23515254,5.55148 6.24470056,5.40408 L6.58989831,1.09281333 C6.60091525,0.950546667 6.65085876,0.838346667 6.74119774,0.755480001 C6.83153672,0.671880001 6.94758192,0.630813334 7.0900678,0.630813334 C7.23181921,0.630813334 7.34419209,0.673346667 7.42424859,0.758413334 C7.50430508,0.844946667 7.54029379,0.957880001 7.5300113,1.09941333 L7.19289266,5.41141333 C7.17746893,5.55368 7.1260565,5.66734667 7.03571751,5.75241333 C6.9439096,5.83821333 6.82712994,5.88148 6.68537853,5.88148 C6.54362712,5.88148 6.43272316,5.83821333 6.35119774,5.75241333 Z M13.2295932,3.14563333 C13.2956949,3.21456667 13.3272768,3.30696667 13.3214011,3.4243 L13.203887,4.9863 C13.184791,5.2107 13.1421921,5.36983333 13.0760904,5.46296667 C13.0099887,5.5561 12.883661,5.62943333 12.6971073,5.68296667 C12.4965989,5.7519 12.2681808,5.80543333 12.0103842,5.8443 C11.753322,5.88316667 11.5124181,5.90296667 11.2869379,5.90296667 C10.7779548,5.90296667 10.3402147,5.80543333 9.9759209,5.60963333 C9.61162712,5.41456667 9.33179661,5.13296667 9.13863277,4.7663 C8.94620339,4.39963333 8.84851977,3.96476667 8.84851977,3.46096667 C8.84851977,2.88456667 8.95942373,2.38223333 9.17976271,1.95396667 C9.39936723,1.52643333 9.71151412,1.19496667 10.1154689,0.961033333 C10.5201582,0.725633333 10.9931525,0.6083 11.5366554,0.6083 C11.8899322,0.6083 12.2094237,0.653033333 12.4995367,0.7403 C12.7874463,0.8283 13.023209,0.9405 13.203887,1.07763333 C13.3559209,1.1803 13.4315706,1.3101 13.4315706,1.4663 C13.4315706,1.5697 13.3977853,1.6599 13.3287458,1.73763333 C13.2611751,1.8161 13.1752429,1.85496667 13.0716836,1.85496667 C12.994565,1.85496667 12.9123051,1.82783333 12.8293107,1.7743 C12.6486328,1.63716667 12.4591412,1.53596667 12.2601017,1.46996667 C12.0617966,1.40396667 11.823096,1.37096667 11.544,1.37096667 C11.0004972,1.37096667 10.5745085,1.55723333 10.2660339,1.9283 C9.95755932,2.3001 9.80332203,2.8083 9.80332203,3.45363333 C9.80332203,4.00143333 9.93625989,4.42163333 10.1999322,4.7157 C10.4650734,5.0083 10.863887,5.15496667 11.3978418,5.15496667 C11.7107232,5.15496667 12.0287458,5.10656667 12.3519096,5.0083 L12.4547345,3.71763333 L11.6615141,3.71763333 C11.5395932,3.71763333 11.4448475,3.68976667 11.3787458,3.6333 C11.3133785,3.57756667 11.2803277,3.49543333 11.2803277,3.38763333 C11.2803277,3.28056667 11.3170508,3.1955 11.3904972,3.13463333 C11.4639435,3.07376667 11.5586893,3.04296667 11.6762034,3.04296667 L12.9541695,3.04296667 C13.0716836,3.04296667 13.1634915,3.07743333 13.2295932,3.14563333 Z M14.9065198,5.75241333 C14.8264633,5.66734667 14.7904746,5.55148 14.8000226,5.40408 L15.1444859,1.09281333 C15.1547684,0.950546667 15.2047119,0.838346667 15.2950508,0.755480001 C15.3853898,0.671880001 15.5021695,0.630813334 15.6439209,0.630813334 C15.7856723,0.630813334 15.8980452,0.673346667 15.9781017,0.758413334 C16.0596271,0.844946667 16.0941469,0.957880001 16.0853333,1.09941333 L15.7474802,5.41141333 C15.732791,5.55368 15.6799096,5.66734667 15.5895706,5.75241333 C15.4992316,5.83821333 15.382452,5.88148 15.2407006,5.88148 C15.0989492,5.88148 14.9865763,5.83821333 14.9065198,5.75241333 Z M18.8083559,5.7453 C18.7282994,5.66023333 18.6923107,5.54656667 18.7018588,5.4043 L19.017678,1.4443 L17.6897684,1.4443 C17.5516893,1.4443 17.446661,1.41423333 17.376887,1.35263333 C17.3049096,1.29176667 17.2703898,1.20303333 17.2703898,1.0857 C17.2703898,0.807033333 17.4268305,0.666966667 17.7397119,0.666966667 L21.3532712,0.666966667 C21.4906158,0.666966667 21.5956441,0.699233333 21.6661525,0.7623 C21.7359266,0.8261 21.7719153,0.9163 21.7719153,1.03363333 C21.7719153,1.30716667 21.6154746,1.4443 21.3025932,1.4443 L19.9658701,1.4443 L19.6500508,5.41163333 C19.6405028,5.55316667 19.5883559,5.6661 19.4958136,5.74896667 C19.4025367,5.83256667 19.2842881,5.87363333 19.1425367,5.87363333 C19.0007853,5.87363333 18.8898814,5.8311 18.8083559,5.7453 Z M23.2753616,3.894 L25.1776215,3.894 L24.3998249,1.68593333 L23.2753616,3.894 Z M26.6252486,5.456 C26.6252486,5.57773333 26.5775085,5.6782 26.4812938,5.75666667 C26.386548,5.8344 26.2793164,5.87326667 26.1618023,5.87326667 C26.0780734,5.87326667 26.0024237,5.852 25.9348531,5.80726667 C25.8658136,5.764 25.817339,5.69506667 25.787226,5.60266667 L25.4427627,4.62733333 L22.9007853,4.62733333 L22.4020847,5.61733333 C22.3572825,5.7002 22.3014633,5.764 22.2324237,5.80726667 C22.1633842,5.852 22.0892034,5.87326667 22.0054746,5.87326667 C21.8923672,5.87326667 21.7917458,5.83586667 21.7043446,5.76033333 C21.6154746,5.68406667 21.5714068,5.5902 21.5714068,5.47726667 C21.5714068,5.3944 21.5912373,5.32106667 21.6301638,5.25726667 L23.9363785,0.931333334 C23.9914633,0.833066667 24.0641751,0.757533334 24.157452,0.703266667 C24.2492599,0.649733334 24.3498814,0.623333334 24.4585819,0.623333334 C24.566548,0.623333334 24.6657006,0.6512 24.7560395,0.706933334 C24.8463785,0.7634 24.9110113,0.8404 24.9506723,0.938666667 L26.5958701,5.302 C26.6149661,5.34526667 26.6252486,5.39733333 26.6252486,5.456 Z M27.9963446,5.71948667 C27.9258362,5.64175333 27.8942542,5.53175333 27.9045367,5.39022 L28.2504689,1.09215333 C28.2600169,0.950620001 28.3106949,0.838420001 28.4010339,0.754820001 C28.4913729,0.671953334 28.6074181,0.630886667 28.7491695,0.630886667 C28.8960621,0.630886667 29.0091695,0.673420001 29.0877571,0.758486667 C29.1656102,0.845020001 29.2001299,0.957953334 29.1898475,1.09948667 L28.8740282,5.06022 L30.9312599,5.06022 C31.0634633,5.06022 31.1648192,5.09175333 31.2397345,5.15482 C31.3131808,5.21862 31.348435,5.30735333 31.348435,5.41955333 C31.348435,5.69822 31.1927288,5.83682 30.8798475,5.83682 L28.3231808,5.83682 C28.1770226,5.83682 28.068322,5.79795333 27.9963446,5.71948667 Z M36.094096,1.41548 L35.9839266,2.83741333 L38.0103107,2.83741333 C38.1425141,2.83741333 38.2460734,2.86968 38.3187853,2.93274667 C38.3937006,2.99654667 38.4296893,3.08234667 38.4296893,3.19014667 C38.4296893,3.44901333 38.2761864,3.57808 37.9677119,3.57808 L35.9178249,3.57808 L35.8003107,5.08948 L37.9816667,5.08948 C38.1138701,5.08948 38.2174294,5.12248 38.2901412,5.18848 C38.3635876,5.25374667 38.4010452,5.34101333 38.4010452,5.44881333 C38.4010452,5.57568 38.3591808,5.67248 38.2791243,5.73848 C38.1983333,5.80374667 38.0822881,5.83674667 37.9302542,5.83674667 L35.2722316,5.83674667 C35.1246045,5.83674667 35.0151695,5.79861333 34.9453955,5.71941333 C34.8734181,5.64168 34.8433051,5.53168 34.8535876,5.39014667 L35.1907062,1.10674667 C35.2002542,0.970346667 35.2465254,0.862546667 35.3295198,0.784813333 C35.4125141,0.706346667 35.5263559,0.666746667 35.6681073,0.666746667 L38.3349435,0.666746667 C38.4664124,0.666746667 38.5685028,0.699013333 38.6390113,0.76208 C38.7095198,0.82588 38.744774,0.91168 38.744774,1.01948 C38.744774,1.28274667 38.5912712,1.41548 38.2827966,1.41548 L36.094096,1.41548 Z M42.199322,3.03607333 C42.879435,3.03607333 43.2209605,2.74494 43.2209605,2.16340667 C43.2209605,1.90380667 43.1475141,1.71167333 42.999887,1.58700667 C42.8537288,1.46234 42.6282486,1.40074 42.3241808,1.40074 L41.0014124,1.40074 L40.8765537,3.03607333 L42.199322,3.03607333 Z M43.8232203,5.27274 C43.8562712,5.33654 43.8731638,5.40254 43.8731638,5.47000667 C43.8731638,5.58734 43.8246893,5.68780667 43.7270056,5.77067333 C43.629322,5.85427333 43.5162147,5.89534 43.3884181,5.89534 C43.3054237,5.89534 43.2261017,5.87334 43.150452,5.83007333 C43.0740678,5.78607333 43.0138418,5.71714 42.9712429,5.62400667 L42.2441243,4.18667333 C42.1648023,4.03047333 42.0715254,3.92047333 41.9642938,3.85667333 C41.8563277,3.79360667 41.7116384,3.76134 41.5309605,3.76134 L40.8177966,3.76134 L40.6929379,5.41134 C40.6841243,5.55360667 40.6341808,5.66727333 40.5423729,5.75234 C40.4520339,5.83814 40.3359887,5.88140667 40.1942373,5.88140667 C40.0517514,5.88140667 39.9415819,5.83814 39.8637288,5.75234 C39.7851412,5.66727333 39.7506215,5.55140667 39.760904,5.40400667 L40.0994915,1.11474 C40.1090395,0.973206667 40.1567797,0.862473333 40.2427119,0.78474 C40.3271751,0.706273333 40.4417514,0.667406667 40.5842373,0.667406667 L42.4343503,0.667406667 C42.9683051,0.667406667 43.3796045,0.794273333 43.6726554,1.04874 C43.9635028,1.30320667 44.1089266,1.65667333 44.1089266,2.11134 C44.1089266,3.02580667 43.6440113,3.55160667 42.7127119,3.68874 C42.8361017,3.72320667 42.9411299,3.78260667 43.03,3.86840667 C43.1174011,3.95347333 43.2003955,4.07447333 43.2797175,4.23140667 L43.8232203,5.27274 Z M46.7997062,3.894 L48.7019661,3.894 L47.9227006,1.68593333 L46.7997062,3.894 Z M50.1481243,5.456 C50.1481243,5.57773333 50.1003842,5.6782 50.0056384,5.75666667 C49.9094237,5.8344 49.803661,5.87326667 49.6861469,5.87326667 C49.6024181,5.87326667 49.5267684,5.852 49.4577288,5.80726667 C49.3886893,5.764 49.3402147,5.69506667 49.3115706,5.60266667 L48.9656384,4.62733333 L46.4251299,4.62733333 L45.9249605,5.61733333 C45.8816271,5.7002 45.824339,5.764 45.7567684,5.80726667 C45.6877288,5.852 45.6120791,5.87326667 45.5290847,5.87326667 C45.4152429,5.87326667 45.3160904,5.83586667 45.2272203,5.76033333 C45.1398192,5.68406667 45.0957514,5.5902 45.0957514,5.47726667 C45.0957514,5.3944 45.1155819,5.32106667 45.1545085,5.25726667 L47.4607232,0.931333334 C47.514339,0.833066667 47.5870508,0.757533334 47.6803277,0.703266667 C47.7736045,0.649733334 47.874226,0.623333334 47.9814576,0.623333334 C48.0894237,0.623333334 48.1885763,0.6512 48.2789153,0.706933334 C48.3707232,0.7634 48.4353559,0.8404 48.473548,0.938666667 L50.1194802,5.302 C50.1393107,5.34526667 50.1481243,5.39733333 50.1481243,5.456 Z M53.861791,5.71948667 C53.7898136,5.64175333 53.7597006,5.53175333 53.7699831,5.39022 L54.1144463,1.09215333 C54.1239944,0.950620001 54.1746723,0.838420001 54.2650113,0.754820001 C54.3553503,0.671953334 54.4713955,0.630886667 54.6131469,0.630886667 C54.7615085,0.630886667 54.8731469,0.673420001 54.9517345,0.758486667 C55.0310565,0.845020001 55.0641073,0.957953334 55.0552938,1.09948667 L54.7394746,5.06022 L56.7952373,5.06022 C56.9274407,5.06022 57.0302655,5.09175333 57.1037119,5.15482 C57.1771582,5.21862 57.2138814,5.30735333 57.2138814,5.41955333 C57.2138814,5.69822 57.0581751,5.83682 56.7438249,5.83682 L54.1886271,5.83682 C54.041,5.83682 53.9322994,5.79795333 53.861791,5.71948667 Z M61.7285537,4.59440667 C62.0083842,4.22480667 62.1471977,3.71587333 62.1471977,3.06540667 C62.1471977,2.51760667 62.0194011,2.09594 61.7660113,1.79967333 C61.5104181,1.50414 61.152,1.35674 60.6856158,1.35674 C60.1964633,1.35674 59.812339,1.54227333 59.5339774,1.91407333 C59.2541469,2.28587333 59.1145989,2.79627333 59.1145989,3.44674 C59.1145989,3.99454 59.2409266,4.41474 59.4965198,4.70734 C59.7506441,5.00140667 60.1134689,5.14807333 60.5835254,5.14807333 C61.0690056,5.14807333 61.4501921,4.96327333 61.7285537,4.59440667 Z M59.3011525,5.60640667 C58.9368588,5.40767333 58.6555593,5.12460667 58.4609266,4.75574 C58.2640904,4.38614 58.1664068,3.94760667 58.1664068,3.43940667 C58.1664068,2.87180667 58.271435,2.37460667 58.4792881,1.94707333 C58.6871412,1.51954 58.9801921,1.18734 59.3569718,0.952673333 C59.7330169,0.71874 60.1751638,0.601406667 60.6782712,0.601406667 C61.1732994,0.601406667 61.602226,0.699673333 61.9679887,0.898406667 C62.3322825,1.09567333 62.612113,1.37947333 62.8089492,1.74834 C63.0050508,2.11794 63.1027345,2.55720667 63.1027345,3.06540667 C63.1027345,3.63227333 62.9984407,4.12947333 62.7898531,4.55700667 C62.582,4.98527333 62.2896836,5.31600667 61.9121695,5.55140667 C61.5361243,5.78607333 61.0947119,5.90267333 60.5908701,5.90267333 C60.0958418,5.90267333 59.6654463,5.80367333 59.3011525,5.60640667 Z M65.5629661,5.7453 C65.4829096,5.66023333 65.4469209,5.54656667 65.4564689,5.4043 L65.7722881,1.4443 L64.4443785,1.4443 C64.3062994,1.4443 64.2012712,1.41423333 64.1314972,1.35263333 C64.0595198,1.29176667 64.025,1.20303333 64.025,1.0857 C64.025,0.807033333 64.1814407,0.666966667 64.494322,0.666966667 L68.1078814,0.666966667 C68.245226,0.666966667 68.3502542,0.699233333 68.4207627,0.7623 C68.4905367,0.8261 68.5265254,0.9163 68.5265254,1.03363333 C68.5265254,1.30716667 68.3700847,1.4443 68.0572034,1.4443 L66.7204802,1.4443 L66.404661,5.41163333 C66.395113,5.55316667 66.3429661,5.6661 66.2504237,5.74896667 C66.1571469,5.83256667 66.0388983,5.87363333 65.8971469,5.87363333 C65.7553955,5.87363333 65.6444915,5.8311 65.5629661,5.7453 Z M70.9552486,5.7453 C70.8751921,5.66023333 70.8392034,5.54656667 70.8487514,5.4043 L71.1645706,1.4443 L69.836661,1.4443 C69.6985819,1.4443 69.5935537,1.41423333 69.5237797,1.35263333 C69.4518023,1.29176667 69.4172825,1.20303333 69.4172825,1.0857 C69.4172825,0.807033333 69.5737232,0.666966667 69.8866045,0.666966667 L73.5001638,0.666966667 C73.6375085,0.666966667 73.7425367,0.699233333 73.8130452,0.7623 C73.8828192,0.8261 73.9188079,0.9163 73.9188079,1.03363333 C73.9188079,1.30716667 73.7623672,1.4443 73.4494859,1.4443 L72.1127627,1.4443 L71.7969435,5.41163333 C71.7873955,5.55316667 71.7352486,5.6661 71.6427062,5.74896667 C71.5494294,5.83256667 71.4311808,5.87363333 71.2894294,5.87363333 C71.147678,5.87363333 71.036774,5.8311 70.9552486,5.7453 Z M76.0032881,1.41548 L75.8945876,2.83741333 L77.9209718,2.83741333 C78.0531751,2.83741333 78.1567345,2.86968 78.2294463,2.93274667 C78.3028927,2.99654667 78.3403503,3.08234667 78.3403503,3.19014667 C78.3403503,3.44901333 78.1853785,3.57808 77.876904,3.57808 L75.8284859,3.57808 L75.7109718,5.08948 L77.8908588,5.08948 C78.0230621,5.08948 78.1266215,5.12248 78.1993333,5.18848 C78.2742486,5.25374667 78.3102373,5.34101333 78.3102373,5.44881333 C78.3102373,5.57568 78.2698418,5.67248 78.1897853,5.73848 C78.1075254,5.80374667 77.9914802,5.83674667 77.8394463,5.83674667 L75.1814237,5.83674667 C75.0352655,5.83674667 74.9258305,5.79861333 74.8545876,5.71941333 C74.7840791,5.64168 74.7524972,5.53168 74.7627797,5.39014667 L75.1006328,1.10674667 C75.1109153,0.970346667 75.1571864,0.862546667 75.2401808,0.784813333 C75.3231751,0.706346667 75.435548,0.666746667 75.5787684,0.666746667 L78.2441356,0.666746667 C78.3756045,0.666746667 78.4776949,0.699013333 78.5496723,0.76208 C78.6201808,0.82588 78.655435,0.91168 78.655435,1.01948 C78.655435,1.28274667 78.5004633,1.41548 78.1919887,1.41548 L76.0032881,1.41548 Z M82.1099096,3.03607333 C82.7900226,3.03607333 83.131548,2.74494 83.131548,2.16340667 C83.131548,1.90380667 83.0581017,1.71167333 82.9104746,1.58700667 C82.7643164,1.46234 82.5388362,1.40074 82.2347684,1.40074 L80.912,1.40074 L80.7871412,3.03607333 L82.1099096,3.03607333 Z M83.7338079,5.27274 C83.7668588,5.33654 83.7837514,5.40254 83.7837514,5.47000667 C83.7837514,5.58734 83.7352768,5.68780667 83.6375932,5.77067333 C83.5399096,5.85427333 83.4268023,5.89534 83.2990056,5.89534 C83.2160113,5.89534 83.1366893,5.87334 83.0610395,5.83007333 C82.9846554,5.78607333 82.9244294,5.71714 82.8818305,5.62400667 L82.1547119,4.18667333 C82.0753898,4.03047333 81.982113,3.92047333 81.8748814,3.85667333 C81.7669153,3.79360667 81.622226,3.76134 81.441548,3.76134 L80.7283842,3.76134 L80.6035254,5.41134 C80.5947119,5.55360667 80.5447684,5.66727333 80.4529605,5.75234 C80.3626215,5.83814 80.2465763,5.88140667 80.1048249,5.88140667 C79.962339,5.88140667 79.8521695,5.83814 79.7743164,5.75234 C79.6957288,5.66727333 79.661209,5.55140667 79.6714915,5.40400667 L80.0100791,1.11474 C80.0196271,0.973206667 80.0673672,0.862473333 80.1532994,0.78474 C80.2377627,0.706273333 80.352339,0.667406667 80.4948249,0.667406667 L82.3449379,0.667406667 C82.8788927,0.667406667 83.2901921,0.794273333 83.5832429,1.04874 C83.8740904,1.30320667 84.0195141,1.65667333 84.0195141,2.11134 C84.0195141,3.02580667 83.5545989,3.55160667 82.6232994,3.68874 C82.7466893,3.72320667 82.8517175,3.78260667 82.9405876,3.86840667 C83.0279887,3.95347333 83.1109831,4.07447333 83.1903051,4.23140667 L83.7338079,5.27274 Z M89.1318192,0.615486667 C89.2434576,0.615486667 89.3411412,0.656553334 89.4241356,0.736486667 C89.5078644,0.817153334 89.5504633,0.913953334 89.5504633,1.02688667 C89.5504633,1.13395333 89.5078644,1.23662 89.4241356,1.33415333 L87.6327797,3.46082 L87.4719322,5.41148667 C87.4623842,5.56328667 87.4102373,5.67915333 87.3169605,5.76055333 C87.2236836,5.84048667 87.1091073,5.88155333 86.9717627,5.88155333 C86.8351525,5.88155333 86.7249831,5.83975333 86.6412542,5.75688667 C86.5582599,5.67328667 86.5208023,5.55595333 86.5310847,5.40415333 L86.6860565,3.46082 L85.2097853,1.31948667 C85.155435,1.23662 85.1282599,1.15815333 85.1282599,1.08555333 C85.1282599,0.967486667 85.1767345,0.86262 85.275887,0.769486667 C85.3735706,0.677086667 85.4808023,0.630886667 85.5983164,0.630886667 C85.726113,0.630886667 85.8340791,0.691753334 85.9214802,0.81422 L87.1994463,2.69888667 L88.7792768,0.79882 C88.8865085,0.677086667 89.0040226,0.615486667 89.1318192,0.615486667 Z" id="Combined-Shape"></path>
                    </g>
                </g>
            </g>
        </g>
    </g>
</svg>