<?xml version="1.0" encoding="UTF-8"?>
<svg width="167px" height="53px" viewBox="0 0 167 53" version="1.1" xmlns="http://www.w3.org/2000/svg" xmlns:xlink="http://www.w3.org/1999/xlink">
    <!-- Generator: sketchtool 55.1 (78136) - https://sketchapp.com -->
    <title>6D7689B1-3140-4397-93D4-9535295FC0FB</title>
    <desc>Created with sketchtool.</desc>
    <g id="*Statistics" stroke="none" stroke-width="1" fill="none" fill-rule="evenodd">
        <g id="Loteo-Admin---Statistics" transform="translate(-32.000000, -42.000000)">
            <g id="loteo-logo" transform="translate(32.000000, 42.000000)">
                <path d="M96.6688294,22.9877882 C97.5294255,21.2550192 96.7689646,19.3091589 95.1006741,18.6240889 C92.5500601,17.5763899 89.3684053,19.5315963 89.2068664,22.2569223 C89.1955304,22.4382369 89.2890529,22.6251591 89.363682,22.9298423 C91.807548,23.0812493 94.2268527,22.9915266 96.6688294,22.9877882 Z M107.552394,27.9599193 C106.891124,28.0309497 106.272363,28.1515145 105.654548,28.1533838 C100.450351,28.1692722 95.2461536,28.1608607 90.0419564,28.1664683 C89.5271102,28.1664683 89.0132087,28.210395 88.4095634,28.2384334 C87.8720451,29.6216578 87.5952563,30.9974054 87.8984959,32.4198835 C88.0685369,33.2171067 88.6211699,33.8133886 89.3400652,34.2423751 C91.5298145,35.5508307 94.5867726,34.7666919 95.797842,32.546056 C96.174766,31.8553783 96.4458869,31.1086241 96.7472372,30.4291618 C97.7722061,30.073075 105.988017,30.0469059 107.1613,30.4198157 C107.122568,30.7656218 107.119734,31.1488124 107.033769,31.5133107 C106.39706,34.1975138 104.891253,36.340577 102.793137,38.1079266 C100.307705,40.2033247 97.3820567,41.3071004 94.1852871,41.7033756 C91.1500564,42.0809584 88.1072684,42.0641354 85.1277734,41.2715852 C81.6353215,40.3425818 78.7257322,38.5817745 77.0054848,35.2919434 C76.1089912,33.5778666 75.6017024,31.7469635 75.7547392,29.8011031 C75.9417843,27.4402755 75.9757925,25.0701017 76.7815975,22.7784353 C78.5065683,17.8754654 81.7940264,14.5015194 86.6260229,12.5416399 C88.5786597,11.7500243 90.6106488,11.3752452 92.7021523,11.3163647 C95.259379,11.2453343 97.8137717,11.1602847 100.340769,11.7855395 C104.880862,12.9080074 107.946322,16.504391 108.21083,21.1176314 C108.338361,23.3494827 108.018117,25.5355381 107.552394,27.9599193 Z M28.5287984,30.8502976 C28.5458025,30.8531014 28.5609172,30.8568398 28.5779213,30.8596437 C28.5779213,31.0577812 28.5769767,31.2559188 28.5779213,31.4540563 C28.584534,33.2503789 29.4574108,34.3382662 31.2248919,34.7532335 C33.4136965,35.266335 35.6960237,34.0419945 36.2930564,31.8344431 C36.766337,30.0867203 37.0053389,28.2726401 37.2840171,26.4781868 C37.5145171,24.9940244 37.7043961,23.4995812 37.8158674,22.0023342 C37.9613468,20.0424548 36.7568902,18.6031537 34.8571551,18.3377241 C32.6022234,18.0227602 30.2972241,19.5854299 29.8532283,21.8210197 C29.5452653,23.3715395 29.3591649,24.9454246 29.1324437,26.5099636 C28.9217819,27.955807 28.7290688,29.4035196 28.5287984,30.8502976 Z M16.6221543,29.2025782 C16.6608859,23.7986568 18.5360595,19.1461627 22.5178514,15.4095875 C24.5659,13.4889617 27.0664464,12.3627553 29.8211095,11.7898387 C33.3541822,11.0552344 36.8910336,11.0711228 40.4184383,11.8085309 C45.3449021,12.839407 49.0451817,16.7395391 49.588368,21.277076 C50.0984908,25.5360988 49.588368,29.592311 47.4080654,33.3111286 C44.5372076,38.2094254 40.1888831,41.0160626 34.4887331,41.7254324 C31.6443262,42.07965 28.8273147,41.9263738 26.0235286,41.3291573 C20.5028663,40.1534165 16.5399679,35.7607443 16.6221543,29.9156865 C16.6249884,29.6773606 16.6221543,29.4399694 16.6221543,29.2025782 Z M122.756132,30.3209338 C122.756132,30.9611424 122.74763,31.3172293 122.757076,31.6733161 C122.795808,33.1406555 123.50998,34.1313433 124.896758,34.6481833 C126.629286,35.2949341 128.680169,34.6687447 129.824166,33.1621516 C130.54873,32.2079137 130.801902,31.0938572 130.973832,29.9526971 C131.263846,28.0386135 131.55575,26.1235954 131.811756,24.2048388 C131.927006,23.3440619 132.025252,22.4711352 132.013916,21.6056853 C131.984631,19.412153 130.017824,17.8345295 127.850747,18.2747313 C125.875438,18.6775487 124.582182,19.8972162 124.036162,21.8094305 C123.799994,22.6393652 123.747092,23.5216381 123.620506,24.3814803 C123.316322,26.4516439 123.016861,28.5236767 122.756132,30.3209338 Z M129.215798,11.1754254 C131.756965,11.2801018 134.263179,11.467024 136.63714,12.438085 C140.947677,14.2007615 143.434998,17.4111506 143.886552,21.9673798 C144.345662,26.583424 143.440666,30.9546002 140.634046,34.8014595 C137.654551,38.8838408 133.592462,41.1259728 128.567753,41.7390777 C125.637381,42.0970338 122.735349,41.9334768 119.871104,41.2558838 C114.705638,40.0324778 111.107383,35.9893502 110.803199,30.6508516 C110.529244,25.8319967 111.784713,21.4869897 114.670685,17.6148959 C117.170287,14.2633804 120.603224,12.3764006 124.692709,11.647404 C126.180567,11.3810398 127.706212,11.3268324 129.215798,11.1754254 Z M71.7291146,34.5221977 C72.0332989,35.7680343 71.5382909,39.5279747 70.8571825,40.8280188 C69.6971254,41.1027945 68.400091,41.5261733 67.0690483,41.6981417 C64.5694466,42.0215172 62.0481174,42.1635781 59.5381243,41.7205724 C58.1891329,41.4822466 56.8996558,41.0448486 55.7651049,40.2756636 C54.2545746,39.2522645 53.6065298,37.7251099 53.6036957,35.9857987 C53.6036957,34.6493048 53.7973535,33.3062686 53.9730624,31.9753824 C54.446343,28.4079718 54.9602445,24.8452343 55.4458059,21.2787583 C55.4911501,20.9460368 55.4524186,20.6020999 55.4524186,20.1852633 C54.432173,20.1002137 53.5375687,20.0263794 52.6363518,19.9506759 C52.3246101,18.9272768 52.7355423,18.0562192 52.7960013,17.1702079 C52.8555156,16.3038234 52.9764336,15.4393081 53.1143557,14.5813351 C53.2551118,13.6999969 53.4487696,12.8280047 53.6301466,11.9008705 C54.6919577,11.84199 55.5960087,11.7933902 56.4821109,11.7447904 C57.1424365,10.8671906 57.0753648,9.87556824 57.224623,8.96245319 C57.5306966,7.08949253 57.7356904,5.20064349 58.0049219,3.32300978 C58.0464875,3.03047651 58.2108604,2.75476623 58.3317784,2.43886768 L70.1486786,2.43886768 C70.1137257,2.94729612 70.1278958,3.36600189 70.0485434,3.76508083 C69.6017136,6.01562437 69.128433,8.26056025 68.6731012,10.5092346 C68.6116975,10.8092447 68.5984721,11.1195356 68.5465151,11.5644105 C69.0188511,11.6560024 69.4260046,11.7933902 69.8341029,11.8027363 C71.1150779,11.8335785 72.3960529,11.8158209 73.677028,11.8167555 L75.1261546,11.8167555 C75.1620521,12.2906033 75.2565193,12.6719247 75.2064517,13.0326845 C74.897544,15.2252822 74.5555728,17.4122722 74.2372184,19.5170164 C73.8999705,20.0964753 73.4030731,20.0665677 72.9212905,20.0675023 C71.5600183,20.0684369 70.1996909,20.0684369 68.8384187,20.0684369 L67.4506958,20.0684369 C67.3071057,20.4656467 67.133286,20.7787414 67.0860524,21.1086591 C66.5919891,24.5938239 66.1045384,28.0789887 65.6407045,31.567892 C65.2788952,34.2866757 66.6798435,35.0577298 68.7184454,34.8848268 C69.7027935,34.8007118 70.6814735,34.6502394 71.7291146,34.5221977 Z M5.72848193,0 L16.9974725,0 C16.9974725,0.505624608 17.0513188,0.929938049 16.9889704,1.33649388 C16.5818169,3.99359325 16.1321531,6.64415034 15.7325569,9.30218432 C15.4378192,11.2555215 15.2073193,13.2182049 14.9371432,15.1752805 C14.5743892,17.7987339 14.1965204,20.420318 13.8347111,23.0437714 C13.213117,27.5457931 12.5990803,32.049684 11.9803203,36.5517057 C11.8178367,37.7265118 11.6600765,38.901318 11.4758655,40.0723857 C11.4220192,40.415388 11.2831524,40.7453057 11.1962426,41.0369044 C10.178831,41.3256992 1.25829471,41.3490645 0.0141618835,41.0537274 C0.0141618835,40.7509134 -0.021735647,40.4069765 0.0207745864,40.0733203 C0.359911782,37.4068748 0.713219055,34.7432332 1.06558166,32.0786569 C1.37732337,29.72811 1.68906508,27.3775631 2.00647482,25.0279508 C2.16517969,23.85221 2.32860793,22.6783385 2.50148287,21.5054015 C3.01349502,18.0239752 3.54912396,14.5462872 4.041298,11.0629916 C4.50513188,7.77502978 4.91889815,4.48052564 5.37328531,1.19069455 C5.43091029,0.780400272 5.61039795,0.386928997 5.72848193,0 Z" id="Combined-Shape" fill="#DA2814"></path>
                <g id="Group-16" transform="translate(53.000000, 46.000000)" fill="#807777">
                    <path d="M2.64099284,5.91163222 C4.23463126,5.91163222 5.03005499,5.13051 5.03005499,3.56741 C5.03005499,2.95141 4.85422448,2.48256556 4.50163315,2.16002111 C4.14718117,1.83747667 3.62620188,1.67663222 2.93683465,1.67663222 L1.80370471,1.67663222 L1.43994953,5.91163222 L2.64099284,5.91163222 Z M0.336589831,6.66879889 C0.240766855,6.57468778 0.198902448,6.44207667 0.21192693,6.27096556 L0.64080452,1.30018778 C0.652898682,1.13506556 0.713369492,1.00673222 0.822216949,0.915187778 C0.929203766,0.824498889 1.07433371,0.778298889 1.2538855,0.778298889 L3.07731299,0.778298889 C3.73504934,0.778298889 4.29975367,0.889521111 4.77049567,1.11196556 C5.24123766,1.33441 5.6031322,1.65609889 5.85338832,2.07959889 C6.1064354,2.50138778 6.23109831,3.00017667 6.23109831,3.57682111 C6.23109831,4.25442111 6.09527156,4.83534333 5.82268776,5.31702111 C5.54824331,5.79869889 5.15006629,6.16829889 4.62629605,6.42496556 C4.10159548,6.68163222 3.47176874,6.80996556 2.73402486,6.80996556 L0.751512618,6.80996556 C0.571030508,6.80996556 0.433343126,6.76291 0.336589831,6.66879889 Z M8.04485047,6.71114889 C7.94344557,6.61190445 7.89785989,6.47672667 7.90995405,6.30476 L8.34720452,1.27494889 C8.36115932,1.10897111 8.42442109,0.978071112 8.53885047,0.881393334 C8.65327985,0.783860001 8.80027043,0.73594889 8.98075254,0.73594889 C9.16030433,0.73594889 9.30264331,0.785571112 9.40404821,0.884815556 C9.50545311,0.985771112 9.55103879,1.11752667 9.53801431,1.28264889 L9.11099736,6.31331556 C9.09146064,6.47929333 9.02633823,6.61190445 8.91190885,6.71114889 C8.79561883,6.81124889 8.64769793,6.86172667 8.46814614,6.86172667 C8.28859435,6.86172667 8.14811601,6.81124889 8.04485047,6.71114889 Z M16.7574847,3.66990556 C16.8412136,3.75032778 16.8812173,3.85812778 16.8737748,3.99501667 L16.7249235,5.81735 C16.7007352,6.07915 16.6467766,6.26480556 16.5630478,6.37346111 C16.479319,6.48211667 16.319304,6.56767222 16.0830026,6.63012778 C15.8290252,6.71055 15.5396957,6.77300556 15.2131533,6.81835 C14.8875412,6.86369444 14.5823962,6.88679444 14.2967879,6.88679444 C13.6520761,6.88679444 13.0976053,6.77300556 12.6361665,6.54457222 C12.1747277,6.31699444 11.8202757,5.98846111 11.5756015,5.56068333 C11.3318576,5.13290556 11.208125,4.62556111 11.208125,4.03779444 C11.208125,3.36532778 11.3486034,2.77927222 11.6276994,2.27962778 C11.9058652,1.78083889 12.3012512,1.39412778 12.8129273,1.12120556 C13.3255337,0.846572222 13.9246599,0.709683334 14.6130968,0.709683334 C15.0605808,0.709683334 15.4652701,0.761872222 15.8327465,0.863683334 C16.197432,0.96635 16.4960648,1.09725 16.7249235,1.25723889 C16.9174998,1.37701667 17.0133228,1.52845 17.0133228,1.71068333 C17.0133228,1.83131667 16.9705281,1.93655 16.883078,2.02723889 C16.7974885,2.11878333 16.6886411,2.16412778 16.5574659,2.16412778 C16.4597823,2.16412778 16.3555864,2.13247222 16.2504603,2.07001667 C16.0216015,1.91002778 15.7815789,1.79196111 15.5294621,1.71496111 C15.2782757,1.63796111 14.9759217,1.59946111 14.6224,1.59946111 C13.9339631,1.59946111 13.3943774,1.81677222 13.0036429,2.24968333 C12.6129085,2.68345 12.4175412,3.27635 12.4175412,4.02923889 C12.4175412,4.66833889 12.5859292,5.15857222 12.9199141,5.50165 C13.2557597,5.84301667 13.7609235,6.01412778 14.4372663,6.01412778 C14.8335827,6.01412778 15.2364113,5.95766111 15.6457522,5.84301667 L15.775997,4.33723889 L14.7712512,4.33723889 C14.6168181,4.33723889 14.4968068,4.30472778 14.413078,4.23885 C14.3302795,4.17382778 14.2884151,4.07800556 14.2884151,3.95223889 C14.2884151,3.82732778 14.3349311,3.72808333 14.4279631,3.65707222 C14.5209951,3.58606111 14.6410064,3.55012778 14.7898576,3.55012778 L16.4086147,3.55012778 C16.5574659,3.55012778 16.6737559,3.59033889 16.7574847,3.66990556 Z M18.8815917,6.71114889 C18.7801868,6.61190445 18.7346011,6.47672667 18.7466953,6.30476 L19.1830154,1.27494889 C19.1960399,1.10897111 19.2593017,0.978071112 19.3737311,0.881393334 C19.4881605,0.783860001 19.6360814,0.73594889 19.8156331,0.73594889 C19.9951849,0.73594889 20.1375239,0.785571112 20.2389288,0.884815556 C20.3421944,0.985771112 20.3859194,1.11752667 20.3747556,1.28264889 L19.9468083,6.31331556 C19.9282019,6.47929333 19.8612188,6.61190445 19.7467895,6.71114889 C19.6323601,6.81124889 19.4844392,6.86172667 19.3048874,6.86172667 C19.1253356,6.86172667 18.9829966,6.81124889 18.8815917,6.71114889 Z M23.8239175,6.70285 C23.7225126,6.60360556 23.6769269,6.47099444 23.6890211,6.30501667 L24.0890588,1.68501667 L22.4070399,1.68501667 C22.2321397,1.68501667 22.099104,1.64993889 22.0107235,1.57807222 C21.9195522,1.50706111 21.8758271,1.40353889 21.8758271,1.26665 C21.8758271,0.941538889 22.0739853,0.778127778 22.4703017,0.778127778 L27.0474768,0.778127778 C27.2214467,0.778127778 27.3544825,0.815772222 27.4437932,0.88935 C27.5321736,0.963783333 27.5777593,1.06901667 27.5777593,1.20590556 C27.5777593,1.52502778 27.3796011,1.68501667 26.9832847,1.68501667 L25.2901021,1.68501667 L24.8900644,6.31357222 C24.8779702,6.47869444 24.8119175,6.61045 24.6946972,6.70712778 C24.5765465,6.80466111 24.426765,6.85257222 24.2472132,6.85257222 C24.0676614,6.85257222 23.9271831,6.80295 23.8239175,6.70285 Z M29.4821247,4.543 L31.8916539,4.543 L30.9064448,1.96692222 L29.4821247,4.543 Z M33.7253149,6.36533333 C33.7253149,6.50735556 33.6648441,6.62456667 33.5429721,6.71611111 C33.4229608,6.8068 33.2871341,6.85214444 33.1382829,6.85214444 C33.0322264,6.85214444 32.9364034,6.82733333 32.8508139,6.77514444 C32.7633638,6.72466667 32.7019627,6.64424444 32.6638196,6.53644444 L32.2274994,5.39855556 L29.0076614,5.39855556 L28.375974,6.55355556 C28.3192245,6.65023333 28.2485202,6.72466667 28.1610701,6.77514444 C28.07362,6.82733333 27.9796576,6.85214444 27.8736011,6.85214444 C27.7303318,6.85214444 27.602878,6.80851111 27.4921699,6.72038889 C27.3796011,6.63141111 27.3237819,6.5219 27.3237819,6.39014444 C27.3237819,6.29346667 27.3489006,6.20791111 27.3982075,6.13347778 L30.3194128,1.08655556 C30.3891868,0.971911112 30.4812885,0.883788889 30.5994392,0.820477778 C30.7157292,0.758022223 30.8431831,0.727222223 30.9808704,0.727222223 C31.1176275,0.727222223 31.2432207,0.759733334 31.3576501,0.824755556 C31.4720795,0.890633334 31.5539476,0.980466667 31.6041849,1.09511111 L33.6881021,6.18566667 C33.7122904,6.23614444 33.7253149,6.29688889 33.7253149,6.36533333 Z M35.4620365,6.67273445 C35.3727258,6.58204556 35.332722,6.45371222 35.3457465,6.28859 L35.7839273,1.27417889 C35.7960215,1.10905667 35.8602136,0.978156667 35.9746429,0.880623334 C36.0890723,0.783945556 36.2360629,0.736034445 36.4156147,0.736034445 C36.6016787,0.736034445 36.744948,0.785656667 36.8444923,0.884901112 C36.9431062,0.985856667 36.9868313,1.11761222 36.9738068,1.28273445 L36.5737691,5.90359 L39.1795959,5.90359 C39.3470535,5.90359 39.4754377,5.94037889 39.5703303,6.01395667 C39.6633623,6.08839 39.7080177,6.19191222 39.7080177,6.32281222 C39.7080177,6.64792333 39.5107898,6.80962333 39.1144734,6.80962333 L35.876029,6.80962333 C35.6908953,6.80962333 35.5532079,6.76427889 35.4620365,6.67273445 Z M45.7191883,1.65139333 L45.5796403,3.31031556 L48.1463936,3.31031556 C48.3138512,3.31031556 48.4450264,3.34796 48.5371281,3.42153778 C48.6320207,3.49597111 48.6776064,3.59607111 48.6776064,3.72183778 C48.6776064,4.02384889 48.4831695,4.17442667 48.092435,4.17442667 L45.4959115,4.17442667 L45.3470603,5.93772667 L48.1101111,5.93772667 C48.2775687,5.93772667 48.4087439,5.97622667 48.5008456,6.05322667 C48.5938776,6.12937111 48.6413239,6.23118222 48.6413239,6.35694889 C48.6413239,6.50496 48.5882957,6.61789333 48.4868908,6.69489333 C48.3845556,6.77103778 48.237565,6.80953778 48.0449887,6.80953778 L44.6781601,6.80953778 C44.4911657,6.80953778 44.352548,6.76504889 44.2641676,6.67264889 C44.1729962,6.58196 44.1348531,6.45362667 44.1478776,6.28850444 L44.5748945,1.29120444 C44.5869887,1.13207111 44.6455989,1.00630444 44.750725,0.915615556 C44.8558512,0.824071111 45.0000508,0.777871111 45.1796026,0.777871111 L48.5575951,0.777871111 C48.7241224,0.777871111 48.8534369,0.815515556 48.9427476,0.889093333 C49.0320584,0.963526667 49.0767137,1.06362667 49.0767137,1.18939333 C49.0767137,1.49653778 48.8822768,1.65139333 48.4915424,1.65139333 L45.7191883,1.65139333 Z M53.4524746,3.54208556 C54.313951,3.54208556 54.7465499,3.20243 54.7465499,2.52397444 C54.7465499,2.22110778 54.6535179,1.99695222 54.4665235,1.85150778 C54.2813898,1.70606333 53.9957815,1.63419667 53.610629,1.63419667 L51.9351224,1.63419667 L51.776968,3.54208556 L53.4524746,3.54208556 Z M55.5094124,6.15153 C55.5512768,6.22596333 55.5726742,6.30296333 55.5726742,6.38167444 C55.5726742,6.51856333 55.5112731,6.63577444 55.3875405,6.73245222 C55.2638079,6.82998556 55.1205386,6.87789667 54.9586629,6.87789667 C54.8535367,6.87789667 54.7530621,6.85223 54.6572392,6.80175222 C54.5604859,6.75041889 54.4841996,6.66999667 54.4302411,6.56134111 L53.5092241,4.88445222 C53.4087495,4.70221889 53.2905989,4.57388556 53.1547721,4.49945222 C53.0180151,4.42587444 52.834742,4.38823 52.6058832,4.38823 L51.7025424,4.38823 L51.5443879,6.31323 C51.5332241,6.47920778 51.4699623,6.61181889 51.3536723,6.71106333 C51.2392429,6.81116333 51.0922524,6.86164111 50.9127006,6.86164111 C50.7322185,6.86164111 50.5926704,6.81116333 50.4940565,6.71106333 C50.3945122,6.61181889 50.3507872,6.47664111 50.3638117,6.30467444 L50.7926893,1.30053 C50.8047834,1.13540778 50.8652542,1.00621889 50.9741017,0.91553 C51.0810885,0.823985556 51.2262185,0.778641111 51.4067006,0.778641111 L53.750177,0.778641111 C54.4265198,0.778641111 54.9474991,0.926652222 55.3186968,1.22353 C55.6871036,1.52040778 55.871307,1.93278556 55.871307,2.46323 C55.871307,3.53010778 55.2824143,4.14354111 54.1027684,4.30353 C54.2590621,4.34374111 54.3920979,4.41304111 54.5046667,4.51314111 C54.6153748,4.61238556 54.7205009,4.75355222 54.8209755,4.93664111 L55.5094124,6.15153 Z M59.2796279,4.543 L61.6891571,4.543 L60.7020874,1.96692222 L59.2796279,4.543 Z M63.5209574,6.36533333 C63.5209574,6.50735556 63.4604866,6.62456667 63.3404753,6.71611111 C63.2186034,6.8068 63.0846373,6.85214444 62.9357861,6.85214444 C62.8297296,6.85214444 62.7339066,6.82733333 62.6464565,6.77514444 C62.5590064,6.72466667 62.4976053,6.64424444 62.4613228,6.53644444 L62.023142,5.39855556 L58.8051646,5.39855556 L58.1716166,6.55355556 C58.1167277,6.65023333 58.0441627,6.72466667 57.9585733,6.77514444 C57.8711232,6.82733333 57.7753002,6.85214444 57.670174,6.85214444 C57.5259744,6.85214444 57.4003812,6.80851111 57.2878124,6.72038889 C57.1771043,6.63141111 57.1212851,6.5219 57.1212851,6.39014444 C57.1212851,6.29346667 57.1464038,6.20791111 57.1957107,6.13347778 L60.116916,1.08655556 C60.1848294,0.971911112 60.2769311,0.883788889 60.3950817,0.820477778 C60.5132324,0.758022223 60.6406863,0.727222223 60.776513,0.727222223 C60.9132701,0.727222223 61.0388633,0.759733334 61.1532927,0.824755556 C61.2695827,0.890633334 61.3514508,0.980466667 61.3998275,1.09511111 L63.484675,6.18566667 C63.5097936,6.23614444 63.5209574,6.29688889 63.5209574,6.36533333 Z M68.2249352,6.67273445 C68.1337638,6.58204556 68.0956207,6.45371222 68.1086452,6.28859 L68.5449653,1.27417889 C68.5570595,1.10905667 68.6212516,0.978156667 68.735681,0.880623334 C68.8501104,0.783945556 68.9971009,0.736034445 69.1766527,0.736034445 C69.3645774,0.736034445 69.5059861,0.785656667 69.6055303,0.884901112 C69.7060049,0.985856667 69.7478693,1.11761222 69.7367055,1.28273445 L69.3366678,5.90359 L71.9406339,5.90359 C72.1080915,5.90359 72.2383363,5.94037889 72.3313684,6.01395667 C72.4244004,6.08839 72.4709164,6.19191222 72.4709164,6.32281222 C72.4709164,6.64792333 72.2736885,6.80962333 71.8755115,6.80962333 L68.6389277,6.80962333 C68.4519333,6.80962333 68.314246,6.76427889 68.2249352,6.67273445 Z M78.1895013,5.36014111 C78.5439533,4.92894111 78.7197838,4.33518556 78.7197838,3.57630778 C78.7197838,2.93720778 78.5579081,2.44526333 78.2369476,2.09961889 C77.9131962,1.75483 77.4592,1.58286333 76.8684467,1.58286333 C76.2488535,1.58286333 75.762296,1.79931889 75.4097047,2.23308556 C75.0552527,2.66685222 74.8784919,3.26231889 74.8784919,4.02119667 C74.8784919,4.66029667 75.038507,5.15053 75.3622584,5.49189667 C75.6841492,5.83497444 76.1437273,6.00608556 76.7391322,6.00608556 C77.3540738,6.00608556 77.83691,5.79048556 78.1895013,5.36014111 Z M75.1147932,6.54080778 C74.6533544,6.30895222 74.2970418,5.97870778 74.050507,5.54836333 C73.8011812,5.11716333 73.6774486,4.60554111 73.6774486,4.01264111 C73.6774486,3.35044111 73.8104844,2.77037444 74.073765,2.27158556 C74.3370456,1.77279667 74.7082433,1.38523 75.1854976,1.11145222 C75.6618215,0.83853 76.2218742,0.701641111 76.8591435,0.701641111 C77.4861793,0.701641111 78.0294863,0.816285556 78.4927857,1.04814111 C78.9542245,1.27828556 79.3086765,1.60938556 79.5580023,2.03973 C79.8063977,2.47093 79.9301303,2.98340778 79.9301303,3.57630778 C79.9301303,4.23765222 79.7980249,4.81771889 79.5338139,5.31650778 C79.2705333,5.81615222 78.9002659,6.20200778 78.4220814,6.47664111 C77.9457574,6.75041889 77.386635,6.88645222 76.7484354,6.88645222 C76.1213996,6.88645222 75.576232,6.77095222 75.1147932,6.54080778 Z M83.0464237,6.70285 C82.9450188,6.60360556 82.8994331,6.47099444 82.9115273,6.30501667 L83.311565,1.68501667 L81.6295461,1.68501667 C81.454646,1.68501667 81.3216102,1.64993889 81.2332298,1.57807222 C81.1420584,1.50706111 81.0983333,1.40353889 81.0983333,1.26665 C81.0983333,0.941538889 81.2964915,0.778127778 81.6928079,0.778127778 L86.2699831,0.778127778 C86.4439529,0.778127778 86.5769887,0.815772222 86.6662994,0.88935 C86.7546798,0.963783333 86.8002655,1.06901667 86.8002655,1.20590556 C86.8002655,1.52502778 86.6021073,1.68501667 86.205791,1.68501667 L84.5126083,1.68501667 L84.1125706,6.31357222 C84.1004765,6.47869444 84.0344237,6.61045 83.9172034,6.70712778 C83.7990527,6.80466111 83.6492712,6.85257222 83.4697194,6.85257222 C83.2901676,6.85257222 83.1496893,6.80295 83.0464237,6.70285 Z M89.8766482,6.70285 C89.7752433,6.60360556 89.7296576,6.47099444 89.7417518,6.30501667 L90.1417895,1.68501667 L88.4597706,1.68501667 C88.2848704,1.68501667 88.1518347,1.64993889 88.0634542,1.57807222 C87.9722829,1.50706111 87.9285578,1.40353889 87.9285578,1.26665 C87.9285578,0.941538889 88.126716,0.778127778 88.5230324,0.778127778 L93.1002075,0.778127778 C93.2741774,0.778127778 93.4072132,0.815772222 93.4965239,0.88935 C93.5849043,0.963783333 93.63049,1.06901667 93.63049,1.20590556 C93.63049,1.52502778 93.4323318,1.68501667 93.0360154,1.68501667 L91.3428328,1.68501667 L90.9427951,6.31357222 C90.9307009,6.47869444 90.8646482,6.61045 90.7474279,6.70712778 C90.6292772,6.80466111 90.4794957,6.85257222 90.2999439,6.85257222 C90.1203921,6.85257222 89.9799137,6.80295 89.8766482,6.70285 Z M96.2708316,1.65139333 L96.1331443,3.31031556 L98.6998976,3.31031556 C98.8673552,3.31031556 98.9985303,3.34796 99.090632,3.42153778 C99.183664,3.49597111 99.2311104,3.59607111 99.2311104,3.72183778 C99.2311104,4.02384889 99.0348128,4.17442667 98.6440783,4.17442667 L96.0494154,4.17442667 L95.9005642,5.93772667 L98.6617544,5.93772667 C98.8292121,5.93772667 98.9603872,5.97622667 99.0524889,6.05322667 C99.1473815,6.12937111 99.1929672,6.23118222 99.1929672,6.35694889 C99.1929672,6.50496 99.1417996,6.61789333 99.0403947,6.69489333 C98.9361989,6.77103778 98.7892083,6.80953778 98.596632,6.80953778 L95.2298034,6.80953778 C95.0446697,6.80953778 94.906052,6.76504889 94.8158109,6.67264889 C94.7265002,6.58196 94.6864964,6.45362667 94.6995209,6.28850444 L95.1274682,1.29120444 C95.1404927,1.13207111 95.1991028,1.00630444 95.304229,0.915615556 C95.4093552,0.824071111 95.5516942,0.777871111 95.7331066,0.777871111 L99.1092384,0.777871111 C99.2757657,0.777871111 99.4050802,0.815515556 99.4962516,0.889093333 C99.5855623,0.963526667 99.6302177,1.06362667 99.6302177,1.18939333 C99.6302177,1.49653778 99.4339202,1.65139333 99.0431857,1.65139333 L96.2708316,1.65139333 Z M104.005885,3.54208556 C104.867362,3.54208556 105.299961,3.20243 105.299961,2.52397444 C105.299961,2.22110778 105.206929,1.99695222 105.019934,1.85150778 C104.834801,1.70606333 104.549192,1.63419667 104.16404,1.63419667 L102.488533,1.63419667 L102.330379,3.54208556 L104.005885,3.54208556 Z M106.062823,6.15153 C106.104688,6.22596333 106.126085,6.30296333 106.126085,6.38167444 C106.126085,6.51856333 106.064684,6.63577444 105.940951,6.73245222 C105.817219,6.82998556 105.67395,6.87789667 105.512074,6.87789667 C105.406948,6.87789667 105.306473,6.85223 105.21065,6.80175222 C105.113897,6.75041889 105.037611,6.66999667 104.983652,6.56134111 L104.062635,4.88445222 C103.96216,4.70221889 103.84401,4.57388556 103.708183,4.49945222 C103.571426,4.42587444 103.388153,4.38823 103.159294,4.38823 L102.255953,4.38823 L102.097799,6.31323 C102.086635,6.47920778 102.023373,6.61181889 101.907083,6.71106333 C101.792654,6.81116333 101.645663,6.86164111 101.466111,6.86164111 C101.285629,6.86164111 101.146081,6.81116333 101.047467,6.71106333 C100.947923,6.61181889 100.904198,6.47664111 100.917223,6.30467444 L101.3461,1.30053 C101.358194,1.13540778 101.418665,1.00621889 101.527513,0.91553 C101.634499,0.823985556 101.779629,0.778641111 101.960111,0.778641111 L104.303588,0.778641111 C104.979931,0.778641111 105.50091,0.926652222 105.872108,1.22353 C106.240515,1.52040778 106.424718,1.93278556 106.424718,2.46323 C106.424718,3.53010778 105.835825,4.14354111 104.656179,4.30353 C104.812473,4.34374111 104.945509,4.41304111 105.058078,4.51314111 C105.168786,4.61238556 105.273912,4.75355222 105.374386,4.93664111 L106.062823,6.15153 Z M112.900304,0.718067778 C113.041713,0.718067778 113.165446,0.765978889 113.270572,0.859234445 C113.376628,0.953345556 113.430587,1.06627889 113.430587,1.19803444 C113.430587,1.32294556 113.376628,1.44272333 113.270572,1.55651222 L111.001521,4.03762333 L110.797781,6.31340111 C110.785687,6.49050111 110.719634,6.62567889 110.601483,6.72064556 C110.483333,6.81390111 110.338203,6.86181222 110.164233,6.86181222 C109.991193,6.86181222 109.851645,6.81304556 109.745589,6.71636778 C109.640463,6.61883444 109.593016,6.48194556 109.606041,6.30484556 L109.802338,4.03762333 L107.932395,1.53940111 C107.863551,1.44272333 107.829129,1.35117889 107.829129,1.26647889 C107.829129,1.12873444 107.89053,1.00639 108.016124,0.897734445 C108.139856,0.789934445 108.275683,0.736034445 108.424534,0.736034445 C108.58641,0.736034445 108.723167,0.807045556 108.833875,0.949923334 L110.452632,3.14870111 L112.453751,0.931956667 C112.589577,0.789934445 112.738429,0.718067778 112.900304,0.718067778 Z" id="Combined-Shape"></path>
                </g>
            </g>
        </g>
    </g>
</svg>