<svg width="80" height="90" viewBox="0 0 80 90" fill="none" xmlns="http://www.w3.org/2000/svg">
<path d="M0 90V10H32L39.375 0L46.75 10H76C78.2091 10 80 11.7909 80 14V86C80 88.2091 78.2091 90 76 90H0Z" fill="#DA2814"/>
<g filter="url(#filter0_d)">
<path fill-rule="evenodd" clip-rule="evenodd" d="M15.2344 57.518L16.1675 58.6841L34.4397 44.0661L41.2131 47.8294L54.5208 34.521V37.198C54.5208 38.4328 55.5256 39.4376 56.7604 39.4376C57.9952 39.4376 59 38.4328 59 37.198V26H47.802C46.5672 26 45.5624 27.0048 45.5624 28.2396C45.5624 29.4744 46.5672 30.4792 47.802 30.4792H51.2256L40.2291 41.4764L34.3158 37.7803L13 54.5229L13.9227 55.6972L34.4129 39.6026L40.4441 43.3719L54.8299 28.9861H47.802C47.3899 28.9861 47.0554 28.6509 47.0554 28.2396C47.0554 27.8283 47.3899 27.4931 47.802 27.4931H57.5069V37.198C57.5069 37.6094 57.1725 37.9446 56.7604 37.9446C56.3483 37.9446 56.0139 37.6094 56.0139 37.198V30.9167L40.9533 45.9765L34.2889 42.2745L15.2344 57.518ZM54.5199 52.8752V51.3822H44.0684V52.8752H54.5199ZM42.5754 49.8891V52.8752V54.3683V55.8615V56.6079V58.8475V60.3407V61.8337V63.3268V64.8198V66.3129V67.8059V69.299V72.2852H56.0131V69.299V67.8059V66.3129V64.8198V63.3268V61.8337V60.3407V58.8475V56.6079V55.8615V54.3683V52.8752V49.8891H42.5754ZM44.0685 55.8615V54.3683H54.52V55.8615H53.0269V57.3545H54.52V58.8475H44.0685V57.3545H51.5339V55.8615H44.0685ZM29.1382 58.8475H39.5897V57.3545H29.1382V58.8475ZM27.6445 58.8475V55.8615H41.0822V58.8475V60.3407V61.8337V63.3268V64.8198V66.3129V67.8059V68.5525V72.2852H27.6445V68.5525V67.8059V66.3129V64.8198V63.3268V61.8337V60.3407V58.8475ZM29.1382 60.3407V61.8337H39.5897V60.3407H29.1382ZM29.1382 64.8198H39.5897V63.3268H29.1382V64.8198ZM29.1376 66.3129V67.8059H30.6307V69.299H29.1376V70.7921H39.5891V69.299H32.1237V67.8059H39.5891V66.3129H29.1376ZM44.0684 69.2991V70.7922H54.5199V69.2991H44.0684ZM44.0684 60.3407H54.5199V61.8337H44.0684V60.3407ZM54.5199 66.3129H44.0684V67.8059H54.5199V66.3129ZM54.5199 63.3268V64.8198H44.0684V63.3268H54.5199Z" fill="white"/>
</g>
<defs>
<filter id="filter0_d" x="9" y="22" width="54" height="54.2852" filterUnits="userSpaceOnUse" color-interpolation-filters="sRGB">
<feFlood flood-opacity="0" result="BackgroundImageFix"/>
<feColorMatrix in="SourceAlpha" type="matrix" values="0 0 0 0 0 0 0 0 0 0 0 0 0 0 0 0 0 0 127 0"/>
<feOffset/>
<feGaussianBlur stdDeviation="2"/>
<feColorMatrix type="matrix" values="0 0 0 0 1 0 0 0 0 1 0 0 0 0 1 0 0 0 1 0"/>
<feBlend mode="normal" in2="BackgroundImageFix" result="effect1_dropShadow"/>
<feBlend mode="normal" in="SourceGraphic" in2="effect1_dropShadow" result="shape"/>
</filter>
</defs>
</svg>
