<?xml version="1.0" encoding="UTF-8"?>
<svg width="195px" height="65px" viewBox="0 0 195 65" version="1.1" xmlns="http://www.w3.org/2000/svg" xmlns:xlink="http://www.w3.org/1999/xlink">
    <!-- Generator: Sketch 52.6 (67491) - http://www.bohemiancoding.com/sketch -->
    <title>Group 15</title>
    <desc>Created with Sketch.</desc>
    <g id="Page-1" stroke="none" stroke-width="1" fill="none" fill-rule="evenodd">
        <g id="Home-" transform="translate(-56.000000, -52.000000)">
            <g id="Group-15" transform="translate(56.000000, 52.000000)">
                <path d="M112.749331,28.01986 C113.752975,25.98046 112.86611,23.69026 110.920517,22.88396 C107.945941,21.65086 104.235432,23.95206 104.047042,27.15966 C104.033822,27.37306 104.14289,27.59306 104.229924,27.95166 C107.080008,28.12986 109.901449,28.02426 112.749331,28.01986 Z M125.441958,33.87186 C124.670771,33.95546 123.949161,34.09736 123.228653,34.09956 C117.159415,34.11826 111.090178,34.10836 105.020941,34.11496 C104.420517,34.11496 103.821195,34.16666 103.117212,34.19966 C102.490347,35.82766 102.167551,37.44686 102.521195,39.12106 C102.7195,40.05936 103.363992,40.76116 104.202381,41.26606 C106.75611,42.80606 110.321195,41.88316 111.733568,39.26956 C112.173144,38.45666 112.489331,37.57776 112.840771,36.77806 C114.03611,36.35896 123.617551,36.32816 124.985856,36.76706 C124.940686,37.17406 124.937381,37.62506 124.837127,38.05406 C124.094585,41.21326 122.338483,43.73556 119.891619,45.81566 C116.993059,48.28186 113.58111,49.58096 109.852975,50.04736 C106.313229,50.49176 102.764669,50.47196 99.2899237,49.53916 C95.2169576,48.44576 91.8237373,46.37336 89.8175508,42.50136 C88.7720424,40.48396 88.1804322,38.32906 88.3589068,36.03886 C88.5770424,33.26026 88.6167034,30.47066 89.5564492,27.77346 C91.5681441,22.00286 95.4020424,18.03186 101.037212,15.72516 C103.314415,14.79346 105.684161,14.35236 108.123314,14.28306 C111.105602,14.19946 114.084585,14.09936 117.031619,14.83526 C122.326364,16.15636 125.901364,20.38916 126.209839,25.81876 C126.358568,28.44556 125.985093,31.01846 125.441958,33.87186 Z M33.2830847,37.27372 C33.3029153,37.27702 33.3205424,37.28142 33.3403729,37.28472 C33.3403729,37.51792 33.3392712,37.75112 33.3403729,37.98432 C33.3480847,40.09852 34.3660508,41.37892 36.427322,41.86732 C38.9799492,42.47122 41.6416441,41.03022 42.3379153,38.43202 C42.8898644,36.37502 43.1685932,34.23992 43.4935932,32.12792 C43.7624068,30.38112 43.9838475,28.62222 44.1138475,26.86002 C44.2835085,24.55332 42.8788475,22.85932 40.663339,22.54692 C38.0335932,22.17622 35.3454576,24.01542 34.827661,26.64662 C34.4685085,28.47152 34.2514746,30.32392 33.9870678,32.16532 C33.7413898,33.86702 33.5166441,35.57092 33.2830847,37.27372 Z M19.397322,35.33442 C19.4424915,28.97422 21.6293559,23.49842 26.273,19.10062 C28.6614746,16.84012 31.577661,15.51462 34.7902034,14.84032 C38.9105424,13.97572 43.0352881,13.99442 47.1490169,14.86232 C52.8943559,16.07562 57.2096949,20.66592 57.8431695,26.00642 C58.4380847,31.01912 57.8431695,35.79312 55.3004576,40.17002 C51.9524068,45.93512 46.8813051,49.23842 40.233678,50.07332 C36.9164746,50.49022 33.6312203,50.30982 30.3613898,49.60692 C23.9230847,48.22312 19.3014746,43.05312 19.397322,36.17372 C19.4006271,35.89322 19.397322,35.61382 19.397322,35.33442 Z M143.172856,36.65068 C143.172856,37.40418 143.162941,37.82328 143.173958,38.24238 C143.219127,39.96938 144.052008,41.13538 145.669297,41.74368 C147.689805,42.50488 150.081585,41.76788 151.415737,39.99468 C152.260737,38.87158 152.555992,37.56038 152.7565,36.21728 C153.09472,33.96448 153.435144,31.71058 153.733703,29.45228 C153.86811,28.43918 153.982686,27.41178 153.969466,26.39318 C153.935314,23.81148 151.641585,21.95468 149.114297,22.47278 C146.810653,22.94688 145.302432,24.38238 144.665653,26.63298 C144.390229,27.60978 144.328534,28.64818 144.180907,29.66018 C143.826161,32.09668 143.476924,34.53538 143.172856,36.65068 Z M150.706246,14.11718 C153.669805,14.24038 156.592602,14.46038 159.361161,15.60328 C164.388195,17.67788 167.288958,21.45638 167.815568,26.81888 C168.350992,32.25178 167.295568,37.39648 164.022432,41.92408 C160.547686,46.72888 155.810398,49.36778 149.950483,50.08938 C146.533025,50.51068 143.148619,50.31818 139.80828,49.52068 C133.784212,48.08078 129.587856,43.32218 129.23311,37.03898 C128.913619,31.36738 130.377771,26.25348 133.743449,21.69618 C136.658534,17.75158 140.662093,15.53068 145.431331,14.67268 C147.1665,14.35918 148.945737,14.29538 150.706246,14.11718 Z M83.6641441,41.5954 C84.0188898,43.0617 83.4416017,47.487 82.6472797,49.0171 C81.2943983,49.3405 79.7817712,49.8388 78.2294831,50.0412 C75.3143983,50.4218 72.3739746,50.589 69.4467712,50.0676 C67.8735508,49.7871 66.3697373,49.2723 65.0466017,48.367 C63.2849915,47.1625 62.5292288,45.3651 62.5259237,43.318 C62.5259237,41.745 62.7517712,40.1643 62.9566864,38.5979 C63.5086356,34.3992 64.1079576,30.206 64.6742288,26.0084 C64.7271102,25.6168 64.6819407,25.212 64.6819407,24.7214 C63.4921102,24.6213 62.4488051,24.5344 61.3977881,24.4453 C61.0342288,23.2408 61.5134661,22.2156 61.5839746,21.1728 C61.6533814,20.1531 61.7943983,19.1356 61.9552458,18.1258 C62.1193983,17.0885 62.3452458,16.0622 62.5567712,14.971 C63.7950763,14.9017 64.8493983,14.8445 65.8827881,14.7873 C66.6528729,13.7544 66.5746525,12.5873 66.7487203,11.5126 C67.1056695,9.3082 67.3447373,7.0851 67.6587203,4.8752 C67.7071949,4.5309 67.8988898,4.2064 68.0399068,3.8346 L81.8210085,3.8346 C81.7802458,4.433 81.7967712,4.9258 81.7042288,5.3955 C81.1831271,8.0443 80.631178,10.6865 80.100161,13.3331 C80.0285508,13.6862 80.0131271,14.0514 79.9525339,14.575 C80.5033814,14.6828 80.9782119,14.8445 81.4541441,14.8555 C82.9480424,14.8918 84.4419407,14.8709 85.935839,14.872 L87.625839,14.872 C87.6677034,15.4297 87.7778729,15.8785 87.7194831,16.3031 C87.3592288,18.8837 86.9604153,21.4577 86.5891441,23.9349 C86.195839,24.6169 85.6163475,24.5817 85.0544831,24.5828 C83.4669407,24.5839 81.8805,24.5839 80.2929576,24.5839 L78.6745678,24.5839 C78.5071102,25.0514 78.3043983,25.4199 78.2493136,25.8082 C77.6731271,29.9101 77.1046525,34.012 76.5637203,38.1183 C76.1417712,41.3182 77.7755847,42.2257 80.1530424,42.0222 C81.3010085,41.9232 82.4423644,41.7461 83.6641441,41.5954 Z M6.69290678,0.96415 L19.8350254,0.96415 C19.8350254,1.55925 19.897822,2.05865 19.8251102,2.53715 C19.3502797,5.66445 18.8258729,8.78405 18.3598559,11.91245 C18.0161271,14.21145 17.7473136,16.52145 17.4322288,18.82485 C17.009178,21.91255 16.5685,24.99805 16.1465508,28.08575 C15.4216356,33.38445 14.7055339,38.68535 13.9839237,43.98405 C13.7944322,45.36675 13.6104492,46.74945 13.3956186,48.12775 C13.332822,48.53145 13.1708729,48.91975 13.0695169,49.26295 C11.8829915,49.60285 1.47968644,49.63035 0.0287542373,49.28275 C0.0287542373,48.92635 -0.0131101695,48.52155 0.0364661017,48.12885 C0.431974576,44.99055 0.844008475,41.85555 1.25494068,38.71945 C1.6185,35.95295 1.98205932,33.18645 2.35222881,30.42105 C2.53731356,29.03725 2.72790678,27.65565 2.92951695,26.27515 C3.52663559,22.17765 4.15129661,18.08455 4.72527966,13.98485 C5.26621186,10.11505 5.74875424,6.23755 6.27866949,2.36555 C6.34587288,1.88265 6.55519492,1.41955 6.69290678,0.96415 Z" id="Combined-Shape" fill="#DA2814"></path>
                <g id="Group-16" transform="translate(60.593220, 56.100000)" fill="#807777">
                    <path d="M3.12749153,7.60067 C5.01469492,7.60067 5.95664407,6.59637 5.95664407,4.58667 C5.95664407,3.79467 5.74842373,3.19187 5.33088136,2.77717 C4.91113559,2.36247 4.29418644,2.15567 3.47783051,2.15567 L2.1359661,2.15567 L1.70520339,7.60067 L3.12749153,7.60067 Z M0.39859322,8.57417 C0.285118644,8.45317 0.235542373,8.28267 0.250966102,8.06267 L0.758847458,1.67167 C0.773169492,1.45937 0.844779661,1.29437 0.973677966,1.17667 C1.10037288,1.06007 1.27223729,1.00067 1.48486441,1.00067 L3.64418644,1.00067 C4.42308475,1.00067 5.09181356,1.14367 5.64927119,1.42967 C6.20672881,1.71567 6.63528814,2.12927 6.93164407,2.67377 C7.23130508,3.21607 7.3789322,3.85737 7.3789322,4.59877 C7.3789322,5.46997 7.21808475,6.21687 6.89528814,6.83617 C6.57028814,7.45547 6.09876271,7.93067 5.47850847,8.26067 C4.85715254,8.59067 4.11130508,8.75567 3.23766102,8.75567 L0.889949153,8.75567 C0.676220339,8.75567 0.513169492,8.69517 0.39859322,8.57417 Z M9.52679661,8.62862 C9.40671186,8.50102 9.35272881,8.32722 9.36705085,8.10612 L9.88484746,1.63922 C9.90137288,1.42582 9.97628814,1.25752 10.1117966,1.13322 C10.2473051,1.00782 10.4213729,0.946220001 10.6351017,0.946220001 C10.8477288,0.946220001 11.0162881,1.01002 11.1363729,1.13762 C11.2564576,1.26742 11.3104407,1.43682 11.2950169,1.64912 L10.789339,8.11712 C10.7662034,8.33052 10.6890847,8.50102 10.5535763,8.62862 C10.4158644,8.75732 10.2406949,8.82222 10.0280678,8.82222 C9.81544068,8.82222 9.64908475,8.75732 9.52679661,8.62862 Z M19.8443898,4.71845 C19.9435424,4.82185 19.9909153,4.96045 19.9821017,5.13645 L19.8058305,7.47945 C19.7771864,7.81605 19.7132881,8.05475 19.6141356,8.19445 C19.5149831,8.33415 19.3254915,8.44415 19.045661,8.52445 C18.7448983,8.62785 18.4022712,8.70815 18.0155763,8.76645 C17.6299831,8.82475 17.2686271,8.85445 16.9304068,8.85445 C16.1669322,8.85445 15.510322,8.70815 14.9638814,8.41445 C14.4174407,8.12185 13.9976949,7.69945 13.7079492,7.14945 C13.4193051,6.59945 13.2727797,5.94715 13.2727797,5.19145 C13.2727797,4.32685 13.4391356,3.57335 13.7696441,2.93095 C14.0990508,2.28965 14.5672712,1.79245 15.1732034,1.44155 C15.7802373,1.08845 16.4897288,0.91245 17.3049831,0.91245 C17.8348983,0.91245 18.3141356,0.97955 18.7493051,1.11045 C19.1811695,1.24245 19.5348136,1.41075 19.8058305,1.61645 C20.0338814,1.77045 20.1473559,1.96515 20.1473559,2.19945 C20.1473559,2.35455 20.096678,2.48985 19.9931186,2.60645 C19.8917627,2.72415 19.7628644,2.78245 19.6075254,2.78245 C19.4918475,2.78245 19.3684576,2.74175 19.2439661,2.66145 C18.9729492,2.45575 18.6887119,2.30395 18.3901525,2.20495 C18.0926949,2.10595 17.7346441,2.05645 17.316,2.05645 C16.5007458,2.05645 15.8617627,2.33585 15.3990508,2.89245 C14.936339,3.45015 14.7049831,4.21245 14.7049831,5.18045 C14.7049831,6.00215 14.9043898,6.63245 15.2998983,7.07355 C15.6976102,7.51245 16.2958305,7.73245 17.0967627,7.73245 C17.5660847,7.73245 18.0431186,7.65985 18.5278644,7.51245 L18.6821017,5.57645 L17.4922712,5.57645 C17.3093898,5.57645 17.1672712,5.53465 17.0681186,5.44995 C16.9700678,5.36635 16.9204915,5.24315 16.9204915,5.08145 C16.9204915,4.92085 16.9755763,4.79325 17.0857458,4.70195 C17.1959153,4.61065 17.3380339,4.56445 17.5143051,4.56445 L19.4312542,4.56445 C19.6075254,4.56445 19.7452373,4.61615 19.8443898,4.71845 Z M22.3597797,8.62862 C22.2396949,8.50102 22.1857119,8.32722 22.2000339,8.10612 L22.7167288,1.63922 C22.7321525,1.42582 22.8070678,1.25752 22.9425763,1.13322 C23.0780847,1.00782 23.2532542,0.946220001 23.4658814,0.946220001 C23.6785085,0.946220001 23.8470678,1.01002 23.9671525,1.13762 C24.0894407,1.26742 24.1412203,1.43682 24.128,1.64912 L23.6212203,8.11712 C23.5991864,8.33052 23.5198644,8.50102 23.3843559,8.62862 C23.2488475,8.75732 23.073678,8.82222 22.8610508,8.82222 C22.6484237,8.82222 22.4798644,8.75732 22.3597797,8.62862 Z M28.2125339,8.61795 C28.0924492,8.49035 28.0384661,8.31985 28.0527881,8.10645 L28.5265169,2.16645 L26.5346525,2.16645 C26.3275339,2.16645 26.1699915,2.12135 26.0653305,2.02895 C25.9573644,1.93765 25.9055847,1.80455 25.9055847,1.62855 C25.9055847,1.21055 26.1402458,1.00045 26.6095678,1.00045 L32.0299068,1.00045 C32.2359237,1.00045 32.3934661,1.04885 32.4992288,1.14345 C32.6038898,1.23915 32.6578729,1.37445 32.6578729,1.55045 C32.6578729,1.96075 32.4232119,2.16645 31.9538898,2.16645 L29.9488051,2.16645 L29.4750763,8.11745 C29.4607542,8.32975 29.3825339,8.49915 29.2437203,8.62345 C29.1038051,8.74885 28.9264322,8.81045 28.7138051,8.81045 C28.501178,8.81045 28.334822,8.74665 28.2125339,8.61795 Z M34.9130424,5.841 L37.7664322,5.841 L36.5997373,2.5289 L34.9130424,5.841 Z M39.9378729,8.184 C39.9378729,8.3666 39.8662627,8.5173 39.7219407,8.635 C39.579822,8.7516 39.4189746,8.8099 39.2427034,8.8099 C39.1171102,8.8099 39.0036356,8.778 38.9022797,8.7109 C38.7987203,8.646 38.7260085,8.5426 38.680839,8.404 L38.1641441,6.941 L34.351178,6.941 L33.6031271,8.426 C33.5359237,8.5503 33.4521949,8.646 33.3486356,8.7109 C33.2450763,8.778 33.1338051,8.8099 33.0082119,8.8099 C32.8385508,8.8099 32.6876186,8.7538 32.5565169,8.6405 C32.4232119,8.5261 32.3571102,8.3853 32.3571102,8.2159 C32.3571102,8.0916 32.3868559,7.9816 32.4452458,7.8859 L35.9045678,1.397 C35.9871949,1.2496 36.0962627,1.1363 36.236178,1.0549 C36.3738898,0.974600001 36.524822,0.935000001 36.6878729,0.935000001 C36.849822,0.935000001 36.9985508,0.976800001 37.1340593,1.0604 C37.2695678,1.1451 37.3665169,1.2606 37.4260085,1.408 L39.8938051,7.953 C39.9224492,8.0179 39.9378729,8.096 39.9378729,8.184 Z M41.9945169,8.57923 C41.8887542,8.46263 41.8413814,8.29763 41.8568051,8.08533 L42.3757034,1.63823 C42.3900254,1.42593 42.4660424,1.25763 42.6015508,1.13223 C42.7370593,1.00793 42.9111271,0.946330001 43.1237542,0.946330001 C43.3440932,0.946330001 43.5137542,1.01013 43.6316356,1.13773 C43.7484153,1.26753 43.8001949,1.43693 43.7847712,1.64923 L43.3110424,7.59033 L46.3968898,7.59033 C46.5951949,7.59033 46.7472288,7.63763 46.8596017,7.73223 C46.9697712,7.82793 47.0226525,7.96103 47.0226525,8.12933 C47.0226525,8.54733 46.7890932,8.75523 46.3197712,8.75523 L42.4847712,8.75523 C42.2655339,8.75523 42.1024831,8.69693 41.9945169,8.57923 Z M54.1411441,2.12322 L53.9758898,4.25612 L57.0154661,4.25612 C57.2137712,4.25612 57.3691102,4.30452 57.478178,4.39912 C57.5905508,4.49482 57.6445339,4.62352 57.6445339,4.78522 C57.6445339,5.17352 57.4142797,5.36712 56.9515678,5.36712 L53.8767373,5.36712 L53.7004661,7.63422 L56.9725,7.63422 C57.1708051,7.63422 57.3261441,7.68372 57.4352119,7.78272 C57.5453814,7.88062 57.6015678,8.01152 57.6015678,8.17322 C57.6015678,8.36352 57.5387712,8.50872 57.4186864,8.60772 C57.2975,8.70562 57.1234322,8.75512 56.8953814,8.75512 L52.9083475,8.75512 C52.6869068,8.75512 52.5227542,8.69792 52.4180932,8.57912 C52.3101271,8.46252 52.2649576,8.29752 52.2803814,8.08522 L52.7860593,1.66012 C52.8003814,1.45552 52.8697881,1.29382 52.9942797,1.17722 C53.1187712,1.05952 53.2895339,1.00012 53.502161,1.00012 L57.5024153,1.00012 C57.6996186,1.00012 57.8527542,1.04852 57.9585169,1.14312 C58.0642797,1.23882 58.117161,1.36752 58.117161,1.52922 C58.117161,1.92412 57.8869068,2.12322 57.4241949,2.12322 L54.1411441,2.12322 Z M63.2989831,4.55411 C64.3191525,4.55411 64.8314407,4.11741 64.8314407,3.24511 C64.8314407,2.85571 64.7212712,2.56751 64.4998305,2.38051 C64.2805932,2.19351 63.9423729,2.10111 63.4862712,2.10111 L61.5021186,2.10111 L61.3148305,4.55411 L63.2989831,4.55411 Z M65.7348305,7.90911 C65.7844068,8.00481 65.8097458,8.10381 65.8097458,8.20501 C65.8097458,8.38101 65.7370339,8.53171 65.5905085,8.65601 C65.4439831,8.78141 65.274322,8.84301 65.0826271,8.84301 C64.9581356,8.84301 64.8391525,8.81001 64.725678,8.74511 C64.6111017,8.67911 64.5207627,8.57571 64.4568644,8.43601 L63.3661864,6.28001 C63.2472034,6.04571 63.1072881,5.88071 62.9464407,5.78501 C62.7844915,5.69041 62.5674576,5.64201 62.2964407,5.64201 L61.2266949,5.64201 L61.0394068,8.11701 C61.0261864,8.33041 60.9512712,8.50091 60.8135593,8.62851 C60.6780508,8.75721 60.5039831,8.82211 60.2913559,8.82211 C60.0776271,8.82211 59.9123729,8.75721 59.7955932,8.62851 C59.6777119,8.50091 59.6259322,8.32711 59.6413559,8.10601 L60.1492373,1.67211 C60.1635593,1.45981 60.2351695,1.29371 60.3640678,1.17711 C60.4907627,1.05941 60.6626271,1.00111 60.8763559,1.00111 L63.6515254,1.00111 C64.4524576,1.00111 65.0694068,1.19141 65.5089831,1.57311 C65.9452542,1.95481 66.1633898,2.48501 66.1633898,3.16701 C66.1633898,4.53871 65.4660169,5.32741 64.0690678,5.53311 C64.2541525,5.58481 64.4116949,5.67391 64.545,5.80261 C64.6761017,5.93021 64.8005932,6.11171 64.9195763,6.34711 L65.7348305,7.90911 Z M70.1995593,5.841 L73.0529492,5.841 L71.8840508,2.5289 L70.1995593,5.841 Z M75.2221864,8.184 C75.2221864,8.3666 75.1505763,8.5173 75.0084576,8.635 C74.8641356,8.7516 74.7054915,8.8099 74.5292203,8.8099 C74.4036271,8.8099 74.2901525,8.778 74.1865932,8.7109 C74.0830339,8.646 74.010322,8.5426 73.9673559,8.404 L73.4484576,6.941 L69.6376949,6.941 L68.8874407,8.426 C68.8224407,8.5503 68.7365085,8.646 68.6351525,8.7109 C68.5315932,8.778 68.4181186,8.8099 68.2936271,8.8099 C68.1228644,8.8099 67.9741356,8.7538 67.8408305,8.6405 C67.7097288,8.5261 67.6436271,8.3853 67.6436271,8.2159 C67.6436271,8.0916 67.6733729,7.9816 67.7317627,7.8859 L71.1910847,1.397 C71.2715085,1.2496 71.3805763,1.1363 71.5204915,1.0549 C71.6604068,0.974600001 71.811339,0.935000001 71.9721864,0.935000001 C72.1341356,0.935000001 72.2828644,0.976800001 72.4183729,1.0604 C72.5560847,1.1451 72.6530339,1.2606 72.710322,1.408 L75.1792203,7.953 C75.2089661,8.0179 75.2221864,8.096 75.2221864,8.184 Z M80.7926864,8.57923 C80.6847203,8.46263 80.6395508,8.29763 80.6549746,8.08533 L81.1716695,1.63823 C81.1859915,1.42593 81.2620085,1.25763 81.3975169,1.13223 C81.5330254,1.00793 81.7070932,0.946330001 81.9197203,0.946330001 C82.1422627,0.946330001 82.3097203,1.01013 82.4276017,1.13773 C82.5465847,1.26753 82.596161,1.43693 82.5829407,1.64923 L82.1092119,7.59033 L85.1928559,7.59033 C85.391161,7.59033 85.5453983,7.63763 85.6555678,7.73223 C85.7657373,7.82793 85.820822,7.96103 85.820822,8.12933 C85.820822,8.54733 85.5872627,8.75523 85.1157373,8.75523 L81.2829407,8.75523 C81.0615,8.75523 80.8984492,8.69693 80.7926864,8.57923 Z M92.5928305,6.89161 C93.0125763,6.33721 93.2207966,5.57381 93.2207966,4.59811 C93.2207966,3.77641 93.0291017,3.14391 92.6490169,2.69951 C92.2656271,2.25621 91.728,2.03511 91.0284237,2.03511 C90.2946949,2.03511 89.7185085,2.31341 89.3009661,2.87111 C88.8812203,3.42881 88.6718983,4.19441 88.6718983,5.17011 C88.6718983,5.99181 88.8613898,6.62211 89.2447797,7.06101 C89.6259661,7.50211 90.1702034,7.72211 90.8752881,7.72211 C91.6035085,7.72211 92.1752881,7.44491 92.5928305,6.89161 Z M88.9517288,8.40961 C88.4052881,8.11151 87.983339,7.68691 87.6913898,7.13361 C87.3961356,6.57921 87.2496102,5.92141 87.2496102,5.15911 C87.2496102,4.30771 87.4071525,3.56191 87.7189322,2.92061 C88.0307119,2.27931 88.4702881,1.78101 89.0354576,1.42901 C89.5995254,1.07811 90.2627458,0.90211 91.0174068,0.90211 C91.7599492,0.90211 92.403339,1.04951 92.9519831,1.34761 C93.4984237,1.64351 93.9181695,2.06921 94.2134237,2.62251 C94.5075763,3.17691 94.6541017,3.83581 94.6541017,4.59811 C94.6541017,5.44841 94.497661,6.19421 94.1847797,6.83551 C93.873,7.47791 93.4345254,7.97401 92.8682542,8.32711 C92.3041864,8.67911 91.6420678,8.85401 90.8863051,8.85401 C90.1437627,8.85401 89.4981695,8.70551 88.9517288,8.40961 Z M98.3444492,8.61795 C98.2243644,8.49035 98.1703814,8.31985 98.1847034,8.10645 L98.6584322,2.16645 L96.6665678,2.16645 C96.4594492,2.16645 96.3019068,2.12135 96.1972458,2.02895 C96.0892797,1.93765 96.0375,1.80455 96.0375,1.62855 C96.0375,1.21055 96.272161,1.00045 96.7414831,1.00045 L102.161822,1.00045 C102.367839,1.00045 102.525381,1.04885 102.631144,1.14345 C102.735805,1.23915 102.789788,1.37445 102.789788,1.55045 C102.789788,1.96075 102.555127,2.16645 102.085805,2.16645 L100.08072,2.16645 L99.6069915,8.11745 C99.5926695,8.32975 99.5144492,8.49915 99.3756356,8.62345 C99.2357203,8.74885 99.0583475,8.81045 98.8457203,8.81045 C98.6330932,8.81045 98.4667373,8.74665 98.3444492,8.61795 Z M106.432873,8.61795 C106.312788,8.49035 106.258805,8.31985 106.273127,8.10645 L106.746856,2.16645 L104.754992,2.16645 C104.547873,2.16645 104.390331,2.12135 104.285669,2.02895 C104.177703,1.93765 104.125924,1.80455 104.125924,1.62855 C104.125924,1.21055 104.360585,1.00045 104.829907,1.00045 L110.250246,1.00045 C110.456263,1.00045 110.613805,1.04885 110.719568,1.14345 C110.824229,1.23915 110.878212,1.37445 110.878212,1.55045 C110.878212,1.96075 110.643551,2.16645 110.174229,2.16645 L108.169144,2.16645 L107.695415,8.11745 C107.681093,8.32975 107.602873,8.49915 107.464059,8.62345 C107.324144,8.74885 107.146771,8.81045 106.934144,8.81045 C106.721517,8.81045 106.555161,8.74665 106.432873,8.61795 Z M114.004932,2.12322 L113.841881,4.25612 L116.881458,4.25612 C117.079763,4.25612 117.235102,4.30452 117.344169,4.39912 C117.454339,4.49482 117.510525,4.62352 117.510525,4.78522 C117.510525,5.17352 117.278068,5.36712 116.815356,5.36712 L113.742729,5.36712 L113.566458,7.63422 L116.836288,7.63422 C117.034593,7.63422 117.189932,7.68372 117.299,7.78272 C117.411373,7.88062 117.465356,8.01152 117.465356,8.17322 C117.465356,8.36352 117.404763,8.50872 117.284678,8.60772 C117.161288,8.70562 116.98722,8.75512 116.759169,8.75512 L112.772136,8.75512 C112.552898,8.75512 112.388746,8.69792 112.281881,8.57912 C112.176119,8.46252 112.128746,8.29752 112.144169,8.08522 L112.650949,1.66012 C112.666373,1.45552 112.73578,1.29382 112.860271,1.17722 C112.984763,1.05952 113.153322,1.00012 113.368153,1.00012 L117.366203,1.00012 C117.563407,1.00012 117.716542,1.04852 117.824508,1.14312 C117.930271,1.23882 117.983153,1.36752 117.983153,1.52922 C117.983153,1.92412 117.750695,2.12322 117.287983,2.12322 L114.004932,2.12322 Z M123.164864,4.55411 C124.185034,4.55411 124.697322,4.11741 124.697322,3.24511 C124.697322,2.85571 124.587153,2.56751 124.365712,2.38051 C124.146475,2.19351 123.808254,2.10111 123.352153,2.10111 L121.368,2.10111 L121.180712,4.55411 L123.164864,4.55411 Z M125.600712,7.90911 C125.650288,8.00481 125.675627,8.10381 125.675627,8.20501 C125.675627,8.38101 125.602915,8.53171 125.45639,8.65601 C125.309864,8.78141 125.140203,8.84301 124.948508,8.84301 C124.824017,8.84301 124.705034,8.81001 124.591559,8.74511 C124.476983,8.67911 124.386644,8.57571 124.322746,8.43601 L123.232068,6.28001 C123.113085,6.04571 122.973169,5.88071 122.812322,5.78501 C122.650373,5.69041 122.433339,5.64201 122.162322,5.64201 L121.092576,5.64201 L120.905288,8.11701 C120.892068,8.33041 120.817153,8.50091 120.679441,8.62851 C120.543932,8.75721 120.369864,8.82211 120.157237,8.82211 C119.943508,8.82211 119.778254,8.75721 119.661475,8.62851 C119.543593,8.50091 119.491814,8.32711 119.507237,8.10601 L120.015119,1.67211 C120.029441,1.45981 120.101051,1.29371 120.229949,1.17711 C120.356644,1.05941 120.528508,1.00111 120.742237,1.00111 L123.517407,1.00111 C124.318339,1.00111 124.935288,1.19141 125.374864,1.57311 C125.811136,1.95481 126.029271,2.48501 126.029271,3.16701 C126.029271,4.53871 125.331898,5.32741 123.934949,5.53311 C124.120034,5.58481 124.277576,5.67391 124.410881,5.80261 C124.541983,5.93021 124.666475,6.11171 124.785458,6.34711 L125.600712,7.90911 Z M133.697729,0.92323 C133.865186,0.92323 134.011712,0.98483 134.136203,1.10473 C134.261797,1.22573 134.325695,1.37093 134.325695,1.54033 C134.325695,1.70093 134.261797,1.85493 134.136203,2.00123 L131.449169,5.19123 L131.207898,8.11723 C131.193576,8.34493 131.115356,8.51873 130.975441,8.64083 C130.835525,8.76073 130.663661,8.82233 130.457644,8.82233 C130.252729,8.82233 130.087475,8.75963 129.961881,8.63533 C129.83739,8.50993 129.781203,8.33393 129.796627,8.10623 L130.029085,5.19123 L127.814678,1.97923 C127.733153,1.85493 127.69239,1.73723 127.69239,1.62833 C127.69239,1.45123 127.765102,1.29393 127.913831,1.15423 C128.060356,1.01563 128.221203,0.94633 128.397475,0.94633 C128.589169,0.94633 128.751119,1.03763 128.88222,1.22133 L130.799169,4.04833 L133.168915,1.19823 C133.329763,1.01563 133.506034,0.92323 133.697729,0.92323 Z" id="Combined-Shape"></path>
                </g>
            </g>
        </g>
    </g>
</svg>