<?xml version="1.0" encoding="UTF-8"?>
<svg width="26px" height="32px" viewBox="0 0 26 32" version="1.1" xmlns="http://www.w3.org/2000/svg" xmlns:xlink="http://www.w3.org/1999/xlink">
    <!-- Generator: sketchtool 53.2 (72643) - https://sketchapp.com -->
    <title>3606BAB3-192E-4A87-95F9-5ECAAA9087E0</title>
    <desc>Created with sketchtool.</desc>
    <g id="Page-1" stroke="none" stroke-width="1" fill="none" fill-rule="evenodd">
        <g id="Buy-tickets---Active" transform="translate(-393.000000, -942.000000)" fill="#DA2814">
            <g id="Group-43" transform="translate(361.000000, 915.000000)">
                <g id="shopping-bag" transform="translate(32.000000, 27.000000)">
                    <path d="M25.9204268,27.6702041 L24.0658153,7.07934694 C24.0259873,6.62204082 23.635242,6.2757551 23.1782548,6.2757551 L19.3625478,6.2757551 C19.3094713,2.84081633 16.4612293,0.0653061224 12.9634841,0.0653061224 C9.46598726,0.0653061224 6.61774522,2.84081633 6.56466879,6.2757551 L2.74896178,6.2757551 C2.28551592,6.2757551 1.9012293,6.62204082 1.86140127,7.07934694 L0.00645859873,27.6702041 C0.00645859873,27.6963265 0,27.7225306 0,27.7486531 C0,30.0930612 2.17936306,31.9999184 4.8620828,31.9999184 L21.0648025,31.9999184 C23.7478535,31.9999184 25.9272166,30.0930612 25.9272166,27.7486531 C25.9272166,27.7225306 25.9272166,27.6963265 25.9204268,27.6702041 Z M12.9634841,1.82873469 C15.4740573,1.82873469 17.5211847,3.81404082 17.5738471,6.2757551 L8.35303822,6.2757551 C8.40611465,3.81404082 10.452828,1.82873469 12.9634841,1.82873469 Z M21.0648025,30.236898 L4.8620828,30.236898 C3.17945223,30.236898 1.81519745,29.1395918 1.78870064,27.7879184 L3.56373885,8.04587755 L6.55787898,8.04587755 L6.55787898,10.7231837 C6.55787898,11.2129796 6.95541401,11.6048163 7.4522293,11.6048163 C7.94904459,11.6048163 8.34657962,11.2129796 8.34657962,10.7231837 L8.34657962,8.04587755 L17.5738471,8.04587755 L17.5738471,10.7231837 C17.5738471,11.2129796 17.9713822,11.6048163 18.4681975,11.6048163 C18.9650127,11.6048163 19.3625478,11.2129796 19.3625478,10.7231837 L19.3625478,8.04587755 L22.3566879,8.04587755 L24.1385987,27.7879184 C24.1120191,29.1395918 22.7409745,30.236898 21.0648025,30.236898 Z" id="Fill-1"></path>
                </g>
            </g>
        </g>
    </g>
</svg>