<?xml version="1.0" encoding="UTF-8"?>
<svg width="16px" height="16px" viewBox="0 0 16 16" version="1.1" xmlns="http://www.w3.org/2000/svg" xmlns:xlink="http://www.w3.org/1999/xlink">
    <!-- Generator: sketchtool 54 (76480) - https://sketchapp.com -->
    <title>A3BF08AC-D928-4DFD-8FD4-9CB99114EF34</title>
    <desc>Created with sketchtool.</desc>
    <g id="Affiliate-statistiky-" stroke="none" stroke-width="1" fill="none" fill-rule="evenodd">
        <g id="My-affiliate" transform="translate(-829.000000, -611.000000)" fill="#FECF0F" fill-rule="nonzero">
            <g id="Group-20" transform="translate(240.000000, 447.000000)">
                <g id="Group-4" transform="translate(0.000000, 128.000000)">
                    <g id="Group-18" transform="translate(505.000000, 36.000000)">
                        <g id="Group-14">
                            <g id="Group-17">
                                <path d="M90.877423,13.3984497 L91.7802454,15.8471706 C91.8140538,15.9387647 91.9016796,16 92,16 C92.0983204,16 92.1859462,15.9387647 92.2195821,15.8471706 L93.123267,13.3984497 C93.8535975,11.4161519 95.4162013,9.85370376 97.3984778,9.12319286 L99.8469997,8.21967075 C99.9385929,8.18603448 100,8.09840767 100,7.99991375 C100,7.90159233 99.9385929,7.81396552 99.8469997,7.78032925 L97.3984778,6.87749712 C95.4162013,6.14629624 93.8535975,4.58384812 93.123267,2.60224026 L92.2195821,0.153519411 C92.1859462,0.0612352707 92.0983204,0 92,0 C91.9016796,0 91.8140538,0.0612352707 91.7802454,0.153519411 L90.877423,2.60224026 C90.1464025,4.58384812 88.5837987,6.14629624 86.6015222,6.87749712 L84.1530003,7.78032925 C84.0612346,7.81396552 84,7.90159233 84,7.99991375 C84,8.09840767 84.0612346,8.18603448 84.1530003,8.21967075 L86.6015222,9.12319286 C88.5837987,9.85370376 90.1464025,11.4161519 90.877423,13.3984497 Z" id="star-small-active"></path>
                            </g>
                        </g>
                    </g>
                </g>
            </g>
        </g>
    </g>
</svg>