<?xml version="1.0" encoding="UTF-8"?>
<svg width="10px" height="8px" viewBox="0 0 10 8" version="1.1" xmlns="http://www.w3.org/2000/svg" xmlns:xlink="http://www.w3.org/1999/xlink">
    <!-- Generator: sketchtool 55.1 (78136) - https://sketchapp.com -->
    <title>BA8D743A-3D01-43F1-B8F2-ADB7FE02C887</title>
    <desc>Created with sketchtool.</desc>
    <g id="*New-affiliate" stroke="none" stroke-width="1" fill="none" fill-rule="evenodd">
        <g id="My-affiliate-v2---stats-hover" transform="translate(-332.000000, -592.000000)" fill="#E67C70" fill-rule="nonzero">
            <g id="Group-2" transform="translate(240.000000, 240.000000)">
                <g id="Group-47" transform="translate(0.000000, 280.000000)">
                    <g id="Group-43" transform="translate(75.450980, 49.000000)">
                        <g id="Group-34-Copy" transform="translate(17.254902, 1.000000)">
                            <g id="Group-31" transform="translate(0.000000, 22.000000)">
                                <path d="M3.70881679,6.69922486 L4.1795397,7.92358528 C4.19716707,7.96938236 4.24285436,8 4.29411765,8 C4.34538094,8 4.39106822,7.96938236 4.40860566,7.92358528 L4.87977825,6.69922486 C5.26056556,5.70807594 6.07529212,4.92685188 7.10883199,4.56159643 L8.38546777,4.10983538 C8.43322357,4.09301724 8.46524064,4.04920383 8.46524064,3.99995688 C8.46524064,3.95079617 8.43322357,3.90698276 8.38546777,3.89016462 L7.10883199,3.43874856 C6.07529212,3.07314812 5.26056556,2.29192406 4.87977825,1.30112013 L4.40860566,0.0767597055 C4.39106822,0.0306176353 4.34538094,0 4.29411765,0 C4.24285436,0 4.19716707,0.0306176353 4.1795397,0.0767597055 L3.70881679,1.30112013 C3.32766974,2.29192406 2.51294317,3.07314812 1.47940331,3.43874856 L0.202767526,3.89016462 C0.154921789,3.90698276 0.122994652,3.95079617 0.122994652,3.99995688 C0.122994652,4.04920383 0.154921789,4.09301724 0.202767526,4.10983538 L1.47940331,4.56159643 C2.51294317,4.92685188 3.32766974,5.70807594 3.70881679,6.69922486 Z" id="star-big-default"></path>
                            </g>
                        </g>
                    </g>
                </g>
            </g>
        </g>
    </g>
</svg>