<?xml version="1.0" encoding="UTF-8"?>
<svg width="40px" height="40px" viewBox="0 0 40 40" version="1.1" xmlns="http://www.w3.org/2000/svg" xmlns:xlink="http://www.w3.org/1999/xlink">
    <!-- Generator: sketchtool 53.2 (72643) - https://sketchapp.com -->
    <title>228BB610-01B3-4608-8589-1835AA4B102D</title>
    <desc>Created with sketchtool.</desc>
    <g id="Page-1" stroke="none" stroke-width="1" fill="none" fill-rule="evenodd">
        <g id="MVP-Dashboard-1440px" transform="translate(-140.000000, -1805.000000)" fill="#da2814">
            <g id="Group-28" transform="translate(120.000000, 1322.000000)">
                <g id="Product-card-v2-Copy-3" transform="translate(0.000000, 464.000000)">
                    <g id="loteomaxx-card_graphic">
                        <g id="Product-icon/Loteo-Maxx">
                            <path d="M30.2514648,35.9404369 C30.0460816,35.9404369 29.8446655,35.8568181 29.6990967,35.7115533 C29.553833,35.5659833 29.4702148,35.3645658 29.4702148,35.1591809 C29.4702148,34.9534908 29.553833,34.7520733 29.6990967,34.6068085 C29.8446655,34.4615437 30.045166,34.377925 30.2514648,34.377925 C30.4571533,34.377925 30.6585694,34.4615437 30.803833,34.6068085 C30.9490967,34.7520733 31.0327148,34.9534908 31.0327148,35.1591809 C31.0327148,35.3645658 30.9490967,35.5659833 30.803833,35.7115533 C30.6585694,35.8568181 30.4571533,35.9404369 30.2514648,35.9404369 Z M41.4428711,34.9058831 C41.5881348,35.0511478 41.6711426,35.2528706 41.6711426,35.4582554 C41.6711426,35.6645559 41.5881348,35.865363 41.4428711,36.0106278 C41.296997,36.1558926 41.0961914,36.2395114 40.8898926,36.2395114 C40.6845093,36.2395114 40.4827881,36.1558926 40.3375244,36.0106278 C40.1922608,35.865363 40.1086426,35.6636403 40.1086426,35.4582554 C40.1086426,35.2528706 40.1922608,35.0511478 40.3375244,34.9058831 C40.4827881,34.7606183 40.6845093,34.6769994 40.8898926,34.6769994 C41.0961914,34.6769994 41.296997,34.7606183 41.4428711,34.9058831 Z M43.624878,33.5051155 C43.4188843,33.5051155 43.2171631,33.4214967 43.0718994,33.276232 C42.9266358,33.1309672 42.8430176,32.9292445 42.8430176,32.7238595 C42.8430176,32.5184747 42.9266358,32.316752 43.0718994,32.1714872 C43.2171631,32.0262224 43.4188843,31.9426036 43.624878,31.9426036 C43.8305664,31.9426036 44.0319824,32.0262224 44.1772461,32.1714872 C44.3225098,32.316752 44.4055176,32.5184747 44.4055176,32.7238595 C44.4055176,32.9292445 44.3225098,33.1309672 44.1772461,33.276232 C44.0319824,33.4214967 43.8305664,33.5051155 43.624878,33.5051155 Z M57.65625,38.2185915 C58.9486695,38.2185915 60,39.26993 60,40.5623593 L60,45.4842719 C60,45.9154885 59.6502686,46.2655278 59.21875,46.2655278 C57.9263305,46.2655278 56.875,47.3168664 56.875,48.6092957 C56.875,49.9014198 57.9263305,50.9530636 59.21875,50.9530636 C59.6502686,50.9530636 60,51.3027977 60,51.7343196 L60,56.6562321 C60,57.9483562 58.9486695,59 57.65625,59 L22.34375,59 C21.0513305,59 20,57.9483562 20,56.6562321 L20,51.7343196 C20,51.3027977 20.3497314,50.9530636 20.78125,50.9530636 C22.0736695,50.9530636 23.125,49.9014198 23.125,48.6092957 C23.125,47.3168664 22.0736695,46.2655278 20.78125,46.2655278 C20.3497314,46.2655278 20,45.9154885 20,45.4842719 L20,40.5623593 C20,39.26993 21.0513305,38.2185915 22.34375,38.2185915 L31.7218017,38.2185915 L43.3483887,26.5919158 C43.6535645,26.2867377 44.1482544,26.2867377 44.4534302,26.5919158 L52.4084473,34.5469936 C52.7133179,34.8518666 52.7133179,35.3465603 52.4084473,35.6517384 L49.8416138,38.2185915 L53.2666016,38.2185915 L58.2089234,33.276232 C58.5134888,32.9716642 58.5134888,32.476055 58.2089234,32.1714872 L55.2261352,29.1886763 C54.5922852,29.609517 53.8491821,29.8353488 53.0712891,29.8353488 C52.027893,29.8353488 51.0470581,29.4288515 50.309143,28.691236 C49.571228,27.9533153 49.1650391,26.9724729 49.1650391,25.929069 C49.1650391,25.15117 49.3908691,24.4077561 49.8117066,23.7742063 L46.8286133,20.7913955 C46.6812134,20.6436893 46.4849853,20.5625119 46.2762452,20.5625119 C46.0675048,20.5625119 45.871582,20.6436893 45.723877,20.7913955 L32.8207398,33.6946312 C32.515564,33.9998093 32.0208741,33.9998093 31.7156983,33.6946312 C31.4105225,33.3894531 31.4105225,32.8947593 31.7156983,32.5898864 L44.6191406,19.6866507 C45.0616455,19.2438373 45.6503296,19 46.2762452,19 C46.9024658,19 47.4908447,19.2438373 47.9336548,19.6866507 L51.4138794,23.1669019 C51.5603638,23.3133874 51.6427613,23.5120583 51.6427613,23.7192743 C51.6427613,23.9264902 51.5603638,24.1251611 51.4138794,24.2716466 C50.9713745,24.7144601 50.7275391,25.3028435 50.7275391,25.929069 C50.7275391,26.5549893 50.9710694,27.1436778 51.4138794,27.5861861 C51.8566895,28.0289995 52.4450684,28.2728368 53.0712891,28.2728368 C53.6972046,28.2728368 54.2858887,28.0289995 54.7283936,27.5861861 C55.0335694,27.2813132 55.5282593,27.2813132 55.8331298,27.5861861 L59.3136597,31.0667424 C59.7561645,31.5092507 60,32.0979393 60,32.7238595 C60,33.3497799 59.7561645,33.9384685 59.3136597,34.3812819 L55.4763794,38.2185915 L57.65625,38.2185915 Z M43.9007569,28.249033 L33.9315796,38.2182863 L42.3284913,38.2182863 L45.723877,34.8231798 C46.0290527,34.5180017 46.5237427,34.5180017 46.8286133,34.8231798 C47.1337891,35.1283579 47.1337891,35.6230517 46.8286133,35.9279245 L44.5382691,38.2185915 L47.6318359,38.2185915 L50.7510376,35.0993659 L43.9007569,28.249033 Z M58.4375,44.7814467 L58.4375,40.5623593 C58.4375,40.1314479 58.0871582,39.7811034 57.65625,39.7811034 L22.34375,39.7811034 C21.9128418,39.7811034 21.5625,40.1314479 21.5625,40.5623593 L21.5625,44.7814467 C23.3432007,45.1446087 24.6875,46.7226846 24.6875,48.6092957 C24.6875,50.4956016 23.3432007,52.0739828 21.5625,52.4371448 L21.5625,56.6562321 C21.5625,57.0868384 21.9128418,57.4374881 22.34375,57.4374881 L57.65625,57.4374881 C58.0871582,57.4374881 58.4375,57.0868384 58.4375,56.6562321 L58.4375,52.4371448 C56.6567993,52.0739828 55.3125,50.4956016 55.3125,48.6092957 C55.3125,46.7226846 56.6567993,45.1443034 58.4375,44.7814467 Z M36.6851806,47.2866538 C36.539917,47.4319185 36.3381958,47.5155374 36.1328125,47.5155374 C35.9274292,47.5155374 35.725708,47.4319185 35.5804444,47.2866538 C35.4351806,47.1410838 35.3515625,46.9396663 35.3515625,46.7342814 C35.3515625,46.5285913 35.4351806,46.3271738 35.5804444,46.181909 C35.725708,46.0366442 35.9274292,45.9530255 36.1328125,45.9530255 C36.3381958,45.9530255 36.539917,46.0366442 36.6851806,46.181909 C36.8304444,46.3271738 36.9140625,46.5285913 36.9140625,46.7342814 C36.9140625,46.9396663 36.8304444,47.1410838 36.6851806,47.2866538 Z M44.4195556,47.2866538 C44.274292,47.4319185 44.0725708,47.5155374 43.8671875,47.5155374 C43.6618042,47.5155374 43.460083,47.4319185 43.3148194,47.2866538 C43.1695556,47.1410838 43.0859375,46.9396663 43.0859375,46.7342814 C43.0859375,46.5285913 43.1695556,46.3271738 43.3148194,46.181909 C43.460083,46.0366442 43.6618042,45.9530255 43.8671875,45.9530255 C44.0725708,45.9530255 44.274292,46.0366442 44.4195556,46.181909 C44.5648194,46.3271738 44.6484375,46.5285913 44.6484375,46.7342814 C44.6484375,46.9396663 44.5648194,47.1410838 44.4195556,47.2866538 Z M40.5523681,47.2866538 C40.4071045,47.4319185 40.2053833,47.5155374 40,47.5155374 C39.7946167,47.5155374 39.5928955,47.4319185 39.4476319,47.2866538 C39.3023681,47.1410838 39.21875,46.9396663 39.21875,46.7342814 C39.21875,46.5285913 39.3023681,46.3271738 39.4476319,46.181909 C39.5928955,46.0366442 39.7946167,45.9530255 40,45.9530255 C40.2053833,45.9530255 40.4071045,46.0366442 40.5523681,46.181909 C40.6976319,46.3271738 40.78125,46.5285913 40.78125,46.7342814 C40.78125,46.9396663 40.6976319,47.1410838 40.5523681,47.2866538 Z M32.265625,47.5155374 C32.0602417,47.5155374 31.8585205,47.4319185 31.7132569,47.2866538 C31.5679931,47.1410838 31.484375,46.9396663 31.484375,46.7342814 C31.484375,46.5285913 31.5679931,46.3271738 31.7132569,46.181909 C31.8585205,46.0366442 32.0602417,45.9530255 32.265625,45.9530255 C32.4710083,45.9530255 32.6727295,46.0366442 32.8179931,46.181909 C32.9632569,46.3271738 33.046875,46.5285913 33.046875,46.7342814 C33.046875,46.9396663 32.9632569,47.1410838 32.8179931,47.2866538 C32.6727295,47.4319185 32.4710083,47.5155374 32.265625,47.5155374 Z M48.2867431,47.2866538 C48.1414795,47.4319185 47.9397583,47.5155374 47.734375,47.5155374 C47.5289917,47.5155374 47.3272705,47.4319185 47.1820069,47.2866538 C47.0367431,47.1410838 46.953125,46.9396663 46.953125,46.7342814 C46.953125,46.5285913 47.0367431,46.3271738 47.1820069,46.181909 C47.3272705,46.0366442 47.5289917,45.9530255 47.734375,45.9530255 C47.9397583,45.9530255 48.1414795,46.0366442 48.2867431,46.181909 C48.4320069,46.3271738 48.515625,46.5285913 48.515625,46.7342814 C48.515625,46.9396663 48.4320069,47.1410838 48.2867431,47.2866538 Z M32.265625,51.265566 C31.8341064,51.265566 31.484375,50.9155267 31.484375,50.48431 C31.484375,50.0527881 31.8341064,49.7030541 32.265625,49.7030541 L47.734375,49.7030541 C48.1658936,49.7030541 48.515625,50.0527881 48.515625,50.48431 C48.515625,50.9155267 48.1658936,51.265566 47.734375,51.265566 L32.265625,51.265566 Z M35.1031494,53.4530827 C35.3094483,53.4530827 35.5102539,53.5367014 35.6555176,53.6819662 C35.8016968,53.827231 35.8843994,54.0286486 35.8843994,54.2343386 C35.8843994,54.4397235 35.8016968,54.641141 35.6555176,54.786711 C35.5102539,54.9319758 35.3094483,55.0155946 35.1031494,55.0155946 C34.8977661,55.0155946 34.6960449,54.9319758 34.5507813,54.786711 C34.4055176,54.641141 34.3218994,54.4397235 34.3218994,54.2343386 C34.3218994,54.0286486 34.4055176,53.827231 34.5507813,53.6819662 C34.6960449,53.5367014 34.8977661,53.4530827 35.1031494,53.4530827 Z M51.875,42.2029969 C52.3065186,42.2029969 52.65625,42.5527309 52.65625,42.9842528 L52.65625,54.2343386 C52.65625,54.6655553 52.3065186,55.0155946 51.875,55.0155946 L38.4106445,55.0155946 C37.9791259,55.0155946 37.6293945,54.6655553 37.6293945,54.2343386 C37.6293945,53.8028168 37.9791259,53.4530827 38.4106445,53.4530827 L51.09375,53.4530827 L51.09375,43.7655088 L28.90625,43.7655088 L28.90625,53.4530827 L31.3793945,53.4530827 C31.8109131,53.4530827 32.1606445,53.8028168 32.1606445,54.2343386 C32.1606445,54.6655553 31.8109131,55.0155946 31.3793945,55.0155946 L28.125,55.0155946 C27.6934814,55.0155946 27.34375,54.6655553 27.34375,54.2343386 L27.34375,42.9842528 C27.34375,42.5527309 27.6934814,42.2029969 28.125,42.2029969 L51.875,42.2029969 Z" id="loteomaxx-cardicon"></path>
                        </g>
                    </g>
                </g>
            </g>
        </g>
    </g>
</svg>
