<?xml version="1.0" encoding="UTF-8"?>
<svg width="93px" height="103px" viewBox="0 0 93 103" version="1.1" xmlns="http://www.w3.org/2000/svg" xmlns:xlink="http://www.w3.org/1999/xlink">
    <!-- Generator: sketchtool 53.2 (72643) - https://sketchapp.com -->
    <title>8D707827-9018-421D-B300-8F9997068E4F</title>
    <desc>Created with sketchtool.</desc>
    <g id="Final-designs" stroke="none" stroke-width="1" fill="none" fill-rule="evenodd">
        <g id="My-balance-detail" transform="translate(-244.000000, -285.000000)" fill="#FFFFFF">
            <g id="Group-43" transform="translate(119.000000, 240.000000)">
                <path d="M152,90 C151.474219,90 150.958594,89.7859374 150.585938,89.4140624 C150.214062,89.0414062 150,88.5257812 150,88 C150,87.4734374 150.214062,86.9578124 150.585938,86.5859374 C150.958594,86.2140624 151.471875,86 152,86 C152.526562,86 153.042188,86.2140624 153.414062,86.5859374 C153.785938,86.9578124 154,87.4734374 154,88 C154,88.5257812 153.785938,89.0414062 153.414062,89.4140624 C153.042188,89.7859374 152.526562,90 152,90 Z M182.415625,87.5859376 C182.7875,87.9578126 183,88.4742188 183,89 C183,89.5281252 182.7875,90.0421876 182.415625,90.4140626 C182.042187,90.7859376 181.528125,91 181,91 C180.474219,91 179.957813,90.7859376 179.585937,90.4140626 C179.214063,90.0421876 179,89.5257814 179,89 C179,88.4742188 179.214063,87.9578126 179.585937,87.5859376 C179.957813,87.2140626 180.474219,87 181,87 C181.528125,87 182.042187,87.2140626 182.415625,87.5859376 Z M188.001563,84 C187.474219,84 186.957813,83.7859376 186.585937,83.4140626 C186.214063,83.0421876 186,82.5257814 186,82 C186,81.4742188 186.214063,80.9578126 186.585937,80.5859376 C186.957813,80.2140626 187.474219,80 188.001563,80 C188.528125,80 189.04375,80.2140626 189.415625,80.5859376 C189.7875,80.9578126 190,81.4742188 190,82 C190,82.5257814 189.7875,83.0421876 189.415625,83.4140626 C189.04375,83.7859376 188.528125,84 188.001563,84 Z M225.730469,96.4097322 C229.187691,96.4097322 232,99.2220628 232,102.679311 L232,115.845427 C232,116.998932 231.064468,117.935287 229.910156,117.935287 C226.452934,117.935287 223.640625,120.747618 223.640625,124.204866 C223.640625,127.661298 226.452934,130.474445 229.910156,130.474445 C231.064468,130.474445 232,131.409984 232,132.564305 L232,145.730421 C232,149.186853 229.187691,152 225.730469,152 L131.269531,152 C127.812309,152 125,149.186853 125,145.730421 L125,132.564305 C125,131.409984 125.935532,130.474445 127.089844,130.474445 C130.547066,130.474445 133.359375,127.661298 133.359375,124.204866 C133.359375,120.747618 130.547066,117.935287 127.089844,117.935287 C125.935532,117.935287 125,116.998932 125,115.845427 L125,102.679311 C125,99.2220628 127.812309,96.4097322 131.269531,96.4097322 L156.35582,96.4097322 L187.45694,65.3083748 C188.273285,64.4920233 189.59658,64.4920233 190.412926,65.3083748 L211.692596,86.5882079 C212.508125,87.403743 212.508125,88.7270487 211.692596,89.5434001 L204.826317,96.4097322 L213.988159,96.4097322 L227.20887,83.1889205 C228.023582,82.3742019 228.023582,81.0484471 227.20887,80.2337283 L219.229912,72.2547092 C217.534363,73.3804579 215.546562,73.9845579 213.465698,73.9845579 C210.674614,73.9845579 208.05088,72.8971778 206.076958,70.9240564 C204.103035,68.9501185 203.016479,66.3263651 203.016479,63.5352595 C203.016479,61.4543797 203.620575,59.4657476 204.746315,57.771002 L196.766541,49.7919831 C196.372246,49.3968688 195.847336,49.1797194 195.288956,49.1797194 C194.730575,49.1797194 194.206482,49.3968688 193.811371,49.7919831 L159.295479,84.3081384 C158.479134,85.1244898 157.155838,85.1244898 156.339493,84.3081384 C155.523148,83.4917869 155.523148,82.1684811 156.339493,81.3529461 L190.856201,46.8367906 C192.039902,45.6522649 193.614632,45 195.288956,45 C196.964096,45 198.53801,45.6522649 199.722526,46.8367906 L209.032127,56.1464627 C209.423973,56.5383114 209.644386,57.069756 209.644386,57.6240587 C209.644386,58.1783614 209.423973,58.709806 209.032127,59.1016547 C207.848427,60.2861807 207.196167,61.8601063 207.196167,63.5352595 C207.196167,65.2095963 207.847611,66.7843382 209.032127,67.9680479 C210.216644,69.1525737 211.790558,69.8048385 213.465698,69.8048385 C215.140022,69.8048385 216.714752,69.1525737 217.898453,67.9680479 C218.714798,67.1525127 220.038094,67.1525127 220.853622,67.9680479 L230.16404,77.278536 C231.34774,78.4622457 232,80.0369876 232,81.7113243 C232,83.3856611 231.34774,84.9604032 230.16404,86.144929 L219.899315,96.4097322 L225.730469,96.4097322 Z M188.934525,69.7411632 L162.266975,96.4089159 L184.728714,96.4089159 L193.811371,87.3270059 C194.627716,86.5106545 195.951012,86.5106545 196.766541,87.3270059 C197.582886,88.1433573 197.582886,89.4666632 196.766541,90.2821981 L190.63987,96.4097322 L198.915161,96.4097322 L207.259026,88.0658039 L188.934525,69.7411632 Z M227.820312,113.96537 L227.820312,102.679311 C227.820312,101.526623 226.883148,100.589452 225.730469,100.589452 L131.269531,100.589452 C130.116852,100.589452 129.179688,101.526623 129.179688,102.679311 L129.179688,113.96537 C133.943062,114.936828 137.539062,119.158181 137.539062,124.204866 C137.539062,129.250734 133.943062,133.472904 129.179688,134.444362 L129.179688,145.730421 C129.179688,146.882293 130.116852,147.820281 131.269531,147.820281 L225.730469,147.820281 C226.883148,147.820281 227.820312,146.882293 227.820312,145.730421 L227.820312,134.444362 C223.056938,133.472904 219.460938,129.250734 219.460938,124.204866 C219.460938,119.158181 223.056938,114.936012 227.820312,113.96537 Z M169.414062,120.414062 C169.042188,120.785937 168.525781,121 168,121 C167.474219,121 166.957812,120.785937 166.585938,120.414062 C166.214062,120.041406 166,119.525781 166,119 C166,118.473437 166.214062,117.957812 166.585938,117.585937 C166.957812,117.214062 167.474219,117 168,117 C168.525781,117 169.042188,117.214062 169.414062,117.585937 C169.785938,117.957812 170,118.473437 170,119 C170,119.525781 169.785938,120.041406 169.414062,120.414062 Z M190.414062,120.414062 C190.042188,120.785937 189.525781,121 189,121 C188.474219,121 187.957812,120.785937 187.585938,120.414062 C187.214062,120.041406 187,119.525781 187,119 C187,118.473437 187.214062,117.957812 187.585938,117.585937 C187.957812,117.214062 188.474219,117 189,117 C189.525781,117 190.042188,117.214062 190.414062,117.585937 C190.785938,117.957812 191,118.473437 191,119 C191,119.525781 190.785938,120.041406 190.414062,120.414062 Z M180.414062,120.414062 C180.042188,120.785937 179.525781,121 179,121 C178.474219,121 177.957812,120.785937 177.585938,120.414062 C177.214062,120.041406 177,119.525781 177,119 C177,118.473437 177.214062,117.957812 177.585938,117.585937 C177.957812,117.214062 178.474219,117 179,117 C179.525781,117 180.042188,117.214062 180.414062,117.585937 C180.785938,117.957812 181,118.473437 181,119 C181,119.525781 180.785938,120.041406 180.414062,120.414062 Z M158,121 C157.474219,121 156.957812,120.785937 156.585938,120.414062 C156.214062,120.041406 156,119.525781 156,119 C156,118.473437 156.214062,117.957812 156.585938,117.585937 C156.957812,117.214062 157.474219,117 158,117 C158.525781,117 159.042188,117.214062 159.414062,117.585937 C159.785938,117.957812 160,118.473437 160,119 C160,119.525781 159.785938,120.041406 159.414062,120.414062 C159.042188,120.785937 158.525781,121 158,121 Z M200.414062,120.414062 C200.042188,120.785937 199.525781,121 199,121 C198.474219,121 197.957812,120.785937 197.585938,120.414062 C197.214062,120.041406 197,119.525781 197,119 C197,118.473437 197.214062,117.957812 197.585938,117.585937 C197.957812,117.214062 198.474219,117 199,117 C199.525781,117 200.042188,117.214062 200.414062,117.585937 C200.785938,117.957812 201,118.473437 201,119 C201,119.525781 200.785938,120.041406 200.414062,120.414062 Z M158.110092,131 C156.944596,131 156,130.103906 156,129 C156,127.895312 156.944596,127 158.110092,127 L199.889908,127 C201.055404,127 202,127.895312 202,129 C202,130.103906 201.055404,131 199.889908,131 L158.110092,131 Z M165,137 C165.528125,137 166.042188,137.214062 166.414063,137.585937 C166.788281,137.957812 167,138.473437 167,139 C167,139.525781 166.788281,140.041406 166.414063,140.414062 C166.042188,140.785937 165.528125,141 165,141 C164.474219,141 163.957813,140.785937 163.585938,140.414062 C163.214063,140.041406 163,139.525781 163,139 C163,138.473437 163.214063,137.957812 163.585938,137.585937 C163.957813,137.214062 164.474219,137 165,137 Z M210.901235,107 C212.060475,107 213,107.928068 213,109.073171 L213,138.926829 C213,140.071122 212.060475,141 210.901235,141 L174.730324,141 C173.571084,141 172.631559,140.071122 172.631559,138.926829 C172.631559,137.781726 173.571084,136.853659 174.730324,136.853659 L208.802469,136.853659 L208.802469,111.146341 L149.197531,111.146341 L149.197531,136.853659 L155.841435,136.853659 C157.000675,136.853659 157.940201,137.781726 157.940201,138.926829 C157.940201,140.071122 157.000675,141 155.841435,141 L147.098765,141 C145.939525,141 145,140.071122 145,138.926829 L145,109.073171 C145,107.928068 145.939525,107 147.098765,107 L210.901235,107 Z" id="panel-graphic"></path>
            </g>
        </g>
    </g>
</svg>
