<svg width="519" height="151" viewBox="0 0 519 151" fill="none" xmlns="http://www.w3.org/2000/svg">
<g filter="url(#filter0_d)">
<path d="M36.39 67.595L34.9279 68.9596C34.9319 68.9639 34.9359 68.9682 34.94 68.9725L36.39 67.595ZM53.55 70.39L54.2853 72.2499C54.2927 72.247 54.3 72.2441 54.3073 72.2411L53.55 70.39ZM58.295 67.205L56.8345 65.8387L56.8345 65.8387L58.295 67.205ZM61.155 62.395L59.2806 61.6975C59.2758 61.7104 59.2711 61.7233 59.2666 61.7363L61.155 62.395ZM61.09 49.785L59.2244 50.5058C59.2263 50.5106 59.2282 50.5155 59.2301 50.5203L61.09 49.785ZM57.97 44.975L56.5558 46.3892C56.5635 46.3969 56.5713 46.4046 56.5792 46.4122L57.97 44.975ZM53.29 42.05L52.578 43.919C52.5911 43.9239 52.6042 43.9288 52.6173 43.9335L53.29 42.05ZM41.2 42.18L41.966 44.0275C41.9787 44.0222 41.9914 44.0168 42.004 44.0113L41.2 42.18ZM36.65 45.365L38.1105 46.7313C38.1178 46.7236 38.1249 46.7159 38.132 46.708L36.65 45.365ZM33.725 50.175L31.8506 49.4775C31.8458 49.4904 31.8411 49.5033 31.8366 49.5163L33.725 50.175ZM51.665 85.795L53.2139 87.0603C53.2209 87.0517 53.2279 87.043 53.2348 87.0343L51.665 85.795ZM55.37 81.05L56.9487 82.2779C57.537 81.5214 57.5061 80.454 56.875 79.7329C56.2439 79.0117 55.19 78.8396 54.3623 79.3224L55.37 81.05ZM48.545 83.845L49.0301 85.7853C49.0381 85.7833 49.046 85.7812 49.054 85.7791L48.545 83.845ZM31.385 83.065L30.6973 84.9431L30.7057 84.9461L31.385 83.065ZM23.065 77.995L24.4129 76.5175H24.4129L23.065 77.995ZM17.085 69.545L15.2564 70.3551L15.2603 70.3638L17.085 69.545ZM17.15 45.625L18.9949 46.3973L18.998 46.3897L17.15 45.625ZM23.78 35.81L25.1723 37.2458C25.176 37.2422 25.1797 37.2386 25.1834 37.235L23.78 35.81ZM34.05 29.115L33.2935 27.2636L33.2865 27.2665L34.05 29.115ZM60.765 28.985L60.0293 30.8448C60.0352 30.8471 60.0411 30.8494 60.047 30.8517L60.765 28.985ZM70.775 35.42L72.2003 34.017V34.017L70.775 35.42ZM77.08 45.365L75.2117 46.0787L75.2144 46.0858L77.08 45.365ZM78.575 66.49L80.5443 66.8394L78.575 66.49ZM76.495 74.16L74.6223 73.4577L74.6223 73.4578L76.495 74.16ZM73.18 81.245L71.4395 80.2598C71.4348 80.2682 71.4301 80.2766 71.4255 80.285L73.18 81.245ZM68.89 88.005L67.2712 86.8305C67.2647 86.8394 67.2583 86.8484 67.252 86.8574L68.89 88.005ZM47.895 117.97L49.4802 119.189C49.4984 119.166 49.5159 119.142 49.533 119.118L47.895 117.97ZM44.125 120.83L43.2688 119.023C43.2626 119.025 43.2563 119.028 43.2501 119.032L44.125 120.83ZM22.09 122L20.5411 120.735C20.0524 121.333 19.9519 122.159 20.283 122.857C20.6141 123.555 21.3175 124 22.09 124V122ZM30.75 56.22C30.75 61.5058 32.0378 65.8631 34.9279 68.9596L37.8521 66.2304C35.8889 64.1269 34.75 60.9008 34.75 56.22H30.75ZM34.94 68.9725C37.8968 72.0849 42.0903 73.495 47.18 73.495V69.495C42.8231 69.495 39.8232 68.3051 37.84 66.2175L34.94 68.9725ZM47.18 73.495C49.7684 73.495 52.1481 73.0949 54.2853 72.2499L52.8147 68.5301C51.2253 69.1585 49.3583 69.495 47.18 69.495V73.495ZM54.3073 72.2411C56.4484 71.3652 58.2797 70.1489 59.7555 68.5713L56.8345 65.8387C55.797 66.9477 54.4649 67.8548 52.7927 68.5389L54.3073 72.2411ZM59.7555 68.5713C61.2161 67.01 62.3084 65.1607 63.0434 63.0537L59.2666 61.7363C58.7016 63.3559 57.8872 64.7133 56.8345 65.8387L59.7555 68.5713ZM63.0294 63.0925C63.8146 60.9825 64.195 58.7066 64.195 56.285H60.195C60.195 58.2833 59.8821 60.0809 59.2806 61.6975L63.0294 63.0925ZM64.195 56.285C64.195 53.62 63.7979 51.1946 62.9499 49.0497L59.2301 50.5203C59.8554 52.102 60.195 54.01 60.195 56.285H64.195ZM62.9556 49.0642C62.1243 46.9127 60.9313 45.0576 59.3608 43.5378L56.5792 46.4122C57.6954 47.4924 58.5823 48.8439 59.2244 50.5058L62.9556 49.0642ZM59.3842 43.5608C57.8641 42.0407 56.0469 40.9109 53.9627 40.1665L52.6173 43.9335C54.1731 44.4891 55.4759 45.3093 56.5558 46.3892L59.3842 43.5608ZM54.002 40.181C51.9261 39.3902 49.6658 39.01 47.245 39.01V43.01C49.2442 43.01 51.0139 43.3231 52.578 43.919L54.002 40.181ZM47.245 39.01C44.7591 39.01 42.4637 39.4409 40.396 40.3487L42.004 44.0113C43.4896 43.3591 45.2242 43.01 47.245 43.01V39.01ZM40.434 40.3325C38.3921 41.1791 36.6287 42.4101 35.168 44.022L38.132 46.708C39.1846 45.5465 40.4545 44.6542 41.966 44.0275L40.434 40.3325ZM35.1895 43.9987C33.7377 45.5505 32.6287 47.3863 31.8506 49.4775L35.5994 50.8725C36.208 49.237 37.0489 47.8661 38.1105 46.7313L35.1895 43.9987ZM31.8366 49.5163C31.1058 51.6111 30.75 53.8509 30.75 56.22H34.75C34.75 54.2557 35.0442 52.4656 35.6134 50.8337L31.8366 49.5163ZM53.2348 87.0343C53.8876 86.2074 54.5189 85.4019 55.1287 84.6179L51.9713 82.1621C51.3678 82.9381 50.7424 83.7359 50.0952 84.5557L53.2348 87.0343ZM55.1287 84.6179C55.1287 84.6179 55.2425 84.4716 55.2425 84.4716L55.3562 84.3254L55.47 84.1791L55.5837 84.0329L55.6975 83.8866L55.8112 83.7404L55.925 83.5941C55.925 83.5941 56.0387 83.4479 56.0387 83.4479C56.1399 83.3178 56.3925 82.993 56.4937 82.8629C56.5949 82.7328 56.8475 82.408 56.9487 82.2779L53.7913 79.8221C53.7913 79.8221 53.6775 79.9684 53.6775 79.9684L53.5638 80.1146L53.45 80.2609L53.3363 80.4071C53.3363 80.4071 53.2225 80.5534 53.2225 80.5534L53.1088 80.6996L52.995 80.8459L52.8813 80.9921C52.7801 81.1222 52.5275 81.447 52.4263 81.5771C52.3251 81.7072 52.0725 82.032 51.9713 82.1621L55.1287 84.6179ZM54.3623 79.3224C52.4476 80.4393 50.3418 81.3041 48.036 81.9109L49.054 85.7791C51.6882 85.0859 54.1324 84.0873 56.3777 82.7776L54.3623 79.3224ZM48.0599 81.9047C45.8056 82.4683 43.3913 82.755 40.81 82.755V86.755C43.6888 86.755 46.431 86.435 49.0301 85.7853L48.0599 81.9047ZM40.81 82.755C37.8894 82.755 34.9772 82.2358 32.0643 81.1839L30.7057 84.9461C34.0328 86.1476 37.4039 86.755 40.81 86.755V82.755ZM32.0727 81.187C29.2451 80.1515 26.695 78.5993 24.4129 76.5175L21.7171 79.4725C24.375 81.8973 27.3716 83.7252 30.6973 84.943L32.0727 81.187ZM24.4129 76.5175C22.1662 74.4678 20.3264 71.8834 18.9097 68.7262L15.2603 70.3638C16.8769 73.9666 19.0238 77.0155 21.7171 79.4725L24.4129 76.5175ZM18.9136 68.7349C17.5325 65.6176 16.81 61.896 16.81 57.52H12.81C12.81 62.3307 13.6042 66.6257 15.2564 70.3551L18.9136 68.7349ZM16.81 57.52C16.81 53.5709 17.5414 49.8695 18.9949 46.3973L15.3051 44.8527C13.6386 48.8339 12.81 53.0624 12.81 57.52H16.81ZM18.998 46.3897C20.4561 42.8659 22.5133 39.8243 25.1723 37.2458L22.3877 34.3742C19.3267 37.3424 16.9639 40.8441 15.302 44.8603L18.998 46.3897ZM25.1834 37.235C27.8461 34.6126 31.0475 32.519 34.8135 30.9635L33.2865 27.2665C29.0791 29.0043 25.4339 31.3741 22.3766 34.385L25.1834 37.235ZM34.8065 30.9664C38.5682 29.4294 42.7705 28.645 47.44 28.645V24.645C42.3162 24.645 37.5918 25.5073 33.2935 27.2636L34.8065 30.9664ZM47.44 28.645C52.169 28.645 56.3554 29.3914 60.0293 30.8448L61.5007 27.1252C57.2879 25.4586 52.591 24.645 47.44 24.645V28.645ZM60.047 30.8517C63.7473 32.2749 66.8364 34.2698 69.3497 36.823L72.2003 34.017C69.2536 31.0235 65.6693 28.7285 61.483 27.1183L60.047 30.8517ZM69.3497 36.823C71.8744 39.3878 73.8308 42.464 75.2117 46.0787L78.9483 44.6513C77.3826 40.5527 75.1356 36.9989 72.2003 34.017L69.3497 36.823ZM75.2144 46.0858C76.5886 49.6425 77.29 53.5979 77.29 57.975H81.29C81.29 53.1655 80.5181 48.7141 78.9456 44.6442L75.2144 46.0858ZM77.29 57.975C77.29 60.8589 77.0601 63.5796 76.6058 66.1406L80.5443 66.8394C81.0432 64.027 81.29 61.0711 81.29 57.975H77.29ZM76.6058 66.1406C76.1493 68.7133 75.4872 71.1514 74.6223 73.4577L78.3677 74.8622C79.3228 72.3153 80.0474 69.6401 80.5443 66.8394L76.6058 66.1406ZM74.6223 73.4578C73.7496 75.785 72.6891 78.0522 71.4395 80.2598L74.9205 82.2302C76.2709 79.8445 77.4204 77.3883 78.3677 74.8622L74.6223 73.4578ZM71.4255 80.285C70.2111 82.5043 68.8269 84.6862 67.2712 86.8305L70.5088 89.1795C72.1598 86.9038 73.6355 84.5791 74.9345 82.205L71.4255 80.285ZM67.252 86.8574L46.257 116.822L49.533 119.118L70.528 89.1526L67.252 86.8574ZM46.3098 116.751C45.6828 117.566 44.7076 118.341 43.2688 119.023L44.9812 122.637C46.8357 121.759 48.3739 120.628 49.4802 119.189L46.3098 116.751ZM43.2501 119.032C41.9612 119.659 40.4272 120 38.6 120V124C40.9328 124 43.0821 123.561 44.9999 122.628L43.2501 119.032ZM38.6 120H22.09V124H38.6V120ZM23.6389 123.265L53.2139 87.0603L50.1161 84.5297L20.5411 120.735L23.6389 123.265ZM133.17 85.99V87.99C134.275 87.99 135.17 87.0946 135.17 85.99H133.17ZM133.3 53.23L131.306 53.0766C131.305 53.0927 131.304 53.1088 131.303 53.1249L133.3 53.23ZM133.82 47.965L135.806 48.2014C135.914 47.2954 135.395 46.4312 134.544 46.1008C133.694 45.7703 132.728 46.0574 132.196 46.7986L133.82 47.965ZM106.52 85.99L104.896 84.8236C104.458 85.4329 104.398 86.2357 104.741 86.903C105.083 87.5703 105.77 87.99 106.52 87.99V85.99ZM159.69 85.99H161.69C161.69 84.8854 160.795 83.99 159.69 83.99V85.99ZM158.715 98.6L157.256 97.2321L157.253 97.2354L158.715 98.6ZM148.77 99.575V97.575C147.666 97.575 146.77 98.4704 146.77 99.575H148.77ZM148.77 122V124C149.875 124 150.77 123.105 150.77 122H148.77ZM133.17 122H131.17C131.17 123.105 132.066 124 133.17 124V122ZM133.17 99.575H135.17C135.17 98.4704 134.275 97.575 133.17 97.575V99.575ZM91.1152 98.535L89.9031 100.126C89.9149 100.135 89.9268 100.144 89.9388 100.152L91.1152 98.535ZM89.4252 95.805L91.3892 95.4273C91.387 95.4161 91.3848 95.4049 91.3824 95.3937L89.4252 95.805ZM87.5402 86.835L85.9374 85.6387C85.5939 86.0988 85.4648 86.6844 85.5829 87.2463L87.5402 86.835ZM131.74 27.62V25.62C131.109 25.62 130.515 25.9179 130.137 26.4237L131.74 27.62ZM148.77 27.62H150.77C150.77 26.5154 149.875 25.62 148.77 25.62V27.62ZM148.77 85.99H146.77C146.77 87.0946 147.666 87.99 148.77 87.99V85.99ZM135.17 85.99V57.91H131.17V85.99H135.17ZM135.17 57.91C135.17 56.4756 135.212 54.9508 135.297 53.3351L131.303 53.1249C131.215 54.8025 131.17 56.3978 131.17 57.91H135.17ZM135.294 53.3834C135.422 51.7232 135.592 49.996 135.806 48.2014L131.834 47.7286C131.614 49.574 131.438 51.3567 131.306 53.0766L135.294 53.3834ZM132.196 46.7986L104.896 84.8236L108.145 87.1564L135.445 49.1314L132.196 46.7986ZM106.52 87.99H133.17V83.99H106.52V87.99ZM157.69 85.99V96.13H161.69V85.99H157.69ZM157.69 96.13C157.69 96.577 157.557 96.9108 157.256 97.2321L160.174 99.9679C161.173 98.9026 161.69 97.5897 161.69 96.13H157.69ZM157.253 97.2354C157.12 97.3778 156.845 97.575 156.115 97.575V101.575C157.639 101.575 159.097 101.122 160.177 99.9646L157.253 97.2354ZM156.115 97.575H148.77V101.575H156.115V97.575ZM146.77 99.575V122H150.77V99.575H146.77ZM148.77 120H133.17V124H148.77V120ZM135.17 122V99.575H131.17V122H135.17ZM133.17 97.575H94.2352V101.575H133.17V97.575ZM94.2352 97.575C93.5516 97.575 92.9199 97.3745 92.2915 96.9175L89.9388 100.152C91.2171 101.082 92.6654 101.575 94.2352 101.575V97.575ZM92.3272 96.9441C91.8098 96.5499 91.5132 96.0724 91.3892 95.4273L87.4611 96.1827C87.7704 97.7909 88.6005 99.1334 89.9031 100.126L92.3272 96.9441ZM91.3824 95.3937L89.4974 86.4237L85.5829 87.2463L87.4679 96.2163L91.3824 95.3937ZM89.1429 88.0313L133.343 28.8163L130.137 26.4237L85.9374 85.6387L89.1429 88.0313ZM131.74 29.62H148.77V25.62H131.74V29.62ZM146.77 27.62V85.99H150.77V27.62H146.77ZM148.77 87.99H159.69V83.99H148.77V87.99ZM200.05 61.55L201.589 62.8275L201.593 62.8231L200.05 61.55ZM197.19 64.995L195.651 63.7175C195.057 64.433 195.035 65.4635 195.597 66.2042C196.16 66.945 197.158 67.2004 198.007 66.8206L197.19 64.995ZM202.52 63.305L202.921 65.2644L202.52 63.305ZM218.965 64.475L219.627 62.5877L218.965 64.475ZM227.87 69.74L226.532 71.2266V71.2266L227.87 69.74ZM234.11 78.58L232.279 79.384C232.283 79.393 232.287 79.402 232.291 79.411L234.11 78.58ZM234.045 103.41L232.203 102.632C232.2 102.638 232.198 102.644 232.196 102.65L234.045 103.41ZM227.155 113.615L225.762 112.18C225.759 112.184 225.755 112.187 225.752 112.19L227.155 113.615ZM216.495 120.505L215.743 118.652L215.736 118.655L216.495 120.505ZM188.87 120.635L188.121 122.489C188.126 122.492 188.132 122.494 188.138 122.496L188.87 120.635ZM178.47 113.745L177.035 115.138L178.47 113.745ZM171.905 103.215L170.029 103.906L170.031 103.913L171.905 103.215ZM172.295 75.785L170.431 75.0601C170.429 75.0651 170.427 75.0701 170.426 75.0752L172.295 75.785ZM180.55 61.355L182.154 62.5505L182.156 62.5471L180.55 61.355ZM202.455 31.845L200.87 30.6256C200.863 30.6346 200.856 30.6438 200.849 30.6529L202.455 31.845ZM206.29 28.92L207.166 30.718L207.166 30.718L206.29 28.92ZM228 27.685L229.543 28.9581C230.036 28.3609 230.14 27.5328 229.809 26.8324C229.479 26.132 228.775 25.685 228 25.685V27.685ZM208.89 107.375L209.654 109.224V109.224L208.89 107.375ZM214.025 103.93L212.59 102.537L214.025 103.93ZM217.405 98.795L219.248 99.5729C219.25 99.5681 219.252 99.5633 219.254 99.5585L217.405 98.795ZM214.155 80.27L212.741 81.6842C212.748 81.6915 212.756 81.6987 212.763 81.7058L214.155 80.27ZM196.085 77.15L196.843 79.0011C196.854 78.9962 196.866 78.9912 196.878 78.9861L196.085 77.15ZM191.145 80.53L189.689 79.1593L189.688 79.1606L191.145 80.53ZM187.96 85.665L186.098 84.9362C186.093 84.948 186.089 84.9598 186.084 84.9717L187.96 85.665ZM187.83 98.99L185.925 99.5981L185.929 99.61L187.83 98.99ZM190.755 104.125L189.275 105.47L190.755 104.125ZM195.565 107.44L194.808 109.291C194.813 109.293 194.818 109.295 194.823 109.297L195.565 107.44ZM198.511 60.2725L195.651 63.7175L198.729 66.2725L201.589 62.8275L198.511 60.2725ZM198.007 66.8206C199.51 66.1481 201.146 65.6274 202.921 65.2644L202.12 61.3456C200.081 61.7626 198.164 62.3686 196.374 63.1694L198.007 66.8206ZM202.921 65.2644C204.68 64.9047 206.602 64.72 208.695 64.72V60.72C206.368 60.72 204.174 60.9252 202.12 61.3456L202.921 65.2644ZM208.695 64.72C211.978 64.72 215.178 65.2663 218.304 66.3623L219.627 62.5877C216.079 61.3436 212.432 60.72 208.695 60.72V64.72ZM218.304 66.3623C221.393 67.4458 224.131 69.0655 226.532 71.2266L229.208 68.2534C226.409 65.7345 223.211 63.8442 219.627 62.5877L218.304 66.3623ZM226.532 71.2266C228.899 73.3568 230.821 76.062 232.279 79.384L235.942 77.776C234.28 73.9913 232.041 70.8032 229.208 68.2534L226.532 71.2266ZM232.291 79.411C233.751 82.6063 234.515 86.4493 234.515 90.995H238.515C238.515 86.0073 237.677 81.5737 235.93 77.749L232.291 79.411ZM234.515 90.995C234.515 95.1137 233.742 98.9866 232.203 102.632L235.888 104.188C237.642 100.033 238.515 95.6297 238.515 90.995H234.515ZM232.196 102.65C230.695 106.299 228.553 109.47 225.762 112.18L228.549 115.05C231.738 111.953 234.189 108.321 235.895 104.17L232.196 102.65ZM225.752 112.19C223.007 114.894 219.681 117.052 215.743 118.652L217.248 122.358C221.63 120.578 225.41 118.142 228.559 115.04L225.752 112.19ZM215.736 118.655C211.891 120.233 207.561 121.04 202.715 121.04V125.04C208.01 125.04 212.866 124.157 217.255 122.355L215.736 118.655ZM202.715 121.04C197.766 121.04 193.405 120.271 189.603 118.774L188.138 122.496C192.482 124.206 197.352 125.04 202.715 125.04V121.04ZM189.62 118.781C185.786 117.231 182.558 115.085 179.905 112.352L177.035 115.138C180.102 118.298 183.808 120.746 188.121 122.489L189.62 118.781ZM179.905 112.352C177.25 109.616 175.205 106.346 173.78 102.517L170.031 103.913C171.639 108.23 173.971 111.981 177.035 115.138L179.905 112.352ZM173.782 102.524C172.357 98.6544 171.63 94.3635 171.63 89.63H167.63C167.63 94.7765 168.421 99.5423 170.029 103.906L173.782 102.524ZM171.63 89.63C171.63 85.3457 172.466 80.9708 174.165 76.4948L170.426 75.0752C168.571 79.9592 167.63 84.8143 167.63 89.63H171.63ZM174.159 76.5099C175.901 72.0307 178.555 67.3775 182.154 62.5505L178.947 60.1595C175.179 65.2125 172.329 70.1793 170.431 75.0601L174.159 76.5099ZM182.156 62.5471L204.061 33.0371L200.849 30.6529L178.944 60.1629L182.156 62.5471ZM204.041 33.0644C204.668 32.2488 205.668 31.4477 207.166 30.718L205.414 27.122C203.532 28.0389 201.976 29.1879 200.87 30.6256L204.041 33.0644ZM207.166 30.718C208.545 30.0465 210.166 29.685 212.075 29.685V25.685C209.651 25.685 207.416 26.1469 205.414 27.122L207.166 30.718ZM212.075 29.685H228V25.685H212.075V29.685ZM226.458 26.4119L198.508 60.2769L201.593 62.8231L229.543 28.9581L226.458 26.4119ZM202.39 110.61C204.97 110.61 207.398 110.155 209.654 109.224L208.127 105.526C206.395 106.242 204.491 106.61 202.39 106.61V110.61ZM209.654 109.224C211.887 108.301 213.831 107.002 215.46 105.323L212.59 102.537C211.36 103.804 209.88 104.802 208.127 105.526L209.654 109.224ZM215.46 105.323C217.069 103.666 218.331 101.744 219.248 99.5729L215.563 98.0171C214.833 99.7458 213.842 101.247 212.59 102.537L215.46 105.323ZM219.254 99.5585C220.185 97.3031 220.64 94.8745 220.64 92.295H216.64C216.64 94.3955 216.272 96.3002 215.557 98.0315L219.254 99.5585ZM220.64 92.295C220.64 89.5352 220.219 86.9904 219.338 84.6897L215.603 86.1203C216.281 87.8929 216.64 89.9415 216.64 92.295H220.64ZM219.338 84.6897C218.464 82.4072 217.206 80.4422 215.548 78.8342L212.763 81.7058C213.965 82.8712 214.917 84.3294 215.603 86.1203L219.338 84.6897ZM215.57 78.8558C213.925 77.2113 211.964 75.9756 209.714 75.144L208.327 78.896C210.064 79.5378 211.526 80.4687 212.741 81.6842L215.57 78.8558ZM209.714 75.144C207.469 74.3146 205.02 73.915 202.39 73.915V77.915C204.614 77.915 206.585 78.2521 208.327 78.896L209.714 75.144ZM202.39 73.915C199.85 73.915 197.475 74.3715 195.292 75.3139L196.878 78.9861C198.509 78.2818 200.337 77.915 202.39 77.915V73.915ZM195.328 75.2989C193.162 76.1852 191.275 77.4738 189.689 79.1593L192.602 81.9007C193.789 80.6395 195.196 79.6748 196.843 79.0011L195.328 75.2989ZM189.688 79.1606C188.154 80.7927 186.962 82.7272 186.098 84.9362L189.823 86.3938C190.518 84.6161 191.449 83.1273 192.603 81.8993L189.688 79.1606ZM186.084 84.9717C185.256 87.2123 184.855 89.6386 184.855 92.23H188.855C188.855 90.0547 189.191 88.1044 189.836 86.3583L186.084 84.9717ZM184.855 92.23C184.855 94.875 185.203 97.337 185.925 99.5981L189.736 98.3819C189.157 96.5697 188.855 94.525 188.855 92.23H184.855ZM185.929 99.61C186.659 101.849 187.77 103.814 189.275 105.47L192.235 102.78C191.141 101.576 190.302 100.118 189.732 98.37L185.929 99.61ZM189.275 105.47C190.789 107.135 192.644 108.406 194.808 109.291L196.323 105.589C194.673 104.914 193.322 103.975 192.235 102.78L189.275 105.47ZM194.823 109.297C197.058 110.191 199.594 110.61 202.39 110.61V106.61C199.986 106.61 197.973 106.249 196.308 105.583L194.823 109.297ZM295.985 105.945L296.679 107.821C296.686 107.818 296.693 107.816 296.701 107.813L295.985 105.945ZM300.86 102.89L302.299 104.279L300.86 102.89ZM303.395 98.6L305.313 99.1699C305.314 99.1653 305.315 99.1607 305.317 99.1561L303.395 98.6ZM303.265 88.395L305.14 87.6986L303.265 88.395ZM300.535 84.56L299.23 86.0748C299.24 86.0836 299.25 86.0922 299.26 86.1008L300.535 84.56ZM295.595 82.09L295.052 84.0146L295.062 84.0176L295.595 82.09ZM271.61 81.245V79.245C270.506 79.245 269.61 80.1404 269.61 81.245H271.61ZM271.61 107.05H269.61C269.61 108.155 270.506 109.05 271.61 109.05V107.05ZM271.61 42.505V40.505C270.506 40.505 269.61 41.4004 269.61 42.505H271.61ZM271.61 67.985H269.61C269.61 69.0896 270.506 69.985 271.61 69.985V67.985ZM291.695 67.335L292.095 69.2946C292.108 69.292 292.121 69.2893 292.134 69.2864L291.695 67.335ZM300.275 61.225L298.468 60.3688C298.465 60.3759 298.461 60.3829 298.458 60.39L300.275 61.225ZM300.47 49.33L298.594 50.0214C298.599 50.0358 298.605 50.0501 298.61 50.0643L300.47 49.33ZM297.61 45.365L298.827 43.7778V43.7778L297.61 45.365ZM292.67 43.22L292.205 45.1652C292.219 45.1684 292.232 45.1714 292.246 45.1744L292.67 43.22ZM301.77 29.505L301.246 31.435C301.253 31.437 301.261 31.4389 301.268 31.4408L301.77 29.505ZM312.755 34.575L311.521 36.1485C311.53 36.1555 311.539 36.1624 311.548 36.1692L312.755 34.575ZM318.995 42.505L320.842 41.7358V41.7358L318.995 42.505ZM319.97 59.21L318.069 58.59C318.065 58.6025 318.061 58.6151 318.057 58.6277L319.97 59.21ZM317.045 64.865L315.45 63.6588L315.445 63.665L317.045 64.865ZM304.565 73.25L303.907 71.3614C303.068 71.6539 302.522 72.4653 302.568 73.3531C302.614 74.2408 303.24 74.9917 304.105 75.1963L304.565 73.25ZM318.8 80.66L320.288 79.3231L318.8 80.66ZM321.075 105.1L319.256 104.271C319.253 104.277 319.25 104.283 319.247 104.29L321.075 105.1ZM314.38 114.005L313.083 112.483L314.38 114.005ZM303.46 119.92L304.076 121.823L304.087 121.819L303.46 119.92ZM252.11 122H250.11C250.11 123.105 251.006 124 252.11 124V122ZM252.11 27.685V25.685C251.006 25.685 250.11 26.5804 250.11 27.685H252.11ZM288.315 109.05C291.572 109.05 294.385 108.669 296.679 107.821L295.292 104.069C293.599 104.695 291.299 105.05 288.315 105.05V109.05ZM296.701 107.813C298.945 106.953 300.839 105.792 302.299 104.279L299.422 101.501C298.456 102.501 297.1 103.377 295.27 104.077L296.701 107.813ZM302.299 104.279C303.725 102.802 304.74 101.095 305.313 99.1699L301.478 98.0301C301.097 99.3121 300.422 100.464 299.422 101.501L302.299 104.279ZM305.317 99.1561C305.846 97.3267 306.11 95.4494 306.11 93.53H302.11C302.11 95.0773 301.898 96.58 301.474 98.0439L305.317 99.1561ZM306.11 93.53C306.11 91.4271 305.8 89.474 305.14 87.6986L301.391 89.0914C301.858 90.3493 302.11 91.8195 302.11 93.53H306.11ZM305.14 87.6986C304.454 85.8499 303.336 84.2812 301.811 83.0192L299.26 86.1008C300.249 86.9188 300.951 87.9068 301.391 89.0914L305.14 87.6986ZM301.841 83.0452C300.308 81.7235 298.375 80.7837 296.129 80.1624L295.062 84.0176C296.889 84.523 298.249 85.2298 299.23 86.0748L301.841 83.0452ZM296.139 80.1654C293.912 79.5359 291.245 79.245 288.185 79.245V83.245C291.019 83.245 293.292 83.5174 295.052 84.0146L296.139 80.1654ZM288.185 79.245H271.61V83.245H288.185V79.245ZM269.61 81.245V107.05H273.61V81.245H269.61ZM271.61 109.05H288.315V105.05H271.61V109.05ZM269.61 42.505V67.985H273.61V42.505H269.61ZM271.61 69.985H284.415V65.985H271.61V69.985ZM284.415 69.985C287.247 69.985 289.812 69.7607 292.095 69.2946L291.296 65.3754C289.333 65.776 287.044 65.985 284.415 65.985V69.985ZM292.134 69.2864C294.449 68.7666 296.481 67.9426 298.169 66.7658L295.882 63.4842C294.71 64.3007 293.188 64.9501 291.257 65.3836L292.134 69.2864ZM298.169 66.7658C299.895 65.5627 301.209 63.983 302.093 62.06L298.458 60.39C297.868 61.6737 297.016 62.6939 295.882 63.4842L298.169 66.7658ZM302.083 62.0812C303.018 60.1066 303.445 57.8279 303.445 55.31H299.445C299.445 57.3854 299.093 59.0501 298.468 60.3688L302.083 62.0812ZM303.445 55.31C303.445 52.7951 303.098 50.5381 302.331 48.5957L298.61 50.0643C299.143 51.4152 299.445 53.1449 299.445 55.31H303.445ZM302.347 48.6386C301.619 46.6633 300.449 45.0212 298.827 43.7778L296.394 46.9522C297.372 47.7022 298.108 48.7033 298.594 50.0214L302.347 48.6386ZM298.827 43.7778C297.244 42.5635 295.308 41.7466 293.095 41.2656L292.246 45.1744C294.02 45.5601 295.377 46.1731 296.394 46.9522L298.827 43.7778ZM293.136 41.2748C290.949 40.752 288.424 40.505 285.585 40.505V44.505C288.207 44.505 290.405 44.7347 292.205 45.1652L293.136 41.2748ZM285.585 40.505H271.61V44.505H285.585V40.505ZM285.585 29.685C291.795 29.685 297.003 30.2816 301.246 31.435L302.295 27.575C297.611 26.3017 292.029 25.685 285.585 25.685V29.685ZM301.268 31.4408C305.585 32.5615 308.975 34.1511 311.521 36.1485L313.99 33.0015C310.902 30.5789 306.97 28.7885 302.273 27.5692L301.268 31.4408ZM311.548 36.1692C314.144 38.1358 315.994 40.5011 317.149 43.2742L320.842 41.7358C319.397 38.2689 317.087 35.3475 313.963 32.9808L311.548 36.1692ZM317.149 43.2742C318.334 46.1185 318.945 49.3404 318.945 52.97H322.945C322.945 48.8863 322.257 45.1315 320.842 41.7358L317.149 43.2742ZM318.945 52.97C318.945 54.9332 318.652 56.8035 318.069 58.59L321.872 59.83C322.589 57.6299 322.945 55.3401 322.945 52.97H318.945ZM318.057 58.6277C317.524 60.3809 316.661 62.0567 315.45 63.6588L318.641 66.0712C320.116 64.1199 321.204 62.0258 321.884 59.7923L318.057 58.6277ZM315.445 63.665C314.295 65.1986 312.772 66.6351 310.842 67.9619L313.109 71.2581C315.339 69.7249 317.196 67.998 318.645 66.065L315.445 63.665ZM310.842 67.9619C308.935 69.2732 306.631 70.4121 303.907 71.3614L305.224 75.1386C308.22 74.0946 310.856 72.8068 313.109 71.2581L310.842 67.9619ZM304.105 75.1963C310.286 76.658 314.603 78.9816 317.313 81.9969L320.288 79.3231C316.845 75.4917 311.671 72.8753 305.026 71.3037L304.105 75.1963ZM317.313 81.9969C320 84.9867 321.415 88.9214 321.415 93.985H325.415C325.415 88.1286 323.754 83.1799 320.288 79.3231L317.313 81.9969ZM321.415 93.985C321.415 97.7029 320.69 101.123 319.256 104.271L322.895 105.929C324.581 102.23 325.415 98.2404 325.415 93.985H321.415ZM319.247 104.29C317.856 107.43 315.809 110.158 313.083 112.483L315.678 115.527C318.845 112.826 321.262 109.617 322.904 105.91L319.247 104.29ZM313.083 112.483C310.365 114.801 306.964 116.658 302.834 118.021L304.087 121.819C308.624 120.322 312.503 118.235 315.678 115.527L313.083 112.483ZM302.845 118.017C298.795 119.326 294.07 120 288.64 120V124C294.391 124 299.546 123.287 304.076 121.823L302.845 118.017ZM288.64 120H252.11V124H288.64V120ZM254.11 122V27.685H250.11V122H254.11ZM252.11 29.685H285.585V25.685H252.11V29.685ZM421.107 27.685H423.107C423.107 26.5804 422.211 25.685 421.107 25.685V27.685ZM421.107 122V124C422.211 124 423.107 123.105 423.107 122H421.107ZM407.197 121.285L406.302 123.074C406.322 123.084 406.343 123.094 406.363 123.103L407.197 121.285ZM404.142 118.685L402.569 119.921C402.578 119.932 402.587 119.943 402.596 119.954L404.142 118.685ZM357.147 58.885L358.719 57.6492C358.173 56.9541 357.235 56.7001 356.413 57.0246C355.59 57.349 355.078 58.1749 355.154 59.0558L357.147 58.885ZM357.407 63.37L355.408 63.4288C355.408 63.4484 355.409 63.4679 355.41 63.4874L357.407 63.37ZM357.537 122V124C358.641 124 359.537 123.105 359.537 122H357.537ZM340.312 122H338.312C338.312 123.105 339.207 124 340.312 124V122ZM340.312 27.685V25.685C339.207 25.685 338.312 26.5804 338.312 27.685H340.312ZM352.662 27.815L352.358 29.7917C352.411 29.8 352.465 29.806 352.519 29.8099L352.662 27.815ZM354.287 28.27L353.329 30.0258C353.371 30.049 353.415 30.0707 353.459 30.0907L354.287 28.27ZM355.652 29.18L356.99 27.6934V27.6934L355.652 29.18ZM357.082 30.74L358.653 29.5023C358.65 29.4984 358.646 29.4945 358.643 29.4906L357.082 30.74ZM404.402 90.8L402.831 92.0377C403.382 92.7375 404.33 92.9882 405.155 92.6528C405.98 92.3173 406.484 91.4765 406.391 90.5906L404.402 90.8ZM404.012 86.055L402.015 86.1659L402.015 86.1691L404.012 86.055ZM403.882 27.685V25.685C402.777 25.685 401.882 26.5804 401.882 27.685H403.882ZM419.107 27.685V122H423.107V27.685H419.107ZM421.107 120H411.032V124H421.107V120ZM411.032 120C409.713 120 408.738 119.791 408.03 119.467L406.363 123.103C407.735 123.732 409.317 124 411.032 124V120ZM408.091 119.496C407.374 119.137 406.565 118.484 405.687 117.416L402.596 119.954C403.712 121.313 404.94 122.393 406.302 123.074L408.091 119.496ZM405.714 117.449L358.719 57.6492L355.574 60.1208L402.569 119.921L405.714 117.449ZM355.154 59.0558C355.281 60.5364 355.365 61.994 355.408 63.4288L359.406 63.3112C359.361 61.7993 359.272 60.2669 359.139 58.7142L355.154 59.0558ZM355.41 63.4874C355.495 64.9282 355.537 66.2535 355.537 67.465H359.537C359.537 66.1631 359.492 64.7585 359.403 63.2526L355.41 63.4874ZM355.537 67.465V122H359.537V67.465H355.537ZM357.537 120H340.312V124H357.537V120ZM342.312 122V27.685H338.312V122H342.312ZM340.312 29.685H350.582V25.685H340.312V29.685ZM350.582 29.685C351.344 29.685 351.928 29.7257 352.358 29.7917L352.966 25.8382C352.268 25.731 351.466 25.685 350.582 25.685V29.685ZM352.519 29.8099C352.875 29.8353 353.132 29.9186 353.329 30.0258L355.244 26.5142C354.488 26.1014 353.662 25.8814 352.804 25.8201L352.519 29.8099ZM353.459 30.0907C353.73 30.2138 354.015 30.3981 354.314 30.6666L356.99 27.6934C356.421 27.1819 355.797 26.7596 355.114 26.4493L353.459 30.0907ZM354.314 30.6666C354.64 30.9602 355.042 31.3916 355.52 31.9894L358.643 29.4906C358.082 28.7883 357.53 28.1798 356.99 27.6934L354.314 30.6666ZM355.511 31.9777L402.831 92.0377L405.973 89.5623L358.653 29.5023L355.511 31.9777ZM406.391 90.5906C406.22 88.9729 406.093 87.4231 406.008 85.9409L402.015 86.1691C402.104 87.7203 402.236 89.3338 402.413 91.0094L406.391 90.5906ZM406.009 85.9441C405.924 84.4165 405.882 82.9804 405.882 81.635H401.882C401.882 83.0629 401.926 84.5735 402.015 86.1659L406.009 85.9441ZM405.882 81.635V27.685H401.882V81.635H405.882ZM403.882 29.685H421.107V25.685H403.882V29.685ZM474.514 108.09L472.522 107.907C472.466 108.518 472.693 109.12 473.138 109.541C473.582 109.963 474.196 110.157 474.802 110.069L474.514 108.09ZM483.874 103.865L485.33 105.236C485.334 105.231 485.339 105.226 485.343 105.222L483.874 103.865ZM486.214 91.06L484.398 91.8981C484.402 91.9073 484.406 91.9164 484.41 91.9255L486.214 91.06ZM484.069 88.07L482.689 89.5183V89.5183L484.069 88.07ZM480.819 85.795L479.852 87.5462C479.868 87.5548 479.884 87.5632 479.9 87.5714L480.819 85.795ZM476.724 83.975L477.389 82.089C476.807 81.8837 476.164 81.9583 475.644 82.2913C475.125 82.6242 474.788 83.1782 474.732 83.7925L476.724 83.975ZM469.509 41.79L471.5 41.9716C471.556 41.3644 471.331 40.7652 470.89 40.344C470.449 39.9228 469.841 39.7257 469.237 39.8086L469.509 41.79ZM463.854 43.285L464.623 45.1311C464.637 45.1251 464.652 45.119 464.666 45.1126L463.854 43.285ZM460.019 45.69L458.636 44.2447C458.625 44.255 458.615 44.2653 458.604 44.2758L460.019 45.69ZM457.874 48.875L456.021 48.1204C456.016 48.1326 456.012 48.1448 456.007 48.157L457.874 48.875ZM457.939 56.48L456.086 57.2346C456.098 57.2627 456.11 57.2906 456.123 57.3181L457.939 56.48ZM460.084 59.535L458.669 60.9492V60.9492L460.084 59.535ZM463.334 62.005L462.322 63.7304C462.337 63.7392 462.352 63.7478 462.367 63.7562L463.334 62.005ZM467.494 63.89L466.797 65.7648C467.381 65.9817 468.033 65.9142 468.559 65.5823C469.086 65.2503 469.429 64.6918 469.485 64.0716L467.494 63.89ZM478.219 67.4L476.227 67.2203C476.141 68.1725 476.741 69.0523 477.659 69.32L478.219 67.4ZM484.459 69.415L483.791 71.3003C483.803 71.3044 483.814 71.3084 483.826 71.3124L484.459 69.415ZM490.439 71.82L489.577 73.625L490.439 71.82ZM495.769 75.005L494.582 76.6151L495.769 75.005ZM500.059 79.295L498.448 80.4814C498.46 80.4974 498.472 80.5132 498.484 80.5288L500.059 79.295ZM502.984 84.885L501.082 85.5058V85.5058L502.984 84.885ZM501.944 103.605L500.077 102.886L500.073 102.898L501.944 103.605ZM495.964 113.095L497.4 114.486C497.404 114.482 497.408 114.479 497.411 114.475L495.964 113.095ZM486.279 119.79L485.451 117.969L486.279 119.79ZM473.149 122.91L473.009 120.915C472.028 120.984 471.243 121.755 471.156 122.734L473.149 122.91ZM472.369 131.75L470.376 131.574C470.376 131.582 470.375 131.589 470.374 131.597L472.369 131.75ZM470.939 134.805L472.387 136.184H472.387L470.939 134.805ZM460.994 136.17L459.002 135.991C458.951 136.55 459.138 137.105 459.517 137.519C459.896 137.934 460.432 138.17 460.994 138.17V136.17ZM462.229 122.455L464.22 122.634C464.316 121.573 463.562 120.623 462.507 120.474L462.229 122.455ZM454.884 120.895L454.293 122.806C454.307 122.81 454.32 122.814 454.334 122.818L454.884 120.895ZM447.994 118.295L447.142 120.105C447.152 120.109 447.161 120.114 447.171 120.118L447.994 118.295ZM441.754 114.85L440.644 116.514C440.653 116.52 440.661 116.526 440.67 116.531L441.754 114.85ZM436.489 110.625L434.835 109.5C434.289 110.303 434.398 111.382 435.094 112.059L436.489 110.625ZM442.014 102.5L440.365 101.367L440.36 101.375L442.014 102.5ZM443.964 100.81L444.895 102.58C444.919 102.567 444.942 102.554 444.966 102.541L443.964 100.81ZM449.619 101.005L450.596 99.26L449.619 101.005ZM453.194 103.215L452.084 104.879C452.105 104.893 452.127 104.907 452.148 104.92L453.194 103.215ZM457.679 105.75L456.747 107.52C456.753 107.523 456.76 107.526 456.766 107.53L457.679 105.75ZM463.529 107.765L463.107 109.72C463.667 109.841 464.251 109.716 464.712 109.377C465.174 109.038 465.468 108.518 465.52 107.947L463.529 107.765ZM465.999 80.79L467.99 80.9724C468.079 80.0048 467.459 79.1135 466.521 78.8595L465.999 80.79ZM459.759 78.905L459.078 80.7858C459.094 80.7915 459.11 80.797 459.126 80.8024L459.759 78.905ZM448.514 73.055L447.254 74.6085C447.269 74.6209 447.285 74.633 447.3 74.6449L448.514 73.055ZM441.429 62.33L439.511 62.8982L439.514 62.908L441.429 62.33ZM442.404 44.455L444.244 45.2368L444.248 45.2278L442.404 44.455ZM448.254 35.875L446.863 34.437C446.859 34.4409 446.855 34.4448 446.851 34.4487L448.254 35.875ZM457.809 29.7L458.591 31.5405C458.597 31.5379 458.603 31.5354 458.609 31.5328L457.809 29.7ZM470.809 26.84L470.915 28.8372C471.906 28.7845 472.709 28.0126 472.8 27.0241L470.809 26.84ZM471.524 19.105L473.515 19.2891C473.516 19.2789 473.517 19.2686 473.518 19.2584L471.524 19.105ZM472.954 16.115L471.539 14.7008L472.954 16.115ZM482.964 14.75L484.955 14.9329C485.007 14.373 484.82 13.8173 484.441 13.402C484.062 12.9867 483.526 12.75 482.964 12.75V14.75ZM481.794 27.49L479.802 27.3071C479.707 28.3433 480.422 29.2794 481.447 29.4597L481.794 27.49ZM493.819 31.52L494.794 29.7738V29.7738L493.819 31.52ZM502.399 37.825L504.052 38.9496C504.596 38.1498 504.49 37.0755 503.8 36.3979L502.399 37.825ZM497.979 44.325L496.325 43.2004C496.306 43.2282 496.288 43.2564 496.27 43.2851L497.979 44.325ZM496.029 46.535L497.089 48.231C497.113 48.2156 497.138 48.1996 497.162 48.1831L496.029 46.535ZM491.219 46.665L490.398 48.4888C490.434 48.5049 490.47 48.52 490.507 48.534L491.219 46.665ZM488.294 45.3L487.371 47.0744C487.39 47.0843 487.409 47.0938 487.428 47.103L488.294 45.3ZM484.654 43.61L483.858 45.4451C483.866 45.4482 483.873 45.4513 483.88 45.4544L484.654 43.61ZM480.494 42.18L481.005 40.2466C480.436 40.0958 479.829 40.2039 479.346 40.5419C478.864 40.8799 478.555 41.4135 478.502 42.0003L480.494 42.18ZM474.802 110.069C479.239 109.422 482.84 107.881 485.33 105.236L482.417 102.494C480.747 104.269 478.108 105.545 474.225 106.111L474.802 110.069ZM485.343 105.222C487.834 102.523 488.994 99.0105 488.994 94.895H484.994C484.994 98.2329 484.073 100.701 482.404 102.508L485.343 105.222ZM488.994 94.895C488.994 93.1885 488.692 91.602 488.017 90.1945L484.41 91.9255C484.775 92.6846 484.994 93.6549 484.994 94.895H488.994ZM488.029 90.2219C487.402 88.8631 486.538 87.6601 485.448 86.6217L482.689 89.5183C483.419 90.2132 483.985 91.0035 484.398 91.8981L488.029 90.2219ZM485.448 86.6217C484.385 85.6092 483.141 84.7448 481.737 84.0186L479.9 87.5714C481.009 88.1452 481.932 88.7975 482.689 89.5183L485.448 86.6217ZM481.785 84.0438C480.424 83.2929 478.957 82.6424 477.389 82.089L476.058 85.861C477.437 86.3476 478.7 86.9104 479.852 87.5462L481.785 84.0438ZM474.732 83.7925L472.522 107.907L476.505 108.273L478.715 84.1575L474.732 83.7925ZM469.237 39.8086C466.894 40.1301 464.817 40.6683 463.041 41.4574L464.666 45.1126C466.01 44.515 467.703 44.0565 469.78 43.7714L469.237 39.8086ZM463.084 41.4388C461.347 42.1629 459.846 43.0876 458.636 44.2447L461.401 47.1353C462.185 46.3858 463.24 45.7071 464.623 45.1311L463.084 41.4388ZM458.604 44.2758C457.475 45.4048 456.605 46.6873 456.021 48.1204L459.726 49.6296C460.095 48.7227 460.655 47.8819 461.433 47.1042L458.604 44.2758ZM456.007 48.157C455.479 49.5299 455.224 50.9885 455.224 52.515H459.224C459.224 51.4415 459.402 50.4734 459.74 49.593L456.007 48.157ZM455.224 52.515C455.224 54.2047 455.497 55.7886 456.086 57.2346L459.791 55.7254C459.426 54.8314 459.224 53.772 459.224 52.515H455.224ZM456.123 57.3181C456.745 58.6669 457.599 59.8787 458.669 60.9492L461.498 58.1208C460.748 57.3713 460.172 56.5464 459.754 55.6419L456.123 57.3181ZM458.669 60.9492C459.714 61.9943 460.937 62.9187 462.322 63.7304L464.345 60.2796C463.216 59.618 462.273 58.8957 461.498 58.1208L458.669 60.9492ZM462.367 63.7562C463.721 64.5029 465.199 65.1713 466.797 65.7648L468.19 62.0151C466.755 61.482 465.459 60.8937 464.3 60.2538L462.367 63.7562ZM469.485 64.0716L471.5 41.9716L467.517 41.6084L465.502 63.7084L469.485 64.0716ZM477.659 69.32C479.702 69.9159 481.746 70.576 483.791 71.3003L485.126 67.5297C483.011 66.7807 480.895 66.0974 478.779 65.48L477.659 69.32ZM483.826 71.3124C485.831 71.9806 487.747 72.7518 489.577 73.625L491.3 70.015C489.316 69.0682 487.246 68.236 485.091 67.5176L483.826 71.3124ZM489.577 73.625C491.373 74.4822 493.041 75.4793 494.582 76.6151L496.955 73.3949C495.203 72.104 493.317 70.9778 491.3 70.015L489.577 73.625ZM494.582 76.6151C496.067 77.7093 497.354 78.9964 498.448 80.4814L501.669 78.1086C500.336 76.3002 498.763 74.7274 496.955 73.3949L494.582 76.6151ZM498.484 80.5288C499.584 81.9315 500.454 83.5829 501.082 85.5058L504.885 84.2642C504.126 81.9404 503.047 79.8651 501.633 78.0612L498.484 80.5288ZM501.082 85.5058C501.698 87.3899 502.024 89.6007 502.024 92.165H506.024C506.024 89.2693 505.656 86.6268 504.885 84.2642L501.082 85.5058ZM502.024 92.165C502.024 95.9603 501.372 99.5288 500.077 102.886L503.81 104.324C505.289 100.488 506.024 96.4297 506.024 92.165H502.024ZM500.073 102.898C498.825 106.199 496.976 109.134 494.516 111.715L497.411 114.475C500.238 111.51 502.376 108.118 503.814 104.312L500.073 102.898ZM494.527 111.704C492.075 114.236 489.059 116.329 485.451 117.969L487.106 121.611C491.124 119.784 494.566 117.414 497.4 114.486L494.527 111.704ZM485.451 117.969C481.89 119.588 477.753 120.582 473.009 120.915L473.289 124.905C478.424 124.545 483.04 123.459 487.106 121.611L485.451 117.969ZM471.156 122.734L470.376 131.574L474.361 131.926L475.141 123.086L471.156 122.734ZM470.374 131.597C470.327 132.212 470.077 132.81 469.49 133.426L472.387 136.184C473.533 134.98 474.237 133.541 474.363 131.903L470.374 131.597ZM469.49 133.426C469.042 133.896 468.46 134.17 467.559 134.17V138.17C469.43 138.17 471.102 137.534 472.387 136.184L469.49 133.426ZM467.559 134.17H460.994V138.17H467.559V134.17ZM462.985 136.349L464.22 122.634L460.237 122.276L459.002 135.991L462.985 136.349ZM462.507 120.474C460.129 120.141 457.772 119.64 455.433 118.972L454.334 122.818C456.849 123.537 459.388 124.076 461.951 124.436L462.507 120.474ZM455.474 118.984C453.167 118.271 450.948 117.434 448.816 116.472L447.171 120.118C449.459 121.15 451.833 122.045 454.293 122.806L455.474 118.984ZM448.845 116.485C446.711 115.481 444.709 114.375 442.837 113.169L440.67 116.531C442.698 117.838 444.856 119.029 447.142 120.105L448.845 116.485ZM442.863 113.186C441.007 111.949 439.349 110.616 437.883 109.191L435.094 112.059C436.748 113.667 438.6 115.151 440.644 116.514L442.863 113.186ZM438.142 111.75L443.667 103.625L440.36 101.375L434.835 109.5L438.142 111.75ZM443.662 103.633C443.936 103.234 444.328 102.878 444.895 102.58L443.032 99.0402C441.953 99.6083 441.045 100.379 440.365 101.367L443.662 103.633ZM444.966 102.541C445.515 102.223 446.017 102.095 446.499 102.095V98.095C445.246 98.095 444.059 98.4439 442.961 99.0791L444.966 102.541ZM446.499 102.095C447.079 102.095 447.784 102.27 448.641 102.75L450.596 99.26C449.286 98.5267 447.912 98.095 446.499 98.095V102.095ZM448.641 102.75C449.67 103.326 450.817 104.034 452.084 104.879L454.303 101.551C452.97 100.663 451.734 99.8974 450.596 99.26L448.641 102.75ZM452.148 104.92C453.535 105.77 455.068 106.636 456.747 107.52L458.61 103.98C456.995 103.13 455.539 102.307 454.239 101.51L452.148 104.92ZM456.766 107.53C458.637 108.489 460.758 109.213 463.107 109.72L463.95 105.81C461.879 105.363 460.1 104.744 458.591 103.97L456.766 107.53ZM465.52 107.947L467.99 80.9724L464.007 80.6076L461.537 107.583L465.52 107.947ZM466.521 78.8595C464.479 78.3064 462.435 77.6891 460.391 77.0076L459.126 80.8024C461.242 81.5076 463.358 82.147 465.476 82.7205L466.521 78.8595ZM460.439 77.0242C458.474 76.3136 456.574 75.4992 454.738 74.5811L452.949 78.1589C454.926 79.1475 456.97 80.0231 459.078 80.7858L460.439 77.0242ZM454.738 74.5811C452.94 73.6823 451.271 72.6434 449.727 71.4651L447.3 74.6449C449.05 75.9799 450.933 77.151 452.949 78.1589L454.738 74.5811ZM449.773 71.5015C448.327 70.3287 447.049 68.9354 445.94 67.3121L442.637 69.5679C443.955 71.4979 445.494 73.1813 447.254 74.6085L449.773 71.5015ZM445.94 67.3121C444.854 65.7224 443.984 63.8752 443.343 61.752L439.514 62.908C440.26 65.3781 441.296 67.6043 442.637 69.5679L445.94 67.3121ZM443.346 61.7618C442.719 59.6446 442.389 57.1556 442.389 54.27H438.389C438.389 57.4511 438.752 60.3354 439.511 62.8982L443.346 61.7618ZM442.389 54.27C442.389 51.1632 443.004 48.1571 444.244 45.2367L440.563 43.6732C439.116 47.0796 438.389 50.6168 438.389 54.27H442.389ZM444.248 45.2278C445.486 42.2739 447.282 39.6343 449.656 37.3012L446.851 34.4487C444.111 37.1424 442.008 40.2228 440.559 43.6822L444.248 45.2278ZM449.644 37.313C452.046 34.9909 455.017 33.0606 458.591 31.5405L457.026 27.8595C453.06 29.5461 449.661 31.7324 446.863 34.437L449.644 37.313ZM458.609 31.5328C462.122 29.9986 466.213 29.0868 470.915 28.8372L470.702 24.8428C465.611 25.1131 461.035 26.1081 457.008 27.8672L458.609 31.5328ZM472.8 27.0241L473.515 19.2891L469.532 18.9209L468.817 26.6559L472.8 27.0241ZM473.518 19.2584C473.564 18.6495 473.808 18.0891 474.368 17.5292L471.539 14.7008C470.366 15.8742 469.656 17.3072 469.529 18.9516L473.518 19.2584ZM474.368 17.5292C474.885 17.0122 475.495 16.75 476.334 16.75V12.75C474.486 12.75 472.842 13.3978 471.539 14.7008L474.368 17.5292ZM476.334 16.75H482.964V12.75H476.334V16.75ZM480.972 14.5671L479.802 27.3071L483.785 27.6729L484.955 14.9329L480.972 14.5671ZM481.447 29.4597C485.958 30.2533 489.743 31.5349 492.843 33.2662L494.794 29.7738C491.22 27.7784 486.989 26.3733 482.14 25.5202L481.447 29.4597ZM492.843 33.2662C496.046 35.0549 498.758 37.0534 500.997 39.2521L503.8 36.3979C501.272 33.9166 498.264 31.7118 494.794 29.7738L492.843 33.2662ZM500.745 36.7004L496.325 43.2004L499.632 45.4496L504.052 38.9496L500.745 36.7004ZM496.27 43.2851C495.757 44.128 495.285 44.6193 494.895 44.8869L497.162 48.1831C498.159 47.4973 498.987 46.5153 499.687 45.3649L496.27 43.2851ZM494.969 44.839C494.643 45.0426 494.2 45.185 493.559 45.185V49.185C494.823 49.185 496.028 48.8941 497.089 48.231L494.969 44.839ZM493.559 45.185C493.241 45.185 492.715 45.095 491.931 44.796L490.507 48.534C491.542 48.9283 492.576 49.185 493.559 49.185V45.185ZM492.039 44.8412C491.191 44.4594 490.231 44.0116 489.159 43.4969L487.428 47.103C488.523 47.6284 489.513 48.0906 490.398 48.4888L492.039 44.8412ZM489.216 43.5256C488.076 42.9326 486.812 42.3463 485.427 41.7656L483.88 45.4544C485.182 46.0004 486.344 46.5407 487.371 47.0744L489.216 43.5256ZM485.449 41.7749C484.05 41.1689 482.568 40.6603 481.005 40.2466L479.982 44.1134C481.365 44.4797 482.657 44.9245 483.858 45.4451L485.449 41.7749ZM478.502 42.0003L476.227 67.2203L480.21 67.5797L482.485 42.3597L478.502 42.0003Z" fill="#FECF0F"/>
</g>
<defs>
<filter id="filter0_d" x="0.810059" y="0.75" width="517.214" height="149.42" filterUnits="userSpaceOnUse" color-interpolation-filters="sRGB">
<feFlood flood-opacity="0" result="BackgroundImageFix"/>
<feColorMatrix in="SourceAlpha" type="matrix" values="0 0 0 0 0 0 0 0 0 0 0 0 0 0 0 0 0 0 127 0"/>
<feOffset/>
<feGaussianBlur stdDeviation="6"/>
<feColorMatrix type="matrix" values="0 0 0 0 0.996078 0 0 0 0 0.811765 0 0 0 0 0.0588235 0 0 0 1 0"/>
<feBlend mode="normal" in2="BackgroundImageFix" result="effect1_dropShadow"/>
<feBlend mode="normal" in="SourceGraphic" in2="effect1_dropShadow" result="shape"/>
</filter>
</defs>
</svg>
