<?xml version="1.0" encoding="UTF-8"?>
<svg width="38px" height="31px" viewBox="0 0 38 31" version="1.1" xmlns="http://www.w3.org/2000/svg" xmlns:xlink="http://www.w3.org/1999/xlink">
    <!-- Generator: sketchtool 55.1 (78136) - https://sketchapp.com -->
    <title>A228D6AB-C838-4295-B862-9F08A6B50728</title>
    <desc>Created with sketchtool.</desc>
    <g id="*New-affiliate" stroke="none" stroke-width="1" fill="none" fill-rule="evenodd">
        <g id="My-affiliate-v2-AFFILIATE" transform="translate(-583.000000, -1946.000000)" fill="#B2ACAB" fill-rule="nonzero">
            <g id="Group-35" transform="translate(240.000000, 1748.000000)">
                <g id="Group-64" transform="translate(0.000000, 87.000000)">
                    <g id="Group-30-Copy-8" transform="translate(325.000000, 88.000000)">
                        <path d="M34.4885229,23.9343582 L35.2814728,23 L26.6125882,23 L18,33.0570113 L26.7409935,33.0570113 L34.4885229,23.9343582 Z M28.8161743,33.0580174 L45.1886275,33.0580174 L37.0032288,23.4166211 L31.3600218,30.0615145 L28.8161743,33.0580174 Z M18.1048105,34.6510545 L34.3818083,51.9975523 L26.5977691,34.6510545 L18.1048105,34.6510545 Z M45.6814684,34.649713 L44.2630501,34.649713 L38.299037,34.6510545 L28.3230022,34.6510545 L36.9511547,53.8775038 L37.0067887,54 L45.2277865,35.6650646 L45.6814684,34.649713 Z M39.64278,51.972986 L55.8939477,34.6517253 L47.4081089,34.6517253 L39.64278,51.972986 Z M56,33.0570113 L47.3845142,23 L38.721756,23 L47.261573,33.0570113 L56,33.0570113 Z" id="Fill-1"></path>
                    </g>
                </g>
            </g>
        </g>
    </g>
</svg>