<?xml version="1.0" encoding="UTF-8"?>
<svg width="34px" height="26px" viewBox="0 0 34 26" version="1.1" xmlns="http://www.w3.org/2000/svg" xmlns:xlink="http://www.w3.org/1999/xlink">
    <!-- Generator: sketchtool 55.1 (78136) - https://sketchapp.com -->
    <title>891B15CA-324C-4B13-8979-6515F86C547A</title>
    <desc>Created with sketchtool.</desc>
    <g id="*New-affiliate" stroke="none" stroke-width="1" fill="none" fill-rule="evenodd">
        <g id="My-affiliate-v2-AFFILIATE" transform="translate(-910.000000, -1945.000000)" fill="#B2ACAB" fill-rule="nonzero">
            <g id="Group-35" transform="translate(240.000000, 1748.000000)">
                <g id="Group-64" transform="translate(0.000000, 87.000000)">
                    <g id="Group-30-Copy-9" transform="translate(650.000000, 88.000000)">
                        <path d="M31.3734319,39.4418728 L25.6949607,37.7745659 L28.6441663,30.0145168 L36.250351,33.9480022 L31.3734319,39.4418728 Z M24.6923141,38.7826522 L30.4744342,40.480251 L26.1624018,45.516299 L20,40.1264541 L20.8759908,25.2125852 L27.5399122,29.3931806 L24.2834503,37.9620313 C24.2214965,38.1246839 24.2303695,38.3056526 24.3082633,38.4613388 C24.3856074,38.6172599 24.5248268,38.7337311 24.6923141,38.7826522 Z M39.5887898,26.0851798 L36.9221062,32.8879422 L28.6193533,28.5939284 L22.2593118,24.6040859 L29.2171409,24.4022964 C29.2600924,24.4011223 29.3024157,24.395878 29.3441109,24.3857807 C31.0025727,23.9929253 33.9456536,22.5381313 35.0038152,22 L39.5887898,26.0851798 Z M45.3420139,33.8413152 L39.6654273,38.5059548 L37.9223187,33.7691469 L40.7500508,26.5548217 L48.0927945,26.9229426 L45.3420139,33.8413152 Z M46.5404157,34.2185942 L48.9939122,28.0487524 L54,40.8187062 L51.210037,45.7021989 L46.5404157,34.2185942 Z M32.0524896,40.5624383 L37.025127,34.9603935 L41.8051501,47.9489656 L27.4448222,45.9428903 L32.0524896,40.5624383 Z M40.1228176,39.7494882 L45.6052194,35.2447617 L50.2465727,46.6595638 L43.1591039,48 L40.1228176,39.7494882 Z" id="Combined-Shape"></path>
                    </g>
                </g>
            </g>
        </g>
    </g>
</svg>