<?xml version="1.0" encoding="UTF-8"?>
<svg width="32px" height="34px" viewBox="0 0 32 34" version="1.1" xmlns="http://www.w3.org/2000/svg" xmlns:xlink="http://www.w3.org/1999/xlink">
    <!-- Generator: sketchtool 55.1 (78136) - https://sketchapp.com -->
    <title>7E53CC27-6A99-4814-B427-CD952A42E187</title>
    <desc>Created with sketchtool.</desc>
    <g id="*New-affiliate" stroke="none" stroke-width="1" fill="none" fill-rule="evenodd">
        <g id="My-affiliate-v2-AFFILIATE" transform="translate(-260.000000, -1942.000000)" fill="#B2ACAB" fill-rule="nonzero">
            <g id="Group-35" transform="translate(240.000000, 1748.000000)">
                <g id="Group-64" transform="translate(0.000000, 87.000000)">
                    <g id="Group-30-Copy-3" transform="translate(0.000000, 88.000000)">
                        <g id="Group" transform="translate(20.000000, 19.000000)">
                            <path d="M23.5411471,20.6536096 C23.5411471,20.922316 23.3798123,21.1931807 23.1500739,21.3274568 L16.4171245,25.2569221 C16.3040834,25.3230581 16.1654482,25.3586698 16.02727,25.3586698 C15.8886348,25.3586698 15.7446674,25.3230581 15.6316264,25.2569221 L8.88542281,21.3280735 C8.65583677,21.1931807 8.45885287,20.922316 8.45885287,20.6536096 L8.45885287,13.3434999 C8.45885287,13.0749476 8.65629381,12.8039287 8.88603219,12.6696526 L15.654783,8.74034147 C15.8802557,8.60853195 16.1980503,8.6079153 16.4248941,8.74095812 L23.1519021,12.6696526 C23.3822498,12.8045454 23.5411471,13.0755643 23.5411471,13.3434999 L23.5411471,20.6536096 Z M5.82543641,20.7445826 C5.82543641,21.0196756 5.69324088,21.2923028 5.45474066,21.4236076 L0.952934787,23.9039138 C0.854854237,23.9573913 0.743066778,23.9857482 0.634782195,23.9857482 C0.282514628,23.9857482 0,23.6997132 0,23.334926 L0,10.8264401 C0,10.4616529 0.27474738,10.175772 0.627014946,10.175772 C0.735299529,10.175772 0.842974916,10.2039748 0.941055466,10.2576064 L5.45595906,12.7379126 C5.69506847,12.8690633 5.82543641,13.1418446 5.82543641,13.4169376 L5.82543641,20.7445826 Z M17.6985767,6.43745491 C17.4676226,6.30213304 17.3167082,6.03025206 17.3167082,5.76084554 L17.3167082,0.651246189 C17.3167082,0.286263761 17.5887513,0 17.940834,0 C18.0547835,0 18.1656781,0.031394675 18.2677134,0.0912456072 L29.7578289,6.80769556 C29.9654126,6.92909862 30.0883742,7.14128332 30.084788,7.37558348 C30.0818061,7.60941968 29.9541093,7.81789269 29.7428597,7.93388287 L25.2273419,10.4071028 C25.1175165,10.4674177 24.9904307,10.4988124 24.8586097,10.4988124 C24.7183876,10.4988124 24.5847337,10.4638606 24.4701732,10.396741 L17.6985767,6.43745491 Z M2.26222158,7.93326425 C2.05112012,7.81789269 1.91817046,7.60880106 1.91521197,7.37496486 C1.91221749,7.14128332 2.02913992,6.92909862 2.23657802,6.80769556 L13.7084088,0.0912456072 C13.809762,0.031394675 13.9034831,0 14.0173527,0 C14.3696464,0 14.6034913,0.286263761 14.6034913,0.651246189 L14.6034913,5.76084554 C14.6034913,6.03025206 14.4906901,6.30151442 14.2606613,6.4368363 L7.53304214,10.3961224 C7.41856195,10.463242 7.28439117,10.4988124 7.1438095,10.4988124 C7.01192832,10.4988124 6.88432107,10.4667991 6.77518329,10.4071028 L2.26222158,7.93326425 Z M31.4026834,10.0950119 C31.7554078,10.0950119 32,10.3812186 32,10.7464215 L32,23.2691617 C32,23.4246854 31.9803534,23.566323 31.886385,23.68204 C31.7672871,23.8284606 31.6239738,23.9049881 31.4358845,23.9049881 L31.4371029,23.9049881 C31.3294275,23.9049881 31.2139849,23.8846219 31.1159044,23.8303121 L26.5815065,21.3556653 C26.3422448,21.2248279 26.1745636,20.9512729 26.1745636,20.6758665 L26.1745636,13.3398711 C26.1745636,13.0638474 26.3344775,12.7907553 26.5737392,12.6600722 L31.104025,10.1769395 C31.2014964,10.1232468 31.295008,10.0950119 31.4026834,10.0950119 Z M14.25995,27.58356 C14.490657,27.718505 14.6034913,27.9896287 14.6034913,28.2576679 L14.6034913,33.3530353 C14.6034913,33.507875 14.5963151,33.6500684 14.503788,33.7663524 C14.3851517,33.9157943 14.2497201,34 14.0588638,34 C13.9449608,34 13.8298363,33.9699266 13.7272319,33.9102423 L2.32303522,27.2606175 C2.11553628,27.1401694 1.9920141,26.92873 1.99501247,26.6955451 C1.99796881,26.4623602 2.12317053,26.2540052 2.33433391,26.138955 L6.8432752,23.6720069 C7.07001245,23.5478575 7.36942777,23.5526384 7.59188984,23.6828025 L14.25995,27.58356 Z M29.6618413,26.1380185 C29.8731029,26.2530373 30.002029,26.4608729 30.0049875,26.6944566 C30.0079865,26.9275778 29.8862399,27.1395763 29.6780334,27.2599914 L18.2696005,33.9090334 C18.1675594,33.9680846 18.0548255,34 17.9408695,34 C17.5887668,34 17.3167082,33.7144574 17.3167082,33.3501284 L17.3167082,28.2561528 C17.3167082,27.98757 17.4676312,27.7171371 17.6985984,27.582229 L24.3870221,23.6825369 C24.6101987,23.5524084 24.9198352,23.5482456 25.1460669,23.6717443 L29.6618413,26.1380185 Z" id="Combined-Shape"></path>
                        </g>
                    </g>
                </g>
            </g>
        </g>
    </g>
</svg>