<svg width="29" height="32" viewBox="0 0 29 32" fill="none" xmlns="http://www.w3.org/2000/svg">
<g id="helmet-icon" filter="url(#filter0_d)">
<path fill-rule="evenodd" clip-rule="evenodd" d="M8.7698 20.1006V17.4802C8.32936 17.3768 8 16.9615 8 16.4647V13.7136C8 13.1624 8.40543 12.7115 8.9182 12.6756C9.50703 9.9964 11.779 8 14.4921 8H14.4922C17.2049 8 19.4766 9.99574 20.0659 12.6743C20.5861 12.7019 21 13.1566 21 13.7136V16.4648C21 16.9673 20.6628 17.3868 20.2146 17.484V20.1006C20.2146 20.5549 17.6526 20.9231 14.4922 20.9231C11.3318 20.9231 8.7698 20.5549 8.7698 20.1006ZM12.0745 12.1427C10.936 12.1427 10.0133 13.1184 10.0133 14.322V16.9171C10.0133 18.1206 10.936 19.0963 12.0745 19.0963H16.9255C18.0491 19.0963 18.9626 18.1457 18.9861 16.9637L18.3066 17.7587C18.3001 17.7655 18.2939 17.7722 18.2877 17.7788C18.1936 17.8792 18.1298 17.9472 17.9276 17.9472H15.8077C15.6823 18.0979 15.4986 18.1931 15.2938 18.1931C14.9156 18.1931 14.6091 17.869 14.6091 17.4692C14.6091 17.0693 14.9156 16.7452 15.2938 16.7452C15.5297 16.7452 15.7377 16.8714 15.8609 17.0632H17.7756L18.9866 15.6463V14.322C18.9866 13.1184 18.0638 12.1427 16.9255 12.1427H12.0745ZM14.4922 21.5641C17.3816 21.5641 19.822 21.2877 20.6031 20.9088C20.7256 20.8495 20.8649 20.9457 20.8649 21.0881V23.0841C20.8649 23.5898 18.0117 24 14.4922 24C10.9726 24 8.11952 23.5898 8.11952 23.0841V21.0881C8.11952 20.9457 8.25886 20.8495 8.38129 20.9088C9.16231 21.2877 11.6027 21.5641 14.4922 21.5641Z" fill="#417ED4"/>
</g>
<defs>
<filter id="filter0_d" x="0" y="0" width="29" height="32" filterUnits="userSpaceOnUse" color-interpolation-filters="sRGB">
<feFlood flood-opacity="0" result="BackgroundImageFix"/>
<feColorMatrix in="SourceAlpha" type="matrix" values="0 0 0 0 0 0 0 0 0 0 0 0 0 0 0 0 0 0 127 0"/>
<feOffset/>
<feGaussianBlur stdDeviation="4"/>
<feColorMatrix type="matrix" values="0 0 0 0 0.306604 0 0 0 0 0.59434 0 0 0 0 1 0 0 0 1 0"/>
<feBlend mode="normal" in2="BackgroundImageFix" result="effect1_dropShadow"/>
<feBlend mode="normal" in="SourceGraphic" in2="effect1_dropShadow" result="shape"/>
</filter>
</defs>
</svg>
