<?xml version="1.0" encoding="UTF-8"?>
<svg width="21px" height="17px" viewBox="0 0 21 17" version="1.1" xmlns="http://www.w3.org/2000/svg" xmlns:xlink="http://www.w3.org/1999/xlink">
    <!-- Generator: sketchtool 53.2 (72643) - https://sketchapp.com -->
    <title>9430B585-044B-4E06-857F-FD29CC8B0FF5</title>
    <desc>Created with sketchtool.</desc>
    <g id="Page-1" stroke="none" stroke-width="1" fill="none" fill-rule="evenodd">
        <g id="Summary-modal-1" transform="translate(-777.000000, -595.000000)" fill="#B2ACAB" fill-rule="nonzero">
            <g id="Group-7" transform="translate(756.000000, 579.000000)">
                <g id="Group-52" transform="translate(21.000000, 16.000000)">
                    <path d="M9.70434862,7.60834284 L10.2338572,7.60834284 C10.3074004,7.26121882 10.4206553,6.94572311 10.5736252,6.66184626 C10.7265951,6.37796941 10.9104504,6.13601583 11.1251966,5.93597826 C11.3399428,5.73594068 11.5826319,5.58150223 11.8532709,5.47265825 C12.12391,5.36381428 12.413666,5.30939311 12.7225475,5.30939311 C13.140273,5.30939311 13.5013648,5.39249571 13.8058338,5.5587034 C14.1103028,5.72491109 14.355198,5.94480203 14.5405269,6.21838283 L14.0374938,6.73906626 C14.0051348,6.77436701 13.9690991,6.80599012 13.9293858,6.83393655 C13.8896725,6.86188298 13.8374576,6.87585598 13.7727395,6.87585598 C13.702138,6.87585598 13.6425689,6.85379334 13.5940304,6.80966741 C13.5454918,6.76554147 13.4888644,6.71626825 13.4241464,6.66184626 C13.3594283,6.60742428 13.278532,6.55815105 13.1814549,6.51402512 C13.0843779,6.46989918 12.9520021,6.44783655 12.7843235,6.44783655 C12.507801,6.44783655 12.2717308,6.54564757 12.0761058,6.74127255 C11.8804808,6.93689753 11.7370737,7.22591807 11.6458801,7.60834284 L13.6756629,7.60834284 L13.6756629,8.01429942 C13.6756629,8.0525419 13.6668379,8.0907838 13.6491875,8.12902628 C13.6315371,8.16726875 13.6065328,8.20183355 13.5741738,8.23272171 C13.5418148,8.26360986 13.5028375,8.28861418 13.4572407,8.30773542 C13.4116439,8.32685666 13.3608998,8.33641714 13.3050069,8.33641714 L11.5532161,8.33641714 C11.5502743,8.37760134 11.5488035,8.41878493 11.5488035,8.45996914 L11.5488035,8.73796114 L13.2520561,8.73796114 L13.2520561,9.14391772 C13.2520561,9.18216019 13.243231,9.2204021 13.2255806,9.25864457 C13.2079303,9.29688705 13.182926,9.33145185 13.1505669,9.36234 C13.1182079,9.39322816 13.0792306,9.41823248 13.0336338,9.43735372 C12.988037,9.45647496 12.9372929,9.46603543 12.8814001,9.46603543 L11.6194046,9.46603543 C11.6958896,9.89258614 11.8297363,10.2088173 12.0209486,10.4147383 C12.212161,10.6206593 12.446025,10.7236183 12.7225475,10.7236183 C12.8461001,10.7236183 12.9520008,10.7111161 13.0402526,10.6861114 C13.1285045,10.6611067 13.2035175,10.6309545 13.2652938,10.5956537 C13.3270701,10.560353 13.379285,10.5206402 13.4219401,10.4765143 C13.4645952,10.4323884 13.5043079,10.3926756 13.5410795,10.3573749 C13.5778511,10.3220741 13.6146222,10.2919219 13.6513938,10.2669172 C13.6881654,10.2419125 13.7315553,10.2294103 13.7815647,10.2294103 C13.8227489,10.2294103 13.8573137,10.2352937 13.8852601,10.2470606 C13.9132065,10.2588275 13.9433588,10.2808901 13.9757178,10.3132492 L14.5758275,10.8471703 C14.3728482,11.1795857 14.1066257,11.4318352 13.7771521,11.6039263 C13.4476784,11.7760175 13.0726136,11.8620617 12.6519464,11.8620617 C12.3018806,11.8620617 11.9878557,11.8039635 11.7098623,11.6877652 C11.431869,11.5715669 11.1906508,11.4090388 10.9862006,11.200176 C10.7817505,10.9913133 10.6140744,10.7397992 10.4831675,10.4456263 C10.3522605,10.1514534 10.258862,9.82492637 10.2029692,9.46603543 L9.70434862,9.46603543 L9.70434862,8.73796114 L10.1367806,8.73796114 L10.1367806,8.45996914 C10.1367806,8.41878493 10.1382515,8.37760134 10.1411932,8.33641714 L9.70434862,8.33641714 L9.70434862,7.60834284 Z M11.9224287,0.13577143 C13.4457917,0.13577143 14.8571216,0.516606482 16.1564607,1.27828801 C17.4259299,2.02503461 18.4340227,3.0331274 19.1807693,4.30259661 C19.9424509,5.60193569 20.3232859,7.01326559 20.3232859,8.53662865 C20.3232859,10.0599917 19.9424509,11.4713216 19.1807693,12.7706607 C18.4340227,14.0401299 17.4259299,15.0482227 16.1564607,15.7949693 C14.8571216,16.5566508 13.4457917,16.9374859 11.9224287,16.9374859 C10.966593,16.9374859 10.0518422,16.7844051 9.17814866,16.478239 C8.30445514,16.1720729 7.5166493,15.7427001 6.81470749,15.1901076 L8.11404008,13.8683727 C8.68156749,14.241746 9.28642316,14.5329728 9.92862524,14.7420619 C10.5708273,14.9511509 11.2354218,15.0556939 11.9224287,15.0556939 C13.1172232,15.0556939 14.2149243,14.7644671 15.2155647,14.1820047 C16.2012702,13.5995424 16.9853424,12.8154702 17.5678047,11.8297647 C18.1502671,10.8291242 18.4414939,9.73142321 18.4414939,8.53662865 C18.4414939,7.3418341 18.1502671,6.24413306 17.5678047,5.24349262 C16.9853424,4.25778711 16.2012702,3.47371495 15.2155647,2.8912526 C14.2149243,2.30879025 13.1172232,2.01756345 11.9224287,2.01756345 C10.7276341,2.01756345 9.6299331,2.30879025 8.62929265,2.8912526 C7.64358715,3.47371495 6.85951498,4.25778711 6.27705263,5.24349262 C5.69459029,6.24413306 5.40336348,7.3418341 5.40336348,8.53662865 L8.20364922,8.53662865 L4.44006519,12.2554081 L0.721285721,8.53662865 L3.52157146,8.53662865 C3.52157146,7.01326559 3.90240651,5.60193569 4.66408804,4.30259661 C5.41083464,3.0331274 6.41892743,2.02503461 7.68839665,1.27828801 C8.98773573,0.516606482 10.3990656,0.13577143 11.9224287,0.13577143 Z" id="bank-icon-locked"></path>
                </g>
            </g>
        </g>
    </g>
</svg>