<?xml version="1.0" encoding="UTF-8"?>
<svg width="13px" height="18px" viewBox="0 0 13 18" version="1.1" xmlns="http://www.w3.org/2000/svg" xmlns:xlink="http://www.w3.org/1999/xlink">
    <!-- Generator: sketchtool 53.2 (72643) - https://sketchapp.com -->
    <title>5ABFAB39-2134-40D8-82DF-6654929BAD97</title>
    <desc>Created with sketchtool.</desc>
    <g id="Page-1" stroke="none" stroke-width="1" fill="none" fill-rule="evenodd">
        <g id="Summary-modal-1" transform="translate(-781.000000, -371.000000)" fill="#FFFFFF">
            <g id="bitcoin-icon-locked" transform="translate(772.000000, 364.000000)">
                <path d="M19.7758651,15.3613968 C20.7439603,14.8155992 21.2672897,13.72325 21.0867897,12.6276587 C20.8626349,10.9356786 18.8460714,10.2971429 17.254746,10.1625595 L17.254746,7.61904762 L15.6861905,7.61904762 L15.6861905,10.1401667 L14.6329722,10.1401667 L14.6329722,7.61904762 L13.0643413,7.61904762 L13.0643413,10.1401667 L9.9047619,10.1401667 L9.9047619,11.7647421 L11.0811032,11.7647421 C11.6079762,11.7647421 11.865381,11.9217183 11.865381,12.3475595 L11.865381,19.3279484 C11.865381,19.9105397 11.574123,20.0899087 11.2603968,20.0899087 L10.0614365,20.0899087 L10.0614365,21.7480357 L13.109127,21.7480357 L13.109127,24.3250238 L14.6889167,24.3250238 L14.6889167,21.7480357 L15.7421349,21.7480357 L15.7421349,24.3250238 L17.2771389,24.3250238 L17.2771389,21.7480357 L17.6134841,21.7480357 C20.8402421,21.7480357 21.9158532,20.168246 21.9158532,18.0170238 C21.8902183,16.7485476 21.0104881,15.6573294 19.7758651,15.3613968 Z M14.6329722,11.8656984 L15.7532937,11.8656984 C16.5376468,11.8656984 18.0841111,12.0000556 18.0841111,13.2773532 C18.1377183,14.1111667 17.5339405,14.8415357 16.7057817,14.9470159 L14.6329722,14.9470159 L14.6329722,11.8656984 Z M16.3697381,19.9329325 L16.3697381,19.9216984 L14.6329722,19.9216984 L14.6329722,16.5603571 L16.6498373,16.5603571 C17.1204643,16.5603571 18.8908571,16.7170317 18.8908571,17.9720119 C18.8908571,19.2269167 18.0502579,19.9329325 16.3697381,19.9329325 Z"></path>
            </g>
        </g>
    </g>
</svg>