<?xml version="1.0" encoding="UTF-8"?>
<svg width="18px" height="17px" viewBox="0 0 18 17" version="1.1" xmlns="http://www.w3.org/2000/svg" xmlns:xlink="http://www.w3.org/1999/xlink">
    <!-- Generator: sketchtool 53.2 (72643) - https://sketchapp.com -->
    <title>B2D09D77-4BC9-4D4A-8AB4-C24B0C5D471D</title>
    <desc>Created with sketchtool.</desc>
    <g id="Page-1" stroke="none" stroke-width="1" fill="none" fill-rule="evenodd">
        <g id="MVP-Dashboard-1440px" transform="translate(-1109.000000, -32.000000)" fill="#E67C70">
            <g id="Main-menu-">
                <g id="Group-7" transform="translate(696.000000, 24.000000)">
                    <g id="Group-12" transform="translate(406.000000, 0.000000)">
                        <g id="dashboard-copy">
                            <path d="M19.5181562,21.5561242 L23.3352812,14.5076452 C23.4161055,14.3583392 23.36875,14.1670044 23.2294961,14.0803082 C23.0902773,13.9936874 22.9118594,14.0443858 22.8309297,14.1937295 L19.0970547,21.0884922 L15.4294141,14.9932949 L19.2126836,8.75274945 L24.3003555,11.4802506 L23.3726875,13.1933304 C23.2918633,13.3426364 23.3392187,13.5339712 23.4784727,13.6206674 C23.6176211,13.7072506 23.7961094,13.6565898 23.8770391,13.5072461 L24.4168633,12.5105033 L24.4168633,24.1823038 L19.5181562,21.5561242 Z M13.181418,18.1590266 L13.181418,12.4107273 L18.2874766,20.8963659 L13.181418,18.1590266 Z M24.999332,11.335204 C24.9945859,11.2237805 24.9328164,11.1193681 24.8388437,11.0698381 L19.2405977,8.06867849 C19.1078125,7.99754989 18.9465508,8.04451663 18.8656914,8.17791574 L15.0829844,14.4175565 L13.1348359,11.17998 C13.1068516,11.1334279 13.066457,11.0946408 13.0202969,11.0698381 L7.42201563,8.06867849 C7.23139844,7.96645233 7,8.1202816 7,8.34833038 L7,11.3495654 C7,11.5222417 7.1305,11.6621619 7.29158594,11.6621619 C7.45263672,11.6621619 7.58317187,11.5222417 7.58317187,11.3495654 L7.58317187,8.85414634 L12.5982812,11.5427095 L12.5982812,24.1822661 L7.58317187,21.4937029 L7.58317187,12.6834435 C7.58317187,12.5107672 7.45263672,12.3708093 7.29158594,12.3708093 C7.1305,12.3708093 7,12.5107672 7,12.6834435 L7,21.6869601 C7,21.805357 7.06240234,21.9136142 7.16119141,21.9665743 L12.7594727,24.9677339 C12.9502656,25.0700355 13.181418,24.9159424 13.181418,24.6881197 L13.181418,18.8580998 L24.5780195,24.9677339 C24.7688477,25.0700355 25,24.9159424 25,24.6881197 L25,11.34949 C25,11.3446652 24.999543,11.3399911 24.999332,11.335204 L24.999332,11.335204 Z" id="mediumblog-icon"></path>
                        </g>
                    </g>
                </g>
            </g>
        </g>
    </g>
</svg>
