<svg width="21" height="21" viewBox="0 0 21 21" fill="none" xmlns="http://www.w3.org/2000/svg">
<path opacity="0.9" d="M10.5 21C16.299 21 21 16.299 21 10.5C21 4.70101 16.299 0 10.5 0C4.70101 0 0 4.70101 0 10.5C0 16.299 4.70101 21 10.5 21Z" fill="#DA2814"/>
<path d="M14.6621 10.0875V11.2125C14.6621 11.5231 14.4102 11.775 14.0996 11.775H11.6621V14.2125C11.6621 14.5231 11.4102 14.775 11.0996 14.775H9.97461C9.66407 14.775 9.41211 14.5231 9.41211 14.2125V11.775H6.97461C6.66406 11.775 6.41211 11.5231 6.41211 11.2125V10.0875C6.41211 9.77698 6.66406 9.52503 6.97461 9.52503H9.41211V7.08753C9.41211 6.77698 9.66407 6.52502 9.97461 6.52502H11.0996C11.4102 6.52502 11.6621 6.77698 11.6621 7.08753V9.52503H14.0996C14.4102 9.52503 14.6621 9.77698 14.6621 10.0875Z" fill="white"/>
</svg>
