<?xml version="1.0" encoding="UTF-8"?>
<svg width="18px" height="13px" viewBox="0 0 18 13" version="1.1" xmlns="http://www.w3.org/2000/svg" xmlns:xlink="http://www.w3.org/1999/xlink">
    <!-- Generator: sketchtool 53.2 (72643) - https://sketchapp.com -->
    <title>1BCCBDDF-0E91-4F8F-AC77-61CB2FD6A1E0</title>
    <desc>Created with sketchtool.</desc>
    <g id="Page-1" stroke="none" stroke-width="1" fill="none" fill-rule="evenodd">
        <g id="Summary-modal-1" transform="translate(-779.000000, -541.000000)" fill="#B2ACAB">
            <g id="Group-9" transform="translate(756.000000, 523.000000)">
                <g id="card-icon-locked" transform="translate(23.586466, 18.705018)">
                    <path d="M14.671063,-3.8191672e-14 L1.8879948,-3.8191672e-14 C0.846945905,-3.8191672e-14 -1.50990331e-13,0.878230091 -1.50990331e-13,1.95794033 L-1.50990331e-13,9.5661657 C-1.50990331e-13,10.6457829 0.846945905,11.524106 1.8879948,11.524106 L14.671063,11.524106 C15.7122016,11.524106 16.5590578,10.6457829 16.5590578,9.5661657 L16.5590578,1.95794033 C16.5590578,0.878230091 15.7122016,-3.8191672e-14 14.671063,-3.8191672e-14 Z M1.8879948,1.11674908 L14.671063,1.11674908 C15.1184062,1.11674908 15.4822035,1.49411721 15.4822035,1.95794033 L15.4822035,2.70458015 L1.0768543,2.70458015 L1.0768543,1.95794033 C1.0768543,1.49411721 1.44074131,1.11674908 1.8879948,1.11674908 Z M14.671063,10.4073569 L1.8879948,10.4073569 C1.44074131,10.4073569 1.0768543,10.0299888 1.0768543,9.5661657 L1.0768543,5.11880554 L15.4822035,5.11880554 L15.4822035,9.5661657 C15.4822035,10.0299888 15.1184062,10.4073569 14.671063,10.4073569 Z" id="Fill-1"></path>
                    <path d="M14.5281105,8.41851989 C14.5281105,8.75624343 14.2637428,9.03031226 13.9377252,9.03031226 C13.6121562,9.03031226 13.3477885,8.75624343 13.3477885,8.41851989 C13.3477885,8.08042411 13.6121562,7.80672752 13.9377252,7.80672752 C14.2637428,7.80672752 14.5281105,8.08042411 14.5281105,8.41851989 Z" id="Fill-2"></path>
                    <path d="M12.9226105,8.41851989 C12.9226105,8.75624343 12.6583325,9.03031226 12.3323149,9.03031226 C12.0066562,9.03031226 11.7423782,8.75624343 11.7423782,8.41851989 C11.7423782,8.08042411 12.0066562,7.80672752 12.3323149,7.80672752 C12.6583325,7.80672752 12.9226105,8.08042411 12.9226105,8.41851989 Z" id="Fill-3"></path>
                    <path d="M11.3167516,8.41851989 C11.3167516,8.75624343 11.0528325,9.03031226 10.7268149,9.03031226 C10.4011562,9.03031226 10.1368782,8.75624343 10.1368782,8.41851989 C10.1368782,8.08042411 10.4011562,7.80672752 10.7268149,7.80672752 C11.0528325,7.80672752 11.3167516,8.08042411 11.3167516,8.41851989 Z" id="Fill-4"></path>
                    <path d="M7.4721125,8.41851989 C7.4721125,8.75624343 7.20810372,9.03031226 6.88208608,9.03031226 C6.55615818,9.03031226 6.2921494,8.75624343 6.2921494,8.41851989 C6.2921494,8.08042411 6.55615818,7.80672752 6.88208608,7.80672752 C7.20810372,7.80672752 7.4721125,8.08042411 7.4721125,8.41851989 Z" id="Fill-5"></path>
                    <path d="M5.86661248,8.41851989 C5.86661248,8.75624343 5.60233448,9.03031226 5.2766758,9.03031226 C4.95065816,9.03031226 4.68673912,8.75624343 4.68673912,8.41851989 C4.68673912,8.08042411 4.95065816,7.80672752 5.2766758,7.80672752 C5.60233448,7.80672752 5.86661248,8.08042411 5.86661248,8.41851989 Z" id="Fill-6"></path>
                    <path d="M9.07752278,8.41851989 C9.07752278,8.75624343 8.81360374,9.03031226 8.4875861,9.03031226 C8.16156846,9.03031226 7.89764942,8.75624343 7.89764942,8.41851989 C7.89764942,8.08042411 8.16156846,7.80672752 8.4875861,7.80672752 C8.81360374,7.80672752 9.07752278,8.08042411 9.07752278,8.41851989 Z" id="Fill-7"></path>
                </g>
            </g>
        </g>
    </g>
</svg>