<?xml version="1.0" encoding="UTF-8"?>
<svg width="41px" height="39px" viewBox="0 0 41 39" version="1.1" xmlns="http://www.w3.org/2000/svg" xmlns:xlink="http://www.w3.org/1999/xlink">
    <!-- Generator: sketchtool 53.2 (72643) - https://sketchapp.com -->
    <title>7F72D158-0D93-4A65-B55C-4F624BA6A911</title>
    <desc>Created with sketchtool.</desc>
    <defs>
        <radialGradient cx="50%" cy="26.7278784%" fx="50%" fy="26.7278784%" r="193.226518%" gradientTransform="translate(0.500000,0.267279),scale(0.863636,1.000000),rotate(79.185338),translate(-0.500000,-0.267279)" id="radialGradient-1">
            <stop stop-color="#FFDE00" offset="0%"></stop>
            <stop stop-color="#FF5F00" offset="100%"></stop>
        </radialGradient>
        <path d="M1.49149072,14.969267 C2.07460658,14.92796 2.61704389,14.6797735 3.04190885,14.2522262 L5.04425449,12.2163498 L5.04425449,18.5956053 C5.04425449,18.8209265 4.8632914,19 4.64633907,19 L1.88940614,19 C1.66787748,19 1.49149072,18.8162156 1.49149072,18.5956053 L1.49149072,14.969267 Z M6.41834237,12.1703319 L8.31209885,14.0960181 C8.75504317,14.5464307 9.34250938,14.7993856 9.97082365,14.8130588 L9.97082365,18.5956053 C9.97082365,18.8209265 9.79008655,19 9.57313422,19 L6.81603179,19 C6.59444663,19 6.41834237,18.8162156 6.41834237,18.5956053 L6.41834237,12.1703319 Z M11.3449115,14.4131453 C11.4850266,14.3213393 11.6161584,14.2156302 11.7381941,14.0915369 L14.8974493,10.8787853 L14.8974493,18.5956053 C14.8974493,18.8209265 14.7166557,19 14.4997599,19 L11.7426009,19 C11.5212418,19 11.3449115,18.8162156 11.3449115,18.5956053 L11.3449115,14.4131453 Z M19.5574044,6.13577992 L19.6161058,6.19547108 C19.6657676,6.241489 19.7337347,6.31037225 19.8240185,6.38844759 L19.8240185,18.5956053 C19.8240185,18.8209265 19.6432814,19 19.426329,19 L16.6691701,19 C16.4478109,19 16.2714807,18.8162156 16.2714807,18.5956053 L16.2714807,9.47710594 L19.5574044,6.13577992 Z M21.8126916,0.216129101 C21.9528631,0.363087697 22.0117905,0.570024704 21.9980615,0.836423066 L21.9393601,2.10952803 C21.8987945,2.95985414 21.8579465,3.80541185 21.8217313,4.65125681 C21.8126916,4.84871447 21.7767024,5.10166939 21.5822927,5.29912705 C21.5279982,5.35433707 21.4648899,5.40035498 21.392516,5.44166195 C21.2839268,5.50158291 21.1799705,5.52892939 21.0760142,5.52892939 C20.8275359,5.52892939 20.6648782,5.36352916 20.5472494,5.24414684 L19.5574044,4.24215119 L10.8070506,13.1400403 C10.5945616,13.351401 10.3189078,13.4710132 10.0204854,13.4710132 C9.72211945,13.4710132 9.44205886,13.351401 9.23414622,13.1400403 L5.74940604,9.59648826 L2.10172562,13.3056704 C1.89386948,13.5170311 1.61821573,13.6364134 1.31979329,13.6364134 C1.02142735,13.6364134 0.741366764,13.5170311 0.533454122,13.3056704 L0.325597978,13.0942522 C-0.108532659,12.6528019 -0.108532659,11.9405296 0.325597978,11.4993091 L4.96747371,6.78365017 C5.17538635,6.57223202 5.4509836,6.4528497 5.74940604,6.4528497 C6.04754599,6.4528497 6.32783257,6.57223202 6.53574521,6.78365017 L10.0204854,10.327432 L17.7766439,2.4357899 C17.5506519,2.21069851 17.3246599,1.98089617 17.1030748,1.75109383 L16.7821661,1.42012101 C16.6557236,1.29148915 16.3888835,1.02043729 16.5788863,0.60208213 C16.6148755,0.519295837 16.6601304,0.450412586 16.7190578,0.390721428 C16.9042018,0.202226059 17.1392335,0.192976515 17.3109309,0.183784421 C18.594735,0.124093263 19.8739062,0.0596911578 21.1574278,0 L21.2298582,0 C21.4827433,0 21.6818422,0.0735941993 21.8126916,0.216129101 Z" id="path-2"></path>
        <filter x="-72.6%" y="-73.7%" width="245.4%" height="268.4%" filterUnits="objectBoundingBox" id="filter-3">
            <feOffset dx="0" dy="2" in="SourceAlpha" result="shadowOffsetOuter1"></feOffset>
            <feGaussianBlur stdDeviation="5" in="shadowOffsetOuter1" result="shadowBlurOuter1"></feGaussianBlur>
            <feColorMatrix values="0 0 0 0 0.996078431   0 0 0 0 0.811764706   0 0 0 0 0.0588235294  0 0 0 0.4 0" type="matrix" in="shadowBlurOuter1"></feColorMatrix>
        </filter>
    </defs>
    <g id="Main-page-final" stroke="none" stroke-width="1" fill="none" fill-rule="evenodd">
        <g id="Main-Page-" transform="translate(-153.000000, -751.000000)" fill-rule="nonzero">
            <g id="Weekly-lottery-panel" transform="translate(120.000000, 511.000000)">
                <g id="Group-4">
                    <g id="chance-to-win" transform="translate(42.000000, 248.000000)">
                        <g id="chance-icon">
                            <use fill="black" fill-opacity="1" filter="url(#filter-3)" xlink:href="#path-2"></use>
                            <use fill="url(#radialGradient-1)" xlink:href="#path-2"></use>
                        </g>
                    </g>
                </g>
            </g>
        </g>
    </g>
</svg>
