<?xml version="1.0" encoding="UTF-8"?>
<svg width="19px" height="19px" viewBox="0 0 19 19" version="1.1" xmlns="http://www.w3.org/2000/svg" xmlns:xlink="http://www.w3.org/1999/xlink">
    <!-- Generator: sketchtool 53.2 (72643) - https://sketchapp.com -->
    <title>DD58D72D-B6CF-4455-88A1-327C33FA6FB8</title>
    <desc>Created with sketchtool.</desc>
    <g id="Page-1" stroke="none" stroke-width="1" fill="none" fill-rule="evenodd">
        <g id="MVP-Dashboard-1440px" transform="translate(-989.000000, -30.000000)" fill="#E67C70">
            <g id="Main-menu-">
                <g id="Group-7" transform="translate(696.000000, 24.000000)">
                    <g id="Group-10" transform="translate(287.000000, 0.000000)">
                        <g id="dashboard-copy">
                            <path d="M24.0500495,10.75 L23.9957214,10.75 C24.0983411,10.459112 24.0537109,10.1367057 23.8756849,9.88490625 C23.6975104,9.63305729 23.4083542,9.48323437 23.100099,9.48323437 L22.7290052,9.48323437 C22.8318229,9.19254427 22.7869453,8.86998958 22.6089687,8.61814062 C22.4309427,8.36629167 22.1417865,8.21671615 21.8333333,8.21671615 L18.350099,8.21671615 C17.588763,8.21691406 16.8417266,8.42388542 16.188849,8.81566146 C15.7864349,9.05048958 15.3279609,9.17186198 14.8619661,9.16666667 L13.9166667,9.16666667 L13.9166667,8.53328385 C13.9166667,8.22502865 13.7668932,7.93567448 13.5150443,7.75764844 C13.2633932,7.57967187 12.9407891,7.53484375 12.649901,7.63766146 L12.649901,6.94995052 C12.649901,6.42542188 12.2247266,6 11.6999505,6 C11.1754219,6 10.75,6.42542188 10.75,6.94995052 L10.75,7.00427865 C10.459112,6.90165885 10.1367057,6.94628906 9.88490625,7.1243151 C9.63305729,7.30248958 9.48343229,7.59164583 9.48323437,7.89990104 L9.48323437,8.27099479 C9.19254427,8.16817708 8.86998958,8.21305469 8.61814063,8.39103125 C8.36648958,8.56905729 8.21671615,8.85821354 8.21671615,9.16666667 L8.21671615,12.649901 C8.21691406,13.411237 8.42408333,14.1582734 8.81566146,14.811151 C9.05048958,15.2135651 9.17186198,15.6720391 9.16666667,16.1380339 L9.16666667,17.0833333 L8.53328385,17.0833333 C8.22502865,17.0833333 7.93567448,17.2331068 7.75764844,17.4849557 C7.57967188,17.7366068 7.53484375,18.0592109 7.63766146,18.350099 L6.94995052,18.350099 C6.42542187,18.350099 6,18.7752734 6,19.3000495 C6,19.8245781 6.42542187,20.25 6.94995052,20.25 L7.00427865,20.25 C6.90165885,20.540888 6.94628906,20.8632943 7.1243151,21.1150937 C7.30248958,21.3669427 7.59164583,21.5167656 7.89990104,21.5167656 L8.27099479,21.5167656 C8.16817708,21.8074557 8.21305469,22.1300104 8.39103125,22.3818594 C8.56905729,22.6337083 8.85821354,22.7832839 9.16666667,22.7832839 L12.649901,22.7832839 C13.411237,22.7830859 14.1582734,22.5761146 14.811151,22.1843385 C15.2135651,21.9495104 15.6720391,21.828138 16.1380339,21.8333333 L17.0833333,21.8333333 L17.0833333,22.4667161 C17.0833333,22.7751693 17.2331068,23.0643255 17.4849557,23.2423516 C17.7366068,23.4203281 18.0592109,23.4651563 18.350099,23.3623385 L18.350099,24.0500495 C18.350099,24.5745781 18.7752734,25 19.3000495,25 C19.8245781,25 20.25,24.5745781 20.25,24.0500495 L20.25,23.9957214 C20.540888,24.0983411 20.8632943,24.0537109 21.1150937,23.8756849 C21.3669427,23.6975104 21.5167656,23.4083542 21.5167656,23.100099 L21.5167656,22.7290052 C21.8074557,22.8318229 22.1300104,22.7869453 22.3818594,22.6089687 C22.6337083,22.4309427 22.7832839,22.1417865 22.7834818,21.8333333 L22.7834818,18.350099 C22.7830859,17.588763 22.5761146,16.8417266 22.1843385,16.188849 C21.9495104,15.7864349 21.828138,15.3279609 21.8333333,14.8619661 L21.8333333,13.9166667 L22.4667161,13.9166667 C22.7751693,13.9166667 23.0643255,13.7668932 23.2423516,13.5150443 C23.420526,13.2633932 23.4651563,12.9407891 23.3625365,12.649901 L24.0500495,12.649901 C24.5745781,12.649901 25,12.2247266 25,11.6999505 C25,11.1754219 24.5745781,10.75 24.0500495,10.75 Z M8.85009896,12.649901 L8.85009896,9.16666667 C8.85009896,8.99175781 8.99175781,8.85009896 9.16666667,8.85009896 C9.34157552,8.85009896 9.48323438,8.99175781 9.48323438,9.16666667 L9.48323438,11.3833828 C9.48323438,11.5582917 9.62514063,11.6999505 9.80004948,11.6999505 C9.97495833,11.6999505 10.1166172,11.5580937 10.1166172,11.3833828 L10.1166172,7.89990104 C10.1166172,7.7251901 10.258276,7.58333333 10.4332344,7.58333333 C10.6081432,7.58333333 10.75,7.7251901 10.75,7.89990104 L10.75,11.3833828 C10.75,11.5582917 10.8916589,11.6999505 11.0665677,11.6999505 C11.241526,11.6999505 11.3833828,11.5582917 11.3833828,11.3833828 L11.3833828,6.94995052 C11.3833828,6.77504167 11.5250417,6.63338281 11.6999505,6.63338281 C11.8748594,6.63338281 12.0165677,6.77504167 12.0165677,6.94995052 L12.0165677,11.3833828 C12.0165677,11.5582917 12.1584245,11.6999505 12.3333333,11.6999505 C12.5082422,11.6999505 12.649901,11.5582917 12.649901,11.3833828 L12.649901,8.53328385 C12.649901,8.358375 12.7916094,8.21671615 12.9665182,8.21671615 C13.1414271,8.21671615 13.2832839,8.358375 13.2832839,8.53328385 L13.2832839,13.2832839 C13.2832839,13.4581927 13.4249427,13.600099 13.599901,13.600099 L14.2133438,13.600099 C14.145112,14.1530286 13.8667917,14.6586562 13.4355807,15.0117891 C13.1410313,15.2537422 12.9690417,15.6143958 12.9665182,15.9957812 L12.9665182,17.0833333 L9.80004948,17.0833333 L9.80004948,16.1380339 C9.80524479,15.5571979 9.65275,14.9860599 9.35879427,14.4852812 C9.02614583,13.9307682 8.8502474,13.2964453 8.85009896,12.649901 Z M14.8453906,13.600099 L15.0042187,13.600099 C15.1979297,13.6027708 15.3803594,13.691487 15.5023255,13.8420521 C15.9793542,14.4116563 16.6606328,14.7719141 17.399901,14.8453906 L17.399901,15.0042188 C17.3972292,15.1979297 17.308513,15.3803594 17.1579479,15.5023255 C16.5883437,15.9793542 16.2280859,16.6606328 16.1546094,17.400099 L15.9957812,17.400099 C15.8020703,17.3972292 15.6196406,17.3087109 15.4976745,17.1581458 C15.0206458,16.5883438 14.3393672,16.2280859 13.599901,16.1546094 L13.599901,15.9957813 C13.6027708,15.8020703 13.6912891,15.6196406 13.8418542,15.4976745 C14.4116562,15.0206458 14.7719141,14.3393672 14.8453906,13.600099 Z M17.0833333,21.1999505 L16.1380339,21.1999505 C15.5571979,21.1947552 14.9860599,21.34725 14.4852812,21.6412057 C13.9307682,21.9738542 13.2964453,22.1497526 12.649901,22.149901 L9.16666667,22.149901 C8.99175781,22.149901 8.85009896,22.0082422 8.85009896,21.8333333 C8.85009896,21.6584245 8.99175781,21.5167656 9.16666667,21.5167656 L11.3833828,21.5167656 C11.5582917,21.5167656 11.6999505,21.3748594 11.6999505,21.1999505 C11.6999505,21.0250417 11.5580937,20.8833828 11.3833828,20.8833828 L7.89990104,20.8833828 C7.7251901,20.8833828 7.58333333,20.741526 7.58333333,20.5667656 C7.58333333,20.3918568 7.7251901,20.25 7.89990104,20.25 L11.3833828,20.25 C11.5582917,20.25 11.6999505,20.1083411 11.6999505,19.9334323 C11.6999505,19.758474 11.5582917,19.6168151 11.3833828,19.6168151 L6.94995052,19.6168151 C6.77504167,19.6168151 6.63338281,19.4749583 6.63338281,19.3000495 C6.63338281,19.1251406 6.77504167,18.9834323 6.94995052,18.9834323 L11.3833828,18.9834323 C11.5582917,18.9834323 11.6999505,18.8417734 11.6999505,18.6668646 C11.6999505,18.4919557 11.5582917,18.350099 11.3833828,18.350099 L8.53328385,18.350099 C8.358375,18.350099 8.21671615,18.2083906 8.21671615,18.0334818 C8.21671615,17.8585729 8.358375,17.7169141 8.53328385,17.7169141 L13.2832839,17.7169141 C13.4581927,17.7169141 13.600099,17.5750573 13.600099,17.400099 L13.600099,16.7866563 C14.1530286,16.854888 14.6586562,17.1334063 15.0117891,17.5644193 C15.2537422,17.8591667 15.6143958,18.0309583 15.9957812,18.0334818 L17.0833333,18.0334818 L17.0833333,21.1999505 Z M22.149901,18.350099 L22.149901,21.8333333 C22.149901,22.0082422 22.0082422,22.149901 21.8333333,22.149901 C21.6584245,22.149901 21.5167656,22.0082422 21.5167656,21.8333333 L21.5167656,19.6166172 C21.5167656,19.4417083 21.3748594,19.3000495 21.1999505,19.3000495 C21.0250417,19.3000495 20.8833828,19.4417083 20.8833828,19.6166172 L20.8833828,23.100099 C20.8833828,23.2748099 20.741526,23.4166667 20.5667656,23.4166667 C20.3918568,23.4166667 20.25,23.2748099 20.25,23.100099 L20.25,19.6166172 C20.25,19.4417083 20.1083411,19.3000495 19.9334323,19.3000495 C19.758474,19.3000495 19.6168151,19.4417083 19.6168151,19.6166172 L19.6168151,24.0500495 C19.6168151,24.2249583 19.4749583,24.3666172 19.3000495,24.3666172 C19.1251406,24.3666172 18.9834323,24.2249583 18.9834323,24.0500495 L18.9834323,19.6166172 C18.9834323,19.4417083 18.8417734,19.3000495 18.6668646,19.3000495 C18.4919557,19.3000495 18.350099,19.4417083 18.350099,19.6166172 L18.350099,22.4667161 C18.350099,22.641625 18.2083906,22.7832839 18.0334818,22.7832839 C17.8585729,22.7832839 17.7169141,22.641625 17.7169141,22.4667161 L17.7169141,17.7167161 C17.7169141,17.5418073 17.5750573,17.399901 17.400099,17.399901 L16.7866563,17.399901 C16.854888,16.8469714 17.1334063,16.3413438 17.5644193,15.9882109 C17.8591667,15.7462578 18.0309583,15.3856042 18.0334818,15.0042187 L18.0334818,13.9166667 L21.1999505,13.9166667 L21.1999505,14.8619661 C21.1947552,15.4428021 21.34725,16.0139401 21.6412057,16.5147188 C21.9738542,17.0692318 22.1497526,17.7035547 22.149901,18.350099 Z M24.0500495,12.0167656 L19.6166172,12.0167656 C19.4417083,12.0167656 19.3000495,12.1584245 19.3000495,12.3333333 C19.3000495,12.5082422 19.4417083,12.649901 19.6166172,12.649901 L22.4667161,12.649901 C22.641625,12.649901 22.7832839,12.7918073 22.7832839,12.9667161 C22.7832839,13.1414271 22.641625,13.2832839 22.4667161,13.2832839 L17.7167161,13.2832839 C17.5418073,13.2832839 17.399901,13.4249427 17.399901,13.599901 L17.399901,14.2133438 C16.8469714,14.1453099 16.3413438,13.8667917 15.9882109,13.4357786 C15.7462578,13.1410313 15.3856042,12.9692396 15.0042187,12.9665182 L13.9166667,12.9665182 L13.9166667,9.80004948 L14.8619661,9.80004948 C15.4428021,9.80524479 16.0139401,9.65275 16.5147188,9.35879427 C17.0692318,9.02614583 17.7033568,8.8502474 18.349901,8.85009896 L21.8333333,8.85009896 C22.0082422,8.85009896 22.149901,8.99175781 22.149901,9.16666667 C22.149901,9.34157552 22.0082422,9.48323437 21.8333333,9.48323437 L19.6166172,9.48323437 C19.4417083,9.48323437 19.3000495,9.62514063 19.3000495,9.80004948 C19.3000495,9.97495833 19.4417083,10.1166172 19.6166172,10.1166172 L23.100099,10.1166172 C23.2748099,10.1166172 23.4166667,10.258276 23.4166667,10.4332344 C23.4166667,10.6081432 23.2748099,10.75 23.100099,10.75 L19.6166172,10.75 C19.4417083,10.75 19.3000495,10.8916589 19.3000495,11.0665677 C19.3000495,11.241526 19.4417083,11.3833828 19.6166172,11.3833828 L24.0500495,11.3833828 C24.2249583,11.3833828 24.3666172,11.5250417 24.3666172,11.6999505 C24.3666172,11.8748594 24.2249583,12.0167656 24.0500495,12.0167656 Z" id="charity-icon"></path>
                        </g>
                    </g>
                </g>
            </g>
        </g>
    </g>
</svg>
