<?xml version="1.0" encoding="UTF-8"?>
<svg width="16px" height="16px" viewBox="0 0 16 16" version="1.1" xmlns="http://www.w3.org/2000/svg" xmlns:xlink="http://www.w3.org/1999/xlink">
    <!-- Generator: sketchtool 55.2 (78181) - https://sketchapp.com -->
    <title>43974D9E-2C55-4FFB-985C-ACA25133B763</title>
    <desc>Created with sketchtool.</desc>
    <g id="Apollo11" stroke="none" stroke-width="1" fill="#FFFFFF" fill-rule="evenodd">
        <g id="Apollo11-popup" transform="translate(-1010.000000, -264.000000)" fill="#FFFFFF" fill-rule="nonzero">
            <path d="M1016.71115,272 L1010.26693,265.555774 C1009.91102,265.199869 1009.91102,264.622833 1010.26693,264.266929 C1010.62283,263.911024 1011.19987,263.911024 1011.55577,264.266929 L1018,270.711155 L1024.44423,264.266929 C1024.80013,263.911024 1025.37717,263.911024 1025.73307,264.266929 C1026.08898,264.622833 1026.08898,265.199869 1025.73307,265.555774 L1019.28885,272 L1025.73307,278.444226 C1026.08898,278.800131 1026.08898,279.377167 1025.73307,279.733071 C1025.37717,280.088976 1024.80013,280.088976 1024.44423,279.733071 L1018,273.288845 L1011.55577,279.733071 C1011.19987,280.088976 1010.62283,280.088976 1010.26693,279.733071 C1009.91102,279.377167 1009.91102,278.800131 1010.26693,278.444226 L1016.71115,272 Z" id="Combined-Shape"></path>
        </g>
    </g>
</svg>