<?xml version="1.0" encoding="UTF-8"?>
<svg width="44px" height="48px" viewBox="0 0 44 48" version="1.1" xmlns="http://www.w3.org/2000/svg" xmlns:xlink="http://www.w3.org/1999/xlink">
    <!-- Generator: sketchtool 55 (78076) - https://sketchapp.com -->
    <title>F5D6DC50-F345-4979-9BF0-3F06389F5D69</title>
    <desc>Created with sketchtool.</desc>
    <g id="New-affiliate-program-(premium)" stroke="none" stroke-width="1" fill="none" fill-rule="evenodd">
        <g id="Coinback---claimed" transform="translate(-747.000000, -195.000000)" fill="#DA2814">
            <g id="Group-4" transform="translate(727.000000, 169.000000)">
                <path d="M60.0847458,72.1239688 C61.2156017,72.1239688 62.1355932,71.19875 62.1355932,70.0614688 L62.1355932,64.6976563 C61.4002712,65.2307188 60.4990169,65.546 59.5254237,65.546 L58.9661017,65.546 L58.9661017,70.0625938 C58.9661017,70.8179375 58.7530932,71.5239688 58.3849661,72.1239688 L60.0847458,72.1239688 Z M21.8644068,70.0625 C21.8644068,71.1997813 22.7843983,72.125 23.9152542,72.125 L55.0292203,72.125 C55.0364915,72.1248125 55.0435763,72.123875 55.0508475,72.123875 L55.0939153,72.123875 C56.2049153,72.1007188 57.1016949,71.18525 57.1016949,70.0625 L57.1016949,65.5459063 L48.7118644,65.5459063 C45.5249407,65.5459063 42.9322034,62.9384375 42.9322034,59.7334063 C42.9322034,56.528375 45.5249407,53.9209063 48.7118644,53.9209063 L57.1016949,53.9209063 L57.1016949,47 C57.1016949,45.8627188 56.1817034,44.9375 55.0508475,44.9375 L23.9152542,44.9375 C23.1637119,44.9375 22.4612966,44.723 21.8644068,44.3524063 L21.8644068,70.0625 Z M62.1355932,55.1383438 C61.4986186,55.5536563 60.740178,55.796 59.9260847,55.796 L48.7118644,55.796 C46.5529746,55.796 44.7966102,57.5623438 44.7966102,59.7335 C44.7966102,61.9046563 46.5529746,63.671 48.7118644,63.671 L59.5254237,63.671 C60.9646525,63.671 62.1355932,62.4934063 62.1355932,61.046 L62.1355932,55.1383438 Z M60.0847458,37.0625 C62.2436356,37.0625 64,38.8289375 64,41 L64,70.061375 C64,72.2325313 62.2436356,73.998875 60.0847458,73.998875 L23.9152542,74 C21.7563644,74 20,72.2336563 20,70.0625 L20,41.2333438 C20,41.207 20.0018644,41.181125 20.0039153,41.15525 C20.0019576,41.1036875 20,41.0520313 20,41 C20,38.8288438 21.7563644,37.0625 23.9152542,37.0625 L30.0838305,37.0625 C30.5986864,37.0625 31.0160339,37.4822188 31.0160339,38 C31.0160339,38.5177813 30.5986864,38.9375 30.0838305,38.9375 L23.9152542,38.9375 C22.7843983,38.9375 21.8644068,39.8627188 21.8644068,41 C21.8644068,42.1372813 22.7843983,43.0625 23.9152542,43.0625 L39.4364407,43.0625 L39.4364407,40.203125 C39.4364407,39.6853438 39.8537881,39.265625 40.3686441,39.265625 C40.8835,39.265625 41.3008475,39.6853438 41.3008475,40.203125 L41.3008475,43.0625 L55.0508475,43.0625 C57.2097373,43.0625 58.9661017,44.8288438 58.9661017,47 L58.9661017,53.9209063 L59.9260847,53.9209063 C61.1443814,53.9209063 62.1355932,52.9240625 62.1355932,51.6988438 L62.1355932,41 C62.1355932,39.8627188 61.2156017,38.9375 60.0847458,38.9375 L54.6313559,38.9375 C54.1165,38.9375 53.6991525,38.5177813 53.6991525,38 C53.6991525,37.4822188 54.1165,37.0625 54.6313559,37.0625 L60.0847458,37.0625 Z M46.940678,33.9845 C45.5536525,33.9845 44.4251271,35.1193438 44.4251271,36.5143438 C44.4251271,37.9093438 45.5535593,39.0441875 46.940678,39.0441875 C48.3277966,39.0441875 49.4562288,37.9093438 49.4562288,36.5143438 C49.4562288,35.1193438 48.3277034,33.9845 46.940678,33.9845 Z M46.940678,40.9191875 C44.5256186,40.9191875 42.5607203,38.9432188 42.5607203,36.5143438 C42.5607203,34.0854688 44.5255254,32.1095 46.940678,32.1095 C49.3558305,32.1095 51.3206356,34.0854688 51.3206356,36.5143438 C51.3206356,38.9432188 49.3558305,40.9191875 46.940678,40.9191875 Z M37.8983051,27.875 C36.5112797,27.875 35.3827542,29.0098438 35.3827542,30.4048438 C35.3827542,31.7998438 36.5111864,32.9346875 37.8983051,32.9346875 C39.2854237,32.9346875 40.4138559,31.7998438 40.4138559,30.4048438 C40.4138559,29.0098438 39.2853305,27.875 37.8983051,27.875 Z M37.8983051,34.8096875 C35.4832458,34.8096875 33.5183475,32.8337188 33.5183475,30.4048438 C33.5183475,27.9759688 35.4831525,26 37.8983051,26 C40.3134576,26 42.2782627,27.9759688 42.2782627,30.4048438 C42.2782627,32.8337188 40.3134576,34.8096875 37.8983051,34.8096875 Z M50.886322,29.4367813 C50.3714661,29.4367813 49.9541186,29.0170625 49.9541186,28.4992813 C49.9541186,27.9815 50.3714661,27.5617813 50.886322,27.5617813 L51.4152542,27.5617813 L51.4152542,27.0298438 C51.4152542,26.5120625 51.8326017,26.0923438 52.3474576,26.0923438 C52.8623136,26.0923438 53.279661,26.5120625 53.279661,27.0298438 L53.279661,27.5617813 L53.8085932,27.5617813 C54.3234492,27.5617813 54.7407966,27.9815 54.7407966,28.4992813 C54.7407966,29.0170625 54.3234492,29.4367813 53.8085932,29.4367813 L53.279661,29.4367813 L53.279661,29.9688125 C53.279661,30.4865938 52.8623136,30.9063125 52.3474576,30.9063125 C51.8326017,30.9063125 51.4152542,30.4865938 51.4152542,29.9688125 L51.4152542,29.4367813 L50.886322,29.4367813 Z M33.9520085,36.1015625 C33.9520085,35.583875 34.3693559,35.1640625 34.8842119,35.1640625 C35.3990678,35.1640625 35.8164153,35.5837813 35.8164153,36.1015625 L35.8164153,39.8984375 C35.8164153,40.4162188 35.3990678,40.8359375 34.8842119,40.8359375 C34.3693559,40.8359375 33.9520085,40.4162188 33.9520085,39.8984375 L33.9520085,36.1015625 Z M48.3464407,59.8503125 C48.3464407,59.60375 48.4452542,59.361875 48.6186441,59.1875938 C48.7929661,59.013125 49.0325424,58.9128125 49.2777119,58.9128125 C49.5238136,58.9128125 49.7633898,59.0132188 49.9377119,59.1875938 C50.1111017,59.361875 50.2108475,59.60375 50.2108475,59.8503125 C50.2108475,60.0969688 50.1111017,60.3388438 49.9377119,60.513125 C49.7633898,60.6884375 49.5238136,60.7878125 49.2777119,60.7878125 C49.0325424,60.7878125 48.7929661,60.6884375 48.6186441,60.513125 C48.4452542,60.3388438 48.3464407,60.0969688 48.3464407,59.8503125 Z M26.183678,50.375 C26.6985339,50.375 27.1158814,50.7948125 27.1158814,51.3125 L27.1158814,59.0312187 C27.1158814,59.5489062 26.6985339,59.9687187 26.183678,59.9687187 C25.668822,59.9687187 25.2514746,59.5489062 25.2514746,59.0312187 L25.2514746,51.3125 C25.2514746,50.7948125 25.668822,50.375 26.183678,50.375 Z M26.1833051,61.32875 C26.4294068,61.32875 26.6689831,61.4291563 26.8423729,61.6034375 C27.0166949,61.7778125 27.1155085,62.0196875 27.1155085,62.26625 C27.1155085,62.5128125 27.0166949,62.7546875 26.8423729,62.9290625 C26.6689831,63.1034375 26.4294068,63.20375 26.1833051,63.20375 C25.9381356,63.20375 25.6976271,63.1033438 25.5242373,62.9290625 C25.3508475,62.7546875 25.2511017,62.5128125 25.2511017,62.26625 C25.2511017,62.0196875 25.3508475,61.7778125 25.5242373,61.6034375 C25.6976271,61.4290625 25.9381356,61.32875 26.1833051,61.32875 Z" id="coinbackgraphic"></path>
            </g>
        </g>
    </g>
</svg>