<?xml version="1.0" encoding="UTF-8"?>
<svg width="22px" height="19px" viewBox="0 0 22 19" version="1.1" xmlns="http://www.w3.org/2000/svg" xmlns:xlink="http://www.w3.org/1999/xlink">
    <!-- Generator: sketchtool 53.2 (72643) - https://sketchapp.com -->
    <title>14603B30-885C-4374-A9EF-7A9359B28D52</title>
    <desc>Created with sketchtool.</desc>
    <g id="Page-1" stroke="none" stroke-width="1" fill="none" fill-rule="evenodd">
        <g id="Summary-modal-1" transform="translate(-777.000000, -484.000000)" fill="#FFFFFF">
            <g id="Group-8" transform="translate(320.000000, 103.000000)">
                <g id="Group-10" transform="translate(436.000000, 364.000000)">
                    <g id="Group-45" transform="translate(21.000000, 17.000000)">
                        <g id="crypto-icon-white">
                            <path d="M11.1427427,13.5773857 L10.0266175,13.5773857 L10.0266175,15.1267041 L11.1427427,15.1267041 C11.5531047,15.1267041 11.8868262,14.7792694 11.8868262,14.3520449 C11.8868262,13.9248204 11.5531047,13.5773857 11.1427427,13.5773857 Z" id="Fill-8"></path>
                            <path d="M10.0266175,11.2534082 L10.0266175,12.8027265 L11.1427427,12.8027265 C11.5531047,12.8027265 11.8868262,12.4552919 11.8868262,12.0280674 C11.8868262,11.6008428 11.5531047,11.2534082 11.1427427,11.2534082 L10.0266175,11.2534082 Z" id="Fill-9"></path>
                            <path d="M10.2705839,7.01907267 C10.3539677,6.63062951 10.3986593,6.23211578 10.3986593,5.83079391 L7.65210772,5.83079391 L6.65205956,7.91307779 L5.57388263,5.29347093 L3.99200772,9.41092973 L2.84044557,4.61661247 L2.07148183,6.2181235 L0.000372041726,6.2181235 C0.0386923395,6.77984824 0.162954276,7.31620289 0.35353265,7.81774629 L1.0976161,9.1660406 C1.31884141,9.46012059 1.56773733,9.72887891 1.84169955,9.96979791 L2.58578301,10.5152548 C2.82263407,10.6588088 3.0707859,10.7836258 3.32986646,10.8874301 L4.07394991,11.1225392 C4.41199632,11.1999083 4.76171555,11.2452743 5.12120086,11.250019 C5.85509967,8.93945279 7.8597535,7.22939264 10.2705839,7.01907267 Z" id="Fill-10"></path>
                            <path d="M3.07459933,2.39702025 L4.15533404,6.89861317 L5.54974643,3.26948015 L6.70381986,6.07248757 L7.19193861,5.05613472 L10.3386675,5.05613472 C10.2389603,4.33463653 9.99862139,3.66131245 9.65420376,3.06027376 L8.91012031,2.0465838 C8.6826633,1.80372815 8.4330698,1.58493534 8.16603685,1.38972123 L7.4219534,0.935286788 C6.74506999,0.598842622 5.98880217,0.408179631 5.18970305,0.408179631 C2.44315151,0.408179631 0.192020036,2.63421121 0,5.44346431 L1.61131272,5.44346431 L3.07459933,2.39702025 Z" id="Fill-11"></path>
                            <path d="M10.770701,7.76744186 C7.89844584,7.76744186 5.56211681,10.1997749 5.56211681,13.1900561 C5.56211681,16.1803374 7.89844584,18.6126704 10.770701,18.6126704 C13.6427236,18.6126704 15.9792851,16.1803374 15.9792851,13.1900561 C15.9792851,10.1997749 13.6427236,7.76744186 10.770701,7.76744186 Z M10.770701,17.8380112 C8.30880787,17.8380112 6.30620027,15.7531129 6.30620027,13.1900561 C6.30620027,12.1052428 6.67331244,11.0493339 7.3407553,10.2160427 L7.91188585,10.7123087 C7.35638105,11.4064034 7.05028372,12.2860289 7.05028372,13.1900561 C7.05028372,15.3258399 8.71916989,17.063352 10.770701,17.063352 C11.6389999,17.063352 12.4839066,16.744483 13.1502799,16.1663451 L13.6267723,16.7609445 C12.8268826,17.4557653 11.8126968,17.8380112 10.770701,17.8380112 Z M12.6309096,12.0280674 C12.6309096,12.4901031 12.4354017,12.906192 12.125863,13.1900561 C12.4354017,13.4739203 12.6309096,13.8900091 12.6309096,14.3520449 C12.6309096,15.206494 11.9632807,15.9013633 11.1427427,15.9013633 L11.1427427,16.6760225 L10.3986593,16.6760225 L10.3986593,15.9013633 L9.28253407,15.9013633 L9.28253407,10.478749 L10.3986593,10.478749 L10.3986593,9.70408982 L11.1427427,9.70408982 L11.1427427,10.478749 C11.9632807,10.478749 12.6309096,11.1736183 12.6309096,12.0280674 Z M14.2004606,16.1640696 L13.6292836,15.6678035 C14.1848349,14.9740962 14.4911182,14.0940834 14.4911182,13.1900561 C14.4911182,11.0542724 12.8219995,9.31676022 10.770701,9.31676022 C9.90235559,9.31676022 9.05744883,9.63562931 8.3911221,10.2137671 L7.91444364,9.6191678 C8.71428684,8.92434693 9.72884463,8.54210104 10.7710265,8.54210104 C13.2327336,8.54210104 15.2355272,10.6269994 15.2355272,13.1900561 C15.2352017,14.2748695 14.867857,15.3311657 14.2004606,16.1640696 Z" id="Fill-12"></path>
                            <polygon id="Fill-13" points="15.9792851 6.06813011 15.9792851 3.62427406 14.6985315 5.62391149"></polygon>
                            <polygon id="Fill-14" points="15.9792851 8.03731375 15.9792851 6.88481455 15.0300672 6.55514866"></polygon>
                            <g id="Group-18" transform="translate(11.114747, 0.084202)">
                                <polygon id="Fill-15" points="5.60862203 3.54007197 5.60862203 5.98392803 6.88914315 5.5397094"></polygon>
                                <path d="M10.4451645,5.74659182 C10.4451645,2.75631055 8.10860291,0.323977546 5.2365803,0.323977546 C4.43687661,0.323977546 3.68209696,0.518029671 3.00432995,0.854667502 L2.2602465,1.30271101 C1.99265548,1.49748937 1.74338753,1.71652426 1.51616304,1.95860525 L0.772079592,2.96793775 C0.302841965,3.78157197 0.0279961399,4.73023897 0.0279961399,5.74659182 C0.0279961399,6.14868835 0.0725016314,6.54676634 0.155885483,6.93487059 C2.56666936,7.14519056 4.57132319,8.85486337 5.305222,11.1654296 C5.66438178,11.1602975 6.01442654,11.1170134 6.35270548,11.039838 L7.09678893,10.8019208 C7.35489288,10.6986491 7.60416084,10.577076 7.84087239,10.4340545 L8.58495584,9.89411708 C8.85905758,9.65392432 9.10720941,9.38289044 9.32903929,9.0895851 L10.0731227,7.74869848 C10.3107179,7.12853538 10.4451645,6.4542914 10.4451645,5.74659182 Z M5.2365803,9.93101022 L2.55704278,5.74659182 L5.2365803,1.56275441 L7.9158853,5.74697915 L5.2365803,9.93101022 Z" id="Fill-17"></path>
                            </g>
                            <polygon id="Fill-19" points="16.7233686 8.03731375 17.672354 6.55514866 16.7233686 6.88481455"></polygon>
                        </g>
                    </g>
                </g>
            </g>
        </g>
    </g>
</svg>