<?xml version="1.0" encoding="UTF-8"?>
<svg width="48px" height="48px" viewBox="0 0 48 48" version="1.1" xmlns="http://www.w3.org/2000/svg" xmlns:xlink="http://www.w3.org/1999/xlink">
    <!-- Generator: sketchtool 53.2 (72643) - https://sketchapp.com -->
    <title>2C8C3266-D8F3-4121-9E8B-B79BD1C60EC3@3x</title>
    <desc>Created with sketchtool.</desc>
    <g id="Main-page-final" stroke="none" stroke-width="1" fill="none" fill-rule="evenodd">
        <g id="Main-Page-" transform="translate(-696.000000, -7637.000000)" fill="#E67C70" fill-rule="nonzero">
            <g id="accepterd-currencies" transform="translate(240.000000, 7571.000000)">
                <path d="M480,114 C466.745166,114 456,103.254834 456,90 C456,76.745166 466.745166,66 480,66 C493.254834,66 504,76.745166 504,90 C504,103.254834 493.254834,114 480,114 Z M479.985972,95.5004023 L471,91.1991875 L479.985972,107 L488.972199,91.1991875 L479.985972,95.5004023 Z M487.993601,87.9938691 L479.985972,74 L471.969374,88.0099824 L479.985972,84.1835938 L487.993601,87.9938691 Z M472.664199,89.825498 L479.985972,93.3150547 L487.319979,89.8196973 L479.985972,86.3304629 L472.664199,89.825498 Z" id="ethereum-logo"></path>
            </g>
        </g>
    </g>
</svg>