<?xml version="1.0" encoding="UTF-8"?>
<svg width="18px" height="16px" viewBox="0 0 18 16" version="1.1" xmlns="http://www.w3.org/2000/svg" xmlns:xlink="http://www.w3.org/1999/xlink">
    <!-- Generator: Sketch 55 (78076) - https://sketchapp.com -->
    <title>dashboard-icon-active</title>
    <desc>Created with Sketch.</desc>
    <g id="Symbols" stroke="none" stroke-width="1" fill="none" fill-rule="evenodd">
        <g id="dashboard-icon-active" fill="#E67C70">
            <g id="Group">
                <path d="M1,0 L17,0 C17.5522847,-1.01453063e-16 18,0.44771525 18,1 L18,7 C18,7.55228475 17.5522847,8 17,8 L1,8 C0.44771525,8 6.76353751e-17,7.55228475 0,7 L0,1 C-6.76353751e-17,0.44771525 0.44771525,1.01453063e-16 1,0 Z M1,0.9 C0.944771525,0.9 0.9,0.944771525 0.9,1 L0.9,7 C0.9,7.05522847 0.944771525,7.1 1,7.1 L17,7.1 C17.0552285,7.1 17.1,7.05522847 17.1,7 L17.1,1 C17.1,0.944771525 17.0552285,0.9 17,0.9 L1,0.9 Z M9,10 L17,10 C17.5522847,10 18,10.4477153 18,11 L18,15 C18,15.5522847 17.5522847,16 17,16 L9,16 C8.44771525,16 8,15.5522847 8,15 L8,11 C8,10.4477153 8.44771525,10 9,10 Z M9,10.9 C8.94477153,10.9 8.9,10.9447715 8.9,11 L8.9,15 C8.9,15.0552285 8.94477153,15.1 9,15.1 L17,15.1 C17.0552285,15.1 17.1,15.0552285 17.1,15 L17.1,11 C17.1,10.9447715 17.0552285,10.9 17,10.9 L9,10.9 Z M3,16 C1.34314575,16 0,14.6568542 0,13 C0,11.3431458 1.34314575,10 3,10 C4.65685425,10 6,11.3431458 6,13 C6,14.6568542 4.65685425,16 3,16 Z M3,15.1 C4.15979797,15.1 5.1,14.159798 5.1,13 C5.1,11.840202 4.15979797,10.9 3,10.9 C1.84020203,10.9 0.9,11.840202 0.9,13 C0.9,14.159798 1.84020203,15.1 3,15.1 Z" id="Combined-Shape"></path>
            </g>
        </g>
    </g>
</svg>