<?xml version="1.0" encoding="UTF-8"?>
<svg width="12px" height="11px" viewBox="0 0 12 11" version="1.1" xmlns="http://www.w3.org/2000/svg" xmlns:xlink="http://www.w3.org/1999/xlink">
    <!-- Generator: sketchtool 53 (72520) - https://sketchapp.com -->
    <title>44DB9341-EFA2-43D1-BECE-F46AE29E1AA1</title>
    <desc>Created with sketchtool.</desc>
    <g id="Desktop" stroke="none" stroke-width="1" fill="none" fill-rule="evenodd">
        <g id="Download-Whitepaper---modal-" transform="translate(-976.000000, -406.000000)" fill="#807777" stroke="#807777" stroke-width="0.5">
            <g id="Group-2" transform="translate(420.000000, 287.000000)">
                <g id="Group" transform="translate(0.000000, 93.000000)">
                    <g id="Group-4" transform="translate(486.000000, 24.000000)">
                        <g id="download-icon_red" transform="translate(71.000000, 2.000000)">
                            <path d="M9.71347169,5.04431466 C9.55430403,5.04431466 9.42694337,5.17720328 9.42694337,5.34327945 L9.42694337,8.06244464 C9.42694337,8.80200952 8.84977491,9.40220881 8.14304398,9.40220881 L1.85695602,9.40220881 C1.14815591,9.40220881 0.573056629,8.79985053 0.573056629,8.06244464 L0.573056629,5.29896479 C0.573056629,5.13288862 0.445695974,5 0.286528315,5 C0.127360655,5 0,5.13288862 0,5.29896479 L0,8.06244464 C0,9.13200288 0.834065062,10 1.85695602,10 L8.14304398,10 C9.16811023,10 10,9.12984389 10,8.06244464 L10,5.34327945 C10,5.17936227 9.87263934,5.04431466 9.71347169,5.04431466 Z" id="Fill-1"></path>
                            <path d="M4.80966404,6.91606853 C4.8620681,6.97058857 4.93256942,7 5.00098163,7 C5.06941901,7 5.13992034,6.97273998 5.19222371,6.91606853 L6.91992147,5.11514949 C7.02669284,5.00385306 7.02669284,4.82552164 6.91992147,4.71422521 C6.81322561,4.60300748 6.64206923,4.60300748 6.53537337,4.71422521 L5.2728434,6.03241367 L5.2728434,0.283383496 C5.2728434,0.125962796 5.15200196,0 5.00098163,0 C4.8499613,0 4.72914504,0.125962796 4.72914504,0.283383496 L4.72914504,6.03241367 L3.46462663,4.71422521 C3.35785526,4.60300748 3.18667371,4.60300748 3.08000302,4.71422521 C2.97333233,4.82552164 2.97333233,5.00385306 3.08000302,5.11514949 L4.80966404,6.91606853 Z" id="Fill-2"></path>
                        </g>
                    </g>
                </g>
            </g>
        </g>
    </g>
</svg>