<?xml version="1.0" encoding="UTF-8"?>
<svg width="16px" height="16px" viewBox="0 0 16 16" version="1.1" xmlns="http://www.w3.org/2000/svg" xmlns:xlink="http://www.w3.org/1999/xlink">
    <!-- Generator: sketchtool 53.2 (72643) - https://sketchapp.com -->
    <title>F67EB6CA-687E-42C1-B52D-9D8BE389BB98</title>
    <desc>Created with sketchtool.</desc>
    <defs>
        <polygon id="path-1" points="0 0.0397268293 15.7199128 0.0397268293 15.7199128 12.1904249 0 12.1904249"></polygon>
        <polygon id="path-3" points="0.0201061224 0.0777365854 13.0710371 0.0777365854 13.0710371 8.50731707 0.0201061224 8.50731707"></polygon>
    </defs>
    <g id="Page-1" stroke="none" stroke-width="1" fill="none" fill-rule="evenodd">
        <g id="MVP-Dashboard-1440px" transform="translate(-1006.000000, -3782.000000)">
            <g id="Group-28" transform="translate(290.000000, 3318.000000)">
                <g id="Group-32">
                    <g id="winner-cell-copy-18" transform="translate(0.000000, 448.000000)">
                        <g id="Group-32" transform="translate(716.000000, 16.000000)">
                            <g id="etherscan-icon">
                                <g id="Group-3" transform="translate(0.000000, 0.038322)">
                                    <mask id="mask-2" fill="white">
                                        <use xlink:href="#path-1"></use>
                                    </mask>
                                    <g id="Clip-2"></g>
                                    <path d="M12.6436653,8.6815922 C12.6436653,8.28510439 12.6421143,7.88900683 12.6439918,7.49290927 C12.6486449,6.51737756 12.6431755,5.54168976 12.6648898,4.5663922 C12.6776245,3.9967922 12.3969714,3.61677268 11.7130531,3.60662634 C11.454849,3.60280195 11.195502,3.59749463 10.9385224,3.6158361 C10.3951755,3.65462634 10.1181143,3.92116293 10.114849,4.4409678 C10.1084816,5.49415805 10.1249714,6.54750439 10.1279918,7.60085073 C10.1298694,8.26387512 10.1269306,8.92705561 10.1215429,9.59008 C10.1166449,10.1834068 9.87762449,10.3832117 9.22954286,10.3449678 C9.14350204,10.2744898 9.1686449,10.1779434 9.16823673,10.0898263 C9.16301224,9.11429463 9.15452245,8.13868488 9.15893061,7.16307512 C9.16056327,6.79968 9.19542041,6.43644098 9.21142041,6.0729678 C9.21770612,5.93029463 9.20856327,5.78988488 9.16660408,5.64885073 C9.06529796,5.30894829 8.88456327,5.12803122 8.51680816,5.10859707 C8.11035918,5.08713366 7.69917551,5.08565073 7.29403265,5.11944585 C6.86203265,5.15542634 6.64611429,5.39651902 6.62431837,5.81767024 C6.61027755,6.08951415 6.61223673,6.36393366 6.63329796,6.63530927 C6.7048898,7.55768976 6.68742041,8.47874341 6.63435918,9.40120195 C6.61207347,9.78988488 6.61076735,10.1796605 6.64350204,10.5703727 C6.68905306,11.1139824 6.45395102,11.4528702 5.9279102,11.6593093 C5.84497143,11.5896898 5.88031837,11.4947044 5.88056327,11.4118946 C5.88374694,10.2289093 5.84905306,9.04600195 5.89607347,7.86293854 C5.92701224,7.08502634 5.65795102,6.82293854 4.85150204,6.81614829 C4.52635918,6.81333854 4.19966531,6.80514341 3.88023673,6.88967024 C3.54880816,6.97747512 3.37084898,7.16424585 3.34970612,7.49548488 C3.33656327,7.70215805 3.35909388,7.91070439 3.35901224,8.1183922 C3.35868571,9.22356293 3.35893061,10.3288117 3.35313469,11.4340605 C3.35093061,11.8541971 3.19599184,12.0386263 2.77803265,12.1034068 C2.48382857,12.1489093 2.18497143,12.1750556 1.88709388,12.1888702 C1.37468571,12.2125971 1.0319102,11.9635434 0.846522449,11.5242068 C0.465379592,10.6211044 0.175502041,9.69770927 0.0572979592,8.72085073 C-0.0879265306,7.52085073 0.0374612245,6.35651902 0.495828571,5.24120195 C1.34652245,3.17134829 2.72905306,1.54059707 4.90121633,0.618997073 C6.09068571,0.114411707 7.34056327,-0.0377053659 8.63966531,0.0747629268 C9.67868571,0.164675122 10.6750939,0.38430439 11.6096245,0.821299512 C13.1658694,1.54894829 14.2888082,2.70461659 15.1015429,4.14844098 C15.3380327,4.56849951 15.5858694,4.98535805 15.6902776,5.46340683 C15.7816245,5.88135805 15.6581143,6.22922146 15.3706041,6.53813854 C15.107502,6.82083122 14.7867673,7.0425678 14.4901959,7.2891239 C13.957298,7.73205073 13.4106041,8.15968 12.8690531,8.59308488 C12.8185224,8.63351415 12.7731347,8.68643122 12.6436653,8.6815922" id="Fill-1" fill="#FFFFFF" mask="url(#mask-2)"></path>
                                </g>
                                <g id="Group-6" transform="translate(2.857143, 7.452956)">
                                    <mask id="mask-4" fill="white">
                                        <use xlink:href="#path-3"></use>
                                    </mask>
                                    <g id="Clip-5"></g>
                                    <path d="M0.0201061224,6.41436098 C2.6025551,6.21541463 4.98998367,5.63137561 7.21169796,4.52971707 C9.42410612,3.43258537 11.3027184,1.92156098 12.9222286,0.0777365854 C13.0480245,0.322419512 13.0505551,0.536273171 13.0614122,0.752234146 C13.1114531,1.74501463 12.9657388,2.71281951 12.6389633,3.65237073 C12.4565143,4.17701463 12.1691673,4.65966829 11.8471265,5.11703415 C11.0939837,6.18700488 10.1060653,7.01080976 8.91716735,7.61756098 C7.9788,8.09646829 6.98222857,8.36105366 5.92239184,8.47469268 C5.20933061,8.55118049 4.52092245,8.48382439 3.82965714,8.37002927 C2.95626939,8.22634146 2.15977959,7.88620488 1.41422857,7.43539512 C0.946881633,7.15278049 0.533820408,6.8028878 0.0201061224,6.41436098" id="Fill-4" fill="#FFFFFF" mask="url(#mask-4)"></path>
                                </g>
                            </g>
                        </g>
                    </g>
                </g>
            </g>
        </g>
    </g>
</svg>
