<?xml version="1.0" encoding="UTF-8"?>
<svg width="19px" height="19px" viewBox="0 0 19 19" version="1.1" xmlns="http://www.w3.org/2000/svg" xmlns:xlink="http://www.w3.org/1999/xlink">
    <!-- Generator: sketchtool 53.2 (72643) - https://sketchapp.com -->
    <title>B7F2EC8E-03EB-4A57-8C69-90CE0839CD3C</title>
    <desc>Created with sketchtool.</desc>
    <g id="Page-1" stroke="none" stroke-width="1" fill="none" fill-rule="evenodd">
        <g id="MVP-Dashboard-1440px" transform="translate(-702.000000, -30.000000)" fill="#E67C70">
            <g id="Main-menu-">
                <g id="Group-7" transform="translate(696.000000, 24.000000)">
                    <g id="Group-11">
                        <g id="dashboard">
                            <path d="M9.16672615,14.2332344 C9.86523667,14.2332344 10.4333177,14.8017005 10.4333177,15.5 C10.4333177,16.1984974 9.86523667,16.7667656 9.16672615,16.7667656 C8.46821564,16.7667656 7.89993673,16.1984974 7.89993673,15.5 C7.89993673,14.8017005 8.46801772,14.2332344 9.16672615,14.2332344 Z M9.16672615,16.1333828 C9.51561031,16.1333828 9.80012087,15.8496198 9.80012087,15.5 C9.80012087,15.1507266 9.51561031,14.8666172 9.16672615,14.8666172 C8.81744616,14.8666172 8.53333144,15.1507266 8.53333144,15.5 C8.53333144,15.8496198 8.81744616,16.1333828 9.16672615,16.1333828 Z M18.8429548,19.3085599 C18.990257,19.3085599 19.135778,19.3342396 19.2757572,19.3851042 C19.9319128,19.6239896 20.2715441,20.352224 20.0326048,21.0084167 C19.8515076,21.5070677 19.3729361,21.8422396 18.8426084,21.8422396 C18.6947124,21.8422396 18.5489935,21.8161146 18.4090638,21.7654974 C17.7530567,21.5264141 17.4134748,20.798526 17.6521668,20.1423333 C17.8340556,19.6432865 18.3124292,19.3085599 18.8429548,19.3085599 Z M19.4377056,20.7917474 C19.5569526,20.46375 19.3872359,20.0996328 19.0592818,19.9801901 C18.9889211,19.9548568 18.9164327,19.9418932 18.8429548,19.9418932 C18.577593,19.9418932 18.3381094,20.1094792 18.2472639,20.3590026 C18.127819,20.6866042 18.2975357,21.0509687 18.6257372,21.1705599 C18.9490896,21.2875286 19.3217242,21.1106901 19.4377056,20.7917474 Z M20.5753519,17.0812057 C20.4275054,17.0812057 20.2819844,17.0551302 20.1422032,17.0044635 C19.4860476,16.765776 19.1464162,16.0372943 19.3851577,15.381349 C19.5666507,14.8825 20.0449748,14.547526 20.5757478,14.547526 C20.7233964,14.547526 20.8689668,14.5732552 21.0086986,14.6238724 C21.6651016,14.8629557 22.0046835,15.5912396 21.7657936,16.2473828 C21.5846964,16.7460833 21.1061249,17.0812057 20.5753519,17.0812057 Z M19.9800569,15.5976224 C19.8608099,15.9259661 20.030675,16.289737 20.3588765,16.4091797 C20.6822289,16.5272865 21.054913,16.3496563 21.1708449,16.030763 C21.2901414,15.7027656 21.1204247,15.338401 20.7924211,15.2191563 C20.7220604,15.1938229 20.6495721,15.1807109 20.5757478,15.1807109 C20.310386,15.1807109 20.0711003,15.3482969 19.9800569,15.5976224 Z M18.6669046,17.0833333 C18.6669046,17.9563932 17.9565684,18.6666667 17.0835415,18.6666667 L7.58336308,18.6666667 C6.71028678,18.6666667 6,17.9563932 6,17.0833333 L6,7.58333333 C6,6.71066927 6.71028678,6 7.58336308,6 L17.0835415,6 C17.9565684,6 18.6669046,6.71066927 18.6669046,7.58333333 L18.6669046,17.0833333 Z M6.63339471,17.0833333 C6.63339471,17.6073177 7.05956678,18.0332839 7.58336308,18.0332839 L17.0835415,18.0332839 C17.6073378,18.0332839 18.0335099,17.6075156 18.0335099,17.0833333 L18.0335099,7.58333333 C18.0335099,7.05954687 17.6073378,6.63338281 17.0835415,6.63338281 L7.58336308,6.63338281 C7.05956678,6.63338281 6.63339471,7.05954687 6.63339471,7.58333333 L6.63339471,17.0833333 Z M9.16672615,7.89990104 C9.86523667,7.89990104 10.4333177,8.46836719 10.4333177,9.16666667 C10.4333177,9.86516406 9.86523667,10.4332344 9.16672615,10.4332344 C8.46821564,10.4332344 7.89993673,9.86516406 7.89993673,9.16666667 C7.89993673,8.46836719 8.46801772,7.89990104 9.16672615,7.89990104 Z M9.16672615,9.80004948 C9.51561031,9.80004948 9.80012087,9.51628646 9.80012087,9.16666667 C9.80012087,8.81739323 9.51561031,8.53328385 9.16672615,8.53328385 C8.81744616,8.53328385 8.53333144,8.81739323 8.53333144,9.16666667 C8.53333144,9.51628646 8.81744616,9.80004948 9.16672615,9.80004948 Z M23.9581577,13.0015 C24.7786366,13.3001068 25.2029284,14.210276 24.9044645,15.0307396 L21.6550571,23.9578698 C21.4213626,24.6001094 20.8123121,24.9996042 20.1654093,25 C19.986044,25 19.8039572,24.9688776 19.6257794,24.9043073 L10.6986794,21.6551094 C9.87820046,21.3563047 9.45356227,20.445987 9.75217465,19.6255234 L9.90041702,19.2186562 C9.96033742,19.0541875 10.1408408,18.9697266 10.3065002,19.02925 C10.4704277,19.0887734 10.5556325,19.2704609 10.4955141,19.4349297 L10.3472718,19.8421927 C10.1683023,20.3344609 10.4232237,20.8808594 10.9149569,21.0600234 L19.8422548,24.3094193 C20.3345323,24.4881875 20.8811389,24.2336667 21.0599105,23.7412005 L24.3093674,14.8140703 C24.4885348,14.3219505 24.2336134,13.77575 23.7414843,13.5965859 L19.1872373,11.9390339 C19.0229139,11.8793125 18.9378576,11.6974271 18.9981739,11.5331562 C19.0576984,11.3686875 19.2397852,11.2846224 19.4037127,11.34375 L23.9581577,13.0015 Z M14.6327429,19.1473568 C14.7170075,18.9940703 14.9094851,18.9384063 15.0631703,19.0228672 C15.2160638,19.1073281 15.2717289,19.2998516 15.1876622,19.4529401 C14.9576292,19.8690599 14.5314571,20.1100729 14.0826232,20.1100729 C13.9380918,20.1100729 13.7913833,20.0849375 13.6479405,20.032737 C13.3644196,19.9295234 13.126074,19.7236901 12.9762977,19.4534844 C12.8916373,19.3002474 12.9467086,19.107724 13.099998,19.0228672 C13.2530894,18.9386042 13.4459628,18.9936745 13.5304253,19.146763 C13.5839628,19.2435938 13.6852485,19.3725365 13.8646139,19.437849 C14.1593668,19.544526 14.4811854,19.4222135 14.6327429,19.1473568 Z M12.3334523,11.0665677 C13.0319628,11.0665677 13.6001923,11.6350339 13.6000438,12.3333333 C13.6000438,13.0318307 13.0319628,13.599901 12.3334523,13.599901 C11.6349418,13.599901 11.0666629,13.0318307 11.0666629,12.3333333 C11.0666629,11.6350339 11.6347439,11.0665677 12.3334523,11.0665677 Z M12.3334523,12.9667161 C12.6823365,12.9667161 12.966847,12.6829531 12.966847,12.3333333 C12.966847,11.9840599 12.6823365,11.6999505 12.3334523,11.6999505 C11.9841723,11.6999505 11.7000576,11.9840599 11.7000576,12.3333333 C11.7000576,12.6829531 11.9841723,12.9667161 12.3334523,12.9667161 Z M15.5001785,14.2332344 C16.198689,14.2332344 16.76677,14.8017005 16.76677,15.5 C16.76677,16.1984974 16.198689,16.7667656 15.5001785,16.7667656 C14.8016679,16.7667656 14.233389,16.1984974 14.233389,15.5 C14.233389,14.8017005 14.8016679,14.2332344 15.5001785,14.2332344 Z M15.5001785,16.1333828 C15.8490626,16.1333828 16.1335732,15.8496198 16.1335732,15.5 C16.1335732,15.1507266 15.8492605,14.8666172 15.5001785,14.8666172 C15.1508985,14.8666172 14.8667838,15.1507266 14.8667838,15.5 C14.8667838,15.8496198 15.1508985,16.1333828 15.5001785,16.1333828 Z M15.5001785,7.89990104 C16.198689,7.89990104 16.76677,8.46836719 16.76677,9.16666667 C16.76677,9.86516406 16.198689,10.4332344 15.5001785,10.4332344 C14.8016679,10.4332344 14.233389,9.86516406 14.233389,9.16666667 C14.233389,8.46836719 14.8016679,7.89990104 15.5001785,7.89990104 Z M15.5001785,9.80004948 C15.8490626,9.80004948 16.1335732,9.51628646 16.1335732,9.16666667 C16.1335732,8.81739323 15.8492605,8.53328385 15.5001785,8.53328385 C15.1508985,8.53328385 14.8667838,8.81739323 14.8667838,9.16666667 C14.8667838,9.51628646 15.1508985,9.80004948 15.5001785,9.80004948 Z" id="dashboard-icon"></path>
                        </g>
                    </g>
                </g>
            </g>
        </g>
    </g>
</svg>
