<?xml version="1.0" encoding="UTF-8"?>
<svg width="14px" height="18px" viewBox="0 0 14 18" version="1.1" xmlns="http://www.w3.org/2000/svg" xmlns:xlink="http://www.w3.org/1999/xlink">
    <!-- Generator: sketchtool 53.2 (72643) - https://sketchapp.com -->
    <title>5A44E764-BAD4-4F82-8863-CE95A18784FB</title>
    <desc>Created with sketchtool.</desc>
    <g id="Page-1" stroke="none" stroke-width="1" fill="none" fill-rule="evenodd">
        <g id="MVP-Dashboard-1440px" transform="translate(-847.000000, -31.000000)" fill="#E67C70">
            <g id="Main-menu-">
                <g id="Group-7" transform="translate(696.000000, 24.000000)">
                    <g id="Group" transform="translate(141.000000, 0.000000)">
                        <g id="dashboard-copy">
                            <path d="M23.6956522,7 C23.8637283,7 24,7.134325 24,7.3 L24,21.1 C24,21.265675 23.8637283,21.4 23.6956522,21.4 L23.3913043,21.4 L23.3913043,24.7 C23.3913043,24.865675 23.2550326,25 23.0869565,25 L12.1304348,25 C10.9545109,24.9985375 10.0014837,24.059125 10,22.9 L10,9.1 C10.0013315,7.940725 10.9543587,7.0013125 12.1304348,7 L23.6956522,7 Z M22.7826087,22.6 L22.7826087,21.4 L12.1304348,21.4 C11.2903587,21.4010125 10.6097228,22.071925 10.6086957,22.9 C10.6101793,23.727775 11.290663,24.3985375 12.1304348,24.4 L22.7826087,24.4 L22.7826087,23.2 L12.1304348,23.2 L12.1304348,22.6 L22.7826087,22.6 Z M23.3913043,20.8 L23.3913043,7.6 L13.0422989,7.6 L13.0422989,19.9 L12.4336033,19.9 L12.4336033,7.6 L12.1292554,7.6 C11.2891793,7.6010125 10.6085435,8.271925 10.6075163,9.1 L10.6075163,21.4303375 C10.6101793,21.427525 10.6136033,21.4252 10.6162663,21.422275 C10.6400435,21.3985375 10.6647337,21.377425 10.6905652,21.3544375 C10.7164348,21.3313 10.7416957,21.307 10.7681359,21.285175 C10.7946141,21.2632 10.8229946,21.2431 10.8503478,21.2233375 C10.877663,21.203575 10.9020489,21.1827625 10.9325217,21.1633 C10.9629565,21.1438 10.9952174,21.1252 11.02375,21.1080625 C11.0524348,21.091075 11.0776957,21.0742 11.1096522,21.0568 C11.1416087,21.0393625 11.1793478,21.0235375 11.2075761,21.009475 C11.2359565,20.9952625 11.2624348,20.9815 11.2969022,20.9671375 C11.3312174,20.952625 11.3672065,20.941075 11.4023967,20.928475 C11.4328696,20.9173375 11.4633424,20.9050375 11.4938152,20.8953625 C11.5327337,20.883925 11.5728696,20.8753 11.6123967,20.865325 C11.6413859,20.8581625 11.6683967,20.8495 11.6988696,20.8435 C11.7453967,20.833825 11.7932554,20.828275 11.840962,20.821525 C11.8647391,20.8186 11.8876033,20.8134625 11.9112283,20.8111375 C11.9840435,20.803825 12.0573152,20.8 12.1304348,20.8 L23.3913043,20.8 Z M16.6956522,15.8359375 C15.6924076,15.17515 15.2460054,13.9452625 15.5962717,12.8072125 C15.9463859,11.66905 17.0108424,10.890925 18.2173913,10.890925 C19.4239402,10.890925 20.4883967,11.66905 20.8385109,12.8072125 C21.1887772,13.9452625 20.742375,15.17515 19.7391304,15.8359375 L19.7391304,16.9 C19.7391304,17.728375 19.0577717,18.4 18.2173913,18.4 C17.3770109,18.4 16.6956522,17.728375 16.6956522,16.9 L16.6956522,15.8359375 Z M17.5174674,16.210075 C17.4997772,16.2052375 17.483875,16.1992 17.4675163,16.1946625 C17.4126957,16.1794375 17.357837,16.1643625 17.3043478,16.1454625 L17.3043478,16.6 L19.1307391,16.6 L19.1307391,16.1454625 C19.0784293,16.1637625 19.024788,16.178875 18.9712609,16.1938 C18.953,16.1989375 18.9356141,16.2052375 18.9173152,16.210075 C18.8235761,16.233775 18.7286196,16.252825 18.6329022,16.2667375 C18.5935272,16.2727375 18.554,16.2771625 18.5144728,16.2814 C18.4426848,16.2888625 18.3704402,16.2934 18.2980815,16.2954625 C18.2716413,16.2960625 18.2450489,16.3006 18.2185707,16.3006 C18.1921304,16.3006 18.1659565,16.2954625 18.1395163,16.2954625 C18.0667011,16.2934 17.9946467,16.2888625 17.9224022,16.2814 C17.882875,16.2771625 17.8439565,16.2727375 17.805,16.2670375 C17.7081033,16.252975 17.6121196,16.233925 17.5174674,16.210075 Z M18.2173913,17.8 C18.6028859,17.7983875 18.9458478,17.5583125 19.0743967,17.2 L17.3603859,17.2 C17.4889348,17.5583125 17.8318967,17.7983875 18.2173913,17.8 Z M18.2173913,11.5 C17.2542826,11.5003 16.4112011,12.1381 16.1618641,13.0552375 C15.9124891,13.972375 16.3189457,14.940175 17.1527826,15.415225 C17.3135543,15.5084125 17.4866902,15.5789875 17.6670924,15.6253 C18.2117609,15.7664875 18.7907065,15.6919375 19.28025,15.4177375 C20.1137826,14.9422375 20.5202011,13.9747 20.2714348,13.0575625 C20.0226685,12.140425 19.1805,11.5017625 18.2173913,11.5 Z M17.8232989,14.1121 C17.7027772,14.2241875 17.5146141,14.2241875 17.3940924,14.1121 L16.7853967,13.5121 L17.2157826,13.0879 L17.6086957,13.4755 L18.000125,13.0876 C18.1188587,12.9705625 18.311625,12.9705625 18.4305109,13.0876 L18.826087,13.4758 L19.219913,13.0876 L19.6502609,13.5124 L19.0415652,14.1124 C18.9226793,14.2294375 18.7301033,14.2294375 18.6112174,14.1124 L18.2173913,13.7242 L17.8232989,14.1121 Z M17.9130435,10.3 L17.9130435,9.1 L18.5217391,9.1 L18.5217391,10.3 L17.9130435,10.3 Z M14.7741522,10.6301875 L15.2046902,10.20595 L16.0654239,11.0543875 L15.635038,11.478775 L14.7741522,10.6301875 Z M13.6521739,13.9 L13.6521739,13.3 L14.8695652,13.3 L14.8695652,13.9 L13.6521739,13.9 Z M14.774,16.5698125 L15.6348859,15.721225 L16.0652717,16.1454625 L15.2043859,16.99405 L14.774,16.5698125 Z M20.3695109,16.1459125 L20.7998967,15.721675 L21.6607826,16.5701125 L21.2303967,16.9945 L20.3695109,16.1459125 Z M21.5652174,13.9 L21.5652174,13.3 L22.7826087,13.3 L22.7826087,13.9 L21.5652174,13.9 Z M20.369663,11.0543875 L21.2305489,10.2058 L21.6609348,10.6301875 L20.8000489,11.478625 L20.369663,11.0543875 Z" id="instrucionts-icon"></path>
                        </g>
                    </g>
                </g>
            </g>
        </g>
    </g>
</svg>
