<?xml version="1.0" encoding="UTF-8"?>
<svg width="18px" height="22px" viewBox="0 0 18 22" version="1.1" xmlns="http://www.w3.org/2000/svg" xmlns:xlink="http://www.w3.org/1999/xlink">
    <!-- Generator: sketchtool 54.1 (76490) - https://sketchapp.com -->
    <title>00E88E9D-D70E-4DDD-AFB1-AB64C58EF862</title>
    <desc>Created with sketchtool.</desc>
    <g id="Leaderboard" stroke="none" stroke-width="1" fill="none" fill-rule="evenodd">
        <g id="Leaderboard-v3-(sort-by-daily)" transform="translate(-1221.000000, -29.000000)" fill="#E67C70">
            <g id="Main-menu-">
                <g id="Group-7" transform="translate(472.000000, 24.000000)">
                    <g id="Group-15" transform="translate(742.000000, 0.000000)">
                        <g id="dashboard-copy">
                            <path d="M24.9396439,23.3068568 C25.0233138,23.437203 25.0233138,23.610998 24.9187264,23.7413442 C24.8559739,23.8716904 24.7095514,23.9585879 24.563129,23.9585879 L21.2163298,23.9585879 L19.6893527,26.7827563 C19.6266002,26.9131025 19.4801777,27 19.3337552,27 C19.1873328,27 19.0618278,26.9131025 18.9781578,26.7827563 L15.9869561,21.4168364 L12.9957543,26.7175832 C12.9330018,26.8479294 12.7865794,26.9348269 12.6401569,26.9348269 C12.4937344,26.9348269 12.3682295,26.8479294 12.2845595,26.7175832 L10.7575824,23.9585879 L7.41078319,23.9585879 C7.26436072,23.9585879 7.13885575,23.8716904 7.05518577,23.7413442 C6.99243329,23.610998 6.97151579,23.437203 7.05518577,23.3068568 L10.1718925,17.5716225 C9.81629509,17.4195519 9.58620265,17.0502376 9.62803764,16.6591989 L9.89996507,14.6388323 L8.5821629,13.161575 C8.28931797,12.7922607 8.31023546,12.2708758 8.60308039,11.9667346 L9.92088257,10.532926 L9.69079012,8.53428377 C9.64895513,8.05634759 9.94180006,7.64358452 10.3810675,7.55668703 L12.2845595,7.20909708 L13.2258468,5.44942295 C13.3304342,5.2539036 13.4977742,5.10183299 13.7069491,5.03665988 C13.9161241,4.97148676 14.1462165,4.99321113 14.334474,5.10183299 L16.0497086,5.97080788 L17.8067781,5.12355737 L17.8276956,5.12355737 C18.2460455,4.94976239 18.7062304,5.12355737 18.8944879,5.53632043 L19.8148576,7.29599457 L21.7183497,7.68703327 C22.1366996,7.77393075 22.4295445,8.20841819 22.3877095,8.64290563 L22.1157821,10.6632722 L23.4335842,12.1405295 C23.7264292,12.5098439 23.7055117,13.0312288 23.4126667,13.33537 L22.0948646,14.7691785 L22.324957,16.7678208 C22.3458745,17.1588595 22.157617,17.5064494 21.8438546,17.65852 L24.9396439,23.3068568 Z M12.6610744,25.6313646 L15.4849362,20.5261371 L15.0665863,19.7657841 L14.208969,20.1785472 L14.1880515,20.1785472 C13.7697016,20.3523422 13.3095167,20.1785472 13.1212593,19.7657841 L12.2008895,18.00611 L11.0085923,17.7888663 L8.12197801,23.089613 L11.0085923,23.089613 C11.1550148,23.089613 11.2805197,23.1765105 11.3641897,23.3068568 L12.6610744,25.6313646 Z M13.8742891,19.3964698 L15.6104412,18.5492193 C15.8405336,18.418873 16.1333785,18.418873 16.363471,18.5492193 L18.0787056,19.4181942 L19.0199928,17.65852 C19.1454978,17.4195519 19.3755902,17.2674813 19.6056827,17.2240326 L21.4882572,16.898167 L21.2581648,14.8995248 C21.2163298,14.6388323 21.2999998,14.3781399 21.4882572,14.1826205 L22.8269769,12.7488119 L21.5091747,11.2715547 C21.3418347,11.0977597 21.2581648,10.8153428 21.2999998,10.5546504 L21.5719272,8.55600815 L19.6684352,8.16496945 C19.4383427,8.14324508 19.2291678,7.9694501 19.1036628,7.75220638 L18.183293,5.9490835 C18.183293,5.9490835 18.183293,5.9490835 18.1623755,5.9490835 L16.4262235,6.77460964 C16.196131,6.90495587 15.9032861,6.90495587 15.6731936,6.77460964 L13.9579591,5.90563476 L13.0166718,7.66530889 C12.8911668,7.90427699 12.6610744,8.05634759 12.4309819,8.09979633 L10.5274899,8.44738629 C10.5065724,8.46911066 10.5065724,8.49083503 10.5065724,8.49083503 L10.7366649,10.4677529 C10.7784999,10.7284453 10.6948299,10.9891378 10.5065724,11.1846572 L9.18877025,12.6184657 L10.4856549,14.095723 C10.6529949,14.269518 10.7366649,14.5519348 10.6948299,14.8126273 L10.4229024,16.8112695 L12.347312,17.1805838 C12.5983219,17.2023082 12.8074969,17.3761032 12.9330018,17.5933469 L13.8533716,19.3964698 C13.8533716,19.3964698 13.8533716,19.3964698 13.8742891,19.3964698 Z M20.9862373,23.089613 L23.8728516,23.089613 L21.0071548,17.8540394 L19.7521051,18.0930075 L18.8108179,19.8526816 C18.6643954,20.1350984 18.3715505,20.287169 18.0787056,20.287169 C17.9532006,20.287169 17.8276956,20.2654447 17.7021906,20.2002716 L15.9869561,19.3312967 L15.8405336,19.3964698 L16.3007185,20.2437203 C16.3425535,20.287169 16.363471,20.3306178 16.3843885,20.3957909 L19.3337552,25.6965377 L20.6306399,23.3068568 C20.6933924,23.1765105 20.8398149,23.089613 20.9862373,23.089613 Z M20.170455,12.6619145 C20.170455,15.0515954 18.2878805,17.0067889 15.9869561,17.0067889 C13.6860316,17.0067889 11.8034571,15.0515954 11.8034571,12.6619145 C11.8034571,10.2722335 13.6860316,8.31704005 15.9869561,8.31704005 C18.2878805,8.31704005 20.170455,10.2722335 20.170455,12.6619145 Z M15.9869561,16.137814 C17.8276956,16.137814 19.3337552,14.5736592 19.3337552,12.6619145 C19.3337552,10.7501697 17.8276956,9.18601494 15.9869561,9.18601494 C14.1462165,9.18601494 12.6401569,10.7501697 12.6401569,12.6619145 C12.6401569,14.5736592 14.1462165,16.137814 15.9869561,16.137814 Z" id="Combined-Shape"></path>
                        </g>
                    </g>
                </g>
            </g>
        </g>
    </g>
</svg>