<?xml version="1.0" encoding="UTF-8"?>
<svg width="12px" height="13px" viewBox="0 0 12 13" version="1.1" xmlns="http://www.w3.org/2000/svg" xmlns:xlink="http://www.w3.org/1999/xlink">
    <!-- Generator: sketchtool 53.2 (72643) - https://sketchapp.com -->
    <title>4CEA3C07-26D1-49C5-BA9C-B24F5EEEDA03</title>
    <desc>Created with sketchtool.</desc>
    <g id="Main-page-DESKTOP" stroke="none" stroke-width="1" fill="none" fill-rule="evenodd">
        <g id="Team" transform="translate(-324.000000, -1122.000000)" fill="#FFFFFF">
            <g id="Group-6" transform="translate(220.000000, 719.000000)">
                <g id="Group-47" transform="translate(94.000000, 394.000000)">
                    <path d="M13.017503,13.6658955 L13.017503,21.3797321 L10.5425002,21.3797321 L10.5425002,13.6658955 L13.017503,13.6658955 Z M13.1750031,11.2840247 C13.1825032,12.0234944 12.6425025,12.6150701 11.7800016,12.6150701 L11.7650015,12.6150701 C10.9325006,12.6150701 10.4,12.0234944 10.4,11.2840247 C10.4,10.5289872 10.9550006,9.95297922 11.7950016,9.95297922 C12.6425025,9.95297922 13.1675031,10.5289872 13.1750031,11.2840247 Z M16.8500073,14.7622969 C17.1755977,14.2340541 17.7629489,13.486866 19.0775098,13.486866 C20.7050117,13.486866 21.920013,14.5921786 21.920013,16.9584817 L21.920013,21.3797321 L19.4525103,21.3797321 L19.4525103,17.2542695 C19.4525103,16.219012 19.0925098,15.5106778 18.2000088,15.5106778 C17.5175081,15.5106778 17.1125076,15.9854952 16.9325074,16.4447448 C16.8725073,16.6159904 16.8500073,16.8417233 16.8500073,17.07524 L16.8500073,21.3797321 L14.3825045,21.3797321 C14.4125045,14.3897974 14.3825045,13.6658955 14.3825045,13.6658955 L16.8500073,13.6658955 L16.8500073,14.7622969 L16.8500073,14.7622969 Z" id="linkedin---FontAwesome"></path>
                </g>
            </g>
        </g>
    </g>
</svg>