<?xml version="1.0" encoding="UTF-8"?>
<svg width="11px" height="14px" viewBox="0 0 11 14" version="1.1" xmlns="http://www.w3.org/2000/svg" xmlns:xlink="http://www.w3.org/1999/xlink">
    <!-- Generator: Sketch 55.1 (78136) - https://sketchapp.com -->
    <title>lock_pink-icon</title>
    <desc>Created with Sketch.</desc>
    <g id="*New-affiliate" stroke="none" stroke-width="1" fill="none" fill-rule="evenodd">
        <path d="M7.408,4.688 L7.408,3.344 C7.408,2.98133152 7.3146676,2.6400016 7.128,2.32 C6.9413324,1.9999984 6.6880016,1.7466676 6.368,1.56 C6.0479984,1.3733324 5.70666848,1.28 5.344,1.28 C4.98133152,1.28 4.6400016,1.3733324 4.32,1.56 C3.9999984,1.7466676 3.7466676,1.9999984 3.56,2.32 C3.3733324,2.6400016 3.28,2.98133152 3.28,3.344 L3.28,4.688 L7.408,4.688 Z M5.344,10.688 C5.70666848,10.688 6.021332,10.554668 6.288,10.288 C6.554668,10.021332 6.688,9.70666848 6.688,9.344 C6.688,8.98133152 6.554668,8.666668 6.288,8.4 C6.021332,8.133332 5.70666848,8 5.344,8 C4.98133152,8 4.666668,8.133332 4.4,8.4 C4.133332,8.666668 4,8.98133152 4,9.344 C4,9.70666848 4.133332,10.021332 4.4,10.288 C4.666668,10.554668 4.98133152,10.688 5.344,10.688 Z M9.344,4.688 C9.70666848,4.688 10.021332,4.81599872 10.288,5.072 C10.554668,5.32800128 10.688,5.63733152 10.688,6 L10.688,12.688 C10.688,13.0506685 10.554668,13.3599987 10.288,13.616 C10.021332,13.8720013 9.70666848,14 9.344,14 L1.344,14 C0.98133152,14 0.666668,13.8720013 0.4,13.616 C0.133332,13.3599987 0,13.0506685 0,12.688 L0,6 C0,5.63733152 0.133332,5.32800128 0.4,5.072 C0.666668,4.81599872 0.98133152,4.688 1.344,4.688 L2,4.688 L2,3.344 C2,2.73599696 2.14933184,2.17600256 2.448,1.664 C2.74666816,1.15199744 3.15199744,0.74666816 3.664,0.448 C4.17600256,0.14933184 4.73599696,0 5.344,0 C5.95200304,0 6.51199744,0.14933184 7.024,0.448 C7.53600256,0.74666816 7.94133184,1.15199744 8.24,1.664 C8.53866816,2.17600256 8.688,2.73599696 8.688,3.344 L8.688,4.688 L9.344,4.688 Z" id="lock_pink-icon" fill="#FFFFFF" fill-rule="nonzero"></path>
    </g>
</svg>