<?xml version="1.0" encoding="UTF-8"?>
<svg width="24px" height="22px" viewBox="0 0 24 22" version="1.1" xmlns="http://www.w3.org/2000/svg" xmlns:xlink="http://www.w3.org/1999/xlink">
    <!-- Generator: sketchtool 53.2 (72643) - https://sketchapp.com -->
    <title>2B7EADD1-BD79-4C09-B4AC-D672F0390F92@3x</title>
    <desc>Created with sketchtool.</desc>
    <g id="Main-page-final" stroke="none" stroke-width="1" fill="none" fill-rule="evenodd">
        <g id="Loteo-Main-Page-(Mobile)" transform="translate(-256.000000, -114.000000)" fill="#FFFFFF" fill-rule="nonzero">
            <path d="M272.708734,124.422696 C273.105109,124.703967 273.105437,125.296457 272.708687,125.577351 L270.140828,127.395981 C269.679016,127.722929 269.032562,127.39372 269.032562,126.818653 L269.032562,125.706379 L256.703125,125.706379 C256.314813,125.706379 256,125.39012 256,125.000024 C256,124.609927 256.314813,124.293668 256.703125,124.293668 L269.032562,124.293668 L269.032562,123.181347 C269.032562,122.610047 269.675594,122.274528 270.140875,122.604019 L272.708734,124.422696 Z M269.050281,114 C275.102734,114 280,118.920235 280,125.000024 C280,131.080236 275.102219,136.000047 269.050281,136 C265.012797,136 261.465203,133.799091 259.565875,130.500553 C259.371391,130.162868 259.486281,129.730767 259.822422,129.535437 C260.158609,129.3402 260.588687,129.455524 260.783125,129.793209 C262.433734,132.65974 265.519797,134.587337 269.050281,134.587337 C274.312563,134.587337 278.59375,130.286528 278.59375,125.000024 C278.59375,119.713519 274.312563,115.412711 269.050281,115.412711 C265.521953,115.412711 262.434906,117.338423 260.783172,120.206697 C260.588734,120.544334 260.158656,120.6598 259.822469,120.464469 C259.486328,120.269138 259.371484,119.837037 259.565922,119.499353 C261.464781,116.201804 265.011766,114 269.050281,114 Z" id="login-icon"></path>
        </g>
    </g>
</svg>