<?xml version="1.0" encoding="UTF-8"?>
<svg width="16px" height="14px" viewBox="0 0 16 14" version="1.1" xmlns="http://www.w3.org/2000/svg" xmlns:xlink="http://www.w3.org/1999/xlink">
    <!-- Generator: sketchtool 55.2 (78181) - https://sketchapp.com -->
    <title>7D0EB781-2DAB-41D1-A890-032232AC8608</title>
    <desc>Created with sketchtool.</desc>
    <g id="Responzivita-7/2019" stroke="none" stroke-width="1" fill="none" fill-rule="evenodd">
        <g id="Profile" transform="translate(-229.000000, -186.000000)" fill="#FFFFFF">
            <g id="Group-13" transform="translate(220.000000, 177.000000)">
                <path d="M24.802,15.6451239 C25.068625,15.8254188 25.0633437,16.2022821 24.8019375,16.3786581 L23.0899687,17.5339872 C22.7820625,17.7416838 22.3510937,17.5325513 22.3510937,17.167235 L22.3510937,16.4606239 L14.131125,16.4606239 C13.87225,16.4606239 13.662375,16.259688 13.662375,16.0118761 C13.662375,15.7640641 13.87225,15.5631581 14.131125,15.5631581 L22.351125,15.5631581 L22.351125,14.8565171 C22.351125,14.4935641 22.7798125,14.2804231 23.0900312,14.489735 L24.802,15.6451239 Z M22.4522187,18.8931538 C22.6763125,19.0172692 22.752875,19.291765 22.6232812,19.506312 C21.357375,21.6011068 18.9927187,23 16.3000937,23 C12.2649687,23 9,19.8742308 9,16.0118761 C9,12.1491923 12.2653125,9.02375214 16.3000937,9.02375214 C18.9915625,9.02375214 21.3568125,10.421688 22.62325,12.5174402 C22.7528437,12.7319573 22.6762812,13.006453 22.4521875,13.1305385 C22.2281875,13.2545641 21.9413125,13.1813333 21.8116875,12.9667863 C20.71125,11.1457094 18.6538125,9.92121795 16.3000937,9.92121795 C12.7917812,9.92121795 9.93753125,12.6534915 9.93753125,16.0118761 C9.93753125,19.3702906 12.7917812,22.1025342 16.3000937,22.1025342 C18.65225,22.1025342 20.7105937,20.8792094 21.8117187,19.056906 C21.941375,18.842359 22.2281875,18.7691282 22.4522187,18.8931538 Z" id="logout-icon"></path>
            </g>
        </g>
    </g>
</svg>