<?xml version="1.0" encoding="UTF-8"?>
<svg width="10px" height="10px" viewBox="0 0 10 10" version="1.1" xmlns="http://www.w3.org/2000/svg" xmlns:xlink="http://www.w3.org/1999/xlink">
    <!-- Generator: sketchtool 53.2 (72643) - https://sketchapp.com -->
    <title>223D0795-A055-4041-B6CC-5C8F7E5258CE</title>
    <desc>Created with sketchtool.</desc>
    <g id="Page-1" stroke="none" stroke-width="1" fill="none" fill-rule="evenodd">
        <g id="MVP-Dashboard-1920px" transform="translate(-1514.000000, -1933.000000)" fill="#DA2814" fill-rule="nonzero">
            <g id="Group-28" transform="translate(361.000000, 1322.000000)">
                <g id="Product-card-v2-Copy-5" transform="translate(832.000000, 464.000000)">
                    <g id="Group-3" transform="translate(248.000000, 136.000000)">
                        <g id="Group-2" transform="translate(65.000000, 3.000000)">
                            <path d="M18.0000112,12.6428508 L18.0000112,13.9285666 C18.0000112,14.2834777 17.7120645,14.5714245 17.3571533,14.5714245 L14.5714357,14.5714245 L14.5714357,17.3571421 C14.5714357,17.7120532 14.283489,18 13.9285778,18 L12.642862,18 C12.2879509,18 12.0000041,17.7120532 12.0000041,17.3571421 L12.0000041,14.5714245 L9.21428648,14.5714245 C8.85937534,14.5714245 8.57142857,14.2834777 8.57142857,13.9285666 L8.57142857,12.6428508 C8.57142857,12.2879396 8.85937534,11.9999928 9.21428648,11.9999928 L12.0000041,11.9999928 L12.0000041,9.21427524 C12.0000041,8.8593641 12.2879509,8.57141733 12.642862,8.57141733 L13.9285778,8.57141733 C14.283489,8.57141733 14.5714357,8.8593641 14.5714357,9.21427524 L14.5714357,11.9999928 L17.3571533,11.9999928 C17.7120645,11.9999928 18.0000112,12.2879396 18.0000112,12.6428508 Z" id="minus-icon-red"></path>
                        </g>
                    </g>
                </g>
            </g>
        </g>
    </g>
</svg>