<svg width="21" height="34" viewBox="0 0 21 34" fill="none" xmlns="http://www.w3.org/2000/svg">
<path d="M10.5007 13C10.9379 13 11.2923 12.6419 11.2923 12.2C11.2923 11.7582 10.9379 11.4 10.5007 11.4C10.0634 11.4 9.70898 11.7582 9.70898 12.2C9.70898 12.6419 10.0634 13 10.5007 13Z" fill="white"/>
<path d="M10.5007 9.00002C10.9379 9.00002 11.2923 8.64185 11.2923 8.20002C11.2923 7.7582 10.9379 7.40002 10.5007 7.40002C10.0634 7.40002 9.70898 7.7582 9.70898 8.20002C9.70898 8.64185 10.0634 9.00002 10.5007 9.00002Z" fill="white"/>
<path d="M10.5007 17C10.9379 17 11.2923 16.6419 11.2923 16.2C11.2923 15.7582 10.9379 15.4 10.5007 15.4C10.0634 15.4 9.70898 15.7582 9.70898 16.2C9.70898 16.6419 10.0634 17 10.5007 17Z" fill="white"/>
<path d="M10.5007 21C10.9379 21 11.2923 20.6419 11.2923 20.2C11.2923 19.7582 10.9379 19.4 10.5007 19.4C10.0634 19.4 9.70898 19.7582 9.70898 20.2C9.70898 20.6419 10.0634 21 10.5007 21Z" fill="white"/>
<path d="M6.54199 22.6L10.5003 26.6L14.4587 22.6" stroke="white" stroke-width="1.12" stroke-linecap="round" stroke-linejoin="round"/>
<rect x="0.6" y="0.6" width="19.8" height="32.8" rx="6.8" stroke="white" stroke-width="0.8"/>
</svg>
