<?xml version="1.0" encoding="UTF-8"?>
<svg width="21px" height="17px" viewBox="0 0 21 17" version="1.1" xmlns="http://www.w3.org/2000/svg" xmlns:xlink="http://www.w3.org/1999/xlink">
    <!-- Generator: sketchtool 53.2 (72643) - https://sketchapp.com -->
    <title>8E479F05-F747-42C3-9B4B-736C15C06F9A</title>
    <desc>Created with sketchtool.</desc>
    <g id="Page-1" stroke="none" stroke-width="1" fill="none" fill-rule="evenodd">
        <g id="MVP-Dashboard-1440px" transform="translate(-1208.000000, -31.000000)" fill="#E67C70">
            <g id="Main-menu-">
                <g id="Group-7" transform="translate(696.000000, 24.000000)">
                    <g id="Group-15" transform="translate(506.000000, 0.000000)">
                        <g id="dashboard-copy">
                            <path d="M16.5,11.2139473 C18.8218868,11.2139473 20.2641509,12.4218118 20.2641509,14.3681204 C20.2641509,14.589988 20.0866415,14.7694487 19.8679245,14.7694487 L13.1320755,14.7694487 C12.9133585,14.7694487 12.7358491,14.589988 12.7358491,14.3681204 C12.7358491,12.4179323 14.1781132,11.2139473 16.5,11.2139473 Z M13.5561698,13.966792 L19.4438302,13.966792 C19.1825189,12.1650286 17.1498113,12.016604 16.5,12.016604 C15.8501887,12.016604 13.8174811,12.1650286 13.5561698,13.966792 Z M16.5,7 C17.539566,7 18.3820755,7.85335778 18.3820755,8.90630951 C18.3820755,9.95899369 17.539566,10.812619 16.5,10.812619 C15.4614245,10.8102779 14.6199717,9.95819103 14.6179245,8.90630951 C14.6179245,7.85335778 15.460434,7 16.5,7 Z M16.5,10.0099624 C17.1018019,10.0099624 17.5896226,9.51559279 17.5896226,8.90630951 C17.5896226,8.29675868 17.1018019,7.80265664 16.5,7.80265664 C15.8981981,7.80265664 15.4103774,8.29675868 15.4103774,8.90630951 C15.4103774,9.51559279 15.8981981,10.0099624 16.5,10.0099624 Z M9.76415094,20.4444987 C12.0860377,20.4444987 13.5283019,21.6523631 13.5283019,23.5986717 C13.5283019,23.8205394 13.3507925,24 13.1320755,24 L6.39622642,24 C6.17750943,24 6,23.8205394 6,23.5986717 C6,21.6484836 7.44226415,20.4444987 9.76415094,20.4444987 Z M6.82032075,23.1973434 L12.7079811,23.1973434 C12.4466698,21.3955799 10.4177925,21.2471553 9.76415094,21.2471553 C9.11050943,21.2471553 7.08163208,21.3955799 6.82032075,23.1973434 Z M9.76415094,16.2305513 C10.803717,16.2305513 11.6462264,17.0839091 11.6462264,18.1368608 C11.6462264,19.189545 10.803717,20.0431703 9.76415094,20.0431703 C8.72557547,20.0408293 7.88412264,19.1887423 7.88207547,18.1368608 C7.88207547,17.0839091 8.72458491,16.2305513 9.76415094,16.2305513 Z M9.76415094,19.2405137 C10.3659528,19.2405137 10.8537736,18.7461441 10.8537736,18.1368608 C10.8537736,17.52731 10.3659528,17.033208 9.76415094,17.033208 C9.16234906,17.033208 8.6745283,17.52731 8.6745283,18.1368608 C8.6745283,18.7461441 9.16234906,19.2405137 9.76415094,19.2405137 Z M23.2358491,20.4444987 C25.5577358,20.4444987 27,21.6523631 27,23.5986717 C27,23.8205394 26.8224906,24 26.6037736,24 L19.8679245,24 C19.6492075,24 19.4716981,23.8205394 19.4716981,23.5986717 C19.4716981,21.6484836 20.9139623,20.4444987 23.2358491,20.4444987 Z M20.2920189,23.1973434 L26.1796792,23.1973434 C25.9183679,21.3955799 23.8894906,21.2471553 23.2358491,21.2471553 C22.5822075,21.2471553 20.5533302,21.3955799 20.2920189,23.1973434 Z M23.2358491,16.2305513 C24.2754151,16.2305513 25.1179245,17.0839091 25.1179245,18.1368608 C25.1179245,19.189545 24.2754151,20.0431703 23.2358491,20.0431703 C22.1972736,20.0408293 21.3558208,19.1887423 21.3537736,18.1368608 C21.3537736,17.0839091 22.196283,16.2305513 23.2358491,16.2305513 Z M23.2358491,19.2405137 C23.8376509,19.2405137 24.3254717,18.7461441 24.3254717,18.1368608 C24.3254717,17.52731 23.8376509,17.033208 23.2358491,17.033208 C22.6340472,17.033208 22.1462264,17.52731 22.1462264,18.1368608 C22.1462264,18.7461441 22.6340472,19.2405137 23.2358491,19.2405137 Z M18.5484906,19.75 C18.6756132,19.9002306 18.6756132,20.1218307 18.5484906,20.2720613 C18.4060472,20.4405523 18.1560943,20.4601505 17.9897453,20.3159398 L16.5,18.8028652 L15.0102547,20.3159398 C14.8536792,20.4721903 14.6019434,20.4703843 14.4476792,20.3119934 C14.2931509,20.1534018 14.294934,19.8984246 14.4515094,19.7421741 L16.1037736,18.0683675 L16.1037736,15.7006642 C16.1037736,15.4791309 16.281283,15.2993358 16.5,15.2993358 C16.718717,15.2993358 16.8962264,15.4791309 16.8962264,15.7006642 L16.8962264,18.0683675 L18.5484906,19.75 Z" id="share-icon"></path>
                        </g>
                    </g>
                </g>
            </g>
        </g>
    </g>
</svg>
