<svg width="35" height="35" viewBox="0 0 35 35" fill="none" xmlns="http://www.w3.org/2000/svg">
<path d="M13.698 7.95566L1.00906 20.6446C0.702037 20.9516 0.726247 21.4736 1.06313 21.8105L4.36731 25.1147C4.6074 25.3548 4.95348 25.4442 5.25155 25.3431C6.44155 24.9395 7.82913 25.2974 8.7865 26.2547C9.74388 27.2121 10.1017 28.5997 9.69814 29.7897C9.59702 30.0877 9.68644 30.4338 9.92654 30.6739L13.2308 33.9782C13.5676 34.315 14.0897 34.3393 14.3967 34.0322L27.0856 21.3433L13.698 7.95566Z" fill="white"/>
<path d="M34.0538 13.1568L30.7496 9.8526C30.5095 9.61251 30.1509 9.53556 29.8334 9.6561C28.5659 10.1372 27.1283 9.82938 26.1709 8.872C25.2136 7.91463 24.9058 6.47697 25.3869 5.20947C25.5073 4.89203 25.4304 4.53343 25.1903 4.29333L21.8861 0.989152C21.5492 0.652269 21.003 0.652269 20.6661 0.989152L16.2079 5.44737L29.5956 18.835L34.0538 14.3768C34.3907 14.0399 34.3907 13.4937 34.0538 13.1568Z" fill="white"/>
</svg>
