<?xml version="1.0" encoding="UTF-8"?>
<svg width="40px" height="40px" viewBox="0 0 40 40" version="1.1" xmlns="http://www.w3.org/2000/svg" xmlns:xlink="http://www.w3.org/1999/xlink">
    <!-- Generator: sketchtool 53.2 (72643) - https://sketchapp.com -->
    <title>33FDFA30-1F53-430B-97BF-C1BB423FD13A@3x</title>
    <desc>Created with sketchtool.</desc>
    <g id="Video---vyhlasanie-vyhercu" stroke="none" stroke-width="1" fill="none" fill-rule="evenodd">
        <g id="Vyherca-v2" transform="translate(-700.000000, -772.000000)" fill="#FFFFFF" fill-rule="nonzero">
            <g id="skip-button" transform="translate(646.000000, 772.000000)">
                <g transform="translate(54.000000, 0.000000)">
                    <circle id="Oval" opacity="0.4" cx="20" cy="20" r="20"></circle>
                    <path d="M20.8802519,23.4086152 L24.545243,19.7436241 L20.8875899,16.1050213 C20.520699,15.7400413 20.5191499,15.1467428 20.8841299,14.7798519 C20.884705,14.7792738 20.885281,14.7786963 20.8858576,14.7781197 C21.252751,14.4112263 21.8476026,14.4112263 22.214496,14.7781197 L27.1800004,19.7436241 L22.2088902,24.7147343 C21.8441857,25.0794388 21.2536658,25.0819624 20.8858576,24.7203882 C20.5220867,24.3627829 20.5170885,23.7779919 20.8746938,23.414221 C20.8765385,23.4123445 20.8783912,23.4104759 20.8802519,23.4086152 Z M13.7722326,23.4086152 L17.4372237,19.7436241 L13.7795706,16.1050213 C13.4126798,15.7400413 13.4111307,15.1467428 13.7761106,14.7798519 C13.7766858,14.7792738 13.7772617,14.7786963 13.7778384,14.7781197 C14.1447317,14.4112263 14.7395834,14.4112263 15.1064768,14.7781197 L20.0719812,19.7436241 L15.100871,24.7147343 C14.7361665,25.0794388 14.1456466,25.0819624 13.7778384,24.7203882 C13.4140675,24.3627829 13.4090692,23.7779919 13.7666746,23.414221 C13.7685192,23.4123445 13.7703719,23.4104759 13.7722326,23.4086152 Z" id="Combined-Shape" opacity="1"></path>
                </g>
            </g>
        </g>
    </g>
</svg>
