<?xml version="1.0" encoding="UTF-8"?>
<svg width="16px" height="22px" viewBox="0 0 16 22" version="1.1" xmlns="http://www.w3.org/2000/svg" xmlns:xlink="http://www.w3.org/1999/xlink">
    <!-- Generator: Sketch 55.2 (78181) - https://sketchapp.com -->
    <title>skull-icon</title>
    <desc>Created with Sketch.</desc>
    <g id="MOF-Game" stroke="none" stroke-width="1" fill="none" fill-rule="evenodd" opacity="0.2">
        <g id="icon---no-win" transform="translate(-8.000000, -5.000000)" fill="#FFFFFF" fill-rule="nonzero">
            <path d="M19.2767685,22.28352 C18.8346798,23.18248 18.6127291,23.63104 18.1717438,23.8548 C17.7296552,24.30304 16.8446897,24.30304 15.9594877,24.30304 C14.8544631,24.30304 14.1914483,24.30304 13.7495961,23.8548 C13.3063251,23.63104 13.0850049,23.18248 12.6437833,22.28352 C12.6437833,22.28352 12.4218325,22.06104 12.4218325,21.83464 L11.536867,22.06104 L12.2012217,24.30304 L13.5274877,25.42696 C13.9687094,26.54872 14.8543842,26.99912 15.9594089,26.99912 C16.4014975,26.99912 17.065931,26.77224 17.2863054,26.54872 C17.7294975,26.32344 18.1715862,25.87552 18.3929064,25.42696 L19.7190936,24.30304 L20.383133,22.06104 L19.4986404,21.83464 C19.2767685,22.06104 19.2767685,22.28352 19.2767685,22.28352 L19.2767685,22.28352 Z M21.7115271,7.02128 C20.1616552,5.67584 18.393064,5 15.9595665,5 C13.5276453,5 11.7589754,5.67584 10.2099704,7.02128 C8.88338916,8.14296 8,9.93832 8,11.96072 C8,13.75448 8.21966502,15.10064 8.66206897,15.77672 C9.32618719,16.89736 9.76866995,17.57096 9.76866995,18.01928 L9.98912315,19.81368 L13.0850837,21.38672 L13.7496749,22.73392 C13.9689458,22.73392 14.1916059,22.73392 14.6341675,22.95768 C15.0765714,22.95768 15.5186601,22.95768 15.9596453,22.95768 C17.0661675,22.95768 17.7298128,22.73392 18.3931429,22.73392 L18.8347586,21.38672 L21.9315862,19.81368 L22.1519606,18.01928 C22.374069,17.57096 22.374069,17.3452 22.374069,17.122 C23.478936,15.55016 23.9214975,13.75448 23.9214975,11.96064 C23.9214975,9.93832 23.2585616,8.14296 21.7115271,7.02128 L21.7115271,7.02128 Z M12.6438621,18.01936 C11.3161773,18.01936 10.8751921,17.12208 10.8751921,15.7768 C10.8751921,15.10072 10.8751921,14.42744 11.3161773,14.20464 C11.5370246,13.75456 11.9809261,13.53144 12.6438621,13.53144 C13.9689458,13.53144 14.6341675,14.20464 14.6341675,15.5504 C14.6341675,17.12208 13.9689458,18.01936 12.6438621,18.01936 L12.6438621,18.01936 Z M16.624867,20.48776 C16.401734,20.48776 16.1808867,20.48776 15.9596453,20.26328 C15.7376158,20.48776 15.7376158,20.48776 15.5186601,20.48776 C15.295133,20.48776 15.0765714,20.48776 14.8546207,20.26328 C14.6341675,20.26328 14.6341675,20.04 14.6341675,19.81384 C14.6341675,19.59176 14.8546207,19.14288 15.0765714,18.918 C15.5186601,18.46832 15.7376158,18.01944 15.9596453,17.57104 C16.1808867,18.01936 16.624867,18.46832 16.8448473,18.918 C17.2865419,19.14288 17.2865419,19.59176 17.2865419,19.81384 C17.2865419,20.26328 17.0660887,20.48776 16.624867,20.48776 L16.624867,20.48776 Z M19.4988768,18.01936 C18.1718227,18.01936 17.5077044,17.12208 17.5077044,15.7768 C17.5077044,14.42744 18.1718227,13.53136 19.4988768,13.53136 C20.1616552,13.53136 20.6037438,13.75456 20.825064,14.20456 C21.267468,14.42736 21.267468,14.87744 21.267468,15.55024 C21.2673892,17.12208 20.6037438,18.01936 19.4988768,18.01936 L19.4988768,18.01936 Z" id="skull-icon"></path>
        </g>
    </g>
</svg>