<?xml version="1.0" encoding="UTF-8"?>
<svg width="11px" height="20px" viewBox="0 0 11 20" version="1.1" xmlns="http://www.w3.org/2000/svg" xmlns:xlink="http://www.w3.org/1999/xlink">
    <!-- Generator: sketchtool 53.2 (72643) - https://sketchapp.com -->
    <title>2164B93B-8481-4381-99EC-DF10613EB612</title>
    <desc>Created with sketchtool.</desc>
    <defs>
        <polygon id="path-1" points="0.0242633429 0 9.88049856 0 9.88049856 19.8075228 0.0242633429 19.8075228"></polygon>
    </defs>
    <g id="Page-1" stroke="none" stroke-width="1" fill="none" fill-rule="evenodd">
        <g id="Summary-modal-1" transform="translate(-782.000000, -650.000000)">
            <g id="Group-8" transform="translate(320.000000, 103.000000)">
                <g id="Group-5" transform="translate(436.000000, 532.000000)">
                    <g id="Group-51" transform="translate(26.000000, 15.000000)">
                        <g id="sms-icon-locked" transform="translate(0.428571, 0.095238)">
                            <mask id="mask-2" fill="white">
                                <use xlink:href="#path-1"></use>
                            </mask>
                            <g id="Clip-2"></g>
                            <path d="M8.08850112,19.8095238 C8.08850112,19.8095238 9.88049856,19.8095238 9.88049856,18.0087914 L9.88049856,1.8007324 C9.88049856,0 8.08850112,0 8.08850112,0 L1.81626079,0 C1.81626079,0 0.0242633429,0 0.0242633429,1.8007324 L0.0242633429,18.0087914 C0.0242633429,19.8095238 1.81626079,19.8095238 1.81626079,19.8095238 L8.08850112,19.8095238 Z M4.95238095,19.0596966 C4.45784084,19.0596966 4.05639885,18.656903 4.05639885,18.1606978 C4.05639885,17.6643591 4.45784084,17.2616989 4.95238095,17.2616989 C5.44705401,17.2616989 5.84836306,17.6644925 5.84836306,18.1606978 C5.84836306,18.656903 5.44705401,19.0596966 4.95238095,19.0596966 Z M3.6083247,1.09766105 C3.6083247,0.98627417 3.66117226,0.898998878 3.72751422,0.898998878 L6.17724768,0.898998878 C6.242659,0.898998878 6.2964372,0.988108385 6.2964372,1.09766105 L6.2964372,1.15081995 C6.2964372,1.26220683 6.242659,1.34948212 6.17724768,1.34948212 L3.72751422,1.34948212 C3.66210291,1.34948212 3.6083247,1.26050601 3.6083247,1.15081995 L3.6083247,1.09766105 Z M0.920278683,16.6323296 L8.98448322,16.6323296 L8.98448322,2.24758057 L0.920278683,2.24758057 L0.920278683,16.6323296 Z" id="bitcoin-icon-locked" fill="#B2ACAB" mask="url(#mask-2)"></path>
                        </g>
                    </g>
                </g>
            </g>
        </g>
    </g>
</svg>