<?xml version="1.0" encoding="UTF-8"?>
<svg width="17px" height="18px" viewBox="0 0 17 18" version="1.1" xmlns="http://www.w3.org/2000/svg" xmlns:xlink="http://www.w3.org/1999/xlink">
    <!-- Generator: Sketch 54 (76480) - https://sketchapp.com -->
    <title>stats - active</title>
    <desc>Created with Sketch.</desc>
    <g id="Symbols" stroke="none" stroke-width="1" fill="none" fill-rule="evenodd">
        <g id="stats-active" transform="translate(-8.000000, -8.000000)" fill="#E67C70">
            <path d="M22,13.5 C21.7238576,13.5 21.5,13.7238576 21.5,14 L21.5,24 C21.5,24.2761424 21.7238576,24.5 22,24.5 L23,24.5 C23.2761424,24.5 23.5,24.2761424 23.5,24 L23.5,14 C23.5,13.7238576 23.2761424,13.5 23,13.5 L22,13.5 Z M22,12.5 L23,12.5 C23.8284271,12.5 24.5,13.1715729 24.5,14 L24.5,24 C24.5,24.8284271 23.8284271,25.5 23,25.5 L22,25.5 C21.1715729,25.5 20.5,24.8284271 20.5,24 L20.5,14 C20.5,13.1715729 21.1715729,12.5 22,12.5 Z M16,9.5 C15.7238576,9.5 15.5,9.72385763 15.5,10 L15.5,24 C15.5,24.2761424 15.7238576,24.5 16,24.5 L17,24.5 C17.2761424,24.5 17.5,24.2761424 17.5,24 L17.5,10 C17.5,9.72385763 17.2761424,9.5 17,9.5 L16,9.5 Z M16,8.5 L17,8.5 C17.8284271,8.5 18.5,9.17157288 18.5,10 L18.5,24 C18.5,24.8284271 17.8284271,25.5 17,25.5 L16,25.5 C15.1715729,25.5 14.5,24.8284271 14.5,24 L14.5,10 C14.5,9.17157288 15.1715729,8.5 16,8.5 Z M10,18.5 C9.72385763,18.5 9.5,18.7238576 9.5,19 L9.5,24 C9.5,24.2761424 9.72385763,24.5 10,24.5 L11,24.5 C11.2761424,24.5 11.5,24.2761424 11.5,24 L11.5,19 C11.5,18.7238576 11.2761424,18.5 11,18.5 L10,18.5 Z M10,17.5 L11,17.5 C11.8284271,17.5 12.5,18.1715729 12.5,19 L12.5,24 C12.5,24.8284271 11.8284271,25.5 11,25.5 L10,25.5 C9.17157288,25.5 8.5,24.8284271 8.5,24 L8.5,19 C8.5,18.1715729 9.17157288,17.5 10,17.5 Z" id="stats---active"></path>
        </g>
    </g>
</svg>