<?xml version="1.0" encoding="UTF-8"?>
<svg width="80px" height="80px" viewBox="0 0 80 80" version="1.1" xmlns="http://www.w3.org/2000/svg" xmlns:xlink="http://www.w3.org/1999/xlink">
    <!-- Generator: sketchtool 53.2 (72643) - https://sketchapp.com -->
    <title>5FFAA9E8-AC37-4E3C-B898-9E5E423305C2</title>
    <desc>Created with sketchtool.</desc>
    <defs>
        <polygon id="path-1" points="0.0122137405 0.138422392 79.8615776 0.138422392 79.8615776 80 0.0122137405 80"></polygon>
    </defs>
    <g id="Page-1" stroke="none" stroke-width="1" fill="none" fill-rule="evenodd">
        <g id="My-ethereum-pay---succes" transform="translate(-680.000000, -266.000000)">
            <g id="Group-2" transform="translate(520.000000, 210.000000)">
                <g id="success-element" transform="translate(160.000000, 56.000000)">
                    <g id="Group-3">
                        <mask id="mask-2" fill="white">
                            <use xlink:href="#path-1"></use>
                        </mask>
                        <g id="Clip-2"></g>
                        <path d="M39.9307888,0.138422392 C17.913486,0.138422392 0,18.0519084 0,40.0692112 C0,62.086514 17.913486,80 39.9307888,80 C61.9480916,80 79.8615776,62.086514 79.8615776,40.0692112 C79.8615776,18.0519084 61.9480916,0.138422392 39.9307888,0.138422392 Z M39.9307888,76.0099746 C20.1121628,76.0099746 3.99022901,59.8880407 3.99022901,40.0692112 C3.99022901,20.2505852 20.1121628,4.1286514 39.9307888,4.1286514 C59.7496183,4.1286514 75.8715522,20.2505852 75.8715522,40.0692112 C75.8715522,59.8880407 59.7496183,76.0099746 39.9307888,76.0099746 Z" id="Fill-1" fill="#DA2814" mask="url(#mask-2)"></path>
                    </g>
                    <path d="M50.3857506,30.3466667 L35.0778626,45.5733333 L29.4919084,39.9556234 C28.710229,39.173944 27.456285,39.173944 26.6746056,39.9389313 C25.8929262,40.7045293 25.8929262,41.9745547 26.6587277,42.7560305 L33.6449873,49.7917557 C34.0354198,50.1821883 34.540458,50.3778117 35.0611705,50.3778117 C35.5662087,50.3778117 36.0710433,50.1821883 36.4622901,49.7917557 L53.186972,33.1639695 C53.9686514,32.3822901 53.9686514,31.1283461 53.2028499,30.3466667 C52.421374,29.5651908 51.1672265,29.5651908 50.3857506,30.3466667 Z" id="Fill-4" fill="#DA2814"></path>
                </g>
            </g>
        </g>
    </g>
</svg>