<?xml version="1.0" encoding="UTF-8"?>
<svg width="21px" height="25px" viewBox="0 0 21 25" version="1.1" xmlns="http://www.w3.org/2000/svg" xmlns:xlink="http://www.w3.org/1999/xlink">
    <!-- Generator: sketchtool 53.2 (72643) - https://sketchapp.com -->
    <title>468E0E52-B6A6-4343-B85B-9AC753555E90</title>
    <desc>Created with sketchtool.</desc>
    <g id="Page-1" stroke="none" stroke-width="1" fill="none" fill-rule="evenodd">
        <g id="Play---Succes-(with-LOTEU)" transform="translate(-528.000000, -608.000000)" fill="#FECF0F">
            <g id="Group-5" transform="translate(512.000000, 602.000000)">
                <path d="M32.0999978,12.635718 C31.7131004,12.635718 31.3999776,12.3206248 31.3999776,11.9312348 C31.3999776,11.5418449 31.7131004,11.2267048 32.0999978,11.2267048 L33.4999915,11.2267048 C33.8868889,11.2267048 34.2000117,11.5418449 34.2000117,11.9312348 C34.2000117,12.3206248 33.8868889,12.635718 33.4999915,12.635718 L32.0999978,12.635718 Z M24.1738503,8.42830149 L23.4738767,7.01928821 C23.3009442,6.67114816 23.4410414,6.24800824 23.7869529,6.07396165 C24.1328644,5.90127444 24.5518984,6.04096171 24.7262281,6.38905488 L25.4262017,7.79806816 C25.5991807,8.14620821 25.459037,8.56934813 25.1131255,8.74339472 C24.7648853,8.9174413 24.3465964,8.77498841 24.1738503,8.42830149 Z M28.6869077,8.74339472 C28.3409962,8.56934813 28.2008525,8.14620821 28.3738315,7.79806816 L29.0738051,6.38905488 C29.2467841,6.04096171 29.6685195,5.90127444 30.0130803,6.07396165 C30.3589918,6.24800824 30.4991355,6.67114816 30.3261565,7.01928821 L29.6261829,8.42830149 C29.4539957,8.77386342 29.0361726,8.91795693 28.6869077,8.74339472 Z M21.2999951,12.635718 C20.9130977,12.635718 20.5999749,12.3206248 20.5999749,11.9312348 C20.5999749,11.5418449 20.9130977,11.2267048 21.2999951,11.2267048 L22.6999888,11.2267048 C23.0868862,11.2267048 23.400009,11.5418449 23.400009,11.9312348 C23.400009,12.3206248 23.0868862,12.635718 22.6999888,12.635718 L21.2999951,12.635718 Z M19.5000076,18.3187867 C19.8866255,18.3187867 20.1999812,18.6342081 20.1999812,19.0232699 L20.1999812,30.295423 C20.1999812,30.6845318 19.886579,30.9999531 19.5000076,30.9999531 L16.7000202,30.9999531 C16.3134022,30.9999531 16,30.6845318 16,30.295423 L16,19.0232699 C16,18.6342081 16.3134022,18.3187867 16.7000202,18.3187867 L19.5000076,18.3187867 Z M34.7553703,18.3187867 C35.8482494,18.3187867 36.8626033,19.0933948 36.9860733,20.1862836 C37.0579383,20.8223294 36.846861,21.4109847 36.4641088,21.8413902 C37.5059419,23.0126539 36.9534709,24.8779946 35.4523631,25.2896032 C35.5473758,25.5311028 35.600052,25.7938837 35.600052,26.0684301 C35.600052,27.0412722 34.9431136,27.8634115 34.0523694,28.1076767 C34.6370702,29.5936117 33.4619399,31 31.9531938,31 L27.3740933,31 C24.7166715,31 22.9731881,30.3243449 21.6000215,29.8636581 L21.6000215,19.2925195 C22.4969136,18.8413952 23.180912,18.5495988 23.9810215,17.7443345 C25.1697517,16.547899 25.8000493,13.6073414 25.8000493,11.9782035 C25.8000493,11.5888135 26.1131255,11.2736734 26.5000229,11.2736734 L27.0776909,11.2736734 C28.6660333,11.2736734 29.981354,12.5546713 29.9996579,14.1531999 C30.0107427,15.118917 29.7617535,17.48296 29.2980076,18.3187867 L34.7553703,18.3187867 Z" id="thumbup-icon"></path>
            </g>
        </g>
    </g>
</svg>