<?xml version="1.0" encoding="UTF-8"?>
<svg width="18px" height="15px" viewBox="0 0 18 15" version="1.1" xmlns="http://www.w3.org/2000/svg" xmlns:xlink="http://www.w3.org/1999/xlink">
    <!-- Generator: sketchtool 53.2 (72643) - https://sketchapp.com -->
    <title>14C89C64-C19F-4213-A8FC-7E45136B759E</title>
    <desc>Created with sketchtool.</desc>
    <g id="Page-1" stroke="none" stroke-width="1" fill="none" fill-rule="evenodd">
        <g id="MVP-Dashboard-1440px" transform="translate(-1195.000000, -132.000000)" fill="#FFFFFF">
            <g id="Group-21" transform="translate(0.000000, 88.000000)">
                <g id="Group-Copy" transform="translate(1160.000000, 36.000000)">
                    <g id="Group-42" transform="translate(35.000000, 8.000000)">
                        <path d="M16.9922016,6.52336761 L16.5641179,6.52336761 L16.5641179,4.02507758 C16.5641179,3.00353046 15.7075354,2.17557594 14.659222,2.17557594 L14.2642702,2.17557594 L14.2678695,1.2473081 C14.2678695,0.559138115 13.6919847,2.27373675e-13 12.9832034,2.27373675e-13 L1.56153385,2.27373675e-13 C0.708735176,2.27373675e-13 0.0109824189,0.666619873 0,1.49457439 L0,13.7526919 C0,14.4408171 0.575884823,15 1.28466614,15 L14.6630059,15 C15.7149647,15 16.5677172,14.1683269 16.5677172,13.1504984 L16.5677172,10.6487137 L16.9959854,10.6487137 C17.5497208,10.6487137 18,10.2115286 18,9.67389584 L18,7.49814069 C17.9964007,6.96050788 17.545937,6.52336761 16.9922016,6.52336761 Z M1.56153385,0.860167682 L12.9832034,0.860167682 C13.2009598,0.860167682 13.381939,1.03221018 13.381939,1.24381349 L13.3783397,2.17557594 L1.56153385,2.17557594 C1.18877763,2.17557594 0.885930506,1.88171481 0.885930506,1.51979833 C0.885930506,1.15770264 1.18877763,0.860167682 1.56153385,0.860167682 Z M15.6781874,13.1469589 C15.6781874,13.691805 15.2203405,14.1361585 14.659222,14.1361585 L1.28106686,14.1361585 C1.06312584,14.1361585 0.882331226,13.964116 0.882331226,13.7490181 L0.882331226,2.88520644 C1.08910526,2.98202514 1.31784412,3.03592283 1.56153385,3.03592283 L14.659222,3.03592283 C15.2203405,3.03592283 15.6781874,3.48027634 15.6781874,4.02507758 L15.6781874,6.52336761 L12.6546075,6.52336761 C12.1008721,6.52336761 11.650593,6.96050788 11.650593,7.49814069 L11.650593,9.67389584 C11.650593,10.2115286 12.1008721,10.6487137 12.6546075,10.6487137 L15.6781874,10.6487137 L15.6781874,13.1469589 Z M17.1104702,9.67389584 C17.1104702,9.73827736 17.0587421,9.78850123 16.9922016,9.78850123 L12.6583914,9.78850123 C12.591897,9.78850123 12.5403535,9.73827736 12.5403535,9.67389584 L12.5403535,7.49814069 C12.5403535,7.43725377 12.591897,7.38353529 12.6583914,7.38353529 L16.9922016,7.38353529 C17.0551428,7.38353529 17.1104702,7.43375916 17.1104702,7.49814069 L17.1104702,9.67389584 Z" id="wallet-icon"></path>
                    </g>
                </g>
            </g>
        </g>
    </g>
</svg>