<svg width="23" height="23" viewBox="0 0 23 23" fill="none" xmlns="http://www.w3.org/2000/svg">
<path d="M22.0997 9.9001V12.9001C22.0997 13.7282 21.4278 14.4001 20.5997 14.4001H14.0996V20.9001C14.0996 21.7282 13.4278 22.4001 12.5996 22.4001H9.59964C8.77151 22.4001 8.09963 21.7282 8.09963 20.9001V14.4001H1.59961C0.771486 14.4001 0.0996094 13.7282 0.0996094 12.9001V9.9001C0.0996094 9.07197 0.771486 8.4001 1.59961 8.4001H8.09963V1.90009C8.09963 1.07196 8.77151 0.400085 9.59964 0.400085H12.5996C13.4278 0.400085 14.0996 1.07196 14.0996 1.90009V8.4001H20.5997C21.4278 8.4001 22.0997 9.07197 22.0997 9.9001Z" fill="white"/>
</svg>
