<?xml version="1.0" encoding="UTF-8"?>
<svg width="38px" height="36px" viewBox="0 0 38 36" version="1.1" xmlns="http://www.w3.org/2000/svg" xmlns:xlink="http://www.w3.org/1999/xlink">
    <!-- Generator: sketchtool 53.2 (72643) - https://sketchapp.com -->
    <title>57BE7184-76CF-4F0F-9D9A-EFB0EAD66B81</title>
    <desc>Created with sketchtool.</desc>
    <defs>
        <radialGradient cx="50%" cy="26.7278784%" fx="50%" fy="26.7278784%" r="192.802101%" gradientTransform="translate(0.500000,0.267279),scale(0.923077,1.000000),rotate(79.866827),translate(-0.500000,-0.267279)" id="radialGradient-1">
            <stop stop-color="#FFDE00" offset="0%"></stop>
            <stop stop-color="#FF5F00" offset="100%"></stop>
        </radialGradient>
        <path d="M5.11161324,8.71204488 C4.64286268,7.68525795 4.28571939,6.32364918 4.28571939,4.57141495 L1.42857313,4.57141495 L1.42857313,5.6428448 C1.42857313,6.7365961 2.9129499,8.25445505 5.11161324,8.71204488 Z M17.1428776,5.6428448 L17.1428776,4.57141495 L14.2857313,4.57141495 C14.2857313,6.32364918 13.928588,7.68525795 13.4598375,8.71204488 C15.6585008,8.25445505 17.1428776,6.7365961 17.1428776,5.6428448 Z M18.5714507,4.21427166 L18.5714507,5.6428448 C18.5714507,7.76338304 16.0044834,10.1071358 12.5223364,10.2745467 C12.0759073,10.8437439 11.6629603,11.1785657 11.4620672,11.3348159 C10.8705487,11.8705308 10.7142985,12.4285672 10.7142985,13.1428537 C10.7142985,13.8571403 11.0714418,14.5714269 12.1428716,14.5714269 C13.2143015,14.5714269 14.2857313,15.2857134 14.2857313,16.3571433 L14.2857313,17.0714298 C14.2857313,17.2723229 14.1294811,17.4285731 13.928588,17.4285731 L4.64286268,17.4285731 C4.44196958,17.4285731 4.28571939,17.2723229 4.28571939,17.0714298 L4.28571939,16.3571433 C4.28571939,15.2857134 5.35714924,14.5714269 6.42857909,14.5714269 C7.50000894,14.5714269 7.85715222,13.8571403 7.85715222,13.1428537 C7.85715222,12.4285672 7.70090204,11.8705308 7.10938348,11.3348159 C6.90849038,11.1785657 6.49554346,10.8437439 6.04911435,10.2745467 C2.56696735,10.1071358 0,7.76338304 0,5.6428448 L0,4.21427166 C0,3.6227531 0.479911286,3.14284182 1.07142985,3.14284182 L4.28571939,3.14284182 L4.28571939,2.07141197 C4.28571939,1.08926794 5.08929178,0.285695553 6.07143581,0.285695553 L12.5000149,0.285695553 C13.4821589,0.285695553 14.2857313,1.08926794 14.2857313,2.07141197 L14.2857313,3.14284182 L17.5000209,3.14284182 C18.0915394,3.14284182 18.5714507,3.6227531 18.5714507,4.21427166 Z" id="path-2"></path>
        <filter x="-86.2%" y="-81.7%" width="272.3%" height="286.7%" filterUnits="objectBoundingBox" id="filter-3">
            <feOffset dx="0" dy="2" in="SourceAlpha" result="shadowOffsetOuter1"></feOffset>
            <feGaussianBlur stdDeviation="5" in="shadowOffsetOuter1" result="shadowBlurOuter1"></feGaussianBlur>
            <feColorMatrix values="0 0 0 0 0.996078431   0 0 0 0 0.811764706   0 0 0 0 0.0588235294  0 0 0 0.4 0" type="matrix" in="shadowBlurOuter1"></feColorMatrix>
        </filter>
    </defs>
    <g id="Main-page-final" stroke="none" stroke-width="1" fill="none" fill-rule="evenodd">
        <g id="Main-Page-" transform="translate(-484.000000, -755.000000)" fill-rule="nonzero">
            <g id="Weekly-lottery-panel" transform="translate(120.000000, 511.000000)">
                <g id="Group-4">
                    <g id="last-winner" transform="translate(374.000000, 251.000000)">
                        <g id="winner-icon">
                            <use fill="black" fill-opacity="1" filter="url(#filter-3)" xlink:href="#path-2"></use>
                            <use fill="url(#radialGradient-1)" xlink:href="#path-2"></use>
                        </g>
                    </g>
                </g>
            </g>
        </g>
    </g>
</svg>