<?xml version="1.0" encoding="UTF-8"?>
<svg width="18px" height="18px" viewBox="0 0 18 18" version="1.1" xmlns="http://www.w3.org/2000/svg" xmlns:xlink="http://www.w3.org/1999/xlink">
    <!-- Generator: sketchtool 53.2 (72643) - https://sketchapp.com -->
    <title>D3E3ACE1-EFC1-4626-9E4C-D83EC6D720D2</title>
    <desc>Created with sketchtool.</desc>
    <g id="Page-1" stroke="none" stroke-width="1" fill="none" fill-rule="evenodd">
        <g id="Summary-modal-1" transform="translate(-779.000000, -706.000000)" fill="#B2ACAB">
            <g id="Group-6" transform="translate(756.000000, 691.000000)">
                <g id="world-icon-locked" transform="translate(23.000000, 15.000000)">
                    <path d="M16.725886,11.6181082 C17.0248523,10.7624802 17.1879699,9.84329237 17.1879699,8.88701973 C17.1879699,7.93064794 17.0248523,7.0119559 16.725886,6.15632789 C16.7188457,6.13074532 16.7100205,6.10555937 16.6995096,6.08156331 C15.5467789,2.88106437 12.4801681,0.586466165 8.88721805,0.586466165 C5.29426797,0.586466165 2.22765722,2.88106437 1.07492651,6.08156331 C1.06441559,6.10555937 1.05549122,6.13074532 1.04855005,6.15632789 C0.749583759,7.0119559 0.586466165,7.93064794 0.586466165,8.88701973 C0.586466165,9.84329237 0.749583759,10.7624802 1.04855005,11.6181082 C1.05588786,11.6436908 1.06441559,11.6688767 1.07492651,11.6928728 C2.22805386,14.8933717 5.29426797,17.1879699 8.88721805,17.1879699 C12.4801681,17.1879699 15.5467789,14.8933717 16.6995096,11.6928728 C16.7100205,11.6688767 16.7188457,11.6436908 16.725886,11.6181082 Z M8.88721805,15.9980828 C8.57109714,15.9980828 8.06141664,15.4259454 7.6353277,14.1478083 C7.42967063,13.5311493 7.26536312,12.8219765 7.14537997,12.0507313 L10.6290561,12.0507313 C10.5093705,12.8219765 10.3447655,13.5307526 10.1391084,14.1478083 C9.71301945,15.4259454 9.20323979,15.9980828 8.88721805,15.9980828 Z M7.00090438,10.8608442 C6.94349096,10.226436 6.91334643,9.56446215 6.91334643,8.88701973 C6.91334643,8.20957732 6.94349096,7.54800006 7.00090438,6.9135919 L10.7735317,6.9135919 C10.8305485,7.54800006 10.860693,8.20957732 10.860693,8.88701973 C10.860693,9.56446215 10.8305485,10.226436 10.7735317,10.8608442 L7.00090438,10.8608442 Z M1.77638174,8.88701973 C1.77638174,8.20263631 1.87355818,7.5402658 2.05521862,6.9135919 L5.80741906,6.9135919 C5.75169135,7.56118798 5.72343085,8.22464922 5.72343085,8.88701973 C5.72343085,9.54978687 5.75169135,10.2132481 5.80741906,10.8608442 L2.05521862,10.8608442 C1.87355818,10.2337737 1.77638174,9.57179978 1.77638174,8.88701973 Z M8.88721805,1.77635331 C9.20323979,1.77635331 9.71301945,2.34849071 10.1391084,3.62662782 C10.3447655,4.24328683 10.5093705,4.95245957 10.6290561,5.72370476 L7.14537997,5.72370476 C7.26506564,4.95206294 7.42967063,4.24328683 7.6353277,3.62662782 C8.06141664,2.34849071 8.57109714,1.77635331 8.88721805,1.77635331 Z M11.967017,6.9135919 L15.7191183,6.9135919 C15.9004813,7.5402658 15.9980544,8.20263631 15.9980544,8.88701973 C15.9980544,9.57179978 15.9004813,10.2341703 15.7191183,10.8608442 L11.967017,10.8608442 C12.0227447,10.2132481 12.0506086,9.54978687 12.0506086,8.88701973 C12.0506086,8.22464922 12.0227447,7.56118798 11.967017,6.9135919 Z M15.2543571,5.72370476 L11.8306725,5.72370476 C11.6187684,4.26420902 11.2558442,2.95503568 10.7464611,2.02345321 C12.721126,2.55880327 14.3572599,3.92568612 15.2543571,5.72370476 Z M7.02797496,2.02345321 C6.51859194,2.95503568 6.15566769,4.26420902 5.94376356,5.72370476 L2.52007897,5.72370476 C3.41717615,3.92568612 5.05331007,2.55880327 7.02797496,2.02345321 Z M2.52007897,12.0507313 L5.94376356,12.0507313 C6.15566769,13.5102271 6.51859194,14.8194004 7.02797496,15.7509829 C5.05331007,15.2152362 3.41717615,13.84875 2.52007897,12.0507313 Z M10.7464611,15.7509829 C11.2558442,14.8194004 11.6187684,13.5102271 11.8306725,12.0507313 L15.2543571,12.0507313 C14.3572599,13.84875 12.721126,15.2152362 10.7464611,15.7509829 Z" id="bitcoin-icon-locked"></path>
                </g>
            </g>
        </g>
    </g>
</svg>