<?xml version="1.0" encoding="UTF-8"?>
<svg width="80px" height="74px" viewBox="0 0 80 74" version="1.1" xmlns="http://www.w3.org/2000/svg" xmlns:xlink="http://www.w3.org/1999/xlink">
    <!-- Generator: sketchtool 55 (78076) - https://sketchapp.com -->
    <title>B3D59C26-10F4-4A4E-9372-451EAB02BED9</title>
    <desc>Created with sketchtool.</desc>
    <defs>
        <linearGradient x1="1.3528725%" y1="0%" x2="100.838196%" y2="123.272402%" id="linearGradient-1">
            <stop stop-color="#9F632E" offset="0%"></stop>
            <stop stop-color="#492C13" offset="57.5490439%"></stop>
            <stop stop-color="#563216" offset="100%"></stop>
        </linearGradient>
        <path d="M5.69720598,10.6493356 L34.9478697,-3.37534781 C35.7708795,-3.76995262 36.7290578,-3.767012 37.5496302,-3.3673631 L66.3193171,10.6445329 C67.3475475,11.1453189 68,12.1888083 68,13.3325059 L68,50.6674941 C68,51.8111917 67.3475475,52.8546811 66.3193171,53.3554671 L37.5496302,67.3673631 C36.7290578,67.767012 35.7708795,67.7699526 34.9478697,67.3753478 L5.69720598,53.3506644 C4.65994871,52.8533354 4,51.8050278 4,50.6547066 L4,13.3452934 C4,12.1949722 4.65994871,11.1466646 5.69720598,10.6493356 Z" id="path-2"></path>
        <filter x="-11.7%" y="-10.0%" width="123.4%" height="119.9%" filterUnits="objectBoundingBox" id="filter-3">
            <feOffset dx="0" dy="0" in="SourceAlpha" result="shadowOffsetOuter1"></feOffset>
            <feGaussianBlur stdDeviation="2.5" in="shadowOffsetOuter1" result="shadowBlurOuter1"></feGaussianBlur>
            <feColorMatrix values="0 0 0 0 0.470588235   0 0 0 0 0.290196078   0 0 0 0 0.133333333  0 0 0 1 0" type="matrix" in="shadowBlurOuter1"></feColorMatrix>
        </filter>
        <path d="M30.7407352,6.91631111 C30.7458393,7.00675556 30.7396187,7.09768889 30.717129,7.18878519 L28.7432972,15.2554519 C28.6436087,15.6622074 28.2872822,15.9480444 27.8772037,15.949837 L16.0342131,16.0111111 C16.0330966,16.0111111 16.0318206,16.0111111 16.0299065,16.0111111 L4.18691589,16.0111111 C3.77508287,16.0111111 3.41620436,15.7246222 3.31651589,15.3159111 L1.34268411,7.21860741 C1.31955639,7.12506667 1.31333583,7.03087407 1.31907788,6.93863704 C0.555065421,6.69288889 0,5.96265185 0,5.1026963 C0,4.04082963 0.844879751,3.17777778 1.8840324,3.17777778 C2.92334455,3.17777778 3.7682243,4.04082963 3.7682243,5.1026963 C3.7682243,5.70044444 3.50026168,6.23512593 3.08029408,6.58842963 L5.55145171,9.13277037 C6.17637882,9.77582222 7.04295078,10.1444444 7.92961994,10.1444444 C8.97818318,10.1444444 9.97761994,9.63567407 10.6068536,8.78337778 L14.6685607,3.28533333 C14.3270679,2.93708148 14.1158879,2.45585185 14.1158879,1.92491852 C14.1158879,0.863051852 14.9607676,0 15.9999202,0 C17.0392324,0 17.8841121,0.863051852 17.8841121,1.92491852 C17.8841121,2.43988148 17.6840972,2.9070963 17.3607875,3.25274074 C17.3620636,3.25404444 17.3631801,3.25534815 17.3644561,3.2573037 L21.3963364,8.77001481 C22.0255701,9.63062222 23.0286754,10.1444444 24.0797907,10.1444444 C24.9744349,10.1444444 25.8161246,9.78853333 26.4485483,9.14173333 L28.9358156,6.60114074 C28.5072349,6.24783704 28.2317757,5.7081037 28.2317757,5.1026963 C28.2317757,4.04082963 29.0766555,3.17777778 30.1158081,3.17777778 C31.1551202,3.17777778 32,4.04082963 32,5.1026963 C32,5.93983704 31.4728474,6.65214815 30.7407352,6.91631111 Z M28.5507788,18.8831704 C28.5507788,18.3771704 28.1488349,17.9666667 27.6535826,17.9666667 L4.44610592,17.9666667 C3.95085358,17.9666667 3.54890966,18.3771704 3.54890966,18.8831704 L3.54890966,21.0831704 C3.54890966,21.5893333 3.95085358,22 4.44610592,22 L27.6535826,22 C28.1488349,22 28.5507788,21.5893333 28.5507788,21.0831704 L28.5507788,18.8831704 Z" id="path-4"></path>
        <filter x="-32.8%" y="-47.7%" width="165.6%" height="195.5%" filterUnits="objectBoundingBox" id="filter-5">
            <feOffset dx="0" dy="0" in="SourceAlpha" result="shadowOffsetOuter1"></feOffset>
            <feGaussianBlur stdDeviation="3.5" in="shadowOffsetOuter1" result="shadowBlurOuter1"></feGaussianBlur>
            <feColorMatrix values="0 0 0 0 1   0 0 0 0 1   0 0 0 0 1  0 0 0 1 0" type="matrix" in="shadowBlurOuter1"></feColorMatrix>
        </filter>
    </defs>
    <g id="*Hard-Launch-Version" stroke="none" stroke-width="1" fill="none" fill-rule="evenodd">
        <g id="Invite-friends-(NEW)---affiliate" transform="translate(-240.000000, -2211.000000)" fill-rule="nonzero">
            <g id="Group-3" transform="translate(240.000000, 2090.000000)">
                <g id="bronze" transform="translate(0.000000, 118.000000)">
                    <g id="Group" transform="translate(4.000000, 8.000000)">
                        <g id="Mask" transform="translate(36.000000, 32.000000) rotate(90.000000) translate(-36.000000, -32.000000) ">
                            <use fill="black" fill-opacity="1" filter="url(#filter-3)" xlink:href="#path-2"></use>
                            <use fill="url(#linearGradient-1)" xlink:href="#path-2"></use>
                        </g>
                        <g id="Group-61" transform="translate(20.000000, 20.000000)">
                            <g id="Fill-1">
                                <use fill="black" fill-opacity="1" filter="url(#filter-5)" xlink:href="#path-4"></use>
                                <use fill="#FFFFFF" xlink:href="#path-4"></use>
                            </g>
                        </g>
                    </g>
                </g>
            </g>
        </g>
    </g>
</svg>