<?xml version="1.0" encoding="UTF-8"?>
<svg width="80px" height="74px" viewBox="0 0 80 74" version="1.1" xmlns="http://www.w3.org/2000/svg" xmlns:xlink="http://www.w3.org/1999/xlink">
    <!-- Generator: sketchtool 55 (78076) - https://sketchapp.com -->
    <title>357348C6-6E51-481A-B7B2-06307891B9C9</title>
    <desc>Created with sketchtool.</desc>
    <defs>
        <linearGradient x1="0.607970069%" y1="0%" x2="99.4541193%" y2="123.643203%" id="linearGradient-1">
            <stop stop-color="#835F5F" offset="0%"></stop>
            <stop stop-color="#F3D1E5" offset="100%"></stop>
        </linearGradient>
        <path d="M5.69720598,10.6493356 L34.9478697,-3.37534781 C35.7708795,-3.76995262 36.7290578,-3.767012 37.5496302,-3.3673631 L66.3193171,10.6445329 C67.3475475,11.1453189 68,12.1888083 68,13.3325059 L68,50.6674941 C68,51.8111917 67.3475475,52.8546811 66.3193171,53.3554671 L37.5496302,67.3673631 C36.7290578,67.767012 35.7708795,67.7699526 34.9478697,67.3753478 L5.69720598,53.3506644 C4.65994871,52.8533354 4,51.8050278 4,50.6547066 L4,13.3452934 C4,12.1949722 4.65994871,11.1466646 5.69720598,10.6493356 Z" id="path-2"></path>
        <filter x="-11.7%" y="-10.0%" width="123.4%" height="119.9%" filterUnits="objectBoundingBox" id="filter-3">
            <feOffset dx="0" dy="0" in="SourceAlpha" result="shadowOffsetOuter1"></feOffset>
            <feGaussianBlur stdDeviation="2.5" in="shadowOffsetOuter1" result="shadowBlurOuter1"></feGaussianBlur>
            <feColorMatrix values="0 0 0 0 0.831372549   0 0 0 0 0.690196078   0 0 0 0 0.749019608  0 0 0 1 0" type="matrix" in="shadowBlurOuter1"></feColorMatrix>
        </filter>
        <path d="M43.5411471,35.6536096 C43.5411471,35.922316 43.3798123,36.1931807 43.1500739,36.3274568 L36.4171245,40.2569221 C36.3040834,40.3230581 36.1654482,40.3586698 36.02727,40.3586698 C35.8886348,40.3586698 35.7446674,40.3230581 35.6316264,40.2569221 L28.8854228,36.3280735 C28.6558368,36.1931807 28.4588529,35.922316 28.4588529,35.6536096 L28.4588529,28.3434999 C28.4588529,28.0749476 28.6562938,27.8039287 28.8860322,27.6696526 L35.654783,23.7403415 C35.8802557,23.6085319 36.1980503,23.6079153 36.4248941,23.7409581 L43.1519021,27.6696526 C43.3822498,27.8045454 43.5411471,28.0755643 43.5411471,28.3434999 L43.5411471,35.6536096 Z M25.8254364,35.7445826 C25.8254364,36.0196756 25.6932409,36.2923028 25.4547407,36.4236076 L20.9529348,38.9039138 C20.8548542,38.9573913 20.7430668,38.9857482 20.6347822,38.9857482 C20.2825146,38.9857482 20,38.6997132 20,38.334926 L20,25.8264401 C20,25.4616529 20.2747474,25.175772 20.6270149,25.175772 C20.7352995,25.175772 20.8429749,25.2039748 20.9410555,25.2576064 L25.4559591,27.7379126 C25.6950685,27.8690633 25.8254364,28.1418446 25.8254364,28.4169376 L25.8254364,35.7445826 Z M37.6985767,21.4374549 C37.4676226,21.302133 37.3167082,21.0302521 37.3167082,20.7608455 L37.3167082,15.6512462 C37.3167082,15.2862638 37.5887513,15 37.940834,15 C38.0547835,15 38.1656781,15.0313947 38.2677134,15.0912456 L49.7578289,21.8076956 C49.9654126,21.9290986 50.0883742,22.1412833 50.0847083,22.3755835 C50.0818061,22.6094197 49.9541093,22.8178927 49.7428597,22.9338829 L45.2273419,25.4071028 C45.1175165,25.4674177 44.9904307,25.4988124 44.8586097,25.4988124 C44.7183876,25.4988124 44.5847337,25.4638606 44.4701732,25.396741 L37.6985767,21.4374549 Z M22.2622216,22.9332643 C22.0511201,22.8178927 21.9181705,22.6088011 21.9152703,22.3749649 C21.9122175,22.1412833 22.0291399,21.9290986 22.236578,21.8076956 L33.7084088,15.0912456 C33.809762,15.0313947 33.9034831,15 34.0173527,15 C34.3696464,15 34.6034913,15.2862638 34.6034913,15.6512462 L34.6034913,20.7608455 C34.6034913,21.0302521 34.4906901,21.3015144 34.2606613,21.4368363 L27.5330421,25.3961224 C27.418562,25.463242 27.2843912,25.4988124 27.1438095,25.4988124 C27.0119283,25.4988124 26.8843211,25.4667991 26.7751833,25.4071028 L22.2622216,22.9332643 Z M51.4026834,25.0950119 C51.7554078,25.0950119 52,25.3812186 52,25.7464215 L52,38.2691617 C52,38.4246854 51.9803534,38.566323 51.886385,38.68204 C51.7672871,38.8284606 51.6239738,38.9049881 51.4358845,38.9049881 L51.4371029,38.9049881 C51.3294275,38.9049881 51.2139849,38.8846219 51.1159044,38.8303121 L46.5815065,36.3556653 C46.3422448,36.2248279 46.1745636,35.9512729 46.1745636,35.6758665 L46.1745636,28.3398711 C46.1745636,28.0638474 46.3344775,27.7907553 46.5737392,27.6600722 L51.104025,25.1769395 C51.2014964,25.1232468 51.295008,25.0950119 51.4026834,25.0950119 Z M34.25995,42.58356 C34.490657,42.718505 34.6034913,42.9896287 34.6034913,43.2576679 L34.6034913,48.3530353 C34.6034913,48.507875 34.5963151,48.6500684 34.503788,48.7663524 C34.3851517,48.9157943 34.2497201,49 34.0588638,49 C33.9449608,49 33.8298363,48.9699266 33.7272319,48.9102423 L22.3230352,42.2606175 C22.1155363,42.1401694 21.9920141,41.92873 21.9950678,41.6955451 C21.9979688,41.4623602 22.1231705,41.2540052 22.3343339,41.138955 L26.8432752,38.6720069 C27.0700124,38.5478575 27.3694278,38.5526384 27.5918898,38.6828025 L34.25995,42.58356 Z M49.6618413,41.1380185 C49.8731029,41.2530373 50.002029,41.4608729 50.0049314,41.6944566 C50.0079865,41.9275778 49.8862399,42.1395763 49.6780334,42.2599914 L38.2696005,48.9090334 C38.1675594,48.9680846 38.0548255,49 37.9408695,49 C37.5887668,49 37.3167082,48.7144574 37.3167082,48.3501284 L37.3167082,43.2561528 C37.3167082,42.98757 37.4676312,42.7171371 37.6985984,42.582229 L44.3870221,38.6825369 C44.6101987,38.5524084 44.9198352,38.5482456 45.1460669,38.6717443 L49.6618413,41.1380185 Z" id="path-4"></path>
        <filter x="-28.1%" y="-26.5%" width="156.3%" height="152.9%" filterUnits="objectBoundingBox" id="filter-5">
            <feOffset dx="0" dy="0" in="SourceAlpha" result="shadowOffsetOuter1"></feOffset>
            <feGaussianBlur stdDeviation="3" in="shadowOffsetOuter1" result="shadowBlurOuter1"></feGaussianBlur>
            <feColorMatrix values="0 0 0 0 1   0 0 0 0 1   0 0 0 0 1  0 0 0 1 0" type="matrix" in="shadowBlurOuter1"></feColorMatrix>
        </filter>
    </defs>
    <g id="*Hard-Launch-Version" stroke="none" stroke-width="1" fill="none" fill-rule="evenodd">
        <g id="Invite-friends-(NEW)---affiliate" transform="translate(-240.000000, -2329.000000)">
            <g id="Group-3" transform="translate(240.000000, 2090.000000)">
                <g id="bronze-copy" transform="translate(0.000000, 236.000000)">
                    <g id="Group" transform="translate(4.000000, 8.000000)">
                        <g id="Mask" transform="translate(36.000000, 32.000000) rotate(90.000000) translate(-36.000000, -32.000000) ">
                            <use fill="black" fill-opacity="1" filter="url(#filter-3)" xlink:href="#path-2"></use>
                            <use fill="url(#linearGradient-1)" fill-rule="evenodd" xlink:href="#path-2"></use>
                        </g>
                        <g id="Combined-Shape" fill-rule="nonzero">
                            <use fill="black" fill-opacity="1" filter="url(#filter-5)" xlink:href="#path-4"></use>
                            <use fill="#FFFFFF" xlink:href="#path-4"></use>
                        </g>
                    </g>
                </g>
            </g>
        </g>
    </g>
</svg>