<?xml version="1.0" encoding="UTF-8"?>
<svg width="80px" height="74px" viewBox="0 0 80 74" version="1.1" xmlns="http://www.w3.org/2000/svg" xmlns:xlink="http://www.w3.org/1999/xlink">
    <!-- Generator: sketchtool 55 (78076) - https://sketchapp.com -->
    <title>50D5136B-7040-4C9C-AA66-E875384CBA93</title>
    <desc>Created with sketchtool.</desc>
    <defs>
        <linearGradient x1="3.20150299%" y1="0%" x2="97.9338685%" y2="122.347882%" id="linearGradient-1">
            <stop stop-color="#F7F7F7" offset="0%"></stop>
            <stop stop-color="#E8E8E8" offset="9.71975985%"></stop>
            <stop stop-color="#B6B6B6" offset="100%"></stop>
        </linearGradient>
        <path d="M5.69720598,10.6493356 L34.9478697,-3.37534781 C35.7708795,-3.76995262 36.7290578,-3.767012 37.5496302,-3.3673631 L66.3193171,10.6445329 C67.3475475,11.1453189 68,12.1888083 68,13.3325059 L68,50.6674941 C68,51.8111917 67.3475475,52.8546811 66.3193171,53.3554671 L37.5496302,67.3673631 C36.7290578,67.767012 35.7708795,67.7699526 34.9478697,67.3753478 L5.69720598,53.3506644 C4.65994871,52.8533354 4,51.8050278 4,50.6547066 L4,13.3452934 C4,12.1949722 4.65994871,11.1466646 5.69720598,10.6493356 Z" id="path-2"></path>
        <filter x="-11.7%" y="-10.0%" width="123.4%" height="119.9%" filterUnits="objectBoundingBox" id="filter-3">
            <feOffset dx="0" dy="0" in="SourceAlpha" result="shadowOffsetOuter1"></feOffset>
            <feGaussianBlur stdDeviation="2.5" in="shadowOffsetOuter1" result="shadowBlurOuter1"></feGaussianBlur>
            <feColorMatrix values="0 0 0 0 0.86   0 0 0 0 0.851973379   0 0 0 0 0.851400014  0 0 0 1 0" type="matrix" in="shadowBlurOuter1"></feColorMatrix>
        </filter>
        <path d="M50.7407352,26.9163111 C50.7458393,27.0067556 50.7396187,27.0976889 50.717129,27.1887852 L48.7432972,35.2554519 C48.6436087,35.6622074 48.2872822,35.9480444 47.8772037,35.949837 L36.0342131,36.0111111 C36.0330966,36.0111111 36.0318206,36.0111111 36.0299065,36.0111111 L24.1869159,36.0111111 C23.7750829,36.0111111 23.4162044,35.7246222 23.3165159,35.3159111 L21.3426841,27.2186074 C21.3195564,27.1250667 21.3133358,27.0308741 21.3190779,26.938637 C20.5550654,26.6928889 20,25.9626519 20,25.1026963 C20,24.0408296 20.8448798,23.1777778 21.8840324,23.1777778 C22.9233445,23.1777778 23.7682243,24.0408296 23.7682243,25.1026963 C23.7682243,25.7004444 23.5002617,26.2351259 23.0802941,26.5884296 L25.5514517,29.1327704 C26.1763788,29.7758222 27.0429508,30.1444444 27.9296199,30.1444444 C28.9781832,30.1444444 29.9776199,29.6356741 30.6068536,28.7833778 L34.6685607,23.2853333 C34.3270679,22.9370815 34.1158879,22.4558519 34.1158879,21.9249185 C34.1158879,20.8630519 34.9607676,20 35.9999202,20 C37.0392324,20 37.8841121,20.8630519 37.8841121,21.9249185 C37.8841121,22.4398815 37.6840972,22.9070963 37.3607875,23.2527407 C37.3620636,23.2540444 37.3631801,23.2553481 37.3644561,23.2573037 L41.3963364,28.7700148 C42.0255701,29.6306222 43.0286754,30.1444444 44.0797907,30.1444444 C44.9744349,30.1444444 45.8161246,29.7885333 46.4485483,29.1417333 L48.9358156,26.6011407 C48.5072349,26.247837 48.2317757,25.7081037 48.2317757,25.1026963 C48.2317757,24.0408296 49.0766555,23.1777778 50.1158081,23.1777778 C51.1551202,23.1777778 52,24.0408296 52,25.1026963 C52,25.939837 51.4728474,26.6521481 50.7407352,26.9163111 Z M48.5507788,38.8831704 C48.5507788,38.3771704 48.1488349,37.9666667 47.6535826,37.9666667 L24.4461059,37.9666667 C23.9508536,37.9666667 23.5489097,38.3771704 23.5489097,38.8831704 L23.5489097,41.0831704 C23.5489097,41.5893333 23.9508536,42 24.4461059,42 L47.6535826,42 C48.1488349,42 48.5507788,41.5893333 48.5507788,41.0831704 L48.5507788,38.8831704 Z" id="path-4"></path>
        <filter x="-32.8%" y="-47.7%" width="165.6%" height="195.5%" filterUnits="objectBoundingBox" id="filter-5">
            <feOffset dx="0" dy="0" in="SourceAlpha" result="shadowOffsetOuter1"></feOffset>
            <feGaussianBlur stdDeviation="3.5" in="shadowOffsetOuter1" result="shadowBlurOuter1"></feGaussianBlur>
            <feColorMatrix values="0 0 0 0 1   0 0 0 0 1   0 0 0 0 1  0 0 0 1 0" type="matrix" in="shadowBlurOuter1"></feColorMatrix>
        </filter>
    </defs>
    <g id="*Hard-Launch-Version" stroke="none" stroke-width="1" fill="none" fill-rule="evenodd">
        <g id="Invite-friends-(NEW)---affiliate" transform="translate(-612.000000, -2211.000000)">
            <g id="Group-3" transform="translate(240.000000, 2090.000000)">
                <g id="bronze-copy-2" transform="translate(372.000000, 118.000000)">
                    <g id="Group" transform="translate(4.000000, 8.000000)">
                        <g id="Mask" transform="translate(36.000000, 32.000000) rotate(90.000000) translate(-36.000000, -32.000000) ">
                            <use fill="black" fill-opacity="1" filter="url(#filter-3)" xlink:href="#path-2"></use>
                            <use fill="url(#linearGradient-1)" fill-rule="evenodd" xlink:href="#path-2"></use>
                        </g>
                        <g id="Fill-1" fill-rule="nonzero">
                            <use fill="black" fill-opacity="1" filter="url(#filter-5)" xlink:href="#path-4"></use>
                            <use fill="#FFFFFF" xlink:href="#path-4"></use>
                        </g>
                    </g>
                </g>
            </g>
        </g>
    </g>
</svg>