<?xml version="1.0" encoding="UTF-8"?>
<svg width="44px" height="44px" viewBox="0 0 44 44" version="1.1" xmlns="http://www.w3.org/2000/svg" xmlns:xlink="http://www.w3.org/1999/xlink">
    <!-- Generator: sketchtool 55.1 (78136) - https://sketchapp.com -->
    <title>2B8BE66C-CA12-4AE6-8E6A-E1454FA68B28</title>
    <desc>Created with sketchtool.</desc>
    <g id="*Statistics" stroke="none" stroke-width="1" fill="none" fill-rule="evenodd">
        <g id="Loteo-Admin---Statistics" transform="translate(-322.000000, -1774.000000)" fill="#DA2814">
            <g id="Group-27" transform="translate(296.000000, 1744.000000)">
                <path d="M37.2766113,48.6344806 C37.0506897,48.6344806 36.8291321,48.5424999 36.6690064,48.3827086 C36.5092163,48.2225817 36.4172363,48.0010224 36.4172363,47.775099 C36.4172363,47.5488399 36.5092163,47.3272806 36.6690064,47.1674894 C36.8291321,47.0076981 37.0496826,46.9157175 37.2766113,46.9157175 C37.5028686,46.9157175 37.7244263,47.0076981 37.8842163,47.1674894 C38.0440064,47.3272806 38.1359863,47.5488399 38.1359863,47.775099 C38.1359863,48.0010224 38.0440064,48.2225817 37.8842163,48.3827086 C37.7244263,48.5424999 37.5028686,48.6344806 37.2766113,48.6344806 Z M49.5871582,47.4964714 C49.7469482,47.6562626 49.8382568,47.8781576 49.8382568,48.1040809 C49.8382568,48.3310115 49.7469482,48.5518993 49.5871582,48.7116906 C49.4266967,48.8714819 49.2058105,48.9634625 48.9788818,48.9634625 C48.7529602,48.9634625 48.5310669,48.8714819 48.3712768,48.7116906 C48.2114869,48.5518993 48.1195068,48.3300044 48.1195068,48.1040809 C48.1195068,47.8781576 48.2114869,47.6562626 48.3712768,47.4964714 C48.5310669,47.3366801 48.7529602,47.2446994 48.9788818,47.2446994 C49.2058105,47.2446994 49.4266967,47.3366801 49.5871582,47.4964714 Z M51.9873658,45.9556271 C51.7607727,45.9556271 51.5388794,45.8636464 51.3790893,45.7038552 C51.2192994,45.5440639 51.1273193,45.3221689 51.1273193,45.0962455 C51.1273193,44.8703222 51.2192994,44.6484272 51.3790893,44.4886359 C51.5388794,44.3288447 51.7607727,44.2368639 51.9873658,44.2368639 C52.213623,44.2368639 52.4351807,44.3288447 52.5949707,44.4886359 C52.7547607,44.6484272 52.8460693,44.8703222 52.8460693,45.0962455 C52.8460693,45.3221689 52.7547607,45.5440639 52.5949707,45.7038552 C52.4351807,45.8636464 52.213623,45.9556271 51.9873658,45.9556271 Z M67.421875,51.1404506 C68.8435364,51.1404506 70,52.296923 70,53.7185953 L70,59.1326991 C70,59.6070374 69.6152955,59.9920806 69.140625,59.9920806 C67.7189636,59.9920806 66.5625,61.1485531 66.5625,62.5702253 C66.5625,63.9915618 67.7189636,65.14837 69.140625,65.14837 C69.6152955,65.14837 70,65.5330775 70,66.0077515 L70,71.4218553 C70,72.8431918 68.8435364,74 67.421875,74 L28.578125,74 C27.1564636,74 26,72.8431918 26,71.4218553 L26,66.0077515 C26,65.5330775 26.3847045,65.14837 26.859375,65.14837 C28.2810364,65.14837 29.4375,63.9915618 29.4375,62.5702253 C29.4375,61.1485531 28.2810364,59.9920806 26.859375,59.9920806 C26.3847045,59.9920806 26,59.6070374 26,59.1326991 L26,53.7185953 C26,52.296923 27.1564636,51.1404506 28.578125,51.1404506 L38.8939819,51.1404506 L51.6832275,38.3511074 C52.0189209,38.0154115 52.5630798,38.0154115 52.8987732,38.3511074 L61.649292,47.101693 C61.9846497,47.4370532 61.9846497,47.9812163 61.649292,48.3169122 L58.8257751,51.1404506 L62.5932617,51.1404506 L68.0298157,45.7038552 C68.3648376,45.3688307 68.3648376,44.8236605 68.0298157,44.4886359 L64.7487488,41.207544 C64.0515137,41.6704687 63.2341003,41.9188836 62.378418,41.9188836 C61.2306824,41.9188836 60.1517639,41.4717367 59.3400574,40.6603596 C58.5283509,39.8486469 58.081543,38.7697202 58.081543,37.6219759 C58.081543,36.766287 58.3299561,35.9485317 58.7928772,35.251627 L55.5114746,31.9705351 C55.3493347,31.8080582 55.1334838,31.7187631 54.9038697,31.7187631 C54.6742553,31.7187631 54.4587402,31.8080582 54.2962646,31.9705351 L40.1028137,46.1640943 C39.7671204,46.4997902 39.2229615,46.4997902 38.8872681,46.1640943 C38.5515747,45.8283984 38.5515747,45.2842352 38.8872681,44.9488751 L53.0810547,30.7553158 C53.56781,30.2682211 54.2153626,30 54.9038697,30 C55.5927124,30 56.2399292,30.2682211 56.7270202,30.7553158 L60.5552673,34.5835921 C60.7164001,34.7447262 60.8070374,34.9632642 60.8070374,35.1912017 C60.8070374,35.4191393 60.7164001,35.6376772 60.5552673,35.7988113 C60.068512,36.2859061 59.800293,36.9331278 59.800293,37.6219759 C59.800293,38.3104882 60.0681763,38.9580456 60.5552673,39.4448047 C61.0423584,39.9318995 61.6895752,40.2001205 62.378418,40.2001205 C63.0669251,40.2001205 63.7144775,39.9318995 64.201233,39.4448047 C64.5369263,39.1094445 65.0810852,39.1094445 65.4164428,39.4448047 L69.2450257,43.2734167 C69.731781,43.7601758 70,44.4077332 70,45.0962455 C70,45.7847579 69.731781,46.4323153 69.2450257,46.9194101 L65.0240173,51.1404506 L67.421875,51.1404506 Z M52.2908326,40.1739363 L41.3247376,51.1401149 L50.5613404,51.1401149 L54.2962646,47.4054978 C54.631958,47.0698018 55.1761169,47.0698018 55.5114746,47.4054978 C55.847168,47.7411937 55.847168,48.2853568 55.5114746,48.620717 L52.992096,51.1404506 L56.3950195,51.1404506 L59.8261413,47.7093025 L52.2908326,40.1739363 Z M68.28125,58.3595914 L68.28125,53.7185953 C68.28125,53.2445926 67.895874,52.8592137 67.421875,52.8592137 L28.578125,52.8592137 C28.104126,52.8592137 27.71875,53.2445926 27.71875,53.7185953 L27.71875,58.3595914 C29.6775208,58.7590695 31.15625,60.4949531 31.15625,62.5702253 C31.15625,64.6451618 29.6775208,66.3813811 27.71875,66.7808593 L27.71875,71.4218553 C27.71875,71.8955222 28.104126,72.2812369 28.578125,72.2812369 L67.421875,72.2812369 C67.895874,72.2812369 68.28125,71.8955222 68.28125,71.4218553 L68.28125,66.7808593 C66.3224792,66.3813811 64.84375,64.6451618 64.84375,62.5702253 C64.84375,60.4949531 66.3224792,58.7587338 68.28125,58.3595914 Z M44.3536987,61.1153191 C44.1939087,61.2751104 43.9720154,61.3670911 43.7460938,61.3670911 C43.5201721,61.3670911 43.2982788,61.2751104 43.1384888,61.1153191 C42.9786987,60.9551922 42.8867188,60.7336329 42.8867188,60.5077096 C42.8867188,60.2814505 42.9786987,60.0598912 43.1384888,59.9000999 C43.2982788,59.7403087 43.5201721,59.648328 43.7460938,59.648328 C43.9720154,59.648328 44.1939087,59.7403087 44.3536987,59.9000999 C44.5134888,60.0598912 44.6054688,60.2814505 44.6054688,60.5077096 C44.6054688,60.7336329 44.5134888,60.9551922 44.3536987,61.1153191 Z M52.8615112,61.1153191 C52.7017212,61.2751104 52.4798279,61.3670911 52.2539062,61.3670911 C52.0279846,61.3670911 51.8060913,61.2751104 51.6463013,61.1153191 C51.4865112,60.9551922 51.3945312,60.7336329 51.3945312,60.5077096 C51.3945312,60.2814505 51.4865112,60.0598912 51.6463013,59.9000999 C51.8060913,59.7403087 52.0279846,59.648328 52.2539062,59.648328 C52.4798279,59.648328 52.7017212,59.7403087 52.8615112,59.9000999 C53.0213013,60.0598912 53.1132813,60.2814505 53.1132813,60.5077096 C53.1132813,60.7336329 53.0213013,60.9551922 52.8615112,61.1153191 Z M48.6076049,61.1153191 C48.447815,61.2751104 48.2259216,61.3670911 48,61.3670911 C47.7740784,61.3670911 47.552185,61.2751104 47.3923951,61.1153191 C47.2326049,60.9551922 47.140625,60.7336329 47.140625,60.5077096 C47.140625,60.2814505 47.2326049,60.0598912 47.3923951,59.9000999 C47.552185,59.7403087 47.7740784,59.648328 48,59.648328 C48.2259216,59.648328 48.447815,59.7403087 48.6076049,59.9000999 C48.7673951,60.0598912 48.859375,60.2814505 48.859375,60.5077096 C48.859375,60.7336329 48.7673951,60.9551922 48.6076049,61.1153191 Z M39.4921875,61.3670911 C39.2662659,61.3670911 39.0443725,61.2751104 38.8845826,61.1153191 C38.7247924,60.9551922 38.6328125,60.7336329 38.6328125,60.5077096 C38.6328125,60.2814505 38.7247924,60.0598912 38.8845826,59.9000999 C39.0443725,59.7403087 39.2662659,59.648328 39.4921875,59.648328 C39.7181091,59.648328 39.9400025,59.7403087 40.0997924,59.9000999 C40.2595826,60.0598912 40.3515625,60.2814505 40.3515625,60.5077096 C40.3515625,60.7336329 40.2595826,60.9551922 40.0997924,61.1153191 C39.9400025,61.2751104 39.7181091,61.3670911 39.4921875,61.3670911 Z M57.1154174,61.1153191 C56.9556275,61.2751104 56.7337341,61.3670911 56.5078125,61.3670911 C56.2818909,61.3670911 56.0599975,61.2751104 55.9002076,61.1153191 C55.7404174,60.9551922 55.6484375,60.7336329 55.6484375,60.5077096 C55.6484375,60.2814505 55.7404174,60.0598912 55.9002076,59.9000999 C56.0599975,59.7403087 56.2818909,59.648328 56.5078125,59.648328 C56.7337341,59.648328 56.9556275,59.7403087 57.1154174,59.9000999 C57.2752076,60.0598912 57.3671875,60.2814505 57.3671875,60.5077096 C57.3671875,60.7336329 57.2752076,60.9551922 57.1154174,61.1153191 Z M39.4921875,65.4921226 C39.017517,65.4921226 38.6328125,65.1070794 38.6328125,64.632741 C38.6328125,64.158067 39.017517,63.7733595 39.4921875,63.7733595 L56.5078125,63.7733595 C56.982483,63.7733595 57.3671875,64.158067 57.3671875,64.632741 C57.3671875,65.1070794 56.982483,65.4921226 56.5078125,65.4921226 L39.4921875,65.4921226 Z M42.6134643,67.898391 C42.8403931,67.898391 43.0612793,67.9903716 43.2210693,68.1501628 C43.3818665,68.3099541 43.4728393,68.5315134 43.4728393,68.7577725 C43.4728393,68.9836958 43.3818665,69.2052551 43.2210693,69.3653821 C43.0612793,69.5251733 42.8403931,69.6171541 42.6134643,69.6171541 C42.3875427,69.6171541 42.1656494,69.5251733 42.0058594,69.3653821 C41.8460693,69.2052551 41.7540893,68.9836958 41.7540893,68.7577725 C41.7540893,68.5315134 41.8460693,68.3099541 42.0058594,68.1501628 C42.1656494,67.9903716 42.3875427,67.898391 42.6134643,67.898391 Z M61.0625,55.5232965 C61.5371705,55.5232965 61.921875,55.908004 61.921875,56.3826781 L61.921875,68.7577725 C61.921875,69.2321108 61.5371705,69.6171541 61.0625,69.6171541 L46.251709,69.6171541 C45.7770385,69.6171541 45.392334,69.2321108 45.392334,68.7577725 C45.392334,68.2830984 45.7770385,67.898391 46.251709,67.898391 L60.203125,67.898391 L60.203125,57.2420597 L35.796875,57.2420597 L35.796875,67.898391 L38.517334,67.898391 C38.9920044,67.898391 39.376709,68.2830984 39.376709,68.7577725 C39.376709,69.2321108 38.9920044,69.6171541 38.517334,69.6171541 L34.9375,69.6171541 C34.4628295,69.6171541 34.078125,69.2321108 34.078125,68.7577725 L34.078125,56.3826781 C34.078125,55.908004 34.4628295,55.5232965 34.9375,55.5232965 L61.0625,55.5232965 Z" id="loteomaxx-graphic"></path>
            </g>
        </g>
    </g>
</svg>