<?xml version="1.0" encoding="UTF-8"?>
<svg width="47px" height="41px" viewBox="0 0 47 41" version="1.1" xmlns="http://www.w3.org/2000/svg" xmlns:xlink="http://www.w3.org/1999/xlink">
    <!-- Generator: sketchtool 55.1 (78136) - https://sketchapp.com -->
    <title>6438C769-D919-4ADA-8BFE-D2B500370D16</title>
    <desc>Created with sketchtool.</desc>
    <g id="*Statistics" stroke="none" stroke-width="1" fill="none" fill-rule="evenodd">
        <g id="Loteo-Admin---Statistics" transform="translate(-1060.000000, -1639.000000)" fill="#DA2814">
            <g id="Group-23" transform="translate(1036.000000, 1608.000000)">
                <path d="M48.5105,62.7671154 C48.8081667,62.4753846 49.333,62.4832692 49.6228333,62.7671154 C49.7638333,62.9161346 49.85,63.1219231 49.85,63.3269231 C49.85,63.5319231 49.7638333,63.7369231 49.6228333,63.8867308 C49.474,64.0286538 49.2703333,64.1153846 49.0666667,64.1153846 C48.863,64.1153846 48.65855,64.0286538 48.5105,63.8867308 C48.3616667,63.7369231 48.2833333,63.5319231 48.2833333,63.3269231 C48.2833333,63.1219231 48.3687167,62.9161346 48.5105,62.7671154 Z M31.8333333,50.7257308 C31.40015,50.7257308 31.05,50.3732885 31.05,49.9372692 C31.05,49.50125 31.40015,49.1488077 31.8333333,49.1488077 L47.5,49.1488077 C47.9331833,49.1488077 48.2833333,49.50125 48.2833333,49.9372692 C48.2833333,50.3732885 47.9331833,50.7257308 47.5,50.7257308 L31.8333333,50.7257308 Z M32.6166667,62.5526538 C33.04985,62.5526538 33.4,62.9050962 33.4,63.3411154 C33.4,63.7771346 33.04985,64.1295769 32.6166667,64.1295769 L31.8333333,64.1295769 C31.40015,64.1295769 31.05,63.7771346 31.05,63.3411154 C31.05,62.9050962 31.40015,62.5526538 31.8333333,62.5526538 L32.6166667,62.5526538 Z M37.3166667,62.5526538 C37.74985,62.5526538 38.1,62.9050962 38.1,63.3411154 C38.1,63.7771346 37.74985,64.1295769 37.3166667,64.1295769 L35.75,64.1295769 C35.3168167,64.1295769 34.9666667,63.7771346 34.9666667,63.3411154 C34.9666667,62.9050962 35.3168167,62.5526538 35.75,62.5526538 L37.3166667,62.5526538 Z M41.2333333,62.5526538 C41.6665167,62.5526538 42.0166667,62.9050962 42.0166667,63.3411154 C42.0166667,63.7771346 41.6665167,64.1295769 41.2333333,64.1295769 L40.45,64.1295769 C40.0168167,64.1295769 39.6666667,63.7771346 39.6666667,63.3411154 C39.6666667,62.9050962 40.0168167,62.5526538 40.45,62.5526538 L41.2333333,62.5526538 Z M45.9333333,62.5526538 C46.3665167,62.5526538 46.7166667,62.9050962 46.7166667,63.3411154 C46.7166667,63.7771346 46.3665167,64.1295769 45.9333333,64.1295769 L44.3666667,64.1295769 C43.9334833,64.1295769 43.5833333,63.7771346 43.5833333,63.3411154 C43.5833333,62.9050962 43.9334833,62.5526538 44.3666667,62.5526538 L45.9333333,62.5526538 Z M57.9187797,62.5384615 C58.351963,62.5384615 58.702113,62.8909038 58.702113,63.3269231 C58.702113,63.7629423 58.351963,64.1153846 57.9187797,64.1153846 L52.2,64.1153846 C51.7668167,64.1153846 51.4166667,63.7629423 51.4166667,63.3269231 C51.4166667,62.8909038 51.7668167,62.5384615 52.2,62.5384615 L57.9187797,62.5384615 Z M63.0323554,53.8795769 C63.4655387,53.8795769 63.8156887,54.2320192 63.8156887,54.6680385 C63.8156887,55.1040577 63.4655387,55.4565 63.0323554,55.4565 L31.8333333,55.4565 C31.40015,55.4565 31.05,55.1040577 31.05,54.6680385 C31.05,54.2320192 31.40015,53.8795769 31.8333333,53.8795769 L63.0323554,53.8795769 Z M63.0323554,58.6245385 C63.4655387,58.6245385 63.8156887,58.9769808 63.8156887,59.413 C63.8156887,59.8490192 63.4655387,60.2014615 63.0323554,60.2014615 L31.8333333,60.2014615 C31.40015,60.2014615 31.05,59.8490192 31.05,59.413 C31.05,58.9769808 31.40015,58.6245385 31.8333333,58.6245385 L63.0323554,58.6245385 Z M67.3355667,38.8846154 C69.3557833,38.8846154 71,40.5395962 71,42.5730385 L71,68.3115769 C71,70.3450192 69.3557833,72 67.33635,72 L27.6644333,72 C25.6442167,72 24,70.3450192 24,68.3123654 L24,42.5730385 C24,40.5395962 25.6442167,38.8846154 27.6644333,38.8846154 L42.0166667,38.8846154 L42.0166667,32.8237115 C42.0166667,31.8176346 42.8289833,31 43.8277333,31 L51.1714833,31 C52.1710167,31 52.9833333,31.8176346 52.9833333,32.8237115 L52.9833333,38.8846154 L67.3355667,38.8846154 Z M43.5833333,32.8237115 L43.5833333,38.8846154 L43.5833333,43.3693846 C43.5833333,43.5042115 43.6937833,43.6153846 43.8277333,43.6153846 L51.1714833,43.6153846 C51.3062167,43.6153846 51.4166667,43.5042115 51.4166667,43.3693846 L51.4166667,38.8846154 L51.4166667,32.8237115 C51.4166667,32.6880962 51.3062167,32.5769231 51.1714833,32.5769231 L43.8277333,32.5769231 C43.6937833,32.5769231 43.5833333,32.6880962 43.5833333,32.8237115 Z M69.4333333,68.3115769 L69.4333333,42.5730385 C69.4333333,41.4084808 68.49255,40.4615385 67.3355667,40.4615385 L52.9833333,40.4615385 L52.9833333,43.3693846 C52.9833333,44.3746731 52.1710167,45.1923077 51.1714833,45.1923077 L43.8277333,45.1923077 C42.8289833,45.1923077 42.0166667,44.3746731 42.0166667,43.3693846 L42.0166667,40.4615385 L27.6644333,40.4615385 C26.50745,40.4615385 25.5666667,41.4084808 25.5666667,42.5730385 L25.5666667,68.3115769 C25.5666667,69.4761346 26.50745,70.4230769 27.6644333,70.4230769 L67.3355667,70.4230769 C68.49255,70.4230769 69.4333333,69.4761346 69.4333333,68.3115769 Z M47.5,39.6730769 C45.7719667,39.6730769 44.3666667,38.2585769 44.3666667,36.5192308 C44.3666667,34.7798846 45.7719667,33.3653846 47.5,33.3653846 C49.2280333,33.3653846 50.6333333,34.7798846 50.6333333,36.5192308 C50.6333333,38.2585769 49.2280333,39.6730769 47.5,39.6730769 Z M47.5,34.9423077 C46.6359833,34.9423077 45.9333333,35.6495577 45.9333333,36.5192308 C45.9333333,37.3889038 46.6359833,38.0961538 47.5,38.0961538 C48.3640167,38.0961538 49.0666667,37.3889038 49.0666667,36.5192308 C49.0666667,35.6495577 48.3640167,34.9423077 47.5,34.9423077 Z" id="loteopass-graphic"></path>
            </g>
        </g>
    </g>
</svg>