<?xml version="1.0" encoding="UTF-8"?>
<svg width="48px" height="36px" viewBox="0 0 48 36" version="1.1" xmlns="http://www.w3.org/2000/svg" xmlns:xlink="http://www.w3.org/1999/xlink">
    <!-- Generator: Sketch 52.2 (67145) - http://www.bohemiancoding.com/sketch -->
    <title>afghanistan-flag-icon</title>
    <desc>Created with Sketch.</desc>
    <g id="Page-1" stroke="none" stroke-width="1" fill="none" fill-rule="evenodd">
        <g id="Flags" transform="translate(-1296.000000, -400.000000)">
            <g id="afghanistan-flag-icon" transform="translate(1296.000000, 400.000000)">
                <rect id="Rectangle" fill="#BD0712" x="16" y="0" width="16" height="36"></rect>
                <path d="M48,34 C48,35.105 47.105,36 46,36 L32,36 L32,0 L46,0 C47.105,0 48,0.895 48,2 L48,34 Z" id="Path" fill="#149717"></path>
                <path d="M16,36 L2,36 C0.895,36 0,35.105 0,34 L0,2 C0,0.895 0.895,0 2,0 L16,0 L16,36 Z" id="Path" fill="#000000"></path>
                <path d="M18,18 C18,21.314 20.686,24 24,24 C27.314,24 30,21.314 30,18 L18,18 Z M24,22 C21.791,22 20,20.209 20,18 C20,15.791 24,12 24,12 C24,12 28,15.791 28,18 C28,20.209 26.209,22 24,22 Z" id="Shape" fill="#FFFFFF" fill-rule="nonzero"></path>
            </g>
        </g>
    </g>
</svg>