<?xml version="1.0" encoding="UTF-8"?>
<svg width="48px" height="36px" viewBox="0 0 48 36" version="1.1" xmlns="http://www.w3.org/2000/svg" xmlns:xlink="http://www.w3.org/1999/xlink">
    <!-- Generator: Sketch 52.2 (67145) - http://www.bohemiancoding.com/sketch -->
    <title>albania-flag-icon</title>
    <desc>Created with Sketch.</desc>
    <g id="Page-1" stroke="none" stroke-width="1" fill="none" fill-rule="evenodd">
        <g id="Flags" transform="translate(-1296.000000, -478.000000)">
            <g id="albania-flag-icon" transform="translate(1296.000000, 478.000000)">
                <path d="M48,34 C48,35.105 47.105,36 46,36 L2,36 C0.895,36 0,35.105 0,34 L0,2 C0,0.895 0.895,0 2,0 L46,0 C47.105,0 48,0.895 48,2 L48,34 Z" id="Path" fill="#CE2029"></path>
                <path d="M21.49,29.383 C21.646,29.756 22.01,30 22.414,30 L25.586,30 C25.99,30 26.354,29.756 26.51,29.383 C26.664,29.009 26.579,28.579 26.293,28.293 L24,26 L21.707,28.293 C21.421,28.579 21.336,29.009 21.49,29.383 Z" id="Path" fill="#000000"></path>
                <path d="M26,12 L26,10 C26,8.896 26.896,8 28,8 C29.104,8 30,7.104 30,6 L26,6 C24.896,6 24,6.896 24,8 C24,6.896 23.104,6 22,6 L18,6 C18,7.104 18.896,8 20,8 C21.104,8 22,8.896 22,10 L22,12 L10,12 C10,13.105 10.896,14 12,14 L22,14 L22,16 L12,16 C12,17.105 12.896,18 14,18 L22,18 L22,20 L14,20 C14,21.104 14.896,22 16,22 L22,22 L22,24 L16,24 C16,25.105 16.896,26 18,26 L22,26 L24,26 L26,26 L30,26 C31.104,26 32,25.105 32,24 L26,24 L26,22 L32,22 C33.104,22 34,21.104 34,20 L26,20 L26,18 L34,18 C35.104,18 36,17.105 36,16 L26,16 L26,14 L36,14 C37.104,14 38,13.105 38,12 L26,12 Z" id="Path" fill="#000000"></path>
            </g>
        </g>
    </g>
</svg>