<?xml version="1.0" encoding="UTF-8"?>
<svg width="48px" height="36px" viewBox="0 0 48 36" version="1.1" xmlns="http://www.w3.org/2000/svg" xmlns:xlink="http://www.w3.org/1999/xlink">
    <!-- Generator: Sketch 52.2 (67145) - http://www.bohemiancoding.com/sketch -->
    <title>antigua-barbuda-flag-icon</title>
    <desc>Created with Sketch.</desc>
    <g id="Page-1" stroke="none" stroke-width="1" fill="none" fill-rule="evenodd">
        <g id="Flags" transform="translate(-1296.000000, -778.000000)">
            <g id="antigua-barbuda-flag-icon" transform="translate(1296.000000, 778.000000)">
                <path d="M48,34 C48,35.105 47.105,36 46,36 L24,36 L42,0 L46,0 C47.105,0 48,0.895 48,2 L48,34 Z" id="Path" fill="#D90E2B"></path>
                <path d="M24,36 L2,36 C0.895,36 0,35.105 0,34 L0,2 C0,0.895 0.895,0 2,0 L6,0 L24,36 Z" id="Path" fill="#D90E2B"></path>
                <polygon id="Path" fill="#FFFFFF" points="24 36 24 36 15 18 33 18"></polygon>
                <polygon id="Path" fill="#0472C9" points="33 18 15 18 12 12 36 12"></polygon>
                <path d="M6,0 L12,12 L16,12 C16,7.582 19.582,4 24,4 C28.418,4 32,7.582 32,12 L36,12 L42,0 L6,0 Z" id="Path" fill="#000302"></path>
                <path d="M32,12 C32,7.582 28.418,4 24,4 C19.582,4 16,7.582 16,12 L32,12 Z" id="Path" fill="#F8C422"></path>
            </g>
        </g>
    </g>
</svg>