<?xml version="1.0" encoding="UTF-8"?>
<svg width="48px" height="36px" viewBox="0 0 48 36" version="1.1" xmlns="http://www.w3.org/2000/svg" xmlns:xlink="http://www.w3.org/1999/xlink">
    <!-- Generator: Sketch 52.2 (67145) - http://www.bohemiancoding.com/sketch -->
    <title>australia-flag-icon</title>
    <desc>Created with Sketch.</desc>
    <g id="Page-1" stroke="none" stroke-width="1" fill="none" fill-rule="evenodd">
        <g id="Flags" transform="translate(-1296.000000, -973.000000)">
            <g id="australia-flag-icon" transform="translate(1296.000000, 973.000000)">
                <path d="M46,0 L2,0 C0.8954305,0 1.3527075e-16,0.8954305 0,2 L0,34 C1.3527075e-16,35.1045695 0.8954305,36 2,36 L46,36 C47.1045695,36 48,35.1045695 48,34 L48,2 C48,0.8954305 47.1045695,0 46,0 Z" id="Path" fill="#0F2E72"></path>
                <polygon id="Path" fill="#FF0000" points="19 13 16 13 16 13.25 22.333 18 24 18 24 16.75"></polygon>
                <path d="M0.12,1.34 L5,5 L8,5 L8,4.75 L1.706,0.03 C0.975230373,0.138590584 0.364672302,0.642897692 0.12,1.34 Z" id="Path" fill="#FF0000"></path>
                <polygon id="Path" fill="#FF0000" points="24 0 22.334 0 16 4.75 16 5 19.001 5 24 1.25"></polygon>
                <polygon id="Path" fill="#FF0000" points="0 16.75 0 18 1.667 18 8 13.25 8 13 5 13"></polygon>
                <polygon id="Path" fill="#FF0000" points="24 7 14 7 14 0 10 0 10 7 0 7 0 11 10 11 10 18 14 18 14 11 24 11"></polygon>
                <polygon id="Path" fill="#FFFFFF" points="12.172 24 12.905 26.059 14.879 25.121 13.941 27.095 16 27.828 13.941 28.561 14.879 30.535 12.905 29.596 12.172 31.656 11.439 29.596 9.465 30.535 10.404 28.561 8.344 27.828 10.404 27.095 9.465 25.121 11.439 26.059"></polygon>
                <polygon id="Path" fill="#FFFFFF" points="31.155 16.522 31.505 17.505 32.448 17.057 32 18 32.983 18.35 32 18.7 32.448 19.642 31.505 19.194 31.155 20.178 30.805 19.194 29.863 19.642 30.311 18.7 29.327 18.35 30.311 18 29.863 17.057 30.805 17.505"></polygon>
                <polygon id="Path" fill="#FFFFFF" points="36.172 7.344 36.522 8.327 37.465 7.879 37.017 8.822 38 9.172 37.017 9.522 37.465 10.465 36.522 10.016 36.172 11 35.822 10.016 34.879 10.465 35.328 9.522 34.344 9.172 35.328 8.822 34.879 7.879 35.822 8.327"></polygon>
                <polygon id="Path" fill="#FFFFFF" points="42.828 14.344 43.178 15.327 44.121 14.879 43.673 15.822 44.656 16.172 43.673 16.522 44.121 17.465 43.178 17.016 42.828 18 42.478 17.016 41.535 17.465 41.984 16.522 41 16.172 41.984 15.822 41.535 14.879 42.478 15.327"></polygon>
                <polygon id="Path" fill="#FFFFFF" points="36.172 25 36.522 25.983 37.465 25.535 37.017 26.478 38 26.828 37.017 27.178 37.465 28.121 36.522 27.672 36.172 28.656 35.822 27.672 34.879 28.121 35.328 27.178 34.344 26.828 35.328 26.478 34.879 25.535 35.822 25.983"></polygon>
            </g>
        </g>
    </g>
</svg>