<?xml version="1.0" encoding="UTF-8"?>
<svg width="48px" height="36px" viewBox="0 0 48 36" version="1.1" xmlns="http://www.w3.org/2000/svg" xmlns:xlink="http://www.w3.org/1999/xlink">
    <!-- Generator: Sketch 52.2 (67145) - http://www.bohemiancoding.com/sketch -->
    <title>azerbaijan-flag-icon</title>
    <desc>Created with Sketch.</desc>
    <g id="Page-1" stroke="none" stroke-width="1" fill="none" fill-rule="evenodd">
        <g id="Flags" transform="translate(-1200.000000, -1044.000000)">
            <g id="azerbaijan-flag-icon" transform="translate(1200.000000, 1044.000000)">
                <path d="M48,12 L0,12 L0,2 C0,0.895 0.895,0 2,0 L46,0 C47.105,0 48,0.895 48,2 L48,12 Z" id="Path" fill="#1799C1"></path>
                <rect id="Rectangle" fill="#DD0C39" x="0" y="12" width="48" height="12"></rect>
                <path d="M48,34 C48,35.105 47.105,36 46,36 L2,36 C0.895,36 0,35.105 0,34 L0,24 L48,24 L48,34 Z" id="Path" fill="#19AD67"></path>
                <path d="M26,22 C23.791,22 22,20.209 22,18 C22,15.791 23.791,14 26,14 C26.165,14 26.322,14.029 26.482,14.049 C25.384,12.803 23.793,12 22,12 C18.687,12 16,14.688 16,18 C16,21.313 18.687,24 22,24 C23.793,24 25.384,23.197 26.482,21.951 C26.322,21.971 26.165,22 26,22 Z" id="Path" fill="#FFFFFF"></path>
                <polygon id="Path" fill="#FFFFFF" points="31.357 16.643 31.235 17.721 32 18.482 31.084 19.059 30.964 20.133 29.941 19.777 29.025 20.354 28.669 19.33 27.647 18.973 28.224 18.059 27.865 17.037 28.94 16.914 29.517 16 30.281 16.766"></polygon>
            </g>
        </g>
    </g>
</svg>