<?xml version="1.0" encoding="UTF-8"?>
<svg width="48px" height="36px" viewBox="0 0 48 36" version="1.1" xmlns="http://www.w3.org/2000/svg" xmlns:xlink="http://www.w3.org/1999/xlink">
    <!-- Generator: Sketch 52.2 (67145) - http://www.bohemiancoding.com/sketch -->
    <title>belarus-flag-icon</title>
    <desc>Created with Sketch.</desc>
    <g id="Page-1" stroke="none" stroke-width="1" fill="none" fill-rule="evenodd">
        <g id="Flags" transform="translate(-1200.000000, -707.000000)">
            <g id="belarus-flag-icon" transform="translate(1200.000000, 707.000000)">
                <path d="M48,34 C48,35.105 47.105,36 46,36 L10,36 L10,26 L48,26 L48,34 Z" id="Path" fill="#009900"></path>
                <path d="M48,26 L10,26 L10,0 L46,0 C47.105,0 48,0.895 48,2 L48,26 Z" id="Path" fill="#CC0001"></path>
                <path d="M8,36 L2,36 C0.895,36 0,35.105 0,34 L0,2 C0,0.895 0.895,0 2,0 L8,0 L8,36 Z" id="Path" fill="#CC0001"></path>
                <rect id="Rectangle" fill="#E6E6E6" x="8" y="0" width="2" height="36"></rect>
                <rect id="Rectangle" fill="#E6E6E6" x="4" y="2" width="4" height="2"></rect>
                <rect id="Rectangle" fill="#E6E6E6" x="0" y="4" width="4" height="2"></rect>
                <rect id="Rectangle" fill="#E6E6E6" x="4" y="6" width="4" height="2"></rect>
                <rect id="Rectangle" fill="#E6E6E6" x="0" y="8" width="4" height="2"></rect>
                <rect id="Rectangle" fill="#E6E6E6" x="4" y="10" width="4" height="2"></rect>
                <rect id="Rectangle" fill="#E6E6E6" x="0" y="12" width="4" height="2"></rect>
                <rect id="Rectangle" fill="#E6E6E6" x="4" y="14" width="4" height="2"></rect>
                <rect id="Rectangle" fill="#E6E6E6" x="0" y="16" width="4" height="2"></rect>
                <rect id="Rectangle" fill="#E6E6E6" x="4" y="18" width="4" height="2"></rect>
                <rect id="Rectangle" fill="#E6E6E6" x="0" y="20" width="4" height="2"></rect>
                <rect id="Rectangle" fill="#E6E6E6" x="4" y="22" width="4" height="2"></rect>
                <rect id="Rectangle" fill="#E6E6E6" x="0" y="24" width="4" height="2"></rect>
                <rect id="Rectangle" fill="#E6E6E6" x="4" y="26" width="4" height="2"></rect>
                <rect id="Rectangle" fill="#E6E6E6" x="0" y="28" width="4" height="2"></rect>
                <rect id="Rectangle" fill="#E6E6E6" x="4" y="30" width="4" height="2"></rect>
                <rect id="Rectangle" fill="#E6E6E6" x="0" y="32" width="4" height="2"></rect>
            </g>
        </g>
    </g>
</svg>