<?xml version="1.0" encoding="UTF-8"?>
<svg width="48px" height="36px" viewBox="0 0 48 36" version="1.1" xmlns="http://www.w3.org/2000/svg" xmlns:xlink="http://www.w3.org/1999/xlink">
    <!-- Generator: Sketch 52.2 (67145) - http://www.bohemiancoding.com/sketch -->
    <title>belize-ca-flag-icon</title>
    <desc>Created with Sketch.</desc>
    <g id="Page-1" stroke="none" stroke-width="1" fill="none" fill-rule="evenodd">
        <g id="Flags" transform="translate(-1200.000000, -553.000000)">
            <g id="belize-ca-flag-icon" transform="translate(1200.000000, 553.000000)">
                <path d="M48,34 C48,35.105 47.105,36 46,36 L2,36 C0.895,36 0,35.105 0,34 L0,32 L48,32 L48,34 Z" id="Path" fill="#D1142A"></path>
                <rect id="Rectangle" fill="#033E8A" x="0" y="4" width="48" height="28"></rect>
                <path d="M48,4 L0,4 L0,2 C0,0.895 0.895,0 2,0 L46,0 C47.105,0 48,0.895 48,2 L48,4 Z" id="Path" fill="#D1142A"></path>
                <circle id="Oval" fill="#FFFFFF" cx="24" cy="18" r="8"></circle>
                <circle id="Oval" fill="#7AC943" cx="24" cy="13" r="1"></circle>
                <circle id="Oval" fill="#7AC943" cx="24" cy="23" r="1"></circle>
                <ellipse id="Oval" fill="#7AC943" transform="translate(27.473143, 14.402985) rotate(-46.029106) translate(-27.473143, -14.402985) " cx="27.473143" cy="14.4029848" rx="1.0010103" ry="1.00001029"></ellipse>
                <circle id="Oval" fill="#7AC943" transform="translate(20.526806, 21.598235) rotate(-45.948090) translate(-20.526806, -21.598235) " cx="20.5268057" cy="21.5982345" r="1"></circle>
                <ellipse id="Oval" fill="#7AC943" transform="translate(28.995321, 17.825230) rotate(-2.068927) translate(-28.995321, -17.825230) " cx="28.9953207" cy="17.8252301" rx="1.0009518" ry="1"></ellipse>
                <ellipse id="Oval" fill="#7AC943" transform="translate(19.002417, 18.175892) rotate(-1.959927) translate(-19.002417, -18.175892) " cx="19.0024174" cy="18.1758918" rx="1" ry="1.00098498"></ellipse>
                <ellipse id="Oval" fill="#7AC943" transform="translate(27.714944, 21.346015) rotate(-47.971051) translate(-27.714944, -21.346015) " cx="27.7149441" cy="21.3460145" rx="1" ry="1.00099104"></ellipse>
                <ellipse id="Oval" fill="#7AC943" transform="translate(20.282545, 14.655380) rotate(-47.971051) translate(-20.282545, -14.655380) " cx="20.2825453" cy="14.6553796" rx="1.00099104" ry="1"></ellipse>
                <rect id="Rectangle" fill="#B5B994" x="22" y="16" width="4" height="4"></rect>
            </g>
        </g>
    </g>
</svg>