<?xml version="1.0" encoding="UTF-8"?>
<svg width="48px" height="36px" viewBox="0 0 48 36" version="1.1" xmlns="http://www.w3.org/2000/svg" xmlns:xlink="http://www.w3.org/1999/xlink">
    <!-- Generator: Sketch 52.2 (67145) - http://www.bohemiancoding.com/sketch -->
    <title>bosnia-flag-icon</title>
    <desc>Created with Sketch.</desc>
    <g id="Page-1" stroke="none" stroke-width="1" fill="none" fill-rule="evenodd">
        <g id="Flags" transform="translate(-1200.000000, -336.000000)">
            <g id="bosnia-flag-icon" transform="translate(1200.000000, 336.000000)">
                <path d="M48,34 C48,35.105 47.105,36 46,36 L2,36 C0.895,36 0,35.105 0,34 L0,2 C0,0.895 0.895,0 2,0 L46,0 C47.105,0 48,0.895 48,2 L48,34 Z" id="Path" fill="#161796"></path>
                <polygon id="Path" fill="#FFFF00" points="12 0 38 36 38 0"></polygon>
                <polygon id="Path" fill="#FFFFFF" points="11.717 4.997 12.813 3.865 11.313 3.865 10.684 2.5 10.055 3.865 8.555 3.865 9.65 4.997 9.246 6.641 10.684 5.824 12.121 6.641"></polygon>
                <polygon id="Path" fill="#FFFFFF" points="16.297 9.287 14.797 9.287 14.168 7.922 13.539 9.287 12.039 9.287 13.135 10.419 12.73 12.063 14.168 11.246 15.605 12.063 15.201 10.419"></polygon>
                <polygon id="Path" fill="#FFFFFF" points="18.834 15.794 19.93 14.662 18.43 14.662 17.801 13.297 17.172 14.662 15.672 14.662 16.768 15.794 16.363 17.438 17.801 16.621 19.238 17.438"></polygon>
                <polygon id="Path" fill="#FFFFFF" points="23.492 19.865 21.992 19.865 21.363 18.5 20.734 19.865 19.234 19.865 20.33 20.997 19.926 22.641 21.363 21.824 22.801 22.641 22.396 20.997"></polygon>
                <polygon id="Path" fill="#FFFFFF" points="27.313 25.287 25.813 25.287 25.184 23.922 24.555 25.287 23.055 25.287 24.15 26.419 23.746 28.063 25.184 27.246 26.621 28.063 26.217 26.419"></polygon>
                <polygon id="Path" fill="#FFFFFF" points="31.57 30.725 30.07 30.725 29.441 29.359 28.813 30.725 27.313 30.725 28.408 31.856 28.004 33.5 29.441 32.684 30.879 33.5 30.475 31.856"></polygon>
            </g>
        </g>
    </g>
</svg>