<?xml version="1.0" encoding="UTF-8"?>
<svg width="48px" height="36px" viewBox="0 0 48 36" version="1.1" xmlns="http://www.w3.org/2000/svg" xmlns:xlink="http://www.w3.org/1999/xlink">
    <!-- Generator: Sketch 52.2 (67145) - http://www.bohemiancoding.com/sketch -->
    <title>brazil-flag-icon</title>
    <desc>Created with Sketch.</desc>
    <g id="Page-1" stroke="none" stroke-width="1" fill="none" fill-rule="evenodd">
        <g id="Flags" transform="translate(-1200.000000, -197.000000)">
            <g id="brazil-flag-icon" transform="translate(1200.000000, 197.000000)">
                <path d="M48,34 C48,35.105 47.105,36 46,36 L2,36 C0.895,36 0,35.105 0,34 L0,2 C0,0.895 0.895,0 2,0 L46,0 C47.105,0 48,0.895 48,2 L48,34 Z" id="Path" fill="#009C3B"></path>
                <polygon id="Path" fill="#FFFF00" points="23.969 6.031 5.969 18 23.969 30.031 42.031 18"></polygon>
                <circle id="Oval" fill="#052379" cx="24" cy="18" r="8"></circle>
                <path d="M26.023,15.952 C24.759,15.32 23.408,15.001 22.004,15.001 C19.767,15.001 17.686,15.821 16.076,17.233 C16.052,17.49 16,17.737 16,18 C16,18.686 16.113,19.34 16.275,19.975 C17.573,18.12 19.685,17.001 22.005,17.001 C23.095,17.001 24.146,17.25 25.129,17.741 C27.644,18.998 29.053,21.577 28.975,24.219 C29.682,23.653 30.294,22.984 30.775,22.212 C30.239,19.597 28.59,17.235 26.023,15.952 Z" id="Path" fill="#FFFFFF"></path>
            </g>
        </g>
    </g>
</svg>