<?xml version="1.0" encoding="UTF-8"?>
<svg width="48px" height="36px" viewBox="0 0 48 36" version="1.1" xmlns="http://www.w3.org/2000/svg" xmlns:xlink="http://www.w3.org/1999/xlink">
    <!-- Generator: Sketch 52.2 (67145) - http://www.bohemiancoding.com/sketch -->
    <title>burma-flag-icon</title>
    <desc>Created with Sketch.</desc>
    <g id="Page-1" stroke="none" stroke-width="1" fill="none" fill-rule="evenodd">
        <g id="Flags" transform="translate(-1103.000000, -973.000000)">
            <g id="burma-flag-icon" transform="translate(1103.000000, 973.000000)">
                <path d="M48,34 C48,35.105 47.105,36 46,36 L2,36 C0.895,36 0,35.105 0,34 L0,24 L48,24 L48,34 Z" id="Path" fill="#E72B3E"></path>
                <rect id="Rectangle" fill="#3BB03B" x="0" y="12" width="48" height="12"></rect>
                <path d="M48,12 L0,12 L0,2 C0,0.895 0.895,0 2,0 L46,0 C47.105,0 48,0.895 48,2 L48,12 Z" id="Path" fill="#FDCA2E"></path>
                <polygon id="Path" fill="#FFFFFF" points="32.297 15.25 26.451 15.25 24 9.93 21.547 15.25 15.703 15.25 19.972 19.666 18.394 26.07 24 22.887 29.605 26.071 28.027 19.667"></polygon>
            </g>
        </g>
    </g>
</svg>