<?xml version="1.0" encoding="UTF-8"?>
<svg width="48px" height="36px" viewBox="0 0 48 36" version="1.1" xmlns="http://www.w3.org/2000/svg" xmlns:xlink="http://www.w3.org/1999/xlink">
    <!-- Generator: Sketch 52.2 (67145) - http://www.bohemiancoding.com/sketch -->
    <title>cambodia-flag-icon</title>
    <desc>Created with Sketch.</desc>
    <g id="Page-1" stroke="none" stroke-width="1" fill="none" fill-rule="evenodd">
        <g id="Flags" transform="translate(-1103.000000, -908.000000)">
            <g id="cambodia-flag-icon" transform="translate(1103.000000, 908.000000)">
                <path d="M48,10 L0,10 L0,2 C0,0.895 0.895,0 2,0 L46,0 C47.105,0 48,0.895 48,2 L48,10 Z" id="Path" fill="#08339E"></path>
                <rect id="Rectangle" fill="#DD0B2D" x="0" y="10" width="48" height="16"></rect>
                <path d="M48,34 C48,35.105 47.105,36 46,36 L2,36 C0.895,36 0,35.105 0,34 L0,26 L48,26 L48,34 Z" id="Path" fill="#08339E"></path>
                <polygon id="Path" fill="#FFFFFF" points="34 20 34 16 32 14 30 16 30 20 26 20 26 14 24 12 22 14 22 20 18 20 18 16 16 14 14 16 14 20 12 24 36 24"></polygon>
            </g>
        </g>
    </g>
</svg>