<?xml version="1.0" encoding="UTF-8"?>
<svg width="48px" height="36px" viewBox="0 0 48 36" version="1.1" xmlns="http://www.w3.org/2000/svg" xmlns:xlink="http://www.w3.org/1999/xlink">
    <!-- Generator: Sketch 52.2 (67145) - http://www.bohemiancoding.com/sketch -->
    <title>canada-flag-icon</title>
    <desc>Created with Sketch.</desc>
    <g id="Page-1" stroke="none" stroke-width="1" fill="none" fill-rule="evenodd">
        <g id="Flags" transform="translate(-1103.000000, -778.000000)">
            <g id="canada-flag-icon" transform="translate(1103.000000, 778.000000)">
                <rect id="Rectangle" fill="#E6E6E6" x="16" y="0" width="16" height="36"></rect>
                <path d="M48,34 C48,35.105 47.105,36 46,36 L32,36 L32,0 L46,0 C47.105,0 48,0.895 48,2 L48,34 Z" id="Path" fill="#FE0000"></path>
                <path d="M16,36 L2,36 C0.895,36 0,35.105 0,34 L0,2 C0,0.895 0.895,0 2,0 L16,0 L16,36 Z" id="Path" fill="#FE0000"></path>
                <path d="M24.875,24.688 C24.875,24.688 24.439,21.354 24.659,21.389 C26.499,21.674 27.366,21.807 27.366,21.807 C26.412,20.005 28.809,19.133 30.041,18.085 C29.086,17.762 29.216,17.88 29.831,15.587 C27.837,16.22 28,16.035 27.577,15.046 C27.577,15.046 27.422,15.223 26.174,16.632 C25.996,16.833 25.698,16.699 25.76,16.392 C26.41,13.177 26.443,13.046 26.443,13.046 C25.177,13.81 25.224,13.854 25.024,13.459 C24.329,12.104 24,11.438 24,11.438 C24,11.438 23.671,12.105 22.976,13.458 C22.775,13.852 22.822,13.809 21.556,13.045 C21.556,13.045 21.588,13.176 22.239,16.391 C22.302,16.698 22.003,16.833 21.825,16.631 C20.577,15.222 20.423,15.045 20.423,15.045 C19.999,16.035 20.164,16.219 18.169,15.586 C18.784,17.879 18.914,17.761 17.959,18.084 C19.192,19.132 21.589,20.004 20.634,21.806 C20.634,21.806 21.501,21.673 23.341,21.388 C23.561,21.353 23.188,24.75 23.188,24.75 L24.875,24.688 Z" id="Path" fill="#FE0000"></path>
            </g>
        </g>
    </g>
</svg>