<?xml version="1.0" encoding="UTF-8"?>
<svg width="48px" height="36px" viewBox="0 0 48 36" version="1.1" xmlns="http://www.w3.org/2000/svg" xmlns:xlink="http://www.w3.org/1999/xlink">
    <!-- Generator: Sketch 52.2 (67145) - http://www.bohemiancoding.com/sketch -->
    <title>central-african-republic-flag-icon</title>
    <desc>Created with Sketch.</desc>
    <g id="Page-1" stroke="none" stroke-width="1" fill="none" fill-rule="evenodd">
        <g id="Flags" transform="translate(-1103.000000, -632.000000)">
            <g id="central-african-republic-flag-icon" transform="translate(1103.000000, 632.000000)">
                <path d="M20,36 L2,36 C0.895,36 0,35.105 0,34 L0,28 L20,28 L20,36 Z" id="Path" fill="#FCCE07"></path>
                <rect id="Rectangle" fill="#289941" x="0" y="18" width="20" height="10"></rect>
                <rect id="Rectangle" fill="#E6E6E6" x="0" y="8" width="20" height="10"></rect>
                <path d="M20,8 L0,8 L0,2 C0,0.895 0.895,0 2,0 L20,0 L20,8 Z" id="Path" fill="#283B7F"></path>
                <path d="M28,36 L46,36 C47.105,36 48,35.105 48,34 L48,28 L28,28 L28,36 Z" id="Path" fill="#FCCE07"></path>
                <rect id="Rectangle" fill="#289941" x="28" y="18" width="20" height="10"></rect>
                <rect id="Rectangle" fill="#E6E6E6" x="28" y="8" width="20" height="10"></rect>
                <path d="M28,8 L48,8 L48,2 C48,0.895 47.105,0 46,0 L28,0 L28,8 Z" id="Path" fill="#283B7F"></path>
                <rect id="Rectangle" fill="#D51F36" x="20" y="0" width="8" height="36"></rect>
                <polygon id="Path" fill="#F6D031" points="8 3.33 6.54 3.33 5.928 2 5.314 3.33 3.855 3.33 4.921 4.43 4.527 6.032 5.927 5.237 7.327 6.032 6.934 4.43"></polygon>
            </g>
        </g>
    </g>
</svg>