<?xml version="1.0" encoding="UTF-8"?>
<svg width="48px" height="36px" viewBox="0 0 48 36" version="1.1" xmlns="http://www.w3.org/2000/svg" xmlns:xlink="http://www.w3.org/1999/xlink">
    <!-- Generator: Sketch 52.2 (67145) - http://www.bohemiancoding.com/sketch -->
    <title>chile-flag-icon</title>
    <desc>Created with Sketch.</desc>
    <g id="Page-1" stroke="none" stroke-width="1" fill="none" fill-rule="evenodd">
        <g id="Flags" transform="translate(-1103.000000, -478.000000)">
            <g id="chile-flag-icon" transform="translate(1103.000000, 478.000000)">
                <path d="M48,34 C48,35.105 47.105,36 46,36 L2,36 C0.895,36 0,35.105 0,34 L0,18 L48,18 L48,34 Z" id="Path" fill="#D52A20"></path>
                <path d="M18,18 L0,18 L0,2 C0,0.895 0.895,0 2,0 L18,0 L18,18 Z" id="Path" fill="#003AB5"></path>
                <polygon id="Path" fill="#FFFFFF" points="13.184 7.613 10.237 7.613 9 4.93 7.762 7.614 4.816 7.614 6.968 9.841 6.171 13.071 9 11.465 11.828 13.07 11.031 9.84"></polygon>
                <path d="M48,18 L18,18 L18,0 L46,0 C47.105,0 48,0.895 48,2 L48,18 Z" id="Path" fill="#E6E6E6"></path>
            </g>
        </g>
    </g>
</svg>