<?xml version="1.0" encoding="UTF-8"?>
<svg width="48px" height="36px" viewBox="0 0 48 36" version="1.1" xmlns="http://www.w3.org/2000/svg" xmlns:xlink="http://www.w3.org/1999/xlink">
    <!-- Generator: Sketch 52.2 (67145) - http://www.bohemiancoding.com/sketch -->
    <title>china-2-flag-icon</title>
    <desc>Created with Sketch.</desc>
    <g id="Page-1" stroke="none" stroke-width="1" fill="none" fill-rule="evenodd">
        <g id="Flags" transform="translate(-1103.000000, -400.000000)">
            <g id="china-2-flag-icon" transform="translate(1103.000000, 400.000000)">
                <path d="M48,34 C48,35.105 47.105,36 46,36 L2,36 C0.895,36 0,35.105 0,34 L0,2 C0,0.895 0.895,0 2,0 L46,0 C47.105,0 48,0.895 48,2 L48,34 Z" id="Path" fill="#D82827"></path>
                <polygon id="Path" fill="#FFFD38" points="15.396 7.299 11.77 7.299 10.248 4 8.725 7.299 5.101 7.299 7.749 10.039 6.771 14.014 10.248 12.038 13.726 14.014 12.747 10.039"></polygon>
                <circle id="Oval" fill="#FFFD38" cx="17" cy="5" r="1"></circle>
                <circle id="Oval" fill="#FFFD38" cx="17" cy="13" r="1"></circle>
                <ellipse id="Oval" fill="#FFFD38" cx="21" cy="7" rx="1" ry="1.001"></ellipse>
                <ellipse id="Oval" fill="#FFFD38" cx="20.999" cy="11" rx="1.002" ry="1"></ellipse>
            </g>
        </g>
    </g>
</svg>