<?xml version="1.0" encoding="UTF-8"?>
<svg width="48px" height="36px" viewBox="0 0 48 36" version="1.1" xmlns="http://www.w3.org/2000/svg" xmlns:xlink="http://www.w3.org/1999/xlink">
    <!-- Generator: Sketch 52.2 (67145) - http://www.bohemiancoding.com/sketch -->
    <title>croatia-flag-icon</title>
    <desc>Created with Sketch.</desc>
    <g id="Page-1" stroke="none" stroke-width="1" fill="none" fill-rule="evenodd">
        <g id="Flags" transform="translate(-814.000000, -1044.000000)">
            <g id="croatia-flag-icon" transform="translate(814.000000, 1044.000000)">
                <path d="M48,12 L0,12 L0,2 C0,0.9 0.9,0 2,0 L46,0 C47.1,0 48,0.9 48,2 L48,12 Z" id="Path" fill="#FF0000"></path>
                <rect id="Rectangle" fill="#E6E6E6" x="0" y="12" width="48" height="12"></rect>
                <path d="M48,34 C48,35.1 47.1,36 46,36 L2,36 C0.9,36 0,35.1 0,34 L0,24 L48,24 L48,34 Z" id="Path" fill="#171796"></path>
                <path d="M24,27 C20.1,27 17,23.9 17,20 L17,11 L31,11 L31,20 C31,23.9 27.9,27 24,27 Z" id="Path" fill="#FFFFFF"></path>
                <path d="M24,26 C20.7,26 18,23.3 18,20 L18,12 L30,12 L30,20 C30,23.3 27.3,26 24,26 Z" id="Path" fill="#FF0000"></path>
                <rect id="Rectangle" fill="#E6E6E6" x="20" y="14" width="2" height="2"></rect>
                <rect id="Rectangle" fill="#E6E6E6" x="22" y="16" width="2" height="2"></rect>
                <rect id="Rectangle" fill="#E6E6E6" x="20" y="18" width="2" height="2"></rect>
                <rect id="Rectangle" fill="#E6E6E6" x="18" y="16" width="2" height="2"></rect>
                <rect id="Rectangle" fill="#E6E6E6" x="22" y="12" width="2" height="2"></rect>
                <rect id="Rectangle" fill="#E6E6E6" x="18" y="12" width="2" height="2"></rect>
                <rect id="Rectangle" fill="#E6E6E6" x="24" y="14" width="2" height="2"></rect>
                <rect id="Rectangle" fill="#E6E6E6" x="26" y="12" width="2" height="2"></rect>
                <rect id="Rectangle" fill="#E6E6E6" x="28" y="14" width="2" height="2"></rect>
                <rect id="Rectangle" fill="#E6E6E6" x="26" y="16" width="2" height="2"></rect>
                <rect id="Rectangle" fill="#E6E6E6" x="28" y="18" width="2" height="2"></rect>
                <rect id="Rectangle" fill="#E6E6E6" x="24" y="18" width="2" height="2"></rect>
                <rect id="Rectangle" fill="#E6E6E6" x="22" y="20" width="2" height="2"></rect>
                <path d="M22,24 L22,25.7 C22.6,25.9 23.3,26 24,26 L24,24 L22,24 Z" id="Path" fill="#E6E6E6"></path>
                <rect id="Rectangle" fill="#E6E6E6" x="20" y="22" width="2" height="2"></rect>
                <path d="M20,22 L20,20 L18,20 C18,20.7 18.1,21.4 18.3,22 L20,22 Z" id="Path" fill="#E6E6E6"></path>
                <path d="M20,24.5 L20,24 L19.5,24 C19.7,24.2 19.8,24.3 20,24.5 Z" id="Path" fill="#E6E6E6"></path>
                <rect id="Rectangle" fill="#E6E6E6" x="26" y="20" width="2" height="2"></rect>
                <path d="M26,25.7 C26.7,25.4 27.4,25 28,24.5 L28,24 L26,24 L26,25.7 Z" id="Path" fill="#E6E6E6"></path>
                <path d="M29.7,22 L28,22 L28,24 L28.5,24 C29,23.4 29.4,22.7 29.7,22 Z" id="Path" fill="#E6E6E6"></path>
                <rect id="Rectangle" fill="#E6E6E6" x="24" y="22" width="2" height="2"></rect>
                <path d="M17.8,12.7 L16.1,8.8 L17.5,6.6 L19.4,7.3 L20.7,5.8 L22.5,6.8 L24.1,5.5 L25.7,6.8 L27.5,5.8 L28.8,7.3 L30.7,6.6 L32.1,8.8 L30.4,12.7 L29.9,12.5 C29.2,12.2 28.4,11.9 27.7,11.7 C26.9,11.5 26.2,11.4 25.4,11.3 C24.6,11.2 23.8,11.2 23,11.3 C22.2,11.4 21.4,11.5 20.7,11.7 C19.9,11.9 19.2,12.2 18.5,12.5 L17.8,12.7 Z M17.2,8.9 L18.3,11.4 C18.9,11.1 19.6,10.9 20.2,10.8 C21,10.6 21.9,10.5 22.7,10.4 C23.5,10.3 24.4,10.3 25.2,10.4 C26,10.5 26.9,10.6 27.7,10.8 C28.4,11 29,11.2 29.6,11.4 L30.7,8.9 L30,7.8 L28.2,8.5 L27.1,7 L25.5,8 L24,6.8 L22.5,8 L20.9,7 L19.7,8.4 L17.9,7.7 L17.2,8.9 Z" id="Shape" fill="#FFFFFF" fill-rule="nonzero"></path>
                <path d="M19.5,7.9 L17.7,7.2 L16.7,8.9 L17.1,9.8 L18.1,12.1 C18.8,11.8 19.6,11.5 20.4,11.3 L19.5,7.9 Z" id="Path" fill="#0093DD"></path>
                <path d="M22.5,7.4 L20.8,6.4 L19.5,7.9 L20.3,11.2 C21.1,11 21.9,10.9 22.7,10.8 L22.5,7.4 Z" id="Path" fill="#171796"></path>
                <path d="M25.5,7.4 L24,6.1 L22.5,7.3 L22.8,10.7 C23.2,10.7 23.6,10.6 24,10.6 C24.4,10.6 24.8,10.6 25.2,10.7 L25.5,7.4 Z" id="Path" fill="#0093DD"></path>
                <path d="M28.5,7.9 L27.2,6.4 L25.5,7.4 L25.2,10.8 C26,10.9 26.8,11 27.6,11.2 L28.5,7.9 Z" id="Path" fill="#171796"></path>
                <path d="M30,12 L31.4,8.8 L30.4,7.1 L28.6,7.8 L27.8,11.1 C28.5,11.4 29.2,11.7 30,12 Z" id="Path" fill="#0093DD"></path>
            </g>
        </g>
    </g>
</svg>