<?xml version="1.0" encoding="UTF-8"?>
<svg width="48px" height="36px" viewBox="0 0 48 36" version="1.1" xmlns="http://www.w3.org/2000/svg" xmlns:xlink="http://www.w3.org/1999/xlink">
    <!-- Generator: Sketch 52.2 (67145) - http://www.bohemiancoding.com/sketch -->
    <title>democratic-republic-of-congo-flag-icon</title>
    <desc>Created with Sketch.</desc>
    <g id="Page-1" stroke="none" stroke-width="1" fill="none" fill-rule="evenodd">
        <g id="Flags" transform="translate(-429.000000, -1044.000000)">
            <g id="democratic-republic-of-congo-flag-icon" transform="translate(429.000000, 1044.000000)">
                <polygon id="Path" fill="#FADC30" points="48 12 12 36 4.789 36 48 7.193"></polygon>
                <polygon id="Path" fill="#FADC30" points="36 0 43.211 0 0 28.807 0 24"></polygon>
                <path d="M2,0 L36,0 L0,24 L0,2 C0,0.895 0.895,0 2,0 Z" id="Path" fill="#3E74BA"></path>
                <path d="M46,36 L12,36 L48,12 L48,34 C48,35.105 47.105,36 46,36 Z" id="Path" fill="#3E74BA"></path>
                <path d="M4.789,36 L2,36 C0.895,36 0,35.105 0,34 L0,28.807 L43.211,0 L46,0 C47.105,0 48,0.895 48,2 L48,7.193 L4.789,36 Z" id="Path" fill="#CC162C"></path>
                <polygon id="Path" fill="#F6D031" points="12.256 4.617 9.348 4.617 8.128 1.969 6.906 4.617 4 4.617 6.124 6.81 5.338 10 8.128 8.416 10.918 10 10.132 6.811"></polygon>
            </g>
        </g>
    </g>
</svg>