<?xml version="1.0" encoding="UTF-8"?>
<svg width="48px" height="36px" viewBox="0 0 48 36" version="1.1" xmlns="http://www.w3.org/2000/svg" xmlns:xlink="http://www.w3.org/1999/xlink">
    <!-- Generator: Sketch 52.2 (67145) - http://www.bohemiancoding.com/sketch -->
    <title>djibouti-flag-icon</title>
    <desc>Created with Sketch.</desc>
    <g id="Page-1" stroke="none" stroke-width="1" fill="none" fill-rule="evenodd">
        <g id="Flags" transform="translate(-236.000000, -1044.000000)">
            <g id="djibouti-flag-icon" transform="translate(236.000000, 1044.000000)">
                <path d="M48,34 C48,35.105 47.105,36 46,36 L2,36 L22,18 L48,18 L48,34 Z" id="Path" fill="#15AB48"></path>
                <path d="M48,18 L22,18 L2,0 L46,0 C47.105,0 48,0.895 48,2 L48,18 Z" id="Path" fill="#6FB2DC"></path>
                <path d="M2,0 C0.895,0 0,0.895 0,2 L0,18 L0,34 C0,35.105 0.895,36 2,36 L22,18 L2,0 Z" id="Path" fill="#E6E6E6"></path>
                <polygon id="Path" fill="#D21F22" points="14.369 16.543 11.422 16.543 10.184 13.859 8.948 16.543 6 16.543 8.152 18.77 7.357 22 10.183 20.395 13.012 22 12.215 18.77"></polygon>
            </g>
        </g>
    </g>
</svg>