<?xml version="1.0" encoding="UTF-8"?>
<svg width="48px" height="36px" viewBox="0 0 48 36" version="1.1" xmlns="http://www.w3.org/2000/svg" xmlns:xlink="http://www.w3.org/1999/xlink">
    <!-- Generator: Sketch 52.2 (67145) - http://www.bohemiancoding.com/sketch -->
    <title>east-timor-flag-icon</title>
    <desc>Created with Sketch.</desc>
    <g id="Page-1" stroke="none" stroke-width="1" fill="none" fill-rule="evenodd">
        <g id="Flags" transform="translate(-43.000000, -1044.000000)">
            <g id="east-timor-flag-icon" transform="translate(43.000000, 1044.000000)">
                <polygon id="Path" fill="#D21F22" points="14.369 16.543 11.422 16.543 10.184 13.859 8.948 16.543 6 16.543 8.152 18.77 7.357 22 10.183 20.395 13.012 22 12.215 18.77"></polygon>
                <path d="M46,0 L2,0 L22,18 L2,36 L46,36 C47.105,36 48,35.105 48,34 L48,18 L48,2 C48,0.895 47.105,0 46,0 Z" id="Path" fill="#DA2728"></path>
                <polygon id="Path" fill="#FEC63C" points="28 18 2 0 22 18 2 36"></polygon>
                <path d="M2,0 C0.895,0 0,0.895 0,2 L0,18 L0,34 C0,35.105 0.895,36 2,36 L22,18 L2,0 Z" id="Path" fill="#000000"></path>
                <polygon id="Path" fill="#FFFFFF" points="12.369 16.543 9.42 16.543 8.186 13.859 6.948 16.543 4 16.543 6.154 18.77 5.357 22 8.185 20.395 11.012 22 10.217 18.77"></polygon>
            </g>
        </g>
    </g>
</svg>