<?xml version="1.0" encoding="UTF-8"?>
<svg width="48px" height="36px" viewBox="0 0 48 36" version="1.1" xmlns="http://www.w3.org/2000/svg" xmlns:xlink="http://www.w3.org/1999/xlink">
    <!-- Generator: Sketch 52.2 (67145) - http://www.bohemiancoding.com/sketch -->
    <title>england-flag-icon</title>
    <desc>Created with Sketch.</desc>
    <g id="Page-1" stroke="none" stroke-width="1" fill="none" fill-rule="evenodd">
        <g id="Flags" transform="translate(-718.000000, -973.000000)">
            <g id="england-flag-icon" transform="translate(718.000000, 973.000000)">
                <path d="M48,34 C48,35.105 47.105,36 46,36 L2,36 C0.895,36 0,35.105 0,34 L0,2 C0,0.895 0.895,0 2,0 L46,0 C47.105,0 48,0.895 48,2 L48,34 Z" id="Path" fill="#E6E6E6"></path>
                <polygon id="Path" fill="#FE0000" points="48 14 28 14 28 0 20 0 20 14 0 14 0 22 20 22 20 36 28 36 28 22 48 22"></polygon>
            </g>
        </g>
    </g>
</svg>