<?xml version="1.0" encoding="UTF-8"?>
<svg width="48px" height="36px" viewBox="0 0 48 36" version="1.1" xmlns="http://www.w3.org/2000/svg" xmlns:xlink="http://www.w3.org/1999/xlink">
    <!-- Generator: Sketch 52.2 (67145) - http://www.bohemiancoding.com/sketch -->
    <title>eritrea-flag-icon</title>
    <desc>Created with Sketch.</desc>
    <g id="Page-1" stroke="none" stroke-width="1" fill="none" fill-rule="evenodd">
        <g id="Flags" transform="translate(-525.000000, -973.000000)">
            <g id="eritrea-flag-icon" transform="translate(525.000000, 973.000000)">
                <path d="M48,34 C48,35.105 47.105,36 46,36 L2,36 C0.895,36 0,35.105 0,34 L0,32 L48,24 L48,34 Z" id="Path" fill="#1799B3"></path>
                <polygon id="Path" fill="#D1142A" points="48 24 0 32 0 4 48 12"></polygon>
                <path d="M48,12 L0,4 L0,2 C0,0.895 0.895,0 2,0 L46,0 C47.105,0 48,0.895 48,2 L48,12 Z" id="Path" fill="#439845"></path>
                <path d="M10,10 C6.141,10 3,13.141 3,17 C3,20.859 6.141,24 10,24 C13.859,24 17,20.859 17,17 C17,13.141 13.859,10 10,10 Z M10,22 C7.242,22 5,19.758 5,17 C5,14.242 7.242,12 10,12 C12.758,12 15,14.242 15,17 C15,19.758 12.758,22 10,22 Z" id="Shape" fill="#FFFF00" fill-rule="nonzero"></path>
            </g>
        </g>
    </g>
</svg>