<?xml version="1.0" encoding="UTF-8"?>
<svg width="48px" height="36px" viewBox="0 0 48 36" version="1.1" xmlns="http://www.w3.org/2000/svg" xmlns:xlink="http://www.w3.org/1999/xlink">
    <!-- Generator: Sketch 52.2 (67145) - http://www.bohemiancoding.com/sketch -->
    <title>ethiopia-flag-icon</title>
    <desc>Created with Sketch.</desc>
    <g id="Page-1" stroke="none" stroke-width="1" fill="none" fill-rule="evenodd">
        <g id="Flags" transform="translate(-332.000000, -973.000000)">
            <g id="ethiopia-flag-icon" transform="translate(332.000000, 973.000000)">
                <path d="M48,12 L0,12 L0,2 C0,0.895 0.895,0 2,0 L46,0 C47.105,0 48,0.895 48,2 L48,12 Z" id="Path" fill="#108745"></path>
                <rect id="Rectangle" fill="#FDDC05" x="0" y="12" width="48" height="12"></rect>
                <path d="M48,34 C48,35.105 47.105,36 46,36 L2,36 C0.895,36 0,35.105 0,34 L0,24 L48,24 L48,34 Z" id="Path" fill="#C60B1E"></path>
                <circle id="Oval" fill="#20508E" cx="24" cy="18" r="10"></circle>
                <path d="M28.32,18 L30.63,14 L26.011,14 L24,10.516 L21.988,14 L17.369,14 L19.679,18 L17.369,22 L21.988,22 L24,25.484 L26.012,22 L30.631,22 L28.32,18 Z M23.143,20 L21.989,18 L23.143,16 L24.858,16 L26.012,18 L24.858,20 L23.143,20 Z" id="Shape" fill="#FDDC05" fill-rule="nonzero"></path>
            </g>
        </g>
    </g>
</svg>