<?xml version="1.0" encoding="UTF-8"?>
<svg width="48px" height="36px" viewBox="0 0 48 36" version="1.1" xmlns="http://www.w3.org/2000/svg" xmlns:xlink="http://www.w3.org/1999/xlink">
    <!-- Generator: Sketch 52.2 (67145) - http://www.bohemiancoding.com/sketch -->
    <title>eu-flag-icon</title>
    <desc>Created with Sketch.</desc>
    <g id="Page-1" stroke="none" stroke-width="1" fill="none" fill-rule="evenodd">
        <g id="Flags" transform="translate(-236.000000, -973.000000)">
            <g id="eu-flag-icon" transform="translate(236.000000, 973.000000)">
                <path d="M46,0 L2,0 C0.896,0 0,0.896 0,2 L0,34 C0,35.104 0.896,36 2,36 L46,36 C47.104,36 48,35.104 48,34 L48,2 C48,0.896 47.104,0 46,0 Z" id="Path" fill="#3200D0"></path>
                <polygon id="Path" fill="#F6CF00" points="27.106 7.997 24.919 7.997 24 6 23.079 7.997 20.894 7.997 22.49 9.644 21.9 12.047 24 10.856 26.1 12.047 25.508 9.644"></polygon>
                <polygon id="Path" fill="#F6CF00" points="33.454 10.313 31.267 10.313 30.347 8.317 29.426 10.313 27.241 10.313 28.838 11.961 28.247 14.363 30.347 13.172 32.447 14.363 31.855 11.961"></polygon>
                <polygon id="Path" fill="#F6CF00" points="27.106 25.95 24.919 25.95 24 23.953 23.079 25.95 20.894 25.95 22.49 27.598 21.9 30 24 28.809 26.1 30 25.508 27.598"></polygon>
                <polygon id="Path" fill="#F6CF00" points="20.759 10.313 18.572 10.313 17.653 8.317 16.731 10.313 14.546 10.313 16.143 11.961 15.552 14.363 17.653 13.172 19.753 14.363 19.16 11.961"></polygon>
                <polygon id="Path" fill="#F6CF00" points="17.213 16.95 15.026 16.95 14.106 14.953 13.185 16.95 11 16.95 12.597 18.598 12.006 21 14.106 19.809 16.206 21 15.614 18.598"></polygon>
                <polygon id="Path" fill="#F6CF00" points="37 16.95 34.813 16.95 33.894 14.953 32.972 16.95 30.787 16.95 32.384 18.598 31.793 21 33.894 19.809 35.993 21 35.401 18.598"></polygon>
                <polygon id="Path" fill="#F6CF00" points="33.454 23.512 31.267 23.512 30.347 21.516 29.426 23.512 27.241 23.512 28.838 25.16 28.247 27.562 30.347 26.371 32.447 27.562 31.855 25.16"></polygon>
                <polygon id="Path" fill="#F6CF00" points="20.759 23.512 18.572 23.512 17.653 21.516 16.731 23.512 14.546 23.512 16.143 25.16 15.552 27.562 17.653 26.371 19.753 27.562 19.16 25.16"></polygon>
            </g>
        </g>
    </g>
</svg>