<?xml version="1.0" encoding="UTF-8"?>
<svg width="48px" height="36px" viewBox="0 0 48 36" version="1.1" xmlns="http://www.w3.org/2000/svg" xmlns:xlink="http://www.w3.org/1999/xlink">
    <!-- Generator: Sketch 52.2 (67145) - http://www.bohemiancoding.com/sketch -->
    <title>falkland-islands-flag-icon</title>
    <desc>Created with Sketch.</desc>
    <g id="Page-1" stroke="none" stroke-width="1" fill="none" fill-rule="evenodd">
        <g id="Flags" transform="translate(-139.000000, -973.000000)">
            <g id="falkland-islands-flag-icon" transform="translate(139.000000, 973.000000)">
                <path d="M46,0 L2,0 C0.8954305,0 1.3527075e-16,0.8954305 0,2 L0,34 C1.3527075e-16,35.1045695 0.8954305,36 2,36 L46,36 C47.1045695,36 48,35.1045695 48,34 L48,2 C48,0.8954305 47.1045695,0 46,0 Z" id="Path" fill="#0F2E72"></path>
                <polygon id="Path" fill="#FF0000" points="19 13 16 13 16 13.25 22.333 18 24 18 24 16.75"></polygon>
                <path d="M0.12,1.34 L5,5 L8,5 L8,4.75 L1.706,0.03 C0.975230373,0.138590584 0.364672302,0.642897692 0.12,1.34 Z" id="Path" fill="#FF0000"></path>
                <polygon id="Path" fill="#FF0000" points="24 0 22.334 0 16 4.75 16 5 19.001 5 24 1.25"></polygon>
                <polygon id="Path" fill="#FF0000" points="0 16.75 0 18 1.667 18 8 13.25 8 13 5 13"></polygon>
                <polygon id="Path" fill="#FF0000" points="24 7 14 7 14 0 10 0 10 7 0 7 0 11 10 11 10 18 14 18 14 11 24 11"></polygon>
                <path d="M42,25 C42,27 36,30 36,30 C36,30 30,27 30,25 L30,16 L42,16 L42,25 Z" id="Path" fill="#2F70BE"></path>
            </g>
        </g>
    </g>
</svg>