<?xml version="1.0" encoding="UTF-8"?>
<svg width="48px" height="36px" viewBox="0 0 48 36" version="1.1" xmlns="http://www.w3.org/2000/svg" xmlns:xlink="http://www.w3.org/1999/xlink">
    <!-- Generator: Sketch 52.2 (67145) - http://www.bohemiancoding.com/sketch -->
    <title>georgia-flag-icon</title>
    <desc>Created with Sketch.</desc>
    <g id="Page-1" stroke="none" stroke-width="1" fill="none" fill-rule="evenodd">
        <g id="Flags" transform="translate(-429.000000, -908.000000)">
            <g id="georgia-flag-icon" transform="translate(429.000000, 908.000000)">
                <path d="M48,34 C48,35.105 47.105,36 46,36 L2,36 C0.895,36 0,35.105 0,34 L0,2 C0,0.895 0.895,0 2,0 L46,0 C47.105,0 48,0.895 48,2 L48,34 Z" id="Path" fill="#E6E6E6"></path>
                <polygon id="Path" fill="#E7112D" points="48 16 26 16 26 0 22 0 22 16 0 16 0 20 22 20 22 36 26 36 26 20 48 20"></polygon>
                <polygon id="Path" fill="#E7112D" points="12 4.001 10 4.001 10 8.001 6 8.001 6 10.001 10 10.001 10 14.001 12 14.001 12 10.001 16 10.001 16 8.001 12 8.001"></polygon>
                <polygon id="Path" fill="#E7112D" points="38 8 38 4 36 4 36 8 32 8 32 10 36 10 36 14 38 14 38 10 42 10 42 8"></polygon>
                <polygon id="Path" fill="#E7112D" points="12 22.001 10 22.001 10 26.001 6 26.001 6 28.001 10 28.001 10 32.001 12 32.001 12 28.001 16 28.001 16 26.001 12 26.001"></polygon>
                <polygon id="Path" fill="#E7112D" points="38 22 36 22 36 26 32 26 32 28 36 28 36 32 38 32 38 28 42 28 42 26 38 26"></polygon>
            </g>
        </g>
    </g>
</svg>