<?xml version="1.0" encoding="UTF-8"?>
<svg width="48px" height="36px" viewBox="0 0 48 36" version="1.1" xmlns="http://www.w3.org/2000/svg" xmlns:xlink="http://www.w3.org/1999/xlink">
    <!-- Generator: Sketch 52.2 (67145) - http://www.bohemiancoding.com/sketch -->
    <title>ghana-flag-icon</title>
    <desc>Created with Sketch.</desc>
    <g id="Page-1" stroke="none" stroke-width="1" fill="none" fill-rule="evenodd">
        <g id="Flags" transform="translate(-236.000000, -908.000000)">
            <g id="ghana-flag-icon" transform="translate(236.000000, 908.000000)">
                <path d="M48,12 L0,12 L0,2 C0,0.895 0.895,0 2,0 L46,0 C47.105,0 48,0.895 48,2 L48,12 Z" id="Path" fill="#D22129"></path>
                <rect id="Rectangle" fill="#F1D711" x="0" y="12" width="48" height="12"></rect>
                <path d="M48,34 C48,35.105 47.105,36 46,36 L2,36 C0.895,36 0,35.105 0,34 L0,24 L48,24 L48,34 Z" id="Path" fill="#08703B"></path>
                <polygon id="Path" fill="#000105" points="28.248 16.406 25.256 16.406 24 13.684 22.744 16.407 19.752 16.407 21.938 18.669 21.129 21.948 24 20.316 26.871 21.947 26.063 18.668"></polygon>
            </g>
        </g>
    </g>
</svg>