<?xml version="1.0" encoding="UTF-8"?>
<svg width="48px" height="36px" viewBox="0 0 48 36" version="1.1" xmlns="http://www.w3.org/2000/svg" xmlns:xlink="http://www.w3.org/1999/xlink">
    <!-- Generator: Sketch 52.2 (67145) - http://www.bohemiancoding.com/sketch -->
    <title>grenada-na-flag-icon</title>
    <desc>Created with Sketch.</desc>
    <g id="Page-1" stroke="none" stroke-width="1" fill="none" fill-rule="evenodd">
        <g id="Flags" transform="translate(-1103.000000, -197.000000)">
            <g id="grenada-na-flag-icon" transform="translate(1103.000000, 197.000000)">
                <path d="M46,0 L2,0 C0.896,0 0,0.896 0,2 L0,34 C0,35.104 0.896,36 2,36 L46,36 C47.104,36 48,35.104 48,34 L48,2 C48,0.896 47.104,0 46,0 Z M42,30 L6,30 L6,6 L42,6 L42,30 Z" id="Shape" fill="#D50F28" fill-rule="nonzero"></path>
                <rect id="Rectangle" fill="#FFCA1C" x="6" y="6" width="36" height="24"></rect>
                <path d="M18,18 C18,16.769 18.373,15.625 19.01,14.673 L6,6 L6,30 L19.01,21.327 C18.373,20.375 18,19.231 18,18 Z" id="Path" fill="#007B56"></path>
                <path d="M30,18 C30,16.769 29.627,15.625 28.99,14.673 L42,6 L42,30 L28.99,21.327 C29.627,20.375 30,19.231 30,18 Z" id="Path" fill="#007B56"></path>
                <circle id="Oval" fill="#D50F28" cx="24" cy="18" r="6"></circle>
                <rect id="Rectangle" fill="#FFCA1C" x="22" y="32" width="4" height="2"></rect>
                <rect id="Rectangle" fill="#FFCA1C" x="14" y="32" width="4" height="2"></rect>
                <rect id="Rectangle" fill="#FFCA1C" x="30" y="32" width="4" height="2"></rect>
                <rect id="Rectangle" fill="#FFCA1C" x="22" y="2" width="4" height="2"></rect>
                <rect id="Rectangle" fill="#FFCA1C" x="14" y="2" width="4" height="2"></rect>
                <rect id="Rectangle" fill="#FFCA1C" x="30" y="2" width="4" height="2"></rect>
                <polygon id="Path" fill="#E7CE02" points="28.248 16.466 25.256 16.466 24 13.743 22.744 16.466 19.752 16.466 21.938 18.728 21.129 22.007 24 20.376 26.871 22.007 26.063 18.728"></polygon>
            </g>
        </g>
    </g>
</svg>