<?xml version="1.0" encoding="UTF-8"?>
<svg width="48px" height="36px" viewBox="0 0 48 36" version="1.1" xmlns="http://www.w3.org/2000/svg" xmlns:xlink="http://www.w3.org/1999/xlink">
    <!-- Generator: Sketch 52.2 (67145) - http://www.bohemiancoding.com/sketch -->
    <title>guatemala-flag-icon</title>
    <desc>Created with Sketch.</desc>
    <g id="Page-1" stroke="none" stroke-width="1" fill="none" fill-rule="evenodd">
        <g id="Flags" transform="translate(-1103.000000, -125.000000)">
            <g id="guatemala-flag-icon" transform="translate(1103.000000, 125.000000)">
                <rect id="Rectangle" fill="#E6E6E6" x="16" y="0" width="16" height="36"></rect>
                <path d="M48,34 C48,35.105 47.105,36 46,36 L32,36 L32,0 L46,0 C47.105,0 48,0.895 48,2 L48,34 Z" id="Path" fill="#4897D0"></path>
                <path d="M16,36 L2,36 C0.895,36 0,35.105 0,34 L0,2 C0,0.895 0.895,0 2,0 L16,0 L16,36 Z" id="Path" fill="#4897D0"></path>
                <path d="M24,12 C20.688,12 18,14.688 18,18 C18,21.313 20.688,24 24,24 C27.313,24 30,21.313 30,18 C30,14.688 27.313,12 24,12 Z M24,22 C21.791,22 20,20.209 20,18 C20,15.791 21.791,14 24,14 C26.209,14 28,15.791 28,18 C28,20.209 26.209,22 24,22 Z" id="Shape" fill="#738356" fill-rule="nonzero"></path>
            </g>
        </g>
    </g>
</svg>