<?xml version="1.0" encoding="UTF-8"?>
<svg width="48px" height="36px" viewBox="0 0 48 36" version="1.1" xmlns="http://www.w3.org/2000/svg" xmlns:xlink="http://www.w3.org/1999/xlink">
    <!-- Generator: Sketch 52.2 (67145) - http://www.bohemiancoding.com/sketch -->
    <title>guernsey-flag-icon</title>
    <desc>Created with Sketch.</desc>
    <g id="Page-1" stroke="none" stroke-width="1" fill="none" fill-rule="evenodd">
        <g id="Flags" transform="translate(-1103.000000, -40.000000)">
            <g id="guernsey-flag-icon" transform="translate(1103.000000, 40.000000)">
                <path d="M48,34 C48,35.105 47.105,36 46,36 L2,36 C0.895,36 0,35.105 0,34 L0,2 C0,0.895 0.895,0 2,0 L46,0 C47.105,0 48,0.895 48,2 L48,34 Z" id="Path" fill="#E6E6E6"></path>
                <rect id="Rectangle" fill="#E4122D" x="22" y="0" width="4" height="36"></rect>
                <rect id="Rectangle" fill="#E4122D" x="0" y="16" width="48" height="4"></rect>
                <polygon id="Path" fill="#E2C914" points="32 16 26 16 26 10 28 8 20 8 22 10 22 16 16 16 14 14 14 22 16 20 22 20 22 26 20 28 28 28 26 26 26 20 32 20 34 22 34 14"></polygon>
            </g>
        </g>
    </g>
</svg>