<?xml version="1.0" encoding="UTF-8"?>
<svg width="48px" height="36px" viewBox="0 0 48 36" version="1.1" xmlns="http://www.w3.org/2000/svg" xmlns:xlink="http://www.w3.org/1999/xlink">
    <!-- Generator: Sketch 52.2 (67145) - http://www.bohemiancoding.com/sketch -->
    <title>guyana-flag-icon</title>
    <desc>Created with Sketch.</desc>
    <g id="Page-1" stroke="none" stroke-width="1" fill="none" fill-rule="evenodd">
        <g id="Flags" transform="translate(-814.000000, -843.000000)">
            <g id="guyana-flag-icon" transform="translate(814.000000, 843.000000)">
                <polygon id="Path" fill="#FFFFFF" points="2 0 38 18 2 36 46 18"></polygon>
                <polygon id="Path" fill="#F3CF0B" points="2 0 24 18 2 36 38 18"></polygon>
                <polygon id="Path" fill="#000000" points="24 18 2 0 20 18 2 36"></polygon>
                <path d="M2,0 C0.896,0 0,0.895 0,2 L0,18 L0,34 C0,35.105 0.896,36 2,36 L20,18 L2,0 Z" id="Path" fill="#D00E30"></path>
                <path d="M46,0 L2,0 L46,18 L2,36 L46,36 C47.104,36 48,35.104 48,34 L48,18 L48,2 C48,0.896 47.104,0 46,0 Z" id="Path" fill="#009E49"></path>
            </g>
        </g>
    </g>
</svg>