<?xml version="1.0" encoding="UTF-8"?>
<svg width="48px" height="36px" viewBox="0 0 48 36" version="1.1" xmlns="http://www.w3.org/2000/svg" xmlns:xlink="http://www.w3.org/1999/xlink">
    <!-- Generator: Sketch 52.2 (67145) - http://www.bohemiancoding.com/sketch -->
    <title>iceland-flag-icon</title>
    <desc>Created with Sketch.</desc>
    <g id="Page-1" stroke="none" stroke-width="1" fill="none" fill-rule="evenodd">
        <g id="Flags" transform="translate(-429.000000, -843.000000)">
            <g id="iceland-flag-icon" transform="translate(429.000000, 843.000000)">
                <path d="M48,34 C48,35.105 47.105,36 46,36 L2,36 C0.895,36 0,35.105 0,34 L0,2 C0,0.895 0.895,0 2,0 L46,0 C47.105,0 48,0.895 48,2 L48,34 Z" id="Path" fill="#003897"></path>
                <polygon id="Path" fill="#FFFFFF" points="22 12 22 0 10 0 10 12 0 12 0 24 10 24 10 36 22 36 22 24 48 24 48 12"></polygon>
                <rect id="Rectangle" fill="#D62827" x="12" y="0" width="8" height="36"></rect>
                <rect id="Rectangle" fill="#D62827" x="0" y="14" width="48" height="8"></rect>
            </g>
        </g>
    </g>
</svg>