<?xml version="1.0" encoding="UTF-8"?>
<svg width="48px" height="36px" viewBox="0 0 48 36" version="1.1" xmlns="http://www.w3.org/2000/svg" xmlns:xlink="http://www.w3.org/1999/xlink">
    <!-- Generator: Sketch 52.2 (67145) - http://www.bohemiancoding.com/sketch -->
    <title>iraq-flag-icon</title>
    <desc>Created with Sketch.</desc>
    <g id="Page-1" stroke="none" stroke-width="1" fill="none" fill-rule="evenodd">
        <g id="Flags" transform="translate(-43.000000, -843.000000)">
            <g id="iraq-flag-icon" transform="translate(43.000000, 843.000000)">
                <path d="M48,34 C48,35.105 47.105,36 46,36 L2,36 C0.895,36 0,35.105 0,34 L0,24 L48,24 L48,34 Z" id="Path" fill="#000000"></path>
                <rect id="Rectangle" fill="#E6E6E6" x="0" y="12" width="48" height="12"></rect>
                <path d="M48,12 L0,12 L0,2 C0,0.895 0.895,0 2,0 L46,0 C47.105,0 48,0.895 48,2 L48,12 Z" id="Path" fill="#CC162C"></path>
                <rect id="Rectangle" fill="#22B573" x="12" y="16" width="2" height="6"></rect>
                <rect id="Rectangle" fill="#22B573" x="8" y="16" width="6" height="2"></rect>
                <rect id="Rectangle" fill="#22B573" x="8" y="20" width="8" height="2"></rect>
                <rect id="Rectangle" fill="#22B573" x="10" y="14" width="2" height="4"></rect>
                <polygon id="Path" fill="#22B573" points="20 20 20 14 18 14 18 20 18 22 20 22 22 22 22 20"></polygon>
                <rect id="Rectangle" fill="#22B573" x="6" y="16" width="2" height="2"></rect>
                <polygon id="Path" fill="#22B573" points="38 14 36 14 36 20 34 20 34 14 32 14 32 20 30 20 30 16 28 16 28 20 26 20 26 22 28 22 30 22 32 22 34 22 36 22 38 22 40 22 40 20 38 20"></polygon>
                <rect id="Rectangle" fill="#22B573" x="40" y="16" width="2" height="2"></rect>
            </g>
        </g>
    </g>
</svg>