<?xml version="1.0" encoding="UTF-8"?>
<svg width="48px" height="36px" viewBox="0 0 48 36" version="1.1" xmlns="http://www.w3.org/2000/svg" xmlns:xlink="http://www.w3.org/1999/xlink">
    <!-- Generator: Sketch 52.2 (67145) - http://www.bohemiancoding.com/sketch -->
    <title>isle-of-man-flag-icon</title>
    <desc>Created with Sketch.</desc>
    <g id="Page-1" stroke="none" stroke-width="1" fill="none" fill-rule="evenodd">
        <g id="Flags" transform="translate(-910.000000, -778.000000)">
            <g id="isle-of-man-flag-icon" transform="translate(910.000000, 778.000000)">
                <path d="M48,34 C48,35.105 47.105,36 46,36 L2,36 C0.895,36 0,35.105 0,34 L0,2 C0,0.895 0.895,0 2,0 L46,0 C47.105,0 48,0.895 48,2 L48,34 Z" id="Path" fill="#CE2029"></path>
                <path d="M31.795,19.236 L30.006,15.658 C29.513,14.67 28.311,14.269 27.323,14.763 L25.534,15.658 L23.745,12.08 C23.251,11.093 22.05,10.692 21.061,11.186 L17.484,12.975 L15.695,9.398 C14.707,9.891 14.306,11.093 14.8,12.081 L15.695,13.87 C16.189,14.858 17.39,15.259 18.379,14.764 L21.956,12.975 L23.745,16.553 L21.956,17.447 C20.969,17.941 20.568,19.142 21.062,20.13 L22.851,23.708 L19.274,25.497 C19.767,26.484 20.969,26.885 21.957,26.392 L23.746,25.497 C24.734,25.003 25.135,23.802 24.64,22.813 L22.851,19.236 L24.64,18.341 L26.429,17.446 L28.218,16.552 L30.006,20.129 C30.5,21.117 31.701,21.518 32.69,21.024 L34.479,20.129 C35.466,19.636 35.867,18.434 35.373,17.446 L31.795,19.236 Z" id="Path" fill="#FFFFFF"></path>
            </g>
        </g>
    </g>
</svg>