<?xml version="1.0" encoding="UTF-8"?>
<svg width="48px" height="36px" viewBox="0 0 48 36" version="1.1" xmlns="http://www.w3.org/2000/svg" xmlns:xlink="http://www.w3.org/1999/xlink">
    <!-- Generator: Sketch 52.2 (67145) - http://www.bohemiancoding.com/sketch -->
    <title>jamaica-flag-icon</title>
    <desc>Created with Sketch.</desc>
    <g id="Page-1" stroke="none" stroke-width="1" fill="none" fill-rule="evenodd">
        <g id="Flags" transform="translate(-621.000000, -778.000000)">
            <g id="jamaica-flag-icon" transform="translate(621.000000, 778.000000)">
                <polyline id="Path" fill="#161616" points="0 32 0 4 20 18"></polyline>
                <polyline id="Path" fill="#161616" points="48 32 48 4 28 18"></polyline>
                <path d="M48,2 C48,0.896 47.105,0 46,0 L44,0 L24,14 L4,0 L2,0 C0.895,0 0,0.896 0,2 L0,4 L20,18 L0,32 L0,34 C0,35.104 0.895,36 2,36 L4,36 L24,22 L44,36 L46,36 C47.105,36 48,35.104 48,34 L48,32 L28,18 L48,4 L48,2 Z" id="Path" fill="#F4CE01"></path>
                <polygon id="Path" fill="#009D39" points="24 22 24 22 4 36 44 36"></polygon>
                <polygon id="Path" fill="#009D39" points="24 14 24 14 4 0 44 0"></polygon>
            </g>
        </g>
    </g>
</svg>