<?xml version="1.0" encoding="UTF-8"?>
<svg width="48px" height="36px" viewBox="0 0 48 36" version="1.1" xmlns="http://www.w3.org/2000/svg" xmlns:xlink="http://www.w3.org/1999/xlink">
    <!-- Generator: Sketch 52.2 (67145) - http://www.bohemiancoding.com/sketch -->
    <title>jersey-flag-icon</title>
    <desc>Created with Sketch.</desc>
    <g id="Page-1" stroke="none" stroke-width="1" fill="none" fill-rule="evenodd">
        <g id="Flags" transform="translate(-429.000000, -778.000000)">
            <g id="jersey-flag-icon" transform="translate(429.000000, 778.000000)">
                <path d="M48,2 C48,0.896 47.104,0 46,0 L24,16 L2,0 C0.896,0 0,0.896 0,2 L22,18 L0,34 C0,35.104 0.896,36 2,36 L24,20 L46,36 C47.104,36 48,35.104 48,34 L26,18 L48,2 Z" id="Path" fill="#CE2029"></path>
                <polygon id="Path" fill="#E6E6E6" points="0 2 0 34 22 18"></polygon>
                <polygon id="Path" fill="#E6E6E6" points="26 18 48 34 48 2"></polygon>
                <polygon id="Path" fill="#E6E6E6" points="2 36 46 36 24 20"></polygon>
                <polygon id="Path" fill="#E6E6E6" points="46 0 2 0 24 16"></polygon>
                <polygon id="Path" fill="#CE2029" points="28 4 20 4 20 9.332 24 12 28 9.332"></polygon>
            </g>
        </g>
    </g>
</svg>