<?xml version="1.0" encoding="UTF-8"?>
<svg width="48px" height="36px" viewBox="0 0 48 36" version="1.1" xmlns="http://www.w3.org/2000/svg" xmlns:xlink="http://www.w3.org/1999/xlink">
    <!-- Generator: Sketch 52.2 (67145) - http://www.bohemiancoding.com/sketch -->
    <title>jordan-flag-icon</title>
    <desc>Created with Sketch.</desc>
    <g id="Page-1" stroke="none" stroke-width="1" fill="none" fill-rule="evenodd">
        <g id="Flags" transform="translate(-332.000000, -778.000000)">
            <g id="jordan-flag-icon" transform="translate(332.000000, 778.000000)">
                <path d="M48,12 L14,12 L2,0 L46,0 C47.105,0 48,0.895 48,2 L48,12 Z" id="Path" fill="#2D2D2D"></path>
                <polygon id="Path" fill="#E6E6E6" points="48 24 14 24 20 18 14 12 48 12"></polygon>
                <path d="M48,34 C48,35.105 47.105,36 46,36 L2,36 L14,24 L48,24 L48,34 Z" id="Path" fill="#0EA651"></path>
                <path d="M2,0 C0.895,0 0,0.895 0,2 L0,18 L0,34 C0,35.105 0.895,36 2,36 L20,18 L2,0 Z" id="Path" fill="#D81D38"></path>
                <polygon id="Path" fill="#FFFFFF" points="8.359 13.527 9.33 15.984 11.855 15.211 10.539 17.502 12.719 18.996 10.107 19.395 10.299 22.029 8.359 20.236 6.42 22.029 6.611 19.395 4 18.996 6.18 17.502 4.863 15.211 7.389 15.984"></polygon>
            </g>
        </g>
    </g>
</svg>