<?xml version="1.0" encoding="UTF-8"?>
<svg width="48px" height="36px" viewBox="0 0 48 36" version="1.1" xmlns="http://www.w3.org/2000/svg" xmlns:xlink="http://www.w3.org/1999/xlink">
    <!-- Generator: Sketch 52.2 (67145) - http://www.bohemiancoding.com/sketch -->
    <title>kyrgyzstan-flag-icon</title>
    <desc>Created with Sketch.</desc>
    <g id="Page-1" stroke="none" stroke-width="1" fill="none" fill-rule="evenodd">
        <g id="Flags" transform="translate(-718.000000, -707.000000)">
            <g id="kyrgyzstan-flag-icon" transform="translate(718.000000, 707.000000)">
                <path d="M48,34 C48,35.105 47.105,36 46,36 L2,36 C0.895,36 0,35.105 0,34 L0,2 C0,0.895 0.895,0 2,0 L46,0 C47.105,0 48,0.895 48,2 L48,34 Z" id="Path" fill="#CC162C"></path>
                <circle id="Oval" fill="#FDE233" cx="24" cy="18" r="6"></circle>
                <path d="M24,6 C17.373,6 12,11.371 12,18 C12,24.629 17.373,30 24,30 C30.627,30 36,24.629 36,18 C36,11.371 30.627,6 24,6 Z M24,28 C18.478,28 14,23.523 14,18 C14,12.477 18.478,8 24,8 C29.522,8 34,12.477 34,18 C34,23.523 29.522,28 24,28 Z" id="Shape" fill="#FDE233" fill-rule="nonzero"></path>
            </g>
        </g>
    </g>
</svg>