<?xml version="1.0" encoding="UTF-8"?>
<svg width="48px" height="36px" viewBox="0 0 48 36" version="1.1" xmlns="http://www.w3.org/2000/svg" xmlns:xlink="http://www.w3.org/1999/xlink">
    <!-- Generator: Sketch 52.2 (67145) - http://www.bohemiancoding.com/sketch -->
    <title>lesotho-flag-icon</title>
    <desc>Created with Sketch.</desc>
    <g id="Page-1" stroke="none" stroke-width="1" fill="none" fill-rule="evenodd">
        <g id="Flags" transform="translate(-332.000000, -707.000000)">
            <g id="lesotho-flag-icon" transform="translate(332.000000, 707.000000)">
                <path d="M48,10 L0,10 L0,2 C0,0.895 0.895,0 2,0 L46,0 C47.105,0 48,0.895 48,2 L48,10 Z" id="Path" fill="#27378F"></path>
                <rect id="Rectangle" fill="#E6E6E6" x="0" y="10" width="48" height="16"></rect>
                <path d="M48,34 C48,35.105 47.105,36 46,36 L2,36 C0.895,36 0,35.105 0,34 L0,26 L48,26 L48,34 Z" id="Path" fill="#029544"></path>
                <path d="M29.477,23.986 L26.594,18.992 C27.447,18.26 28,17.184 28,15.969 C28,13.758 26.211,11.969 24,11.969 C21.789,11.969 20,13.758 20,15.969 C20,17.184 20.553,18.26 21.406,18.992 L18.523,23.986 L29.477,23.986 Z" id="Path" fill="#4D4D4D"></path>
            </g>
        </g>
    </g>
</svg>