<?xml version="1.0" encoding="UTF-8"?>
<svg width="48px" height="36px" viewBox="0 0 48 36" version="1.1" xmlns="http://www.w3.org/2000/svg" xmlns:xlink="http://www.w3.org/1999/xlink">
    <!-- Generator: Sketch 52.2 (67145) - http://www.bohemiancoding.com/sketch -->
    <title>liberia-flag-icon</title>
    <desc>Created with Sketch.</desc>
    <g id="Page-1" stroke="none" stroke-width="1" fill="none" fill-rule="evenodd">
        <g id="Flags" transform="translate(-236.000000, -707.000000)">
            <g id="liberia-flag-icon" transform="translate(236.000000, 707.000000)">
                <path d="M48,2 C48,0.895 47.104,0 46,0 L20,0 L20,20 L0,20 L0,34 C0,35.105 0.896,36 2,36 L46,36 C47.104,36 48,35.105 48,34 L48,2 Z" id="Path" fill="#AF2839"></path>
                <rect id="Rectangle" fill="#E6E6E6" x="20" y="4" width="28" height="4"></rect>
                <rect id="Rectangle" fill="#E6E6E6" x="20" y="12" width="28" height="4"></rect>
                <polygon id="Path" fill="#E6E6E6" points="0 20 0 24 48 24 48 20 20 20"></polygon>
                <rect id="Rectangle" fill="#E6E6E6" x="0" y="28" width="48" height="4"></rect>
                <path d="M20,20 L0,20 L0,2 C0,0.895 0.895,0 2,0 L20,0 L20,20 Z" id="Path" fill="#202D61"></path>
                <polygon id="Path" fill="#FFFFFF" points="14.185 8.613 11.237 8.613 10 5.93 8.763 8.614 5.815 8.614 7.968 10.841 7.173 14.07 10 12.465 12.827 14.071 12.031 10.84"></polygon>
            </g>
        </g>
    </g>
</svg>