<?xml version="1.0" encoding="UTF-8"?>
<svg width="48px" height="36px" viewBox="0 0 48 36" version="1.1" xmlns="http://www.w3.org/2000/svg" xmlns:xlink="http://www.w3.org/1999/xlink">
    <!-- Generator: Sketch 52.2 (67145) - http://www.bohemiancoding.com/sketch -->
    <title>liechtenstein-flag-icon</title>
    <desc>Created with Sketch.</desc>
    <g id="Page-1" stroke="none" stroke-width="1" fill="none" fill-rule="evenodd">
        <g id="Flags" transform="translate(-43.000000, -707.000000)">
            <g id="liechtenstein-flag-icon" transform="translate(43.000000, 707.000000)">
                <path d="M48,18 L0,18 L0,2 C0,0.895 0.895,0 2,0 L46,0 C47.105,0 48,0.895 48,2 L48,18 Z" id="Path" fill="#1147A7"></path>
                <path d="M48,34 C48,35.105 47.105,36 46,36 L2,36 C0.895,36 0,35.105 0,34 L0,18 L48,18 L48,34 Z" id="Path" fill="#CE1127"></path>
                <polygon id="Path" fill="#F6D031" points="14 6 6 6 6 11.332 10 14 14 11.332"></polygon>
            </g>
        </g>
    </g>
</svg>