<?xml version="1.0" encoding="UTF-8"?>
<svg width="48px" height="36px" viewBox="0 0 48 36" version="1.1" xmlns="http://www.w3.org/2000/svg" xmlns:xlink="http://www.w3.org/1999/xlink">
    <!-- Generator: Sketch 52.2 (67145) - http://www.bohemiancoding.com/sketch -->
    <title>malaysia-flag-icon</title>
    <desc>Created with Sketch.</desc>
    <g id="Page-1" stroke="none" stroke-width="1" fill="none" fill-rule="evenodd">
        <g id="Flags" transform="translate(-525.000000, -632.000000)">
            <g id="malaysia-flag-icon" transform="translate(525.000000, 632.000000)">
                <path d="M48,2 C48,0.895 47.105,0 46,0 L20,0 L20,20 L0,20 L0,34 C0,35.105 0.895,36 2,36 L46,36 C47.105,36 48,35.105 48,34 L48,2 Z" id="Path" fill="#E6E6E6"></path>
                <rect id="Rectangle" fill="#DA2728" x="20" y="4" width="28" height="4"></rect>
                <rect id="Rectangle" fill="#DA2728" x="20" y="12" width="28" height="4"></rect>
                <polygon id="Path" fill="#DA2728" points="0 20 0 24 48 24 48 20 20 20"></polygon>
                <rect id="Rectangle" fill="#DA2728" x="0" y="28" width="48" height="4"></rect>
                <path d="M20,20 L0,20 L0,2 C0,0.895 0.895,0 2,0 L20,0 L20,20 Z" id="Path" fill="#073AAA"></path>
                <rect id="Rectangle" fill="#FED02F" x="12" y="8" width="4" height="4"></rect>
                <path d="M6.4,10 C6.4,7.766 7.933,5.906 10,5.369 C9.615,5.269 9.217,5.199 8.801,5.199 C6.148,5.199 4,7.35 4,10 C4,12.65 6.148,14.801 8.801,14.801 C9.217,14.801 9.615,14.731 10,14.631 C7.934,14.094 6.4,12.234 6.4,10 Z" id="Path" fill="#FED02F"></path>
            </g>
        </g>
    </g>
</svg>