<?xml version="1.0" encoding="UTF-8"?>
<svg width="48px" height="36px" viewBox="0 0 48 36" version="1.1" xmlns="http://www.w3.org/2000/svg" xmlns:xlink="http://www.w3.org/1999/xlink">
    <!-- Generator: Sketch 52.2 (67145) - http://www.bohemiancoding.com/sketch -->
    <title>maldives-flag-icon</title>
    <desc>Created with Sketch.</desc>
    <g id="Page-1" stroke="none" stroke-width="1" fill="none" fill-rule="evenodd">
        <g id="Flags" transform="translate(-429.000000, -632.000000)">
            <g id="maldives-flag-icon" transform="translate(429.000000, 632.000000)">
                <path d="M48,34 C48,35.105 47.105,36 46,36 L2,36 C0.895,36 0,35.105 0,34 L0,2 C0,0.895 0.895,0 2,0 L46,0 C47.105,0 48,0.895 48,2 L48,34 Z" id="Path" fill="#D01738"></path>
                <rect id="Rectangle" fill="#0F7D3D" x="8" y="8" width="32" height="20"></rect>
                <path d="M22,18 C22,14.277 24.557,11.176 28,10.283 C27.357,10.117 26.695,10 26,10 C21.582,10 18,13.582 18,18 C18,22.418 21.582,26 26,26 C26.695,26 27.357,25.883 28,25.717 C24.557,24.824 22,21.723 22,18 Z" id="Path" fill="#FFFFFF"></path>
            </g>
        </g>
    </g>
</svg>