<?xml version="1.0" encoding="UTF-8"?>
<svg width="48px" height="36px" viewBox="0 0 48 36" version="1.1" xmlns="http://www.w3.org/2000/svg" xmlns:xlink="http://www.w3.org/1999/xlink">
    <!-- Generator: Sketch 52.2 (67145) - http://www.bohemiancoding.com/sketch -->
    <title>marshall-islands-flag-icon</title>
    <desc>Created with Sketch.</desc>
    <g id="Page-1" stroke="none" stroke-width="1" fill="none" fill-rule="evenodd">
        <g id="Flags" transform="translate(-43.000000, -632.000000)">
            <g id="marshall-islands-flag-icon" transform="translate(43.000000, 632.000000)">
                <path d="M48,34 C48,35.105 47.105,36 46,36 L2,36 C0.895,36 0,35.105 0,34 L48,24 L48,34 Z" id="Path" fill="#013893"></path>
                <polygon id="Path" fill="#E6E6E6" points="0 34 48 24 48 12"></polygon>
                <path d="M0,34 L42,0 L2,0 C0.895,0 0,0.895 0,2 L0,34 Z" id="Path" fill="#013893"></path>
                <path d="M48,2 C48,0.895 47.105,0 46,0 L42,0 L0,34 L48,12 L48,2 Z" id="Path" fill="#DD7506"></path>
                <polygon id="Path" fill="#FFFFFF" points="13.239 7.301 12.199 9.49 15.982 10.301 12.199 11.113 13.239 13.301 11.051 12.262 10.239 16.043 9.428 12.262 7.239 13.301 8.279 11.113 3.982 10.301 8.279 9.49 7.239 7.301 9.428 8.342 10.239 4.043 11.051 8.342"></polygon>
            </g>
        </g>
    </g>
</svg>