<?xml version="1.0" encoding="UTF-8"?>
<svg width="48px" height="36px" viewBox="0 0 48 36" version="1.1" xmlns="http://www.w3.org/2000/svg" xmlns:xlink="http://www.w3.org/1999/xlink">
    <!-- Generator: Sketch 52.2 (67145) - http://www.bohemiancoding.com/sketch -->
    <title>mauritania-flag-icon</title>
    <desc>Created with Sketch.</desc>
    <g id="Page-1" stroke="none" stroke-width="1" fill="none" fill-rule="evenodd">
        <g id="Flags" transform="translate(-1007.000000, -553.000000)">
            <g id="mauritania-flag-icon" transform="translate(1007.000000, 553.000000)">
                <path d="M48,34 C48,35.105 47.105,36 46,36 L2,36 C0.895,36 0,35.105 0,34 L0,2 C0,0.895 0.895,0 2,0 L46,0 C47.105,0 48,0.895 48,2 L48,34 Z" id="Path" fill="#0D8643"></path>
                <path d="M31.573,11.537 C31.827,12.318 32,13.135 32,14 C32,18.418 28.418,22 24,22 C19.582,22 16,18.418 16,14 C16,13.135 16.173,12.318 16.427,11.537 C14.935,13.285 14,15.523 14,18 C14,23.523 18.478,28 24,28 C29.522,28 34,23.523 34,18 C34,15.523 33.065,13.285 31.573,11.537 Z" id="Path" fill="#FFCE19"></path>
                <polygon id="Path" fill="#FFCE19" points="28.185 10.543 25.237 10.543 24 7.859 22.763 10.543 19.816 10.543 21.969 12.77 21.173 16 24 14.395 26.827 16 26.031 12.77"></polygon>
            </g>
        </g>
    </g>
</svg>