<?xml version="1.0" encoding="UTF-8"?>
<svg width="48px" height="36px" viewBox="0 0 48 36" version="1.1" xmlns="http://www.w3.org/2000/svg" xmlns:xlink="http://www.w3.org/1999/xlink">
    <!-- Generator: Sketch 52.2 (67145) - http://www.bohemiancoding.com/sketch -->
    <title>mongolia-flag-icon</title>
    <desc>Created with Sketch.</desc>
    <g id="Page-1" stroke="none" stroke-width="1" fill="none" fill-rule="evenodd">
        <g id="Flags" transform="translate(-429.000000, -553.000000)">
            <g id="mongolia-flag-icon" transform="translate(429.000000, 553.000000)">
                <path d="M48,34 C48,35.105 47.105,36 46,36 L32,36 L32,0 L46,0 C47.105,0 48,0.895 48,2 L48,34 Z" id="Path" fill="#C22A34"></path>
                <path d="M16,36 L2,36 C0.895,36 0,35.105 0,34 L0,2 C0,0.895 0.895,0 2,0 L16,0 L16,36 Z" id="Path" fill="#C22A34"></path>
                <rect id="Rectangle" fill="#0A5395" x="16" y="0" width="16" height="36"></rect>
                <path d="M10,12 L10,14 L6,14 L6,12 L4,12 L4,24 L6,24 L6,22 L10,22 L10,24 L12,24 L12,12 L10,12 Z M10,20 L6,20 L6,16 L10,16 L10,20 Z" id="Shape" fill="#F8CE2F" fill-rule="nonzero"></path>
                <path d="M8,12 C9.104,12 10,11.105 10,10 C10,8.895 8,6 8,6 C8,6 6,8.895 6,10 C6,11.105 6.896,12 8,12 Z" id="Path" fill="#F8CE2F"></path>
            </g>
        </g>
    </g>
</svg>