<?xml version="1.0" encoding="UTF-8"?>
<svg width="48px" height="36px" viewBox="0 0 48 36" version="1.1" xmlns="http://www.w3.org/2000/svg" xmlns:xlink="http://www.w3.org/1999/xlink">
    <!-- Generator: Sketch 52.2 (67145) - http://www.bohemiancoding.com/sketch -->
    <title>mozanbique-flag-icon</title>
    <desc>Created with Sketch.</desc>
    <g id="Page-1" stroke="none" stroke-width="1" fill="none" fill-rule="evenodd">
        <g id="Flags" transform="translate(-236.000000, -553.000000)">
            <g id="mozanbique-flag-icon" transform="translate(236.000000, 553.000000)">
                <path d="M48,34 C48,35.105 47.105,36 46,36 L2,36 C0.895,36 0,35.105 0,34 L0,24 L48,24 L48,34 Z" id="Path" fill="#FBE201"></path>
                <rect id="Rectangle" fill="#424041" x="0" y="12" width="48" height="12"></rect>
                <path d="M48,12 L0,12 L0,2 C0,0.895 0.895,0 2,0 L46,0 C47.105,0 48,0.895 48,2 L48,12 Z" id="Path" fill="#0F736B"></path>
                <rect id="Rectangle" fill="#FFFFFF" x="0" y="22" width="48" height="2"></rect>
                <rect id="Rectangle" fill="#FFFFFF" x="0" y="12" width="48" height="2"></rect>
                <path d="M2,0 C0.896,0 0,0.895 0,2 L0,18 L0,34 C0,35.105 0.896,36 2,36 L22,18 L2,0 Z" id="Path" fill="#E52635"></path>
                <polygon id="Path" fill="#FFCE19" points="14.369 16.543 11.421 16.543 10.185 13.859 8.948 16.543 6 16.543 8.153 18.77 7.357 22 10.184 20.395 13.012 22 12.216 18.77"></polygon>
            </g>
        </g>
    </g>
</svg>