<?xml version="1.0" encoding="UTF-8"?>
<svg width="48px" height="36px" viewBox="0 0 48 36" version="1.1" xmlns="http://www.w3.org/2000/svg" xmlns:xlink="http://www.w3.org/1999/xlink">
    <!-- Generator: Sketch 52.2 (67145) - http://www.bohemiancoding.com/sketch -->
    <title>namibia-flag-icon</title>
    <desc>Created with Sketch.</desc>
    <g id="Page-1" stroke="none" stroke-width="1" fill="none" fill-rule="evenodd">
        <g id="Flags" transform="translate(-139.000000, -553.000000)">
            <g id="namibia-flag-icon" transform="translate(139.000000, 553.000000)">
                <polygon id="Path" fill="#E6E6E6" points="48 12 12 36 4.789 36 48 7.193"></polygon>
                <polygon id="Path" fill="#E6E6E6" points="36 0 43.211 0 0 28.807 0 24"></polygon>
                <path d="M2,0 L36,0 L0,24 L0,2 C0,0.895 0.895,0 2,0 Z" id="Path" fill="#1A3A73"></path>
                <path d="M46,36 L12,36 L48,12 L48,34 C48,35.105 47.105,36 46,36 Z" id="Path" fill="#039847"></path>
                <path d="M4.789,36 L2,36 C0.895,36 0,35.105 0,34 L0,28.807 L43.211,0 L46,0 C47.105,0 48,0.895 48,2 L48,7.193 L4.789,36 Z" id="Path" fill="#BD1D27"></path>
                <circle id="Oval" fill="#F6D031" cx="8" cy="8" r="4"></circle>
            </g>
        </g>
    </g>
</svg>