<?xml version="1.0" encoding="UTF-8"?>
<svg width="48px" height="36px" viewBox="0 0 48 36" version="1.1" xmlns="http://www.w3.org/2000/svg" xmlns:xlink="http://www.w3.org/1999/xlink">
    <!-- Generator: Sketch 52.2 (67145) - http://www.bohemiancoding.com/sketch -->
    <title>nauru-flag-icon</title>
    <desc>Created with Sketch.</desc>
    <g id="Page-1" stroke="none" stroke-width="1" fill="none" fill-rule="evenodd">
        <g id="Flags" transform="translate(-43.000000, -553.000000)">
            <g id="nauru-flag-icon" transform="translate(43.000000, 553.000000)">
                <path d="M48,34 C48,35.105 47.105,36 46,36 L2,36 C0.895,36 0,35.105 0,34 L0,20 L48,20 L48,34 Z" id="Path" fill="#040385"></path>
                <rect id="Rectangle" fill="#FBFD02" x="0" y="16" width="48" height="4"></rect>
                <path d="M48,16 L0,16 L0,2 C0,0.895 0.895,0 2,0 L46,0 C47.105,0 48,0.895 48,2 L48,16 Z" id="Path" fill="#040385"></path>
                <polygon id="Path" fill="#FBFD02" points="8 23.057 8.855 25.463 11.162 24.366 10.065 26.673 12.472 27.528 10.065 28.384 11.162 30.69 8.855 29.594 8 32 7.145 29.594 4.838 30.69 5.935 28.384 3.528 27.528 5.935 26.673 4.838 24.366 7.145 25.463"></polygon>
            </g>
        </g>
    </g>
</svg>