<?xml version="1.0" encoding="UTF-8"?>
<svg width="48px" height="36px" viewBox="0 0 48 36" version="1.1" xmlns="http://www.w3.org/2000/svg" xmlns:xlink="http://www.w3.org/1999/xlink">
    <!-- Generator: Sketch 52.2 (67145) - http://www.bohemiancoding.com/sketch -->
    <title>north-korea-flag-icon</title>
    <desc>Created with Sketch.</desc>
    <g id="Page-1" stroke="none" stroke-width="1" fill="none" fill-rule="evenodd">
        <g id="Flags" transform="translate(-429.000000, -478.000000)">
            <g id="north-korea-flag-icon" transform="translate(429.000000, 478.000000)">
                <path d="M48,8 L0,8 L0,2 C0,0.895 0.895,0 2,0 L46,0 C47.105,0 48,0.895 48,2 L48,8 Z" id="Path" fill="#0B51A0"></path>
                <path d="M48,34 C48,35.105 47.105,36 46,36 L2,36 C0.895,36 0,35.105 0,34 L0,28 L48,28 L48,34 Z" id="Path" fill="#0B51A0"></path>
                <rect id="Rectangle" fill="#EA2130" x="0" y="10" width="48" height="16"></rect>
                <rect id="Rectangle" fill="#FFFFFF" x="0" y="8" width="48" height="2"></rect>
                <rect id="Rectangle" fill="#FFFFFF" x="0" y="26" width="48" height="2"></rect>
                <circle id="Oval" fill="#FFFFFF" cx="14" cy="18" r="6"></circle>
                <polygon id="Path" fill="#EA2130" points="18.185 16.613 15.237 16.613 14 13.93 12.763 16.614 9.815 16.614 11.968 18.841 11.172 22.072 14 20.465 16.827 22.071 16.031 18.84"></polygon>
            </g>
        </g>
    </g>
</svg>