<?xml version="1.0" encoding="UTF-8"?>
<svg width="48px" height="36px" viewBox="0 0 48 36" version="1.1" xmlns="http://www.w3.org/2000/svg" xmlns:xlink="http://www.w3.org/1999/xlink">
    <!-- Generator: Sketch 52.2 (67145) - http://www.bohemiancoding.com/sketch -->
    <title>norway-flag-icon</title>
    <desc>Created with Sketch.</desc>
    <g id="Page-1" stroke="none" stroke-width="1" fill="none" fill-rule="evenodd">
        <g id="Flags" transform="translate(-332.000000, -478.000000)">
            <g id="norway-flag-icon" transform="translate(332.000000, 478.000000)">
                <path d="M48,34 C48,35.105 47.105,36 46,36 L2,36 C0.895,36 0,35.105 0,34 L0,2 C0,0.895 0.895,0 2,0 L46,0 C47.105,0 48,0.895 48,2 L48,34 Z" id="Path" fill="#EF2B2D"></path>
                <polygon id="Path" fill="#FFFFFF" points="10 12 0 12 0 14 12 14 12 12 12 0 10 0"></polygon>
                <polygon id="Path" fill="#FFFFFF" points="0 24 10 24 10 36 12 36 12 24 12 22 0 22"></polygon>
                <polygon id="Path" fill="#FFFFFF" points="22 12 22 0 20 0 20 12 20 14 48 14 48 12"></polygon>
                <polygon id="Path" fill="#FFFFFF" points="20 24 20 36 22 36 22 24 48 24 48 22 20 22"></polygon>
                <polygon id="Path" fill="#003680" points="48 14 20 14 20 0 12 0 12 14 0 14 0 22 12 22 12 36 20 36 20 22 48 22"></polygon>
            </g>
        </g>
    </g>
</svg>