<?xml version="1.0" encoding="UTF-8"?>
<svg width="48px" height="36px" viewBox="0 0 48 36" version="1.1" xmlns="http://www.w3.org/2000/svg" xmlns:xlink="http://www.w3.org/1999/xlink">
    <!-- Generator: Sketch 52.2 (67145) - http://www.bohemiancoding.com/sketch -->
    <title>oman-flag-icon</title>
    <desc>Created with Sketch.</desc>
    <g id="Page-1" stroke="none" stroke-width="1" fill="none" fill-rule="evenodd">
        <g id="Flags" transform="translate(-236.000000, -478.000000)">
            <g id="oman-flag-icon" transform="translate(236.000000, 478.000000)">
                <path d="M48,34 C48,35.105 47.105,36 46,36 L14,36 L14,24 L48,24 L48,34 Z" id="Path" fill="#0F7F12"></path>
                <path d="M48,12 L14,12 L14,0 L46,0 C47.105,0 48,0.895 48,2 L48,12 Z" id="Path" fill="#E6E6E6"></path>
                <path d="M14,12 L14,0 L2,0 C0.896,0 0,0.895 0,2 L0,34 C0,35.105 0.896,36 2,36 L14,36 L14,24 L48,24 L48,12 L14,12 Z" id="Path" fill="#D81B25"></path>
                <polygon id="Path" fill="#FFFFFF" points="9.857 6.096 8.556 4.578 6.929 5.973 5.302 4.578 4 6.096 5.393 7.289 4 8.482 5.302 10 6.929 8.605 8.556 10 9.857 8.482 8.465 7.289"></polygon>
            </g>
        </g>
    </g>
</svg>