<?xml version="1.0" encoding="UTF-8"?>
<svg width="48px" height="36px" viewBox="0 0 48 36" version="1.1" xmlns="http://www.w3.org/2000/svg" xmlns:xlink="http://www.w3.org/1999/xlink">
    <!-- Generator: Sketch 52.2 (67145) - http://www.bohemiancoding.com/sketch -->
    <title>puerto-rico-flag-icon</title>
    <desc>Created with Sketch.</desc>
    <g id="Page-1" stroke="none" stroke-width="1" fill="none" fill-rule="evenodd">
        <g id="Flags" transform="translate(-525.000000, -40.000000)">
            <g id="puerto-rico-flag-icon" transform="translate(525.000000, 40.000000)">
                <polygon id="Path" fill="#E6E6E6" points="16 22 8 30 48 30 48 22"></polygon>
                <polygon id="Path" fill="#E6E6E6" points="8 6 16 14 48 14 48 6"></polygon>
                <path d="M46,0 L2,0 L8,6 L48,6 L48,2 C48,0.896 47.104,0 46,0 Z" id="Path" fill="#FF0000"></path>
                <polygon id="Path" fill="#FF0000" points="16 14 20 18 16 22 48 22 48 14"></polygon>
                <path d="M8,30 L2,36 L46,36 C47.104,36 48,35.104 48,34 L48,30 L8,30 Z" id="Path" fill="#FF0000"></path>
                <path d="M2,0 C0.896,0 0,0.895 0,2 L0,18 L0,34 C0,35.105 0.896,36 2,36 L20,18 L2,0 Z" id="Path" fill="#0051F9"></path>
                <polygon id="Path" fill="#FFFFFF" points="12.367 16.543 9.42 16.543 8.184 13.859 6.946 16.543 4 16.543 6.152 18.77 5.355 22 8.183 20.395 11.012 22 10.215 18.77"></polygon>
            </g>
        </g>
    </g>
</svg>