<?xml version="1.0" encoding="UTF-8"?>
<svg width="48px" height="36px" viewBox="0 0 48 36" version="1.1" xmlns="http://www.w3.org/2000/svg" xmlns:xlink="http://www.w3.org/1999/xlink">
    <!-- Generator: Sketch 52.2 (67145) - http://www.bohemiancoding.com/sketch -->
    <title>saudi-arabia-flag-icon</title>
    <desc>Created with Sketch.</desc>
    <g id="Page-1" stroke="none" stroke-width="1" fill="none" fill-rule="evenodd">
        <g id="Flags" transform="translate(-332.000000, -336.000000)">
            <g id="saudi-arabia-flag-icon" transform="translate(332.000000, 336.000000)">
                <path d="M48,34 C48,35.105 47.105,36 46,36 L2,36 C0.895,36 0,35.105 0,34 L0,2 C0,0.895 0.895,0 2,0 L46,0 C47.105,0 48,0.895 48,2 L48,34 Z" id="Path" fill="#0B6B37"></path>
                <path d="M38,8 L38,10 L32,10 L32,12 L38,12 L38,14 L32,14 L32,16 L38,16 L38,18 L32,18 L32,20 L38,20 L38,22 L30,22 L30,18 L30,16 L30,14 L28,14 L28,16 L26,16 L26,18 L28,18 L28,22 L24,22 L24,12 L22,12 L22,22 L20,22 L20,12 L18,12 L18,22 L16,22 L16,18 L16,16 L14,16 L10,16 L10,14 L16,14 L16,12 L10,12 L10,8 L8,8 L8,12 L8,14 L8,16 L8,18 L8,22 L8,24 L10,24 L14,24 L16,24 L38,24 L40,24 L40,22 L40,12 L40,10 L40,8 L38,8 Z M10,22 L10,18 L14,18 L14,22 L10,22 Z" id="Shape" fill="#FFFFFF" fill-rule="nonzero"></path>
                <rect id="Rectangle" fill="#FFFFFF" x="12" y="8" width="2" height="2"></rect>
                <rect id="Rectangle" fill="#FFFFFF" x="18" y="8" width="6" height="2"></rect>
                <rect id="Rectangle" fill="#FFFFFF" x="26" y="10" width="4" height="2"></rect>
                <rect id="Rectangle" fill="#FFFFFF" x="8" y="28" width="32" height="2"></rect>
            </g>
        </g>
    </g>
</svg>