<?xml version="1.0" encoding="UTF-8"?>
<svg width="48px" height="36px" viewBox="0 0 48 36" version="1.1" xmlns="http://www.w3.org/2000/svg" xmlns:xlink="http://www.w3.org/1999/xlink">
    <!-- Generator: Sketch 52.2 (67145) - http://www.bohemiancoding.com/sketch -->
    <title>serbia-flag-icon</title>
    <desc>Created with Sketch.</desc>
    <g id="Page-1" stroke="none" stroke-width="1" fill="none" fill-rule="evenodd">
        <g id="Flags" transform="translate(-139.000000, -336.000000)">
            <g id="serbia-flag-icon" transform="translate(139.000000, 336.000000)">
                <path d="M48,12 L0,12 L0,2 C0,0.895 0.895,0 2,0 L46,0 C47.105,0 48,0.895 48,2 L48,12 Z" id="Path" fill="#DD2026"></path>
                <rect id="Rectangle" fill="#233E85" x="0" y="12" width="48" height="12"></rect>
                <path d="M48,34 C48,35.105 47.105,36 46,36 L2,36 C0.895,36 0,35.105 0,34 L0,24 L48,24 L48,34 Z" id="Path" fill="#E6E6E6"></path>
                <polygon id="Path" fill="#EE1E2E" points="18 12 6 12 6 24 12 28 18 24"></polygon>
                <rect id="Rectangle" fill="#FFFFFF" x="8" y="14" width="8" height="6"></rect>
                <polygon id="Path" fill="#FFFFFF" points="12 26 16 22 8 22"></polygon>
                <polygon id="Path" fill="#F5E303" points="8 8 8 10 10 10 10 12 14 12 14 10 16 10 16 8"></polygon>
            </g>
        </g>
    </g>
</svg>