<?xml version="1.0" encoding="UTF-8"?>
<svg width="48px" height="36px" viewBox="0 0 48 36" version="1.1" xmlns="http://www.w3.org/2000/svg" xmlns:xlink="http://www.w3.org/1999/xlink">
    <!-- Generator: Sketch 52.2 (67145) - http://www.bohemiancoding.com/sketch -->
    <title>singapore-flag-icon</title>
    <desc>Created with Sketch.</desc>
    <g id="Page-1" stroke="none" stroke-width="1" fill="none" fill-rule="evenodd">
        <g id="Flags" transform="translate(-910.000000, -275.000000)">
            <g id="singapore-flag-icon" transform="translate(910.000000, 275.000000)">
                <path d="M48,34 C48,35.105 47.105,36 46,36 L2,36 C0.895,36 0,35.105 0,34 L0,18 L48,18 L48,34 Z" id="Path" fill="#E6E6E6"></path>
                <path d="M48,18 L0,18 L0,2 C0,0.895 0.895,0 2,0 L46,0 C47.105,0 48,0.895 48,2 L48,18 Z" id="Path" fill="#EA2C3F"></path>
                <path d="M8,10 C8,7.393 9.675,5.195 12,4.367 C11.371,4.145 10.705,4 10,4 C6.687,4 4,6.688 4,10 C4,13.313 6.687,16 10,16 C10.705,16 11.371,15.855 12,15.633 C9.675,14.805 8,12.607 8,10 Z" id="Path" fill="#FFFFFF"></path>
                <circle id="Oval" fill="#FFFFFF" cx="19" cy="5" r="1"></circle>
                <circle id="Oval" fill="#FFFFFF" cx="19" cy="13" r="1"></circle>
                <ellipse id="Oval" fill="#FFFFFF" cx="15" cy="11.001" rx="1" ry="1.001"></ellipse>
                <ellipse id="Oval" fill="#FFFFFF" cx="23" cy="7" rx="1" ry="1.001"></ellipse>
                <ellipse id="Oval" fill="#FFFFFF" cx="22.999" cy="11" rx="1.002" ry="1"></ellipse>
                <ellipse id="Oval" fill="#FFFFFF" cx="15" cy="7.002" rx="1.001" ry="1"></ellipse>
            </g>
        </g>
    </g>
</svg>