<?xml version="1.0" encoding="UTF-8"?>
<svg width="48px" height="36px" viewBox="0 0 48 36" version="1.1" xmlns="http://www.w3.org/2000/svg" xmlns:xlink="http://www.w3.org/1999/xlink">
    <!-- Generator: Sketch 52.2 (67145) - http://www.bohemiancoding.com/sketch -->
    <title>somalia-flag-icon</title>
    <desc>Created with Sketch.</desc>
    <g id="Page-1" stroke="none" stroke-width="1" fill="none" fill-rule="evenodd">
        <g id="Flags" transform="translate(-621.000000, -275.000000)">
            <g id="somalia-flag-icon" transform="translate(621.000000, 275.000000)">
                <path d="M48,34 C48,35.105 47.105,36 46,36 L2,36 C0.895,36 0,35.105 0,34 L0,2 C0,0.895 0.895,0 2,0 L46,0 C47.105,0 48,0.895 48,2 L48,34 Z" id="Path" fill="#4E80BB"></path>
                <polygon id="Path" fill="#FFFFFF" points="32.361 15.041 26.47 15.041 24 9.683 21.527 15.041 15.638 15.041 19.941 19.494 18.351 25.947 24 22.739 29.648 25.947 28.058 19.494"></polygon>
            </g>
        </g>
    </g>
</svg>