<?xml version="1.0" encoding="UTF-8"?>
<svg width="48px" height="36px" viewBox="0 0 48 36" version="1.1" xmlns="http://www.w3.org/2000/svg" xmlns:xlink="http://www.w3.org/1999/xlink">
    <!-- Generator: Sketch 52.2 (67145) - http://www.bohemiancoding.com/sketch -->
    <title>south-africa-flag-icon</title>
    <desc>Created with Sketch.</desc>
    <g id="Page-1" stroke="none" stroke-width="1" fill="none" fill-rule="evenodd">
        <g id="Flags" transform="translate(-525.000000, -275.000000)">
            <g id="south-africa-flag-icon" transform="translate(525.000000, 275.000000)">
                <path d="M48,34 C48,35.105 47.105,36 46,36 L2,36 C0.895,36 0,35.105 0,34 L0,2 C0,0.895 0.895,0 2,0 L46,0 C47.105,0 48,0.895 48,2 L48,34 Z" id="Path" fill="#E6E6E6"></path>
                <polygon id="Path" fill="#DDB954" points="0 8 0 12 10 18 0 24 0 28 16 18"></polygon>
                <polygon id="Path" fill="#000000" points="0 12 0 24 10 18"></polygon>
                <path d="M48,34 C48,35.105 47.105,36 46,36 L10,36 L24,26 L48,26 L48,34 Z" id="Path" fill="#1A3A73"></path>
                <path d="M48,10 L24,10 L10,0 L46,0 C47.105,0 48,0.895 48,2 L48,10 Z" id="Path" fill="#BD1D27"></path>
                <path d="M23.395,14 L2.395,0 L2,0 C0.896,0 0,0.895 0,2 L0,8 L16,18 L0,28 L0,34 C0,35.105 0.896,36 2,36 L2.395,36 L23.395,22 L48,22 L48,14 L23.395,14 Z" id="Path" fill="#0E825D"></path>
            </g>
        </g>
    </g>
</svg>