<?xml version="1.0" encoding="UTF-8"?>
<svg width="48px" height="36px" viewBox="0 0 48 36" version="1.1" xmlns="http://www.w3.org/2000/svg" xmlns:xlink="http://www.w3.org/1999/xlink">
    <!-- Generator: Sketch 52.2 (67145) - http://www.bohemiancoding.com/sketch -->
    <title>sri-lanka-flag-icon</title>
    <desc>Created with Sketch.</desc>
    <g id="Page-1" stroke="none" stroke-width="1" fill="none" fill-rule="evenodd">
        <g id="Flags" transform="translate(-139.000000, -275.000000)">
            <g id="sri-lanka-flag-icon" transform="translate(139.000000, 275.000000)">
                <rect id="Rectangle" fill="#075641" x="4" y="4" width="8" height="28"></rect>
                <rect id="Rectangle" fill="#FC5C1F" x="12" y="4" width="8" height="28"></rect>
                <path d="M48,2 C48,0.895 47.105,0 46,0 L2,0 C0.895,0 0,0.895 0,2 L0,34 C0,35.105 0.895,36 2,36 L46,36 C47.105,36 48,35.105 48,34 L48,2 Z M4,4 L20,4 L20,32 L4,32 L4,4 Z M44,32 L24,32 L24,4 L44,4 L44,32 Z" id="Shape" fill="#D5AD3B" fill-rule="nonzero"></path>
                <rect id="Rectangle" fill="#8B222B" x="24" y="4" width="20" height="28"></rect>
                <rect id="Rectangle" fill="#D5AD3B" x="26" y="6" width="2" height="2"></rect>
                <rect id="Rectangle" fill="#D5AD3B" x="40" y="6" width="2" height="2"></rect>
                <rect id="Rectangle" fill="#D5AD3B" x="26" y="28" width="2" height="2"></rect>
                <rect id="Rectangle" fill="#D5AD3B" x="40" y="28" width="2" height="2"></rect>
                <path d="M40,14 L40,16 L32,16 L32,14 C32,12.895 31.105,12 30,12 L28,12 L26,12 C26,13.105 26.895,14 28,14 L28,16 L28,18 L26,18 C26,19.105 26.895,20 28,20 L28,22 C28,23.105 28.895,24 30,24 L30,22 C30,20.895 30.895,20 32,20 L38,20 C39.105,20 40,20.895 40,22 L40,24 C41.105,24 42,23.105 42,22 L42,20 L42,16 C42,14.895 41.105,14 40,14 Z" id="Path" fill="#D5AD3B"></path>
            </g>
        </g>
    </g>
</svg>