<?xml version="1.0" encoding="UTF-8"?>
<svg width="48px" height="36px" viewBox="0 0 48 36" version="1.1" xmlns="http://www.w3.org/2000/svg" xmlns:xlink="http://www.w3.org/1999/xlink">
    <!-- Generator: Sketch 52.2 (67145) - http://www.bohemiancoding.com/sketch -->
    <title>swaziland-flag-icon</title>
    <desc>Created with Sketch.</desc>
    <g id="Page-1" stroke="none" stroke-width="1" fill="none" fill-rule="evenodd">
        <g id="Flags" transform="translate(-910.000000, -197.000000)">
            <g id="swaziland-flag-icon" transform="translate(910.000000, 197.000000)">
                <path d="M48,8 L0,8 L0,2 C0,0.895 0.895,0 2,0 L46,0 C47.105,0 48,0.895 48,2 L48,8 Z" id="Path" fill="#3C5BBC"></path>
                <path d="M48,34 C48,35.105 47.105,36 46,36 L2,36 C0.895,36 0,35.105 0,34 L0,28 L48,28 L48,34 Z" id="Path" fill="#3C5BBC"></path>
                <rect id="Rectangle" fill="#BD1D27" x="0" y="10" width="48" height="16"></rect>
                <rect id="Rectangle" fill="#FFDB00" x="0" y="8" width="48" height="2"></rect>
                <rect id="Rectangle" fill="#FFDB00" x="0" y="26" width="48" height="2"></rect>
                <rect id="Rectangle" fill="#FFDB00" x="10" y="20" width="12" height="2"></rect>
                <rect id="Rectangle" fill="#FFDB00" x="10" y="14" width="12" height="2"></rect>
                <rect id="Rectangle" fill="#FFDB00" x="26" y="20" width="12" height="2"></rect>
                <rect id="Rectangle" fill="#FFDB00" x="26" y="14" width="12" height="2"></rect>
                <path d="M18,18 C18,21.314 20.687,24 24,24 L24,12 C20.687,12 18,14.686 18,18 Z" id="Path" fill="#3C3C3C"></path>
                <path d="M30,18 C30,21.314 27.313,24 24,24 L24,12 C27.313,12 30,14.686 30,18 Z" id="Path" fill="#FFFFFF"></path>
            </g>
        </g>
    </g>
</svg>