<?xml version="1.0" encoding="UTF-8"?>
<svg width="48px" height="36px" viewBox="0 0 48 36" version="1.1" xmlns="http://www.w3.org/2000/svg" xmlns:xlink="http://www.w3.org/1999/xlink">
    <!-- Generator: Sketch 52.2 (67145) - http://www.bohemiancoding.com/sketch -->
    <title>tonga-flag-icon</title>
    <desc>Created with Sketch.</desc>
    <g id="Page-1" stroke="none" stroke-width="1" fill="none" fill-rule="evenodd">
        <g id="Flags" transform="translate(-139.000000, -197.000000)">
            <g id="tonga-flag-icon" transform="translate(139.000000, 197.000000)">
                <path d="M20,20 L0,20 L0,2 C0,0.895 0.895,0 2,0 L20,0 L20,20 Z" id="Path" fill="#E6E6E6"></path>
                <path d="M46,0 L20,0 L20,20 L0,20 L0,34 C0,35.105 0.896,36 2,36 L46,36 C47.104,36 48,35.105 48,34 L48,18 L48,2 C48,0.895 47.104,0 46,0 Z" id="Path" fill="#FC0204"></path>
                <polygon id="Path" fill="#FC0204" points="16 8 12 8 12 4 8 4 8 8 4 8 4 12 8 12 8 16 12 16 12 12 16 12"></polygon>
            </g>
        </g>
    </g>
</svg>