<?xml version="1.0" encoding="UTF-8"?>
<svg width="48px" height="36px" viewBox="0 0 48 36" version="1.1" xmlns="http://www.w3.org/2000/svg" xmlns:xlink="http://www.w3.org/1999/xlink">
    <!-- Generator: Sketch 52.2 (67145) - http://www.bohemiancoding.com/sketch -->
    <title>turkey-flag-icon</title>
    <desc>Created with Sketch.</desc>
    <g id="Page-1" stroke="none" stroke-width="1" fill="none" fill-rule="evenodd">
        <g id="Flags" transform="translate(-910.000000, -125.000000)">
            <g id="turkey-flag-icon" transform="translate(910.000000, 125.000000)">
                <path d="M48,34 C48,35.105 47.105,36 46,36 L2,36 C0.895,36 0,35.105 0,34 L0,2 C0,0.895 0.895,0 2,0 L46,0 C47.105,0 48,0.895 48,2 L48,34 Z" id="Path" fill="#E40A18"></path>
                <path d="M22,28 C16.477,28 12,23.522 12,18 C12,12.478 16.477,8 22,8 C23.256,8 24.445,8.258 25.553,8.681 C23.49,7.007 20.863,6 18,6 C11.373,6 6,11.373 6,18 C6,24.627 11.373,30 18,30 C20.863,30 23.49,28.993 25.553,27.319 C24.445,27.742 23.256,28 22,28 Z" id="Path" fill="#FFFFFF"></path>
                <polygon id="Path" fill="#FFFFFF" points="32.313 16.024 30.467 12.02 28.619 16.024 24.412 16.024 27.488 19.206 26.31 23.979 30.466 21.618 34.622 23.979 33.444 19.206 36.52 16.024"></polygon>
            </g>
        </g>
    </g>
</svg>