<?xml version="1.0" encoding="UTF-8"?>
<svg width="48px" height="36px" viewBox="0 0 48 36" version="1.1" xmlns="http://www.w3.org/2000/svg" xmlns:xlink="http://www.w3.org/1999/xlink">
    <!-- Generator: Sketch 52.2 (67145) - http://www.bohemiancoding.com/sketch -->
    <title>uganda-flag-icon</title>
    <desc>Created with Sketch.</desc>
    <g id="Page-1" stroke="none" stroke-width="1" fill="none" fill-rule="evenodd">
        <g id="Flags" transform="translate(-621.000000, -125.000000)">
            <g id="uganda-flag-icon" transform="translate(621.000000, 125.000000)">
                <path d="M48,34 C48,35.105 47.105,36 46,36 L2,36 C0.895,36 0,35.105 0,34 L0,30 L48,30 L48,34 Z" id="Path" fill="#D12325"></path>
                <rect id="Rectangle" fill="#F8D406" x="0" y="24" width="48" height="6"></rect>
                <rect id="Rectangle" fill="#443A17" x="0" y="18" width="48" height="6"></rect>
                <rect id="Rectangle" fill="#D12325" x="0" y="12" width="48" height="6"></rect>
                <path d="M0,6 L48,6 L48,2 C48,0.895 47.105,0 46,0 L2,0 C0.895,0 0,0.895 0,2 L0,6 Z" id="Path" fill="#443A17"></path>
                <rect id="Rectangle" fill="#F8D406" x="0" y="6" width="48" height="6"></rect>
                <circle id="Oval" fill="#FFFFFF" cx="24" cy="18" r="8"></circle>
                <path d="M26,16 L22,16 L22,14 L24,14 L24,12 L20,14 L20,16 L20,18 C20,19.105 20.895,20 22,20 L22,24 L24,20 L26,24 L26,20 L28,20 L28,18 C28,16.895 27.105,16 26,16 Z" id="Path" fill="#9BA099"></path>
            </g>
        </g>
    </g>
</svg>