<?xml version="1.0" encoding="UTF-8"?>
<svg width="48px" height="36px" viewBox="0 0 48 36" version="1.1" xmlns="http://www.w3.org/2000/svg" xmlns:xlink="http://www.w3.org/1999/xlink">
    <!-- Generator: Sketch 52.2 (67145) - http://www.bohemiancoding.com/sketch -->
    <title>us-virgin-islands-flag-icon</title>
    <desc>Created with Sketch.</desc>
    <g id="Page-1" stroke="none" stroke-width="1" fill="none" fill-rule="evenodd">
        <g id="Flags" transform="translate(-43.000000, -40.000000)">
            <g id="us-virgin-islands-flag-icon" transform="translate(43.000000, 40.000000)">
                <path d="M48,34 C48,35.1045695 47.1045695,36 46,36 L2,36 C0.8954305,36 1.3527075e-16,35.1045695 0,34 L0,2 C-1.3527075e-16,0.8954305 0.8954305,0 2,0 L46,0 C47.1045695,0 48,0.8954305 48,2 L48,34 Z" id="Path" fill="#E6E6E6"></path>
                <path d="M26.1,5.884 C25.980658,4.81208658 25.0745365,4.00124987 23.996,4.00124987 C22.9174635,4.00124987 22.011342,4.81208658 21.892,5.884 L21.002,13.891 C20.9709455,14.1741859 21.0621469,14.4571738 21.2527134,14.6689355 C21.4432799,14.8806973 21.7151187,15.0011279 22,15 L26,15 C26.2843795,15.0000195 26.5553168,14.8789601 26.7450288,14.6671087 C26.9347408,14.4552572 27.0252817,14.1726537 26.994,13.89 L26.1,5.884 Z" id="Path" fill="#EFCA2B"></path>
                <path d="M20.707,19.293 L20,18.586 L20,14 C20,13.4477153 19.5522847,13 19,13 L18,13 L18,10.562 C18.0003078,9.18529808 17.063552,7.98507964 15.728,7.651 L5.243,5.03 C4.89723767,4.94531016 4.53252177,5.05081632 4.28537551,5.30702461 C4.03822925,5.56323289 3.94591937,5.93151013 4.043,6.274 C5.62406704,12.4049512 9.94698966,17.4626305 15.757,19.979 L12.126,26.515 C11.8853771,26.9507753 12.0019133,27.4971787 12.3993935,27.7968602 C12.7968738,28.0965417 13.3542517,28.0582381 13.707,27.707 L20.707,20.707 C21.0973819,20.3165001 21.0973819,19.6834999 20.707,19.293 Z" id="Path" fill="#EFCA2B"></path>
                <path d="M43.719,5.305 C43.4707427,5.04832675 43.1044569,4.94351032 42.758,5.03 L32.271,7.651 C30.9358451,7.98546781 29.9995774,9.18558908 30,10.562 L30,13 L29,13 C28.4477153,13 28,13.4477153 28,14 L28,18.586 L27.293,19.293 C26.9026181,19.6834999 26.9026181,20.3165001 27.293,20.707 L34.293,27.707 C34.6457483,28.0582381 35.2031262,28.0965417 35.6006065,27.7968602 C35.9980867,27.4971787 36.1146229,26.9507753 35.874,26.515 L32.243,19.979 C38.0535748,17.4646519 42.3782233,12.4089573 43.962,6.279 C44.0616311,5.93425036 43.9688961,5.56254728 43.719,5.305 Z" id="Path" fill="#EFCA2B"></path>
                <path d="M29.9,26.553 L26.9,20.553 C26.7297741,20.2123306 26.3808256,19.9979212 26,20 L22,20 C21.620974,19.9998234 21.2744246,20.2139484 21.105,20.553 L18.105,26.553 C17.8942268,26.9747962 18.0067384,27.486516 18.375,27.781 L23.375,31.781 C23.7403328,32.0735003 24.2596672,32.0735003 24.625,31.781 L29.625,27.781 C29.9950152,27.4878802 30.1096613,26.9759334 29.9,26.553 Z" id="Path" fill="#EFCA2B"></path>
                <path d="M18,15 L18,17 C18,23 24,26 24,26 C24,26 30,23 30,17 L30,15 L18,15 Z" id="Path" fill="#FFFFFF"></path>
                <path d="M28,22.61 L28,15 L26,15 L26,24.649 C26.7415205,24.0470336 27.4124646,23.3630061 28,22.61 Z" id="Path" fill="#A60032"></path>
                <path d="M22,24.649 L22,15 L20,15 L20,22.61 C20.5875354,23.3630061 21.2584795,24.0470336 22,24.649 Z" id="Path" fill="#A60032"></path>
                <path d="M30,16 L18,16 L18,11 C18.8994451,11.5814559 19.9315704,11.9254977 21,12 C22.0684296,11.9254977 23.1005549,11.5814559 24,11 C24.8837518,11.5818469 25.9024796,11.9262444 26.958,12 C28.0393617,11.9247222 29.0848927,11.5810237 30,11 L30,16 Z" id="Path" fill="#162667"></path>
                <path d="M9.757,17 L10.103,17.158 C10.403,17.293 10.654,17.409 10.657,17.711 C10.6455823,17.8975524 10.607183,18.0814646 10.543,18.257 L8.77,23.815 L7,18.257 C6.93639942,18.0809537 6.89801927,17.8967963 6.886,17.71 C6.886,17.435 7.091,17.324 7.429,17.165 L7.774,17 L4,17 L4.367,17.153 C4.632,17.263 4.823,17.343 4.916,17.521 C5.03360895,17.7745657 5.13384013,18.0358349 5.216,18.303 L7.627,25.671 C7.7000613,25.8585924 7.7500935,26.054356 7.776,26.254 C7.776,26.567 7.593,26.698 7.206,26.854 L6.848,27 L10.779,27 L10.237,26.852 C9.594,26.678 9.67,26.294 9.674,26.278 L9.674,26.272 C9.70677327,26.0680833 9.75695678,25.8673492 9.824,25.672 L12.234,18.304 C12.3169333,18.0371025 12.417145,17.775884 12.534,17.522 C12.634,17.334 12.834,17.253 13.087,17.152 L13.461,17 L9.757,17 Z" id="Path" fill="#0081C6"></path>
                <path d="M41.732,26.47 C41.6848442,26.3773292 41.6631055,26.2738113 41.669,26.17 L41.669,17.826 C41.6626308,17.722378 41.68367,17.6189065 41.73,17.526 C41.8573018,17.3500629 42.0346859,17.2165892 42.239,17.143 L42.681,17 L39.07,17 L39.427,17.145 C39.6293739,17.2270563 39.8066279,17.3608589 39.941,17.533 C39.9867232,17.6235851 40.0074362,17.7247338 40.001,17.826 L40.001,26.167 C40.0078695,26.2705456 39.9871663,26.3740616 39.941,26.467 C39.8015156,26.6356195 39.6244454,26.7691928 39.424,26.857 L39.109,27 L42.546,27 L42.246,26.857 C42.0479687,26.7679142 41.872354,26.6356907 41.732,26.47 Z" id="Path" fill="#0081C6"></path>
            </g>
        </g>
    </g>
</svg>