<?xml version="1.0" encoding="UTF-8"?>
<svg width="48px" height="36px" viewBox="0 0 48 36" version="1.1" xmlns="http://www.w3.org/2000/svg" xmlns:xlink="http://www.w3.org/1999/xlink">
    <!-- Generator: Sketch 52.2 (67145) - http://www.bohemiancoding.com/sketch -->
    <title>usa-flag-icon</title>
    <desc>Created with Sketch.</desc>
    <g id="Page-1" stroke="none" stroke-width="1" fill="none" fill-rule="evenodd">
        <g id="Flags" transform="translate(-139.000000, -125.000000)">
            <g id="usa-flag-icon" transform="translate(139.000000, 125.000000)">
                <path d="M48,2 C48,0.895 47.105,0 46,0 L20,0 L20,20 L0,20 L0,34 C0,35.105 0.895,36 2,36 L46,36 C47.105,36 48,35.105 48,34 L48,2 Z" id="Path" fill="#B41F30"></path>
                <rect id="Rectangle" fill="#E6E6E6" x="20" y="4" width="28" height="4"></rect>
                <rect id="Rectangle" fill="#E6E6E6" x="20" y="12" width="28" height="4"></rect>
                <polygon id="Path" fill="#E6E6E6" points="0 20 0 24 48 24 48 20 20 20"></polygon>
                <rect id="Rectangle" fill="#E6E6E6" x="0" y="28" width="48" height="4"></rect>
                <path d="M20,20 L0,20 L0,2 C0,0.895 0.895,0 2,0 L20,0 L20,20 Z" id="Path" fill="#00256A"></path>
                <polygon id="Path" fill="#FFFFFF" points="10 7.922 9.367 9.29 7.863 9.29 8.963 10.43 8.557 12.078 10 11.26 11.443 12.078 11.037 10.43 12.137 9.29 10.631 9.29"></polygon>
                <polygon id="Path" fill="#FFFFFF" points="5.107 3.029 4.475 4.397 2.971 4.397 4.07 5.537 3.664 7.185 5.107 6.367 6.551 7.185 6.144 5.537 7.244 4.397 5.738 4.397"></polygon>
                <polygon id="Path" fill="#FFFFFF" points="14.893 3.029 15.525 4.397 17.029 4.397 15.93 5.537 16.336 7.185 14.893 6.367 13.449 7.185 13.856 5.537 12.756 4.397 14.262 4.397"></polygon>
                <polygon id="Path" fill="#FFFFFF" points="5.107 16.971 4.475 15.603 2.971 15.603 4.07 14.463 3.664 12.815 5.107 13.633 6.551 12.815 6.144 14.463 7.244 15.603 5.738 15.603"></polygon>
                <polygon id="Path" fill="#FFFFFF" points="14.893 16.971 15.525 15.603 17.029 15.603 15.93 14.463 16.336 12.815 14.893 13.633 13.449 12.815 13.856 14.463 12.756 15.603 14.262 15.603"></polygon>
            </g>
        </g>
    </g>
</svg>