<?xml version="1.0" encoding="UTF-8"?>
<svg width="48px" height="36px" viewBox="0 0 48 36" version="1.1" xmlns="http://www.w3.org/2000/svg" xmlns:xlink="http://www.w3.org/1999/xlink">
    <!-- Generator: Sketch 52.2 (67145) - http://www.bohemiancoding.com/sketch -->
    <title>uzbekistan-flag-icon</title>
    <desc>Created with Sketch.</desc>
    <g id="Page-1" stroke="none" stroke-width="1" fill="none" fill-rule="evenodd">
        <g id="Flags" transform="translate(-43.000000, -125.000000)">
            <g id="uzbekistan-flag-icon" transform="translate(43.000000, 125.000000)">
                <path d="M48,34 C48,35.105 47.105,36 46,36 L2,36 C0.895,36 0,35.105 0,34 L0,24 L48,24 L48,34 Z" id="Path" fill="#2AB342"></path>
                <rect id="Rectangle" fill="#E6E6E6" x="0" y="12" width="48" height="12"></rect>
                <path d="M48,12 L0,12 L0,2 C0,0.895 0.895,0 2,0 L46,0 C47.105,0 48,0.895 48,2 L48,12 Z" id="Path" fill="#1799B3"></path>
                <path d="M10,2.141 C9.678,2.059 9.348,2 9,2 C6.791,2 5,3.791 5,6 C5,8.209 6.791,10 9,10 C9.348,10 9.678,9.941 10,9.859 C8.277,9.412 7,7.861 7,6 C7,4.139 8.277,2.588 10,2.141 Z" id="Path" fill="#FFFFFF"></path>
                <rect id="Rectangle" fill="#FFFFFF" x="12" y="4" width="2" height="2"></rect>
                <rect id="Rectangle" fill="#FFFFFF" x="16" y="4" width="2" height="2"></rect>
                <rect id="Rectangle" fill="#FFFFFF" x="20" y="4" width="2" height="2"></rect>
                <rect id="Rectangle" fill="#FFFFFF" x="12" y="8" width="2" height="2"></rect>
                <rect id="Rectangle" fill="#FFFFFF" x="16" y="8" width="2" height="2"></rect>
                <rect id="Rectangle" fill="#FFFFFF" x="20" y="8" width="2" height="2"></rect>
                <rect id="Rectangle" fill="#FFFFFF" x="24" y="8" width="2" height="2"></rect>
            </g>
        </g>
    </g>
</svg>