<?xml version="1.0" encoding="UTF-8"?>
<svg width="40px" height="35px" viewBox="0 0 40 35" version="1.1" xmlns="http://www.w3.org/2000/svg" xmlns:xlink="http://www.w3.org/1999/xlink">
    <!-- Generator: sketchtool 53.2 (72643) - https://sketchapp.com -->
    <title>C1B40D08-CF89-4464-9D3C-A36DD9476CF6</title>
    <desc>Created with sketchtool.</desc>
    <g id="Page-1" stroke="none" stroke-width="1" fill="none" fill-rule="evenodd">
        <g id="MVP-Dashboard-1440px" transform="translate(-556.000000, -1527.000000)" fill="#FFFFFF">
            <g id="Group-28" transform="translate(120.000000, 1304.000000)">
                <g id="Group-45" transform="translate(416.000000, 200.000000)">
                    <g id="Product-card-v2-Copy">
                        <g id="loteopass-card_graphic">
                            <g id="Group-4" transform="translate(-29.000000, -34.000000)">
                                <g id="Product-icon/Loteo-Maxx" transform="translate(29.000000, 34.000000)">
                                    <path d="M40.86,50.1182692 C41.1133333,49.8692308 41.56,49.8759615 41.8066667,50.1182692 C41.9266667,50.2454808 42,50.4211538 42,50.5961538 C42,50.7711538 41.9266667,50.9461538 41.8066667,51.0740385 C41.68,51.1951923 41.5066667,51.2692308 41.3333333,51.2692308 C41.16,51.2692308 40.986,51.1951923 40.86,51.0740385 C40.7333333,50.9461538 40.6666667,50.7711538 40.6666667,50.5961538 C40.6666667,50.4211538 40.7393333,50.2454808 40.86,50.1182692 Z M26.6666667,39.8390385 C26.298,39.8390385 26,39.5381731 26,39.1659615 C26,38.79375 26.298,38.4928846 26.6666667,38.4928846 L40,38.4928846 C40.3686667,38.4928846 40.6666667,38.79375 40.6666667,39.1659615 C40.6666667,39.5381731 40.3686667,39.8390385 40,39.8390385 L26.6666667,39.8390385 Z M27.3333333,49.9351923 C27.702,49.9351923 28,50.2360577 28,50.6082692 C28,50.9804808 27.702,51.2813462 27.3333333,51.2813462 L26.6666667,51.2813462 C26.298,51.2813462 26,50.9804808 26,50.6082692 C26,50.2360577 26.298,49.9351923 26.6666667,49.9351923 L27.3333333,49.9351923 Z M31.3333333,49.9351923 C31.702,49.9351923 32,50.2360577 32,50.6082692 C32,50.9804808 31.702,51.2813462 31.3333333,51.2813462 L30,51.2813462 C29.6313333,51.2813462 29.3333333,50.9804808 29.3333333,50.6082692 C29.3333333,50.2360577 29.6313333,49.9351923 30,49.9351923 L31.3333333,49.9351923 Z M34.6666667,49.9351923 C35.0353333,49.9351923 35.3333333,50.2360577 35.3333333,50.6082692 C35.3333333,50.9804808 35.0353333,51.2813462 34.6666667,51.2813462 L34,51.2813462 C33.6313333,51.2813462 33.3333333,50.9804808 33.3333333,50.6082692 C33.3333333,50.2360577 33.6313333,49.9351923 34,49.9351923 L34.6666667,49.9351923 Z M38.6666667,49.9351923 C39.0353333,49.9351923 39.3333333,50.2360577 39.3333333,50.6082692 C39.3333333,50.9804808 39.0353333,51.2813462 38.6666667,51.2813462 L37.3333333,51.2813462 C36.9646667,51.2813462 36.6666667,50.9804808 36.6666667,50.6082692 C36.6666667,50.2360577 36.9646667,49.9351923 37.3333333,49.9351923 L38.6666667,49.9351923 Z M48.8670465,49.9230769 C49.2357132,49.9230769 49.5337132,50.2239423 49.5337132,50.5961538 C49.5337132,50.9683654 49.2357132,51.2692308 48.8670465,51.2692308 L44,51.2692308 C43.6313333,51.2692308 43.3333333,50.9683654 43.3333333,50.5961538 C43.3333333,50.2239423 43.6313333,49.9230769 44,49.9230769 L48.8670465,49.9230769 Z M53.2190258,42.5313462 C53.5876925,42.5313462 53.8856925,42.8322115 53.8856925,43.2044231 C53.8856925,43.5766346 53.5876925,43.8775 53.2190258,43.8775 L26.6666667,43.8775 C26.298,43.8775 26,43.5766346 26,43.2044231 C26,42.8322115 26.298,42.5313462 26.6666667,42.5313462 L53.2190258,42.5313462 Z M53.2190258,46.5819231 C53.5876925,46.5819231 53.8856925,46.8827885 53.8856925,47.255 C53.8856925,47.6272115 53.5876925,47.9280769 53.2190258,47.9280769 L26.6666667,47.9280769 C26.298,47.9280769 26,47.6272115 26,47.255 C26,46.8827885 26.298,46.5819231 26.6666667,46.5819231 L53.2190258,46.5819231 Z M56.8813333,29.7307692 C58.6006667,29.7307692 60,31.1435577 60,32.8794231 L60,54.8513462 C60,56.5872115 58.6006667,58 56.882,58 L23.1186667,58 C21.3993333,58 20,56.5872115 20,54.8520192 L20,32.8794231 C20,31.1435577 21.3993333,29.7307692 23.1186667,29.7307692 L35.3333333,29.7307692 L35.3333333,24.5568269 C35.3333333,23.6979808 36.0246667,23 36.8746667,23 L43.1246667,23 C43.9753333,23 44.6666667,23.6979808 44.6666667,24.5568269 L44.6666667,29.7307692 L56.8813333,29.7307692 Z M36.6666667,24.5568269 L36.6666667,29.7307692 L36.6666667,33.5592308 C36.6666667,33.6743269 36.7606667,33.7692308 36.8746667,33.7692308 L43.1246667,33.7692308 C43.2393333,33.7692308 43.3333333,33.6743269 43.3333333,33.5592308 L43.3333333,29.7307692 L43.3333333,24.5568269 C43.3333333,24.4410577 43.2393333,24.3461538 43.1246667,24.3461538 L36.8746667,24.3461538 C36.7606667,24.3461538 36.6666667,24.4410577 36.6666667,24.5568269 Z M58.6666667,54.8513462 L58.6666667,32.8794231 C58.6666667,31.8852885 57.866,31.0769231 56.8813333,31.0769231 L44.6666667,31.0769231 L44.6666667,33.5592308 C44.6666667,34.4174038 43.9753333,35.1153846 43.1246667,35.1153846 L36.8746667,35.1153846 C36.0246667,35.1153846 35.3333333,34.4174038 35.3333333,33.5592308 L35.3333333,31.0769231 L23.1186667,31.0769231 C22.134,31.0769231 21.3333333,31.8852885 21.3333333,32.8794231 L21.3333333,54.8513462 C21.3333333,55.8454808 22.134,56.6538462 23.1186667,56.6538462 L56.8813333,56.6538462 C57.866,56.6538462 58.6666667,55.8454808 58.6666667,54.8513462 Z M40,30.4038462 C38.5293333,30.4038462 37.3333333,29.1963462 37.3333333,27.7115385 C37.3333333,26.2267308 38.5293333,25.0192308 40,25.0192308 C41.4706667,25.0192308 42.6666667,26.2267308 42.6666667,27.7115385 C42.6666667,29.1963462 41.4706667,30.4038462 40,30.4038462 Z M40,26.3653846 C39.2646667,26.3653846 38.6666667,26.9691346 38.6666667,27.7115385 C38.6666667,28.4539423 39.2646667,29.0576923 40,29.0576923 C40.7353333,29.0576923 41.3333333,28.4539423 41.3333333,27.7115385 C41.3333333,26.9691346 40.7353333,26.3653846 40,26.3653846 Z" id="loteopass-cardicon"></path>
                                </g>
                            </g>
                        </g>
                    </g>
                </g>
            </g>
        </g>
    </g>
</svg>