<?xml version="1.0" encoding="UTF-8"?>
<svg width="17px" height="17px" viewBox="0 0 17 17" version="1.1" xmlns="http://www.w3.org/2000/svg" xmlns:xlink="http://www.w3.org/1999/xlink">
    <!-- Generator: sketchtool 52.6 (67491) - http://www.bohemiancoding.com/sketch -->
    <title>8879DDCC-832D-43DA-B42D-10A089B7FBF1</title>
    <desc>Created with sketchtool.</desc>
    <g id="Page-1" stroke="none" stroke-width="1" fill="none" fill-rule="evenodd">
        <g id="Intro-Landing-page-v1" transform="translate(-752.000000, -834.000000)" fill="#FFFFFF">
            <g id="Group-24" transform="translate(541.000000, 824.000000)">
                <g id="Group-47-Copy" transform="translate(199.999986, 0.000000)">
                    <path d="M27.800019,18.5312427 C27.800019,19.2624935 27.3875186,19.8906192 26.7781429,20.1999946 C26.853143,20.4906199 26.890643,20.7906202 26.890643,21.0999956 C26.890643,24.0624989 23.5437642,26.4625017 19.4187595,26.4625017 C15.3031299,26.4625017 11.9562511,24.0624989 11.9562511,21.0999956 C11.9562511,20.7999952 11.9937511,20.4999949 12.0593762,20.2187446 C11.4312505,19.9093692 11,19.2718685 11,18.5312427 C11,17.4999915 11.8343759,16.6656156 12.8656271,16.6656156 C13.4000027,16.6656156 13.8781283,16.8906158 14.2250037,17.2562412 C15.4906301,16.3749902 17.178132,15.8031146 19.0531341,15.7374895 L20.1406354,10.853109 C20.1781354,10.6843588 20.3562606,10.5718587 20.5250108,10.6093587 L23.9843897,11.3687346 C24.20939,10.9187341 24.6875155,10.5999837 25.2312661,10.5999837 C26.009392,10.5999837 26.6375177,11.2281094 26.6375177,11.9968603 C26.6375177,12.7749862 26.009392,13.4031119 25.2312661,13.4031119 C24.4625152,13.4031119 23.8343895,12.7749862 23.8343895,12.0062353 L20.703136,11.3124845 L19.7281349,15.7374895 C21.612512,15.7937396 23.318764,16.3562402 24.5937654,17.2374912 C24.9312658,16.8812408 25.4093913,16.6656156 25.9343919,16.6656156 C26.9656431,16.6656156 27.800019,17.4999915 27.800019,18.5312427 Z M14.9187544,20.3968698 C14.9187544,21.1749957 15.5468801,21.8031214 16.315631,21.8031214 C17.0937569,21.8031214 17.7218826,21.1749957 17.7218826,20.3968698 C17.7218826,19.6281189 17.0937569,18.9999932 16.315631,18.9999932 C15.5468801,18.9999932 14.9187544,19.6281189 14.9187544,20.3968698 Z M22.512513,23.7249986 C22.6531382,23.5843734 22.6531382,23.3781232 22.512513,23.237498 C22.3812629,23.1062479 22.1656376,23.1062479 22.0343875,23.237498 C21.4718869,23.8093737 20.2625105,24.0062489 19.4000095,24.0062489 C18.5375085,24.0062489 17.3281322,23.8093737 16.7656315,23.237498 C16.6343814,23.1062479 16.4187561,23.1062479 16.287506,23.237498 C16.1468808,23.3687482 16.1468808,23.5843734 16.287506,23.7249986 C17.178132,24.6156246 18.8937589,24.6812496 19.4000095,24.6812496 C19.9062601,24.6812496 21.621887,24.6156246 22.512513,23.7249986 Z M22.484388,21.8031214 C23.2531389,21.8031214 23.8812646,21.1749957 23.8812646,20.3968698 C23.8812646,19.6281189 23.2531389,18.9999932 22.484388,18.9999932 C21.7062621,18.9999932 21.0781364,19.6281189 21.0781364,20.3968698 C21.0781364,21.1749957 21.7062621,21.8031214 22.484388,21.8031214 Z" id="reddit-alien---FontAwesome"></path>
                </g>
            </g>
        </g>
    </g>
</svg>