<?xml version="1.0" encoding="UTF-8"?>
<svg width="17px" height="24px" viewBox="0 0 17 24" version="1.1" xmlns="http://www.w3.org/2000/svg" xmlns:xlink="http://www.w3.org/1999/xlink">
    <!-- Generator: sketchtool 55.1 (78136) - https://sketchapp.com -->
    <title>0A161A15-780D-4924-8457-9B4812A6A0F9</title>
    <desc>Created with sketchtool.</desc>
    <g id="*Statistics" stroke="none" stroke-width="1" fill="none" fill-rule="evenodd">
        <g id="Loteo-Admin---Statistics" transform="translate(-380.000000, -367.000000)" fill="#F6B034">
            <g id="Group-31" transform="translate(296.000000, 157.000000)">
                <g id="Group-8-Copy" transform="translate(0.000000, 172.000000)">
                    <path d="M99.7098317,45.3846154 C99.8936551,47.3028846 99.1018004,48.4567308 97.8574573,49.1057692 C99.9219356,49.6105769 101.22284,50.8653846 100.968315,53.6778846 C100.643089,57.1826923 98.0978417,58.1201923 94.449654,58.3221154 L94.449654,62 L92.2720536,62 L92.2720536,58.3798077 C91.7205833,58.3798077 91.1408326,58.3798077 90.5469415,58.3653846 L90.5469415,62 L88.3693411,62 L88.3693411,58.3221154 C87.8602917,58.3221154 87.3512422,58.3076923 86.8280525,58.3076923 L84,58.3076923 L84.4383481,55.6682692 C86.0361978,55.6971154 86.0079173,55.6682692 86.0079173,55.6682692 C86.6159486,55.6682692 86.7856317,55.2211538 86.8280525,54.9326923 L86.8280525,49.1346154 L87.0542967,49.1346154 C86.9694551,49.1201923 86.8846136,49.1201923 86.8280525,49.1201923 L86.8280525,44.9807692 C86.7432109,44.5192308 86.4604057,44 85.5695691,44 C85.5695691,44 85.5978497,43.9711538 84,44 L84,41.6346154 L86.9977357,41.6490385 C87.4360838,41.6490385 87.9027125,41.6490385 88.3693411,41.6346154 L88.3693411,38 L90.5469415,38 L90.5469415,41.5625 C91.1266923,41.5480769 91.7064431,41.5336538 92.2720536,41.5336538 L92.2720536,38 L94.449654,38 L94.449654,41.6346154 C97.249426,41.8798077 99.4694472,42.7596154 99.7098317,45.3846154 Z M96.6696752,53.2451923 C96.6696752,50.3894231 92.0599496,50.8076923 90.5893623,50.8076923 L90.5893623,55.6826923 C92.0599496,55.6826923 96.6696752,56 96.6696752,53.2451923 Z M95.6657166,46.3798077 C95.6657166,43.7692308 91.8195652,44.1586538 90.5893623,44.1586538 L90.5893623,48.5865385 C91.8195652,48.5865385 95.6657166,48.875 95.6657166,46.3798077 Z" id="btc---FontAwesome"></path>
                </g>
            </g>
        </g>
    </g>
</svg>