<?xml version="1.0" encoding="UTF-8"?>
<svg width="21px" height="22px" viewBox="0 0 21 22" version="1.1" xmlns="http://www.w3.org/2000/svg" xmlns:xlink="http://www.w3.org/1999/xlink">
    <!-- Generator: sketchtool 55.1 (78136) - https://sketchapp.com -->
    <title>17008EB1-EE54-42D4-8505-8CF34F020FE9</title>
    <desc>Created with sketchtool.</desc>
    <defs>
        <linearGradient x1="95.5578512%" y1="84.1526658%" x2="4.44214876%" y2="0%" id="linearGradient-1">
            <stop stop-color="#FFB600" offset="0%"></stop>
            <stop stop-color="#FF0000" offset="53.6291174%"></stop>
            <stop stop-color="#D100A3" offset="100%"></stop>
        </linearGradient>
    </defs>
    <g id="*Statistics" stroke="none" stroke-width="1" fill="none" fill-rule="evenodd">
        <g id="Loteo-Admin---Statistics" transform="translate(-1101.000000, -199.000000)" fill="url(#linearGradient-1)">
            <g id="Group-31" transform="translate(296.000000, 157.000000)">
                <g id="Group-12" transform="translate(724.000000, 4.000000)">
                    <g id="Group-6" transform="translate(61.000000, 38.000000)">
                        <path d="M33.9997152,11 C33.9997152,8.98063309 32.4275775,7.3336317 30.5,7.3336317 C28.5724225,7.3336317 27.0002848,8.98063309 27.0002848,11 C27.0002848,13.0193669 28.5724225,14.6663683 30.5,14.6663683 C32.4275775,14.6663683 33.9997152,13.0193669 33.9997152,11 Z M35.8862804,11 C35.8862804,14.1221418 33.4802262,16.64277 30.5,16.64277 C27.5197738,16.64277 25.1137196,14.1221418 25.1137196,11 C25.1137196,7.87785825 27.5197738,5.35723004 30.5,5.35723004 C33.4802262,5.35723004 35.8862804,7.87785825 35.8862804,11 Z M37.3627228,5.12808202 C37.3627228,5.85849133 36.8022215,6.44568313 36.1050126,6.44568313 C35.4078037,6.44568313 34.8473025,5.85849133 34.8473025,5.12808202 C34.8473025,4.39767272 35.4078037,3.81048092 36.1050126,3.81048092 C36.8022215,3.81048092 37.3627228,4.39767272 37.3627228,5.12808202 Z M30.5,1.97729677 C28.9688746,1.97729677 25.6878916,1.84840101 24.3071446,2.42127106 C23.8286679,2.62177557 23.4732281,2.86524534 23.1041175,3.25193262 C22.7350069,3.6386199 22.502604,4.01098543 22.3112133,4.51224672 C21.7643828,5.95874359 21.8874196,9.39596387 21.8874196,11 C21.8874196,12.6040361 21.7643828,16.0412564 22.3112133,17.4877533 C22.502604,17.9890146 22.7350069,18.3613801 23.1041175,18.7480674 C23.4732281,19.1347547 23.8286679,19.3782244 24.3071446,19.5787289 C25.6878916,20.151599 28.9688746,20.0227032 30.5,20.0227032 C32.0311254,20.0227032 35.3121084,20.151599 36.6928554,19.5787289 C37.1713321,19.3782244 37.5267719,19.1347547 37.8958825,18.7480674 C38.2649931,18.3613801 38.497396,17.9890146 38.6887867,17.4877533 C39.2356172,16.0412564 39.1125804,12.6040361 39.1125804,11 C39.1125804,9.39596387 39.2356172,5.95874359 38.6887867,4.51224672 C38.497396,4.01098543 38.2649931,3.6386199 37.8958825,3.25193262 C37.5267719,2.86524534 37.1713321,2.62177557 36.6928554,2.42127106 C35.3121084,1.84840101 32.0311254,1.97729677 30.5,1.97729677 Z M40.9991456,11 C40.9991456,12.5181056 41.0128163,14.0218895 40.9307918,15.5399951 C40.8487672,17.3015705 40.4659858,18.8626414 39.2356172,20.151599 C38.0052486,21.4405566 36.5151355,21.8415656 34.8336317,21.9274961 C33.3845309,22.0134266 31.9491008,21.9991049 30.5,21.9991049 C29.0508992,21.9991049 27.6154691,22.0134266 26.1663683,21.9274961 C24.4848645,21.8415656 22.9947514,21.4405566 21.7643828,20.151599 C20.5340142,18.8626414 20.1512328,17.3015705 20.0692082,15.5399951 C19.9871837,14.0218895 20.0008544,12.5181056 20.0008544,11 C20.0008544,9.48189438 19.9871837,7.97811051 20.0692082,6.46000488 C20.1512328,4.69842949 20.5340142,3.13735861 21.7643828,1.84840101 C22.9947514,0.559443405 24.4848645,0.158434372 26.1663683,0.0725038652 C27.6154691,-0.0134266417 29.0508992,0.000895109447 30.5,0.000895109447 C31.9491008,0.000895109447 33.3845309,-0.0134266417 34.8336317,0.0725038652 C36.5151355,0.158434372 38.0052486,0.559443405 39.2356172,1.84840101 C40.4659858,3.13735861 40.8487672,4.69842949 40.9307918,6.46000488 C41.0128163,7.97811051 40.9991456,9.48189438 40.9991456,11 Z" id="instagram---FontAwesome"></path>
                    </g>
                </g>
            </g>
        </g>
    </g>
</svg>