<?xml version="1.0" encoding="UTF-8"?>
<svg width="20px" height="20px" viewBox="0 0 20 20" version="1.1" xmlns="http://www.w3.org/2000/svg" xmlns:xlink="http://www.w3.org/1999/xlink">
    <!-- Generator: sketchtool 55.1 (78136) - https://sketchapp.com -->
    <title>8A8F4F51-FA70-46B3-A9E7-CEA5DC0E65EA</title>
    <desc>Created with sketchtool.</desc>
    <g id="*Statistics" stroke="none" stroke-width="1" fill="none" fill-rule="evenodd">
        <g id="Loteo-Admin---Statistics" transform="translate(-559.000000, -369.000000)" fill="#0075B8">
            <g id="Group-31" transform="translate(296.000000, 157.000000)">
                <g id="Group-9-Copy" transform="translate(181.000000, 172.000000)">
                    <path d="M86.5442708,46.4986376 L86.5442708,60 L82.2473958,60 L82.2473958,46.4986376 L86.5442708,46.4986376 Z M86.8177083,42.3297003 C86.8307292,43.6239782 85.8932292,44.6594005 84.3958333,44.6594005 L84.3697917,44.6594005 C82.9244792,44.6594005 82,43.6239782 82,42.3297003 C82,41.0081744 82.9635417,40 84.421875,40 C85.8932292,40 86.8046875,41.0081744 86.8177083,42.3297003 Z M93.1979167,48.4176454 C93.7631771,47.4930733 94.7828828,46.1852861 97.0651042,46.1852861 C99.890625,46.1852861 102,48.119891 102,52.2615804 L102,60 L97.7161458,60 L97.7161458,52.7792916 C97.7161458,50.9673025 97.0911458,49.7275204 95.5416667,49.7275204 C94.3567708,49.7275204 93.6536458,50.5585831 93.3411458,51.3623978 C93.2369792,51.6621253 93.1979167,52.0572207 93.1979167,52.4659401 L93.1979167,60 L88.9140625,60 C88.9661458,47.7656676 88.9140625,46.4986376 88.9140625,46.4986376 L93.1979167,46.4986376 L93.1979167,48.4176454 L93.1979167,48.4176454 Z" id="linkedin---FontAwesome"></path>
                </g>
            </g>
        </g>
    </g>
</svg>