<?xml version="1.0" encoding="UTF-8"?>
<svg width="22px" height="22px" viewBox="0 0 22 22" version="1.1" xmlns="http://www.w3.org/2000/svg" xmlns:xlink="http://www.w3.org/1999/xlink">
    <!-- Generator: sketchtool 55.1 (78136) - https://sketchapp.com -->
    <title>B172DDF7-78B1-471D-911C-E4560983C198</title>
    <desc>Created with sketchtool.</desc>
    <g id="*Statistics" stroke="none" stroke-width="1" fill="none" fill-rule="evenodd">
        <g id="Loteo-Admin---Statistics" transform="translate(-1282.000000, -199.000000)" fill="#F83201">
            <g id="Group-31" transform="translate(296.000000, 157.000000)">
                <g id="Group-13" transform="translate(905.000000, 4.000000)">
                    <path d="M103,49 C103,50.0141844 102.459821,50.8853428 101.66183,51.3144208 C101.760045,51.7174941 101.809152,52.1335697 101.809152,52.5626478 C101.809152,56.6713948 97.4263393,60 92.0245536,60 C86.6350446,60 82.2522321,56.6713948 82.2522321,52.5626478 C82.2522321,52.1465721 82.3013393,51.7304965 82.3872768,51.3404255 C81.5647321,50.9113475 81,50.0271868 81,49 C81,47.56974 82.0926339,46.4125296 83.4430804,46.4125296 C84.1428571,46.4125296 84.7689732,46.7245863 85.2232143,47.2316785 C86.8805804,46.0094563 89.0904018,45.2163121 91.5457589,45.1252955 L92.9698661,38.3510638 C93.0189732,38.1170213 93.2522321,37.9609929 93.4732143,38.0130024 L98.0033482,39.0661939 C98.2979911,38.4420804 98.9241071,38 99.6361607,38 C100.655134,38 101.477679,38.8711584 101.477679,39.9373522 C101.477679,41.0165485 100.655134,41.8877069 99.6361607,41.8877069 C98.6294643,41.8877069 97.8069196,41.0165485 97.8069196,39.9503546 L93.7064732,38.9881797 L92.4296875,45.1252955 C94.8973214,45.2033097 97.1316964,45.9834515 98.8013393,47.2056738 C99.2433036,46.7115839 99.8694196,46.4125296 100.55692,46.4125296 C101.907366,46.4125296 103,47.56974 103,49 Z M86.1316964,51.5874704 C86.1316964,52.6666667 86.9542411,53.5378251 87.9609375,53.5378251 C88.9799107,53.5378251 89.8024554,52.6666667 89.8024554,51.5874704 C89.8024554,50.5212766 88.9799107,49.6501182 87.9609375,49.6501182 C86.9542411,49.6501182 86.1316964,50.5212766 86.1316964,51.5874704 Z M96.0758929,56.2033097 C96.2600446,56.0082742 96.2600446,55.7222222 96.0758929,55.5271868 C95.9040179,55.3451537 95.6216518,55.3451537 95.4497768,55.5271868 C94.7131696,56.320331 93.1294643,56.5933806 92,56.5933806 C90.8705357,56.5933806 89.2868304,56.320331 88.5502232,55.5271868 C88.3783482,55.3451537 88.0959821,55.3451537 87.9241071,55.5271868 C87.7399554,55.7092199 87.7399554,56.0082742 87.9241071,56.2033097 C89.0904018,57.4385343 91.3370536,57.5295508 92,57.5295508 C92.6629464,57.5295508 94.9095982,57.4385343 96.0758929,56.2033097 Z M96.0390625,53.5378251 C97.0457589,53.5378251 97.8683036,52.6666667 97.8683036,51.5874704 C97.8683036,50.5212766 97.0457589,49.6501182 96.0390625,49.6501182 C95.0200893,49.6501182 94.1975446,50.5212766 94.1975446,51.5874704 C94.1975446,52.6666667 95.0200893,53.5378251 96.0390625,53.5378251 Z" id="reddit-alien---FontAwesome"></path>
                </g>
            </g>
        </g>
    </g>
</svg>