<?xml version="1.0" encoding="UTF-8"?>
<svg width="21px" height="18px" viewBox="0 0 21 18" version="1.1" xmlns="http://www.w3.org/2000/svg" xmlns:xlink="http://www.w3.org/1999/xlink">
    <!-- Generator: sketchtool 55.1 (78136) - https://sketchapp.com -->
    <title>D6DF4876-AC6B-430A-A592-668396B8F87F</title>
    <desc>Created with sketchtool.</desc>
    <g id="*Statistics" stroke="none" stroke-width="1" fill="none" fill-rule="evenodd">
        <g id="Loteo-Admin---Statistics" transform="translate(-739.000000, -200.000000)" fill="#1FA0F2">
            <g id="Group-31" transform="translate(296.000000, 157.000000)">
                <g id="Group-10" transform="translate(362.000000, 4.000000)">
                    <path d="M102,41.1375 C101.413706,42.0375 100.680838,42.8390625 99.8413706,43.4859375 C99.8546954,43.6828125 99.8546954,43.8796875 99.8546954,44.0765625 C99.8546954,50.08125 95.5241117,57 87.6091371,57 C85.1706853,57 82.9054569,56.2546875 81,54.9609375 C81.3464467,55.003125 81.6795685,55.0171875 82.0393401,55.0171875 C84.0513959,55.0171875 85.9035533,54.3 87.3826142,53.0765625 C85.4904822,53.034375 83.9048223,51.7265625 83.3585025,49.9265625 C83.625,49.96875 83.8914975,49.996875 84.1713198,49.996875 C84.5577411,49.996875 84.9441624,49.940625 85.303934,49.8421875 C83.3318528,49.4203125 81.8527919,47.5921875 81.8527919,45.384375 C81.8527919,45.3703125 81.8527919,45.3421875 81.8527919,45.328125 C82.4257614,45.665625 83.0920051,45.8765625 83.7982234,45.9046875 C82.6389594,45.0890625 81.8794416,43.696875 81.8794416,42.121875 C81.8794416,41.278125 82.0926396,40.5046875 82.465736,39.8296875 C84.5843909,42.5859375 87.7690355,44.3859375 91.3401015,44.5828125 C91.2734772,44.2453125 91.2335025,43.89375 91.2335025,43.5421875 C91.2335025,41.0390625 93.1522843,39 95.5374365,39 C96.7766497,39 97.8959391,39.5484375 98.6821066,40.434375 C99.6548223,40.2375 100.587563,39.8578125 101.413706,39.3375 C101.093909,40.3921875 100.41434,41.278125 99.5215736,41.840625 C100.38769,41.7421875 101.227157,41.4890625 102,41.1375 Z" id="twitter---FontAwesome"></path>
                </g>
            </g>
        </g>
    </g>
</svg>