<?xml version="1.0" encoding="UTF-8"?>
<svg width="22px" height="17px" viewBox="0 0 22 17" version="1.1" xmlns="http://www.w3.org/2000/svg" xmlns:xlink="http://www.w3.org/1999/xlink">
    <!-- Generator: sketchtool 55.1 (78136) - https://sketchapp.com -->
    <title>C51122A9-B14E-4AB3-9F80-086580134095</title>
    <desc>Created with sketchtool.</desc>
    <g id="*Statistics" stroke="none" stroke-width="1" fill="none" fill-rule="evenodd">
        <g id="Loteo-Admin---Statistics" transform="translate(-1101.000000, -371.000000)" fill="#FF0000">
            <g id="Group-31" transform="translate(296.000000, 157.000000)">
                <g id="Group-12-Copy" transform="translate(724.000000, 172.000000)">
                    <path d="M89.7288176,53.6301587 L95.6707218,50.2571429 L89.7288176,46.8436508 L89.7288176,53.6301587 Z M92,42 C96.6283014,42 99.6974667,42.2428571 99.6974667,42.2428571 C100.12715,42.2968254 101.072453,42.2968254 101.907266,43.268254 C101.907266,43.268254 102.582482,43.9968254 102.778909,45.6698413 C103.012165,47.6261905 103,49.5825397 103,49.5825397 L103,51.4174603 C103,51.4174603 103.012165,53.3738095 102.778909,55.3301587 C102.582482,56.9896825 101.907266,57.731746 101.907266,57.731746 C101.072453,58.6896825 100.12715,58.6896825 99.6974667,58.7436508 C99.6974667,58.7436508 96.6283014,59 92,59 C86.2790758,58.9460317 84.5235132,58.7571429 84.5235132,58.7571429 C84.0324467,58.6626984 82.9275472,58.6896825 82.0927342,57.731746 C82.0927342,57.731746 81.4175178,56.9896825 81.2210913,55.3301587 C80.9878347,53.3738095 81,51.4174603 81,51.4174603 L81,49.5825397 C81,49.5825397 80.9878347,47.6261905 81.2210913,45.6698413 C81.4175178,43.9968254 82.0927342,43.268254 82.0927342,43.268254 C82.9275472,42.2968254 83.8728501,42.2968254 84.3025333,42.2428571 C84.3025333,42.2428571 87.3716986,42 92,42 Z" id="youtube-play---FontAwesome"></path>
                </g>
            </g>
        </g>
    </g>
</svg>