<?xml version="1.0" encoding="UTF-8"?>
<svg width="112px" height="119px" viewBox="0 0 112 119" version="1.1" xmlns="http://www.w3.org/2000/svg" xmlns:xlink="http://www.w3.org/1999/xlink">
    <!-- Generator: sketchtool 55 (78076) - https://sketchapp.com -->
    <title>9509B12A-421D-4684-A7DF-6C23A8712938</title>
    <desc>Created with sketchtool.</desc>
    <defs>
        <radialGradient cx="50%" cy="0%" fx="50%" fy="0%" r="170.033731%" gradientTransform="translate(0.500000,0.000000),scale(1.000000,0.909091),rotate(90.000000),scale(1.000000,6.001015),translate(-0.500000,-0.000000)" id="radialGradient-1">
            <stop stop-color="#FE9A0F" offset="0%"></stop>
            <stop stop-color="#FECF0F" offset="54.3802134%"></stop>
            <stop stop-color="#FFEA00" offset="100%"></stop>
        </radialGradient>
        <path d="M512.881356,84.5606094 C514.937458,84.5606094 516.610169,82.864375 516.610169,80.7793594 L516.610169,70.9457031 C515.27322,71.9229844 513.634576,72.501 511.864407,72.501 L510.847458,72.501 L510.847458,80.7814219 C510.847458,82.1662188 510.460169,83.4606094 509.790847,84.5606094 L512.881356,84.5606094 Z M443.389831,80.78125 C443.389831,82.8662656 445.062542,84.5625 447.118644,84.5625 L503.689492,84.5625 C503.702712,84.5621563 503.715593,84.5604375 503.728814,84.5604375 L503.807119,84.5604375 C505.827119,84.5179844 507.457627,82.839625 507.457627,80.78125 L507.457627,72.5008281 L492.20339,72.5008281 C486.408983,72.5008281 481.694915,67.7204688 481.694915,61.8445781 C481.694915,55.9686875 486.408983,51.1883281 492.20339,51.1883281 L507.457627,51.1883281 L507.457627,38.5 C507.457627,36.4149844 505.784915,34.71875 503.728814,34.71875 L447.118644,34.71875 C445.752203,34.71875 444.475085,34.3255 443.389831,33.6460781 L443.389831,80.78125 Z M516.610169,53.4202969 C515.452034,54.1817031 514.073051,54.626 512.592881,54.626 L492.20339,54.626 C488.278136,54.626 485.084746,57.8642969 485.084746,61.84475 C485.084746,65.8252031 488.278136,69.0635 492.20339,69.0635 L511.864407,69.0635 C514.481186,69.0635 516.610169,66.9045781 516.610169,64.251 L516.610169,53.4202969 Z M512.881356,20.28125 C516.80661,20.28125 520,23.5197188 520,27.5 L520,80.7791875 C520,84.7596406 516.80661,87.9979375 512.881356,87.9979375 L447.118644,88 C443.19339,88 440,84.7617031 440,80.78125 L440,27.9277969 C440,27.8795 440.00339,27.8320625 440.007119,27.784625 C440.003559,27.6900938 440,27.5953906 440,27.5 C440,23.5195469 443.19339,20.28125 447.118644,20.28125 L458.334237,20.28125 C459.270339,20.28125 460.029153,21.0507344 460.029153,22 C460.029153,22.9492656 459.270339,23.71875 458.334237,23.71875 L447.118644,23.71875 C445.062542,23.71875 443.389831,25.4149844 443.389831,27.5 C443.389831,29.5850156 445.062542,31.28125 447.118644,31.28125 L475.338983,31.28125 L475.338983,26.0390625 C475.338983,25.0897969 476.097797,24.3203125 477.033898,24.3203125 C477.97,24.3203125 478.728814,25.0897969 478.728814,26.0390625 L478.728814,31.28125 L503.728814,31.28125 C507.654068,31.28125 510.847458,34.5195469 510.847458,38.5 L510.847458,51.1883281 L512.592881,51.1883281 C514.807966,51.1883281 516.610169,49.3607813 516.610169,47.1145469 L516.610169,27.5 C516.610169,25.4149844 514.937458,23.71875 512.881356,23.71875 L502.966102,23.71875 C502.03,23.71875 501.271186,22.9492656 501.271186,22 C501.271186,21.0507344 502.03,20.28125 502.966102,20.28125 L512.881356,20.28125 Z M488.983051,14.63825 C486.461186,14.63825 484.409322,16.7187969 484.409322,19.2762969 C484.409322,21.8337969 486.461017,23.9143438 488.983051,23.9143438 C491.505085,23.9143438 493.55678,21.8337969 493.55678,19.2762969 C493.55678,16.7187969 491.504915,14.63825 488.983051,14.63825 Z M488.983051,27.3518438 C484.592034,27.3518438 481.019492,23.7292344 481.019492,19.2762969 C481.019492,14.8233594 484.591864,11.20075 488.983051,11.20075 C493.374237,11.20075 496.94661,14.8233594 496.94661,19.2762969 C496.94661,23.7292344 493.374237,27.3518438 488.983051,27.3518438 Z M472.542373,3.4375 C470.020508,3.4375 467.968644,5.51804688 467.968644,8.07554688 C467.968644,10.6330469 470.020339,12.7135938 472.542373,12.7135938 C475.064407,12.7135938 477.116102,10.6330469 477.116102,8.07554688 C477.116102,5.51804688 475.064237,3.4375 472.542373,3.4375 Z M472.542373,16.1510938 C468.151356,16.1510938 464.578814,12.5284844 464.578814,8.07554688 C464.578814,3.62260938 468.151186,5.09814413e-13 472.542373,5.09814413e-13 C476.933559,5.09814413e-13 480.505932,3.62260938 480.505932,8.07554688 C480.505932,12.5284844 476.933559,16.1510938 472.542373,16.1510938 Z M496.156949,6.30076563 C495.220847,6.30076563 494.462034,5.53128125 494.462034,4.58201563 C494.462034,3.63275 495.220847,2.86326563 496.156949,2.86326563 L497.118644,2.86326563 L497.118644,1.88804688 C497.118644,0.93878125 497.877458,0.169296875 498.813559,0.169296875 C499.749661,0.169296875 500.508475,0.93878125 500.508475,1.88804688 L500.508475,2.86326563 L501.470169,2.86326563 C502.406271,2.86326563 503.165085,3.63275 503.165085,4.58201563 C503.165085,5.53128125 502.406271,6.30076563 501.470169,6.30076563 L500.508475,6.30076563 L500.508475,7.27615625 C500.508475,8.22542188 499.749661,8.99490625 498.813559,8.99490625 C497.877458,8.99490625 497.118644,8.22542188 497.118644,7.27615625 L497.118644,6.30076563 L496.156949,6.30076563 Z M465.367288,18.5195313 C465.367288,17.5704375 466.126102,16.8007813 467.062203,16.8007813 C467.998305,16.8007813 468.757119,17.5702656 468.757119,18.5195313 L468.757119,25.4804688 C468.757119,26.4297344 467.998305,27.1992188 467.062203,27.1992188 C466.126102,27.1992188 465.367288,26.4297344 465.367288,25.4804688 L465.367288,18.5195313 Z M491.538983,62.0589063 C491.538983,61.606875 491.718644,61.1634375 492.033898,60.8439219 C492.350847,60.5240625 492.786441,60.3401563 493.232203,60.3401563 C493.679661,60.3401563 494.115254,60.5242344 494.432203,60.8439219 C494.747458,61.1634375 494.928814,61.606875 494.928814,62.0589063 C494.928814,62.5111094 494.747458,62.9545469 494.432203,63.2740625 C494.115254,63.5954688 493.679661,63.7776563 493.232203,63.7776563 C492.786441,63.7776563 492.350847,63.5954688 492.033898,63.2740625 C491.718644,62.9545469 491.538983,62.5111094 491.538983,62.0589063 Z M451.243051,44.6875 C452.179153,44.6875 452.937966,45.4571562 452.937966,46.40625 L452.937966,60.5572344 C452.937966,61.5063281 452.179153,62.2759844 451.243051,62.2759844 C450.306949,62.2759844 449.548136,61.5063281 449.548136,60.5572344 L449.548136,46.40625 C449.548136,45.4571562 450.306949,44.6875 451.243051,44.6875 Z M451.242373,64.769375 C451.689831,64.769375 452.125424,64.9534531 452.440678,65.2729688 C452.757627,65.5926563 452.937288,66.0360938 452.937288,66.488125 C452.937288,66.9401563 452.757627,67.3835938 452.440678,67.7032813 C452.125424,68.0229688 451.689831,68.206875 451.242373,68.206875 C450.79661,68.206875 450.359322,68.0227969 450.044068,67.7032813 C449.728814,67.3835938 449.547458,66.9401563 449.547458,66.488125 C449.547458,66.0360938 449.728814,65.5926563 450.044068,65.2729688 C450.359322,64.9532813 450.79661,64.769375 451.242373,64.769375 Z" id="path-2"></path>
        <filter x="-30.0%" y="-27.3%" width="160.0%" height="154.5%" filterUnits="objectBoundingBox" id="filter-3">
            <feOffset dx="0" dy="0" in="SourceAlpha" result="shadowOffsetOuter1"></feOffset>
            <feGaussianBlur stdDeviation="8" in="shadowOffsetOuter1" result="shadowBlurOuter1"></feGaussianBlur>
            <feColorMatrix values="0 0 0 0 0.996078431   0 0 0 0 0.811764706   0 0 0 0 0.0588235294  0 0 0 1 0" type="matrix" in="shadowBlurOuter1"></feColorMatrix>
        </filter>
    </defs>
    <g id="*Hard-Launch-Version" stroke="none" stroke-width="1" fill="none" fill-rule="evenodd">
        <g id="Invite-friends-(NEW)---benefits" transform="translate(-664.000000, -2695.000000)" fill-rule="nonzero">
            <g id="Group-19" transform="translate(240.000000, 2710.000000)">
                <g id="coinbackgraphic">
                    <use fill="black" fill-opacity="1" filter="url(#filter-3)" xlink:href="#path-2"></use>
                    <use fill="url(#radialGradient-1)" xlink:href="#path-2"></use>
                </g>
            </g>
        </g>
    </g>
</svg>