<?xml version="1.0" encoding="UTF-8"?>
<svg width="79px" height="79px" viewBox="0 0 79 79" version="1.1" xmlns="http://www.w3.org/2000/svg" xmlns:xlink="http://www.w3.org/1999/xlink">
    <!-- Generator: sketchtool 53.2 (72643) - https://sketchapp.com -->
    <title>A5528A35-1B6B-4167-8FEB-05D85E865B4A</title>
    <desc>Created with sketchtool.</desc>
    <g id="Page-1" stroke="none" stroke-width="1" fill="none" fill-rule="evenodd">
        <g id="Main-Page-" transform="translate(-762.000000, -901.000000)" fill="#FFFFFF" fill-rule="nonzero">
            <g id="LoteoMaxx-Panel" transform="translate(732.000000, 855.000000)">
                <g id="Group-31">
                    <path d="M50.2466431,79.4573629 C49.8410111,79.4573629 49.4432145,79.2922157 49.155716,79.0053177 C48.8688201,78.7178171 48.7036743,78.3200174 48.7036743,77.9143823 C48.7036743,77.5081444 48.8688201,77.1103448 49.155716,76.8234468 C49.4432145,76.5365489 49.8392029,76.3714018 50.2466431,76.3714018 C50.6528777,76.3714018 51.0506745,76.5365489 51.3375701,76.8234468 C51.624466,77.1103448 51.7896118,77.5081444 51.7896118,77.9143823 C51.7896118,78.3200174 51.624466,78.7178171 51.3375701,79.0053177 C51.0506745,79.2922157 50.6528777,79.4573629 50.2466431,79.4573629 Z M72.3496704,77.414119 C72.6365662,77.701017 72.8005066,78.0994193 72.8005066,78.5050544 C72.8005066,78.9124979 72.6365662,79.309092 72.3496704,79.5959899 C72.0615691,79.8828879 71.664978,80.0480349 71.2575378,80.0480349 C70.8519059,80.0480349 70.4535065,79.8828879 70.1666106,79.5959899 C69.879715,79.309092 69.7145691,78.9106896 69.7145691,78.5050544 C69.7145691,78.0994193 69.879715,77.701017 70.1666106,77.414119 C70.4535065,77.1272211 70.8519059,76.9620739 71.2575378,76.9620739 C71.664978,76.9620739 72.0615691,77.1272211 72.3496704,77.414119 Z M76.659134,74.6476031 C76.2522965,74.6476031 75.8538972,74.4824561 75.5670013,74.1955581 C75.2801057,73.9086602 75.1149597,73.5102578 75.1149597,73.1046226 C75.1149597,72.6989875 75.2801057,72.3005852 75.5670013,72.0136872 C75.8538972,71.7267893 76.2522965,71.5616421 76.659134,71.5616421 C77.0653687,71.5616421 77.4631653,71.7267893 77.750061,72.0136872 C78.0369568,72.3005852 78.2008972,72.6989875 78.2008972,73.1046226 C78.2008972,73.5102578 78.0369568,73.9086602 77.750061,74.1955581 C77.4631653,74.4824561 77.0653687,74.6476031 76.659134,74.6476031 Z M104.371094,83.9567181 C106.923622,83.9567181 109,86.0331118 109,88.5856597 L109,98.306437 C109,99.1580899 108.30928,99.8494175 107.457031,99.8494175 C104.904503,99.8494175 102.828125,101.925811 102.828125,104.478359 C102.828125,107.030304 104.904503,109.107301 107.457031,109.107301 C108.30928,109.107301 109,109.798025 109,110.650281 L109,120.371058 C109,122.923003 106.923622,125 104.371094,125 L34.6289063,125 C32.0763778,125 30,122.923003 30,120.371058 L30,110.650281 C30,109.798025 30.6907195,109.107301 31.5429688,109.107301 C34.0954972,109.107301 36.171875,107.030304 36.171875,104.478359 C36.171875,101.925811 34.0954972,99.8494175 31.5429688,99.8494175 C30.6907195,99.8494175 30,99.1580899 30,98.306437 L30,88.5856597 C30,86.0331118 32.0763778,83.9567181 34.6289063,83.9567181 L53.1505584,83.9567181 L76.1130676,60.9940337 C76.7157898,60.391307 77.6928024,60.391307 78.2955246,60.9940337 L94.0066833,76.7053124 C94.6088028,77.3074365 94.6088028,78.2844565 94.0066833,78.8871833 L88.9371872,83.9567181 L95.7015381,83.9567181 L105.462624,74.1955581 C106.06414,73.5940369 106.06414,72.6152086 105.462624,72.0136872 L99.5716171,66.1226357 C98.3197632,66.953796 96.8521347,67.3998138 95.3157959,67.3998138 C93.2550888,67.3998138 91.3179398,66.5969817 89.8605575,65.1401912 C88.4031754,63.6827978 87.6009521,61.745634 87.6009521,59.6849112 C87.6009521,58.1485607 88.0469666,56.6803183 88.8781205,55.4290575 L82.9865112,49.5380062 C82.6953964,49.2462863 82.307846,49.085961 81.8955842,49.085961 C81.4833221,49.085961 81.0963745,49.2462863 80.804657,49.5380062 L55.320961,75.0218966 C54.7182389,75.6246233 53.7412263,75.6246233 53.1385041,75.0218966 C52.5357819,74.4191698 52.5357819,73.4421496 53.1385041,72.8400257 L78.6228027,47.3561351 C79.4967498,46.4815787 80.659401,46 81.8955842,46 C83.1323699,46 84.2944183,46.4815787 85.1689682,47.3561351 L92.0424118,54.2296313 C92.3317184,54.5189402 92.4944535,54.9113152 92.4944535,55.3205667 C92.4944535,55.7298182 92.3317184,56.1221932 92.0424118,56.4115021 C91.1684647,57.2860587 90.6868896,58.4481159 90.6868896,59.6849112 C90.6868896,60.9211038 91.167862,62.0837637 92.0424118,62.9577176 C92.9169617,63.832274 94.07901,64.3138527 95.3157959,64.3138527 C96.5519791,64.3138527 97.7146301,63.832274 98.5885773,62.9577176 C99.1912995,62.3555935 100.168312,62.3555935 100.770431,62.9577176 L107.644478,69.8318163 C108.518425,70.7057702 109,71.8684301 109,73.1046226 C109,74.3408152 108.518425,75.5034753 107.644478,76.3780317 L100.065849,83.9567181 L104.371094,83.9567181 Z M77.2039948,64.2668401 L57.5148697,83.9561154 L74.0987702,83.9561154 L80.804657,77.2507801 C81.4073792,76.6480533 82.3843917,76.6480533 82.9865112,77.2507801 C83.5892334,77.8535068 83.5892334,78.830527 82.9865112,79.432651 L78.4630814,83.9567181 L84.572876,83.9567181 L90.7332992,77.7962477 L77.2039948,64.2668401 Z M105.914062,96.9183572 L105.914062,88.5856597 C105.914062,87.7346095 105.222137,87.0426792 104.371094,87.0426792 L34.6289063,87.0426792 C33.7778625,87.0426792 33.0859375,87.7346095 33.0859375,88.5856597 L33.0859375,96.9183572 C36.6028214,97.6356021 39.2578125,100.752302 39.2578125,104.478359 C39.2578125,108.203813 36.6028214,111.321116 33.0859375,112.038361 L33.0859375,120.371058 C33.0859375,121.221506 33.7778625,121.914039 34.6289063,121.914039 L104.371094,121.914039 C105.222137,121.914039 105.914062,121.221506 105.914062,120.371058 L105.914062,112.038361 C102.397179,111.321116 99.7421875,108.203813 99.7421875,104.478359 C99.7421875,100.752302 102.397179,97.6349993 105.914062,96.9183572 Z M62.9532317,101.866141 C62.6663361,102.153039 62.2679367,102.318186 61.8623047,102.318186 C61.4566727,102.318186 61.0582732,102.153039 60.7713776,101.866141 C60.4844817,101.578641 60.3193359,101.180841 60.3193359,100.775206 C60.3193359,100.368968 60.4844817,99.9711682 60.7713776,99.6842703 C61.0582732,99.3973724 61.4566727,99.2322253 61.8623047,99.2322253 C62.2679367,99.2322253 62.6663361,99.3973724 62.9532317,99.6842703 C63.2401276,99.9711682 63.4052734,100.368968 63.4052734,100.775206 C63.4052734,101.180841 63.2401276,101.578641 62.9532317,101.866141 Z M78.2286224,101.866141 C77.9417268,102.153039 77.5433273,102.318186 77.1376953,102.318186 C76.7320633,102.318186 76.3336639,102.153039 76.0467683,101.866141 C75.7598724,101.578641 75.5947266,101.180841 75.5947266,100.775206 C75.5947266,100.368968 75.7598724,99.9711682 76.0467683,99.6842703 C76.3336639,99.3973724 76.7320633,99.2322253 77.1376953,99.2322253 C77.5433273,99.2322253 77.9417268,99.3973724 78.2286224,99.6842703 C78.5155183,99.9711682 78.6806641,100.368968 78.6806641,100.775206 C78.6806641,101.180841 78.5155183,101.578641 78.2286224,101.866141 Z M70.590927,101.866141 C70.3040314,102.153039 69.905632,102.318186 69.5,102.318186 C69.094368,102.318186 68.6959686,102.153039 68.409073,101.866141 C68.122177,101.578641 67.9570312,101.180841 67.9570312,100.775206 C67.9570312,100.368968 68.122177,99.9711682 68.409073,99.6842703 C68.6959686,99.3973724 69.094368,99.2322253 69.5,99.2322253 C69.905632,99.2322253 70.3040314,99.3973724 70.590927,99.6842703 C70.877823,99.9711682 71.0429688,100.368968 71.0429688,100.775206 C71.0429688,101.180841 70.877823,101.578641 70.590927,101.866141 Z M54.2246094,102.318186 C53.8189774,102.318186 53.4205779,102.153039 53.1336823,101.866141 C52.8467864,101.578641 52.6816406,101.180841 52.6816406,100.775206 C52.6816406,100.368968 52.8467864,99.9711682 53.1336823,99.6842703 C53.4205779,99.3973724 53.8189774,99.2322253 54.2246094,99.2322253 C54.6302414,99.2322253 55.0286408,99.3973724 55.3155364,99.6842703 C55.6024323,99.9711682 55.7675781,100.368968 55.7675781,100.775206 C55.7675781,101.180841 55.6024323,101.578641 55.3155364,101.866141 C55.0286408,102.153039 54.6302414,102.318186 54.2246094,102.318186 Z M85.8663177,101.866141 C85.5794221,102.153039 85.1810226,102.318186 84.7753906,102.318186 C84.3697586,102.318186 83.9713592,102.153039 83.6844636,101.866141 C83.3975677,101.578641 83.2324219,101.180841 83.2324219,100.775206 C83.2324219,100.368968 83.3975677,99.9711682 83.6844636,99.6842703 C83.9713592,99.3973724 84.3697586,99.2322253 84.7753906,99.2322253 C85.1810226,99.2322253 85.5794221,99.3973724 85.8663177,99.6842703 C86.1532136,99.9711682 86.3183594,100.368968 86.3183594,100.775206 C86.3183594,101.180841 86.1532136,101.578641 85.8663177,101.866141 Z M54.2246094,109.724493 C53.3723602,109.724493 52.6816406,109.033165 52.6816406,108.181512 C52.6816406,107.329257 53.3723602,106.638532 54.2246094,106.638532 L84.7753906,106.638532 C85.6276398,106.638532 86.3183594,107.329257 86.3183594,108.181512 C86.3183594,109.033165 85.6276398,109.724493 84.7753906,109.724493 L54.2246094,109.724493 Z M59.82872,114.044838 C60.2361604,114.044838 60.6327515,114.209985 60.9196472,114.496883 C61.2083512,114.783781 61.3716888,115.181581 61.3716888,115.587819 C61.3716888,115.993454 61.2083512,116.391254 60.9196472,116.678754 C60.6327515,116.965652 60.2361604,117.130799 59.82872,117.130799 C59.423088,117.130799 59.0246887,116.965652 58.737793,116.678754 C58.4508972,116.391254 58.2857513,115.993454 58.2857513,115.587819 C58.2857513,115.181581 58.4508972,114.783781 58.737793,114.496883 C59.0246887,114.209985 59.423088,114.044838 59.82872,114.044838 Z M92.953125,91.8259188 C93.8053742,91.8259188 94.4960938,92.5166436 94.4960938,93.3688993 L94.4960938,115.587819 C94.4960938,116.439472 93.8053742,117.130799 92.953125,117.130799 L66.3610229,117.130799 C65.5087737,117.130799 64.8180542,116.439472 64.8180542,115.587819 C64.8180542,114.735563 65.5087737,114.044838 66.3610229,114.044838 L91.4101563,114.044838 L91.4101563,94.9118798 L47.5898438,94.9118798 L47.5898438,114.044838 L52.4743042,114.044838 C53.3265534,114.044838 54.0172729,114.735563 54.0172729,115.587819 C54.0172729,116.439472 53.3265534,117.130799 52.4743042,117.130799 L46.046875,117.130799 C45.1946258,117.130799 44.5039062,116.439472 44.5039062,115.587819 L44.5039062,93.3688993 C44.5039062,92.5166436 45.1946258,91.8259188 46.046875,91.8259188 L92.953125,91.8259188 Z" id="loteomaxx-graphic"></path>
                </g>
            </g>
        </g>
    </g>
</svg>