<?xml version="1.0" encoding="UTF-8"?>
<svg width="83px" height="72px" viewBox="0 0 83 72" version="1.1" xmlns="http://www.w3.org/2000/svg" xmlns:xlink="http://www.w3.org/1999/xlink">
    <!-- Generator: sketchtool 53.2 (72643) - https://sketchapp.com -->
    <title>3FA96CFC-2DFE-4536-AB47-02FD77524768</title>
    <desc>Created with sketchtool.</desc>
    <g id="Page-1" stroke="none" stroke-width="1" fill="none" fill-rule="evenodd">
        <g id="Main-Page-" transform="translate(-154.000000, -902.000000)" fill="#FFFFFF">
            <g id="LoteoPass-Panel" transform="translate(120.000000, 855.000000)">
                <g id="Group-31-Copy-3">
                    <path d="M77.2845,102.786154 C77.8101667,102.273846 78.737,102.287692 79.2488333,102.786154 C79.4978333,103.047846 79.65,103.409231 79.65,103.769231 C79.65,104.129231 79.4978333,104.489231 79.2488333,104.752308 C78.986,105.001538 78.6263333,105.153846 78.2666667,105.153846 C77.907,105.153846 77.54595,105.001538 77.2845,104.752308 C77.0216667,104.489231 76.8833333,104.129231 76.8833333,103.769231 C76.8833333,103.409231 77.0341167,103.047846 77.2845,102.786154 Z M47.8333333,81.6403077 C47.06835,81.6403077 46.45,81.0213846 46.45,80.2556923 C46.45,79.49 47.06835,78.8710769 47.8333333,78.8710769 L75.5,78.8710769 C76.2649833,78.8710769 76.8833333,79.49 76.8833333,80.2556923 C76.8833333,81.0213846 76.2649833,81.6403077 75.5,81.6403077 L47.8333333,81.6403077 Z M49.2166667,102.409538 C49.98165,102.409538 50.6,103.028462 50.6,103.794154 C50.6,104.559846 49.98165,105.178769 49.2166667,105.178769 L47.8333333,105.178769 C47.06835,105.178769 46.45,104.559846 46.45,103.794154 C46.45,103.028462 47.06835,102.409538 47.8333333,102.409538 L49.2166667,102.409538 Z M57.5166667,102.409538 C58.28165,102.409538 58.9,103.028462 58.9,103.794154 C58.9,104.559846 58.28165,105.178769 57.5166667,105.178769 L54.75,105.178769 C53.9850167,105.178769 53.3666667,104.559846 53.3666667,103.794154 C53.3666667,103.028462 53.9850167,102.409538 54.75,102.409538 L57.5166667,102.409538 Z M64.4333333,102.409538 C65.1983167,102.409538 65.8166667,103.028462 65.8166667,103.794154 C65.8166667,104.559846 65.1983167,105.178769 64.4333333,105.178769 L63.05,105.178769 C62.2850167,105.178769 61.6666667,104.559846 61.6666667,103.794154 C61.6666667,103.028462 62.2850167,102.409538 63.05,102.409538 L64.4333333,102.409538 Z M72.7333333,102.409538 C73.4983167,102.409538 74.1166667,103.028462 74.1166667,103.794154 C74.1166667,104.559846 73.4983167,105.178769 72.7333333,105.178769 L69.9666667,105.178769 C69.2016833,105.178769 68.5833333,104.559846 68.5833333,103.794154 C68.5833333,103.028462 69.2016833,102.409538 69.9666667,102.409538 L72.7333333,102.409538 Z M93.8991216,102.384615 C94.6641049,102.384615 95.2824549,103.003538 95.2824549,103.769231 C95.2824549,104.534923 94.6641049,105.153846 93.8991216,105.153846 L83.8,105.153846 C83.0350167,105.153846 82.4166667,104.534923 82.4166667,103.769231 C82.4166667,103.003538 83.0350167,102.384615 83.8,102.384615 L93.8991216,102.384615 Z M102.929479,87.1787692 C103.694462,87.1787692 104.312812,87.7976923 104.312812,88.5633846 C104.312812,89.3290769 103.694462,89.948 102.929479,89.948 L47.8333333,89.948 C47.06835,89.948 46.45,89.3290769 46.45,88.5633846 C46.45,87.7976923 47.06835,87.1787692 47.8333333,87.1787692 L102.929479,87.1787692 Z M102.929479,95.5113846 C103.694462,95.5113846 104.312812,96.1303077 104.312812,96.896 C104.312812,97.6616923 103.694462,98.2806154 102.929479,98.2806154 L47.8333333,98.2806154 C47.06835,98.2806154 46.45,97.6616923 46.45,96.896 C46.45,96.1303077 47.06835,95.5113846 47.8333333,95.5113846 L102.929479,95.5113846 Z M110.528767,60.8461538 C114.096383,60.8461538 117,63.7524615 117,67.3233846 L117,112.522769 C117,116.093692 114.096383,119 110.53015,119 L40.4712333,119 C36.9036167,119 34,116.093692 34,112.524154 L34,67.3233846 C34,63.7524615 36.9036167,60.8461538 40.4712333,60.8461538 L65.8166667,60.8461538 L65.8166667,50.2026154 C65.8166667,48.4358462 67.2511833,47 69.0149333,47 L81.9836833,47 C83.7488167,47 85.1833333,48.4358462 85.1833333,50.2026154 L85.1833333,60.8461538 L110.528767,60.8461538 Z M68.5833333,50.2026154 L68.5833333,60.8461538 L68.5833333,68.7218462 C68.5833333,68.9586154 68.7783833,69.1538462 69.0149333,69.1538462 L81.9836833,69.1538462 C82.2216167,69.1538462 82.4166667,68.9586154 82.4166667,68.7218462 L82.4166667,60.8461538 L82.4166667,50.2026154 C82.4166667,49.9644615 82.2216167,49.7692308 81.9836833,49.7692308 L69.0149333,49.7692308 C68.7783833,49.7692308 68.5833333,49.9644615 68.5833333,50.2026154 Z M114.233333,112.522769 L114.233333,67.3233846 C114.233333,65.2783077 112.57195,63.6153846 110.528767,63.6153846 L85.1833333,63.6153846 L85.1833333,68.7218462 C85.1833333,70.4872308 83.7488167,71.9230769 81.9836833,71.9230769 L69.0149333,71.9230769 C67.2511833,71.9230769 65.8166667,70.4872308 65.8166667,68.7218462 L65.8166667,63.6153846 L40.4712333,63.6153846 C38.42805,63.6153846 36.7666667,65.2783077 36.7666667,67.3233846 L36.7666667,112.522769 C36.7666667,114.567846 38.42805,116.230769 40.4712333,116.230769 L110.528767,116.230769 C112.57195,116.230769 114.233333,114.567846 114.233333,112.522769 Z M75.5,62.2307692 C72.4483667,62.2307692 69.9666667,59.7467692 69.9666667,56.6923077 C69.9666667,53.6378462 72.4483667,51.1538462 75.5,51.1538462 C78.5516333,51.1538462 81.0333333,53.6378462 81.0333333,56.6923077 C81.0333333,59.7467692 78.5516333,62.2307692 75.5,62.2307692 Z M75.5,53.9230769 C73.9741833,53.9230769 72.7333333,55.1650769 72.7333333,56.6923077 C72.7333333,58.2195385 73.9741833,59.4615385 75.5,59.4615385 C77.0258167,59.4615385 78.2666667,58.2195385 78.2666667,56.6923077 C78.2666667,55.1650769 77.0258167,53.9230769 75.5,53.9230769 Z" id="loteopass-graphic"></path>
                </g>
            </g>
        </g>
    </g>
</svg>