<?xml version="1.0" encoding="UTF-8"?>
<svg width="42px" height="43px" viewBox="0 0 42 43" version="1.1" xmlns="http://www.w3.org/2000/svg" xmlns:xlink="http://www.w3.org/1999/xlink">
    <!-- Generator: sketchtool 54.1 (76490) - https://sketchapp.com -->
    <title>87A9A476-6B93-4239-81DE-2ADB29ED1C8A</title>
    <desc>Created with sketchtool.</desc>
    <g id="New-affiliate-program-(premium)" stroke="none" stroke-width="1" fill="none" fill-rule="evenodd">
        <g id="Affiliate-program-(NEW)---main-page" transform="translate(-284.000000, -2974.000000)" fill="#FFFFFF">
            <g id="Group-59-Copy" transform="translate(240.000000, 2951.000000)">
                <g id="Group-57" transform="translate(0.000000, 1.000000)">
                    <path d="M82.65625,33 C83.9486695,33 85,34.0623972 85,35.3684211 L85,40.3421053 C85,40.7778577 84.6502686,41.1315789 84.21875,41.1315789 C82.9263305,41.1315789 81.875,42.1939761 81.875,43.5 C81.875,44.8057154 82.9263305,45.8684211 84.21875,45.8684211 C84.6502686,45.8684211 85,46.2218338 85,46.6578947 L85,51.6315789 C85,52.9372944 83.9486695,54 82.65625,54 L47.34375,54 C46.0513305,54 45,52.9372944 45,51.6315789 L45,46.6578947 C45,46.2218338 45.3497314,45.8684211 45.78125,45.8684211 C47.0736695,45.8684211 48.125,44.8057154 48.125,43.5 C48.125,42.1939761 47.0736695,41.1315789 45.78125,41.1315789 C45.3497314,41.1315789 45,40.7778577 45,40.3421053 L45,35.3684211 C45,34.0623972 46.0513305,33 47.34375,33 L56.7218017,33 L74.8416138,33 L78.2666016,33 L80.4763794,33 L82.65625,33 Z M83.4375,39.6318873 L83.4375,35.3684211 C83.4375,34.932977 83.0871582,34.5789474 82.65625,34.5789474 L47.34375,34.5789474 C46.9128418,34.5789474 46.5625,34.932977 46.5625,35.3684211 L46.5625,39.6318873 C48.3432007,39.9988693 49.6875,41.5935444 49.6875,43.5 C49.6875,45.4061472 48.3432007,47.0011307 46.5625,47.3681127 L46.5625,51.6315789 C46.5625,52.0667146 46.9128418,52.4210526 47.34375,52.4210526 L82.65625,52.4210526 C83.0871582,52.4210526 83.4375,52.0667146 83.4375,51.6315789 L83.4375,47.3681127 C81.6567993,47.0011307 80.3125,45.4061472 80.3125,43.5 C80.3125,41.5935444 81.6567993,39.9985608 83.4375,39.6318873 Z M61.6851806,42.1634457 C61.539917,42.3102384 61.3381958,42.3947368 61.1328125,42.3947368 C60.9274292,42.3947368 60.725708,42.3102384 60.5804444,42.1634457 C60.4351806,42.0163446 60.3515625,41.8128084 60.3515625,41.6052632 C60.3515625,41.3974095 60.4351806,41.1938733 60.5804444,41.0470806 C60.725708,40.9002878 60.9274292,40.8157895 61.1328125,40.8157895 C61.3381958,40.8157895 61.539917,40.9002878 61.6851806,41.0470806 C61.8304444,41.1938733 61.9140625,41.3974095 61.9140625,41.6052632 C61.9140625,41.8128084 61.8304444,42.0163446 61.6851806,42.1634457 Z M69.4195556,42.1634457 C69.274292,42.3102384 69.0725708,42.3947368 68.8671875,42.3947368 C68.6618042,42.3947368 68.460083,42.3102384 68.3148194,42.1634457 C68.1695556,42.0163446 68.0859375,41.8128084 68.0859375,41.6052632 C68.0859375,41.3974095 68.1695556,41.1938733 68.3148194,41.0470806 C68.460083,40.9002878 68.6618042,40.8157895 68.8671875,40.8157895 C69.0725708,40.8157895 69.274292,40.9002878 69.4195556,41.0470806 C69.5648194,41.1938733 69.6484375,41.3974095 69.6484375,41.6052632 C69.6484375,41.8128084 69.5648194,42.0163446 69.4195556,42.1634457 Z M65.5523681,42.1634457 C65.4071045,42.3102384 65.2053833,42.3947368 65,42.3947368 C64.7946167,42.3947368 64.5928955,42.3102384 64.4476319,42.1634457 C64.3023681,42.0163446 64.21875,41.8128084 64.21875,41.6052632 C64.21875,41.3974095 64.3023681,41.1938733 64.4476319,41.0470806 C64.5928955,40.9002878 64.7946167,40.8157895 65,40.8157895 C65.2053833,40.8157895 65.4071045,40.9002878 65.5523681,41.0470806 C65.6976319,41.1938733 65.78125,41.3974095 65.78125,41.6052632 C65.78125,41.8128084 65.6976319,42.0163446 65.5523681,42.1634457 Z M57.265625,42.3947368 C57.0602417,42.3947368 56.8585205,42.3102384 56.7132569,42.1634457 C56.5679931,42.0163446 56.484375,41.8128084 56.484375,41.6052632 C56.484375,41.3974095 56.5679931,41.1938733 56.7132569,41.0470806 C56.8585205,40.9002878 57.0602417,40.8157895 57.265625,40.8157895 C57.4710083,40.8157895 57.6727295,40.9002878 57.8179931,41.0470806 C57.9632569,41.1938733 58.046875,41.3974095 58.046875,41.6052632 C58.046875,41.8128084 57.9632569,42.0163446 57.8179931,42.1634457 C57.6727295,42.3102384 57.4710083,42.3947368 57.265625,42.3947368 Z M73.2867431,42.1634457 C73.1414795,42.3102384 72.9397583,42.3947368 72.734375,42.3947368 C72.5289917,42.3947368 72.3272705,42.3102384 72.1820069,42.1634457 C72.0367431,42.0163446 71.953125,41.8128084 71.953125,41.6052632 C71.953125,41.3974095 72.0367431,41.1938733 72.1820069,41.0470806 C72.3272705,40.9002878 72.5289917,40.8157895 72.734375,40.8157895 C72.9397583,40.8157895 73.1414795,40.9002878 73.2867431,41.0470806 C73.4320069,41.1938733 73.515625,41.3974095 73.515625,41.6052632 C73.515625,41.8128084 73.4320069,42.0163446 73.2867431,42.1634457 Z M57.265625,46.1842105 C56.8341064,46.1842105 56.484375,45.8304893 56.484375,45.3947368 C56.484375,44.9586759 56.8341064,44.6052632 57.265625,44.6052632 L72.734375,44.6052632 C73.1658936,44.6052632 73.515625,44.9586759 73.515625,45.3947368 C73.515625,45.8304893 73.1658936,46.1842105 72.734375,46.1842105 L57.265625,46.1842105 Z M60.1031494,48.3947368 C60.3094483,48.3947368 60.5102539,48.4792352 60.6555176,48.6260279 C60.8016968,48.7728207 60.8843994,48.9763569 60.8843994,49.1842105 C60.8843994,49.3917557 60.8016968,49.5952919 60.6555176,49.7423931 C60.5102539,49.8891858 60.3094483,49.9736842 60.1031494,49.9736842 C59.8977661,49.9736842 59.6960449,49.8891858 59.5507813,49.7423931 C59.4055176,49.5952919 59.3218994,49.3917557 59.3218994,49.1842105 C59.3218994,48.9763569 59.4055176,48.7728207 59.5507813,48.6260279 C59.6960449,48.4792352 59.8977661,48.3947368 60.1031494,48.3947368 Z M76.875,37.0263158 C77.3065186,37.0263158 77.65625,37.3797286 77.65625,37.8157895 L77.65625,49.1842105 C77.65625,49.619963 77.3065186,49.9736842 76.875,49.9736842 L63.4106445,49.9736842 C62.9791259,49.9736842 62.6293945,49.619963 62.6293945,49.1842105 C62.6293945,48.7481496 62.9791259,48.3947368 63.4106445,48.3947368 L76.09375,48.3947368 L76.09375,38.6052632 L53.90625,38.6052632 L53.90625,48.3947368 L56.3793945,48.3947368 C56.8109131,48.3947368 57.1606445,48.7481496 57.1606445,49.1842105 C57.1606445,49.619963 56.8109131,49.9736842 56.3793945,49.9736842 L53.125,49.9736842 C52.6934814,49.9736842 52.34375,49.619963 52.34375,49.1842105 L52.34375,37.8157895 C52.34375,37.3797286 52.6934814,37.0263158 53.125,37.0263158 L76.875,37.0263158 Z" id="loteomaxx-cardicon-copy" transform="translate(65.000000, 43.500000) rotate(-45.000000) translate(-65.000000, -43.500000) "></path>
                </g>
            </g>
        </g>
    </g>
</svg>