<svg width="46" height="47" viewBox="0 0 46 47" fill="none" xmlns="http://www.w3.org/2000/svg">
<path id="doublechance-graphic" fill-rule="evenodd" clip-rule="evenodd" d="M2.23438 31.518L3.16755 32.6841L21.4397 18.0661L28.2131 21.8294L41.5208 8.52095V11.198C41.5208 12.4328 42.5256 13.4376 43.7604 13.4376C44.9952 13.4376 46 12.4328 46 11.198V0H34.802C33.5672 0 32.5624 1.00484 32.5624 2.23961C32.5624 3.47437 33.5672 4.47921 34.802 4.47921H38.2256L27.2291 15.4764L21.3158 11.7803L0 28.5229L0.922717 29.6972L21.4129 13.6026L27.4441 17.3719L41.8299 2.98614H34.802C34.3899 2.98614 34.0554 2.65095 34.0554 2.23961C34.0554 1.82826 34.3899 1.49307 34.802 1.49307H44.5069V11.198C44.5069 11.6094 44.1725 11.9446 43.7604 11.9446C43.3483 11.9446 43.0139 11.6094 43.0139 11.198V4.91668L27.9533 19.9765L21.2889 16.2745L2.23438 31.518ZM41.5199 26.8752V25.3822H31.0684V26.8752H41.5199ZM29.5754 23.8891V26.8752V28.3683V29.8615V30.6079V32.8475V34.3407V35.8337V37.3268V38.8198V40.3129V41.8059V43.299V46.2852H43.0131V43.299V41.8059V40.3129V38.8198V37.3268V35.8337V34.3407V32.8475V30.6079V29.8615V28.3683V26.8752V23.8891H29.5754ZM31.0685 29.8615V28.3683H41.52V29.8615H40.0269V31.3545H41.52V32.8475H31.0685V31.3545H38.5339V29.8615H31.0685ZM16.1382 32.8475H26.5897V31.3545H16.1382V32.8475ZM14.6445 32.8475V29.8615H28.0822V32.8475V34.3407V35.8337V37.3268V38.8198V40.3129V41.8059V42.5525V46.2852H14.6445V42.5525V41.8059V40.3129V38.8198V37.3268V35.8337V34.3407V32.8475ZM16.1382 34.3407V35.8337H26.5897V34.3407H16.1382ZM16.1382 38.8198H26.5897V37.3268H16.1382V38.8198ZM16.1376 40.3129V41.8059H17.6307V43.299H16.1376V44.7921H26.5891V43.299H19.1237V41.8059H26.5891V40.3129H16.1376ZM31.0684 43.2991V44.7922H41.5199V43.2991H31.0684ZM31.0684 34.3407H41.5199V35.8337H31.0684V34.3407ZM41.5199 40.3129H31.0684V41.8059H41.5199V40.3129ZM41.5199 37.3268V38.8198H31.0684V37.3268H41.5199Z" fill="url(#paint0_linear)"/>
<defs>
<linearGradient id="paint0_linear" x1="46" y1="0" x2="0" y2="0" gradientUnits="userSpaceOnUse">
<stop stop-color="#EF512D"/>
<stop offset="1" stop-color="#DA2814"/>
</linearGradient>
</defs>
</svg>
